g shard_35
v -0.02912745 -0.002764053 0.000469203
v -0.007863984 -0.000880127 0.00339807
v -0.007225408 -0.0288456 0.004128623
v -0.02832517 -0.02393944 -0.003564134
v -0.03039837 -0.007939911 0.006858496
v -0.03039837 -0.02393944 0.006858496
v -0.03039837 -0.02393944 0.006858496
v -0.007863998 -0.02393944 0.0113409
v 0.01467056 -0.02393944 0.006858535
v -0.007863998 -0.02393944 0.0113409
v 0.01936226 -0.02893951 0.01818511
v -0.007863998 -0.007939911 0.0113409
v 0.01467056 -0.007939911 0.006858535
v 0.03377437 -0.02393944 -0.005906243
v 0.03377437 -0.007939911 -0.005906243
v 0.04653921 -0.02393944 -0.02501006
v 0.05786571 -0.02893951 -0.02031844
v -0.03039837 -0.02393944 0.006858496
v -0.007863998 -0.02393944 0.0113409
v -0.03039837 -0.007939911 0.006858496
v -0.007863998 -0.007939911 0.0113409
v -0.03039837 -0.007939911 0.006858496
v -0.007863998 -0.007939911 0.0113409
v -0.03562946 -0.004828949 0.01948715
v -0.007863998 -0.004828949 0.02501007
v 0.01467056 -0.007939911 0.006858535
v -0.03562946 0.02342026 0.01948715
v -0.05916786 0.02342026 0.003759246
v 0.01990147 -0.004828949 0.01948719
v 0.03377437 -0.007939911 -0.005906243
v 0.04343995 -0.004828949 0.003759322
v -0.007863998 0.02342026 0.02501007
v -0.007863998 0.02893951 0.01938264
v 0.01774807 0.02893951 0.01428813
v 0.01990147 0.02342026 0.01948719
v 0.03946075 0.02893951 -0.0002198648
v 0.04343995 0.02342026 0.003759322
v 0.05916785 -0.004828949 -0.0197791
v -0.007863998 -0.02393944 0.0113409
v 0.01856625 -0.03875183 0.01418319
v 0.01936226 -0.02893951 0.01818511
v -0.007225408 -0.0288456 0.004128623
v 0.01132061 -0.0288456 0.00043962
v -0.007863984 -0.000880127 0.00339807
v 0.01936226 -0.02893951 0.01818511
v 0.01467056 -0.02393944 0.006858535
v 0.01163099 -0.000880127 -0.0004797029
v 0.02912611 -0.02884552 -0.01145768
v 0.01467056 -0.02393944 0.006858535
v 0.03377437 -0.02393944 -0.005906243
v 0.02868917 -0.002764053 -0.00985682
v 0.05447309 -0.03875168 -0.0225854
v 0.05786571 -0.02893951 -0.02031844
v 0.04042497 -0.02884552 -0.02909552
v 0.05786571 -0.02893951 -0.02031844
v 0.04653921 -0.02393944 -0.02501006
v 0.04653921 -0.02393944 -0.02501006
v 0.03377437 -0.007939911 -0.005906243
v -0.03562946 -0.004828949 0.01948715
v -0.02912745 -0.002764053 0.000469203
v -0.03039837 -0.007939911 0.006858496
v -0.03244317 0.0003469085 0.01389123
v -0.007863984 -0.000880127 0.00339807
v -0.007863989 0.001424026 0.01641765
v 0.01163099 -0.000880127 -0.0004797029
v 0.0166133 0.001424026 0.01154882
v 0.02868917 -0.002764053 -0.00985682
v 0.03835475 0.0003469085 -0.0001912355
v 0.01486214 0.01966316 0.01194526
v 0.03377437 -0.007939911 -0.005906243
v 0.04343995 -0.004828949 0.003759322
v -0.007863994 0.019478 0.01514156
v -0.03194451 0.01966309 0.01138427
v 0.03607006 0.02342026 -0.003610577
v 0.04343995 0.02342026 0.003759322
v 0.01990147 0.02342026 0.01948719
v 0.05033199 -0.004828949 -0.02568302
v 0.04343995 -0.004828949 0.003759322
v 0.05916785 -0.004828949 -0.0197791
v 0.05916785 -0.004828949 -0.0197791
v 0.04343995 0.02342026 0.003759322
v 0.01492773 0.02142525 0.007479224
v -0.007863994 0.02142517 0.01201278
v 0.03528602 0.02142532 -0.006467843
v 0.01990147 0.02342026 0.01948719
v 0.03946075 0.02893951 -0.0002198648
v 0.03946075 0.02893951 -0.0002198648
v 0.01774807 0.02893951 0.01428813
v -0.007863998 0.02893951 0.01938264
v -0.03562946 0.02342026 0.01948715
v -0.03562946 0.02342026 0.01948715
v -0.05326392 0.02342026 -0.005076623
v -0.05916786 0.02342026 0.003759246
v -0.05916786 0.02342026 0.003759246
v -0.03562946 -0.004828949 0.01948715
vt 0.3953236 0.9805205
vt 0.4203751 0.9805205
vt 0.4203751 0.8925341
vt 0.3953236 0.8925341
vt 0.3953236 0.9805205
vt 0.3953236 0.8925341
vt 0.3953236 0.8925341
vt 0.4203751 0.8925341
vt 0.04460039 0.8925341
vt 0.01954866 0.8925341
vt 0.04460043 0.8650376
vt 0.01954866 0.9805205
vt 0.04460039 0.9805205
vt 0.06965201 0.8925341
vt 0.06965201 0.9805205
vt 0.0947037 0.8925341
vt 0.09470368 0.8650376
vt 0.3953236 0.8925341
vt 0.4203751 0.8925341
vt 0.3953236 0.9805205
vt 0.4203751 0.9805205
vt 0.7876503 0.9940338
vt 0.7369455 0.9951172
vt 0.7857995 0.9816611
vt 0.7399822 0.9829794
vt 0.6896971 0.9766997
vt 0.7786306 0.9526034
vt 0.8098625 0.9388069
vt 0.6971561 0.9666521
vt 0.6531099 0.9415933
vt 0.6638502 0.9351707
vt 0.7444962 0.9533915
vt 0.7461379 0.9443317
vt 0.7176499 0.93331
vt 0.7126635 0.9410504
vt 0.695553 0.9122219
vt 0.6879826 0.9174625
vt 0.6451341 0.8933448
vt 0.01954866 0.8925341
vt 0.04460043 0.8650376
vt 0.04460043 0.8650376
vt 0.01954866 0.8925341
vt 0.04460039 0.8925341
vt 0.01954866 0.9805205
vt 0.04460043 0.8650376
vt 0.04460039 0.8925341
vt 0.04460039 0.9805205
vt 0.06965201 0.8925341
vt 0.04460039 0.8925341
vt 0.06965201 0.8925341
vt 0.06965201 0.9805205
vt 0.09470368 0.8650376
vt 0.09470368 0.8650376
vt 0.0947037 0.8925341
vt 0.09470368 0.8650376
vt 0.0947037 0.8925341
vt 0.0947037 0.8925341
vt 0.06965201 0.9805205
vt 0.7857995 0.9816611
vt 0.7876503 0.9940338
vt 0.7876503 0.9940338
vt 0.7857995 0.9816611
vt 0.7369455 0.9951172
vt 0.7399822 0.9829794
vt 0.6896971 0.9766997
vt 0.6971561 0.9666521
vt 0.6531099 0.9415933
vt 0.6638502 0.9351707
vt 0.7126635 0.9410504
vt 0.6531099 0.9415933
vt 0.6638502 0.9351707
vt 0.7444962 0.9533915
vt 0.7786306 0.9526034
vt 0.6879826 0.9174625
vt 0.6879826 0.9174625
vt 0.7126635 0.9410504
vt 0.6451341 0.8933448
vt 0.6638502 0.9351707
vt 0.6451341 0.8933448
vt 0.6451341 0.8933448
vt 0.6879826 0.9174625
vt 0.7176499 0.93331
vt 0.7461379 0.9443317
vt 0.695553 0.9122219
vt 0.7126635 0.9410504
vt 0.695553 0.9122219
vt 0.695553 0.9122219
vt 0.7176499 0.93331
vt 0.7461379 0.9443317
vt 0.7786306 0.9526034
vt 0.7786306 0.9526034
vt 0.8098625 0.9388069
vt 0.8098625 0.9388069
vt 0.8098625 0.9388069
vt 0.7857995 0.9816611
vn -0.2901086 -0.6521528 0.7003812
vn -4.42737E-07 -0.6521513 0.7580889
vn -4.835316E-07 0.5631666 0.8263434
vn -0.3162293 0.563166 0.7634416
vn 0.9707553 -0.01335427 0.2396997
vn 0.9807851 0 0.1950908
vn 0.1740974 0.9552858 -0.238996
vn 0.1740974 0.9552858 -0.238996
vn -0.3162273 -0.5631664 -0.7634421
vn 4.835316E-07 -0.5631666 -0.8263434
vn -0.3158567 -0.5645857 -0.7625467
vn 4.42737E-07 0.6521513 -0.7580889
vn -0.2901078 0.6521524 -0.7003819
vn -0.5843129 -0.5631652 -0.5843145
vn -0.5360496 0.6521521 -0.5360489
vn -0.7634429 -0.5631649 -0.3162284
vn -0.7625471 -0.564585 -0.3158572
vn 0.3162293 -0.563166 -0.7634416
vn 4.835316E-07 -0.5631666 -0.8263434
vn 0.2901086 0.6521528 -0.7003812
vn 4.42737E-07 0.6521513 -0.7580889
vn 0.2901086 0.6521528 -0.7003812
vn 4.42737E-07 0.6521513 -0.7580889
vn 0.3607599 0.3336179 -0.8709486
vn 5.702915E-07 0.3336173 -0.9427086
vn -0.2901078 0.6521524 -0.7003819
vn 0.3785081 -0.1473354 -0.9137964
vn 0.6993909 -0.1473362 -0.6993886
vn -0.3607585 0.3336179 -0.8709492
vn -0.5360496 0.6521521 -0.5360489
vn -0.6665948 0.3336178 -0.6665962
vn 6.047185E-07 -0.1473348 -0.9890866
vn 1.431965E-07 -0.9849303 -0.1729517
vn -0.06618585 -0.9849303 -0.1597865
vn -0.3785062 -0.1473344 -0.9137974
vn -0.122295 -0.9849304 -0.1222949
vn -0.699389 -0.1473346 -0.6993909
vn -0.8709486 0.333618 -0.3607597
vn 0.3902181 0.5553613 -0.734373
vn 0.3158567 0.5645857 0.7625467
vn 0.390218 0.5553613 -0.734373
vn -4.835316E-07 0.5631666 0.8263434
vn 0.3162273 0.5631664 0.7634421
vn -4.42737E-07 -0.6521513 0.7580889
vn -0.9103365 -0.03551716 0.4123422
vn -0.9103364 -0.03551716 0.4123423
vn 0.2901078 -0.6521524 0.7003819
vn 0.5843129 0.5631652 0.5843145
vn -0.3128973 0.8263245 -0.4682767
vn -0.2775408 0.6795217 -0.6791329
vn 0.5360496 -0.6521521 0.5360489
vn 0.7625471 0.564585 0.3158572
vn -0.2433554 0.5553675 -0.7952013
vn 0.7634429 0.5631649 0.3162284
vn -0.4479375 -0.09439344 0.889068
vn -0.4479375 -0.09439345 0.889068
vn -0.4080004 -0.7332148 0.543996
vn -0.4080003 -0.7332148 0.543996
vn 0.9467999 -0.03761957 0.3196166
vn -0.2901086 -0.6521528 0.7003812
vn 0.9707553 -0.01335427 0.2396997
vn -0.3607599 -0.3336179 0.8709486
vn -4.42737E-07 -0.6521513 0.7580889
vn -5.702915E-07 -0.3336173 0.9427086
vn 0.2901078 -0.6521524 0.7003819
vn 0.3607585 -0.3336179 0.8709492
vn 0.5360496 -0.6521521 0.5360489
vn 0.6665948 -0.3336178 0.6665962
vn 0.3785062 0.1473344 0.9137974
vn -0.6823976 -0.1200906 0.721049
vn -0.6823976 -0.1200906 0.721049
vn -6.047185E-07 0.1473348 0.9890866
vn -0.3785081 0.1473354 0.9137964
vn 0.699389 0.1473346 0.6993909
vn 0.1612257 -0.9804435 0.1128574
vn 0.1612257 -0.9804435 0.1128573
vn 0.8709486 -0.333618 0.3607597
vn 0.3031013 0.9503134 0.07094981
vn 0.3031014 0.9503134 0.07094981
vn -0.4569085 -0.6928644 0.5578293
vn -0.4569085 -0.6928644 0.5578293
vn 0.06618585 0.9849303 0.1597865
vn -1.431965E-07 0.9849303 0.1729517
vn 0.122295 0.9849304 0.1222949
vn -0.4754838 0.8096503 -0.3440661
vn -0.4754838 0.8096503 -0.3440662
vn 0.4000512 -0.7000867 0.5914706
vn 0.2755788 -0.7038666 0.6546971
vn 0.12331 -0.7442094 0.6564655
vn 0.105108 -0.7917165 0.6017784
vn -0.1689706 -0.9781278 0.1213054
vn -0.6993909 0.1473362 0.6993886
vn -0.1689706 -0.9781278 0.1213054
vn 0.4287625 0.7302037 0.5319448
vn 0.4287625 0.7302037 0.5319448
g shard_35_0
f 3/3/3 2/2/2 1/1/1
f 3/3/3 1/1/1 4/4/4
f 4/4/4 1/1/1 5/5/5
f 6/6/6 4/4/4 5/5/5
f 3/3/3 4/4/4 7/7/7
f 8/8/8 3/3/3 7/7/7
f 11/11/11 10/10/10 9/9/9
f 12/12/12 9/9/9 10/10/10
f 13/13/13 9/9/9 12/12/12
f 13/13/13 14/14/14 9/9/9
f 15/15/15 14/14/14 13/13/13
f 15/15/15 16/16/16 14/14/14
f 17/17/17 14/14/14 16/16/16
f 20/20/20 19/19/19 18/18/18
f 21/21/21 19/19/19 20/20/20
f 24/24/24 23/23/23 22/22/22
f 25/25/25 23/23/23 24/24/24
f 25/25/25 26/26/26 23/23/23
f 27/27/27 25/25/25 24/24/24
f 27/27/27 24/24/24 28/28/28
f 29/29/29 26/26/26 25/25/25
f 29/29/29 30/30/30 26/26/26
f 31/31/31 30/30/30 29/29/29
f 32/32/32 25/25/25 27/27/27
f 32/32/32 29/29/29 25/25/25
f 32/32/32 27/27/27 33/33/33
f 34/34/34 32/32/32 33/33/33
f 35/35/35 29/29/29 32/32/32
f 35/35/35 32/32/32 34/34/34
f 35/35/35 31/31/31 29/29/29
f 36/36/36 35/35/35 34/34/34
f 37/37/37 31/31/31 35/35/35
f 37/37/37 38/38/38 31/31/31
f 41/41/41 40/40/40 39/39/39
f 40/40/40 42/42/42 39/39/39
f 42/42/42 40/40/40 43/43/43
f 43/43/43 44/44/44 42/42/42
f 43/43/43 40/40/40 45/45/45
f 46/46/46 43/43/43 45/45/45
f 43/43/43 47/47/47 44/44/44
f 48/48/48 47/47/47 43/43/43
f 48/48/48 43/43/43 49/49/49
f 50/50/50 48/48/48 49/49/49
f 48/48/48 51/51/51 47/47/47
f 52/52/52 48/48/48 50/50/50
f 53/53/53 52/52/52 50/50/50
f 48/48/48 52/52/52 54/54/54
f 54/54/54 51/51/51 48/48/48
f 54/54/54 52/52/52 55/55/55
f 56/56/56 54/54/54 55/55/55
f 51/51/51 54/54/54 57/57/57
f 58/58/58 51/51/51 57/57/57
f 61/61/61 60/60/60 59/59/59
f 60/60/60 62/62/62 59/59/59
f 63/63/63 62/62/62 60/60/60
f 63/63/63 64/64/64 62/62/62
f 65/65/65 64/64/64 63/63/63
f 65/65/65 66/66/66 64/64/64
f 67/67/67 66/66/66 65/65/65
f 67/67/67 68/68/68 66/66/66
f 68/68/68 69/69/69 66/66/66
f 68/68/68 67/67/67 70/70/70
f 71/71/71 68/68/68 70/70/70
f 66/66/66 72/72/72 64/64/64
f 66/66/66 69/69/69 72/72/72
f 64/64/64 73/73/73 62/62/62
f 64/64/64 72/72/72 73/73/73
f 68/68/68 74/74/74 69/69/69
f 69/69/69 74/74/74 75/75/75
f 76/76/76 69/69/69 75/75/75
f 77/77/77 74/74/74 68/68/68
f 77/77/77 68/68/68 78/78/78
f 79/79/79 77/77/77 78/78/78
f 74/74/74 77/77/77 80/80/80
f 81/81/81 74/74/74 80/80/80
f 72/72/72 69/69/69 82/82/82
f 73/73/73 72/72/72 83/83/83
f 72/72/72 82/82/82 83/83/83
f 69/69/69 84/84/84 82/82/82
f 84/84/84 69/69/69 85/85/85
f 86/86/86 84/84/84 85/85/85
f 82/82/82 84/84/84 87/87/87
f 88/88/88 82/82/82 87/87/87
f 83/83/83 82/82/82 88/88/88
f 89/89/89 83/83/83 88/88/88
f 73/73/73 83/83/83 89/89/89
f 90/90/90 73/73/73 89/89/89
f 92/92/92 73/73/73 91/91/91
f 93/93/93 92/92/92 91/91/91
f 62/62/62 73/73/73 92/92/92
f 62/62/62 92/92/92 94/94/94
f 95/95/95 62/62/62 94/94/94
