g shard_3
v -0.02012143 -0.06099707 0.005602105
v -0.0429629 -0.06099707 0.04051476
v -0.0429629 -0.1386297 0.04051476
v -0.01997704 0.01663554 0.00574651
v -0.0429629 0.01663554 0.04051476
v 0.0128759 0.01663554 -0.01644595
v -0.02012143 0.0831778 0.005602105
v 0.01295404 0.0831778 -0.01625731
v 0.05387196 0.0831778 -0.0241882
v 0.0128759 0.1386297 -0.01644595
v 0.05387196 0.1386297 -0.0241882
v -0.02749133 -0.06099707 -0.001767795
v -0.05179877 -0.1386297 0.03461083
v -0.05179877 -0.06099707 0.03461083
v -0.02749133 0.01663554 -0.001767795
v -0.05179877 0.01663554 0.03461083
v 0.008887338 0.01663554 -0.0260752
v -0.02749133 0.0831778 -0.001767795
v 0.008887338 0.0831778 -0.0260752
v 0.05179877 0.0831778 -0.03461083
v 0.008887338 0.1386297 -0.0260752
v 0.05179877 0.1386297 -0.03461083
v 0.05179877 0.1386297 -0.03461083
v 0.05387196 0.1386297 -0.0241882
v 0.05387196 0.0831778 -0.0241882
v 0.05179877 0.0831778 -0.03461083
v 0.008887338 0.1386297 -0.0260752
v 0.0128759 0.1386297 -0.01644595
v 0.05387196 0.1386297 -0.0241882
v 0.05179877 0.1386297 -0.03461083
v -0.02749133 0.0831778 -0.001767795
v 0.0128759 0.1386297 -0.01644595
v 0.008887338 0.1386297 -0.0260752
v -0.02012143 0.0831778 0.005602105
v -0.05179877 0.01663554 0.03461083
v -0.0429629 0.01663554 0.04051476
v 0.05179877 0.0831778 -0.03461083
v 0.05387196 0.0831778 -0.0241882
v 0.0128759 0.01663554 -0.01644595
v 0.008887338 0.01663554 -0.0260752
v -0.02012143 -0.06099707 0.005602105
v -0.02749133 -0.06099707 -0.001767795
v -0.0429629 -0.1386297 0.04051476
v -0.05179877 -0.1386297 0.03461083
v -0.05179877 -0.1386297 0.03461083
v -0.0429629 -0.06099707 0.04051476
v -0.05179877 -0.06099707 0.03461083
v -0.0429629 0.01663554 0.04051476
v -0.05179877 0.01663554 0.03461083
vt 0.5296462 0.09892038
vt 0.5821225 0.09892038
vt 0.5821225 0.004882813
vt 0.5296462 0.1929579
vt 0.5821225 0.1929579
vt 0.4771698 0.1929579
vt 0.5296462 0.2735616
vt 0.4771698 0.2735616
vt 0.4246935 0.2735616
vt 0.4771698 0.3407313
vt 0.4246935 0.3407313
vt 0.5296462 0.09892038
vt 0.5821225 0.004882813
vt 0.5821225 0.09892038
vt 0.5296462 0.1929579
vt 0.5821225 0.1929579
vt 0.4771698 0.1929579
vt 0.5296462 0.2735616
vt 0.4771698 0.2735616
vt 0.4246935 0.2735616
vt 0.4771698 0.3407313
vt 0.4246935 0.3407313
vt 0.4246935 0.3407313
vt 0.4246935 0.3407313
vt 0.4246935 0.2735616
vt 0.4246935 0.2735616
vt 0.4771698 0.3407313
vt 0.4771698 0.3407313
vt 0.4246935 0.3407313
vt 0.4246935 0.3407313
vt 0.5296462 0.2735616
vt 0.4771698 0.3407313
vt 0.4771698 0.3407313
vt 0.5296462 0.2735616
vt 0.5821225 0.1929579
vt 0.5821225 0.1929579
vt 0.4246935 0.2735616
vt 0.4246935 0.2735616
vt 0.4771698 0.1929579
vt 0.4771698 0.1929579
vt 0.5296462 0.09892038
vt 0.5296462 0.09892038
vt 0.5821225 0.004882813
vt 0.5821225 0.004882813
vt 0.5821225 0.004882813
vt 0.5821225 0.09892038
vt 0.5821225 0.09892038
vt 0.5821225 0.1929579
vt 0.5821225 0.1929579
vn -0.8044811 0.001696225 -0.593976
vn -0.8364043 0.0008836932 -0.5481123
vn -0.9238072 -0.01252511 -0.3826532
vn -0.7138647 0.0004115182 -0.7002835
vn -0.8341807 -0.001068882 -0.5514902
vn -0.5023141 0.002881372 -0.8646804
vn -0.6156573 -0.003211252 -0.7880075
vn -0.3738813 -0.0005694121 -0.9274763
vn -0.190283 0.001310001 -0.9817284
vn -0.2899542 -0.003664259 -0.9570336
vn -0.1875047 -0.002126177 -0.9822614
vn 0.7947098 0 0.6069896
vn 0.9238072 0.01252511 0.3826532
vn 0.8314695 0 0.5555705
vn 0.7071064 0 0.7071072
vn 0.8314695 0 0.5555705
vn 0.4990871 0 0.8665518
vn 0.6183995 0 0.7858639
vn 0.3826835 0 0.9238795
vn 0.1950907 0 0.9807853
vn 0.3075907 0 0.9515188
vn 0.1950908 0 0.9807853
vn -0.9807853 0 0.1950906
vn -0.9807853 0 0.1950906
vn -0.9807853 0 0.1950906
vn -0.9807853 0 0.1950906
vn 0 -1 2.784176E-06
vn 0 -1 2.784176E-06
vn 0 -1 2.784176E-06
vn 0 -1 2.784176E-06
vn 0.5986903 -0.5718226 -0.5608822
vn 0.6644275 -0.6011981 -0.4439559
vn 0.6644275 -0.6011981 -0.4439559
vn 0.5990985 -0.5720213 -0.5602432
vn 0.5339744 -0.538398 -0.6519194
vn 0.5339744 -0.538398 -0.6519194
vn -0.8066382 0.5383975 0.2438499
vn -0.8066382 0.5383975 0.24385
vn -0.7749653 0.5091571 0.3744166
vn -0.7745903 0.5088298 0.3756355
vn -0.6480659 0.4809488 0.5905073
vn -0.6482826 0.4809406 0.590276
vn -0.9238072 -0.01252511 -0.3826532
vn -0.5557728 0.4803233 0.6785324
vn 0.5555695 0 -0.83147
vn 0.5555696 0 -0.83147
vn 0.5555696 0 -0.83147
vn 0.5555696 0 -0.83147
vn 0.5555696 0 -0.83147
g shard_3_0
f 3/3/3 2/2/2 1/1/1
f 2/2/2 4/4/4 1/1/1
f 2/2/2 5/5/5 4/4/4
f 1/1/1 4/4/4 6/6/6
f 5/5/5 7/7/7 4/4/4
f 4/4/4 8/8/8 6/6/6
f 4/4/4 7/7/7 8/8/8
f 6/6/6 8/8/8 9/9/9
f 7/7/7 10/10/10 8/8/8
f 8/8/8 11/11/11 9/9/9
f 8/8/8 10/10/10 11/11/11
f 14/14/14 13/13/13 12/12/12
f 15/15/15 14/14/14 12/12/12
f 16/16/16 14/14/14 15/15/15
f 15/15/15 12/12/12 17/17/17
f 18/18/18 16/16/16 15/15/15
f 19/19/19 15/15/15 17/17/17
f 18/18/18 15/15/15 19/19/19
f 19/19/19 17/17/17 20/20/20
f 21/21/21 18/18/18 19/19/19
f 22/22/22 19/19/19 20/20/20
f 21/21/21 19/19/19 22/22/22
f 25/25/25 24/24/24 23/23/23
f 26/26/26 25/25/25 23/23/23
f 29/29/29 28/28/28 27/27/27
f 30/30/30 29/29/29 27/27/27
f 33/33/33 32/32/32 31/31/31
f 32/32/32 34/34/34 31/31/31
f 31/31/31 34/34/34 35/35/35
f 34/34/34 36/36/36 35/35/35
f 39/39/39 38/38/38 37/37/37
f 40/40/40 39/39/39 37/37/37
f 41/41/41 39/39/39 40/40/40
f 42/42/42 41/41/41 40/40/40
f 43/43/43 41/41/41 42/42/42
f 44/44/44 43/43/43 42/42/42
f 46/46/46 43/43/43 45/45/45
f 47/47/47 46/46/46 45/45/45
f 48/48/48 46/46/46 47/47/47
f 49/49/49 48/48/48 47/47/47
