g shard_43
v 0.00263834 0.1219432 -0.0445409
v -0.001767826 0.06936573 -0.04894708
v -0.02031832 0.1219432 -0.01018384
v -0.02607527 0.06936573 -0.01256847
v 0.00263834 0.1219432 -0.0445409
v 0.005572529 0.06875221 -0.04159692
v -0.001767826 0.06936573 -0.04894708
v 0.01141512 0.1207162 -0.03867644
v -0.01154154 0.1207162 -0.004319394
v -0.01647556 0.06875221 -0.008599656
v -0.02607527 0.06936573 -0.01256847
v -0.02031832 0.1219432 -0.01018384
v -0.02031832 0.1219432 -0.01018384
v 0.00263834 0.1219432 -0.0445409
v 0.03461084 5.088806E-05 -0.07325448
v 0.04051477 5.088806E-05 -0.06441861
v 0.005602073 -0.05540098 -0.04157718
v -0.001767826 -0.05540098 -0.04894708
v -0.01644602 -0.1219432 -0.008579914
v -0.02607527 -0.1219432 -0.01256847
v -0.02607527 -0.05540098 0.07325447
v -0.01565264 5.088806E-05 0.0711813
v -0.02607527 5.088806E-05 0.07325447
v -0.01565264 -0.05540098 0.0711813
v -0.02607527 -0.1219432 0.07325447
v -0.01565264 -0.1219432 0.0711813
v -0.02607527 5.088806E-05 0.07325447
v -0.01565264 5.088806E-05 0.0711813
v -0.02418821 0.06936573 0.03034304
v -0.03461084 0.06936573 0.03034304
v -0.03461084 0.06936573 0.03034304
v -0.01647556 0.06875221 -0.008599656
v -0.02607527 0.06936573 -0.01256847
v -0.02418821 0.06936573 0.03034304
v -0.02398403 5.088806E-05 0.03034304
v -0.01565264 5.088806E-05 0.0711813
v -0.01565264 -0.05540098 0.0711813
v -0.01625738 5.088806E-05 -0.00850177
v 0.005572529 0.06875221 -0.04159692
v -0.02398403 -0.05540098 0.03034304
v -0.01565264 -0.1219432 0.0711813
v -0.02418821 -0.1219432 0.03034304
v -0.01625738 -0.05540098 -0.00850177
v -0.01644602 -0.1219432 -0.008579914
v 0.005602073 -0.05540098 -0.04157718
v 0.00574646 5.088806E-05 -0.04143278
v 0.04051477 5.088806E-05 -0.06441861
v 0.04051477 0.06936573 -0.06441861
v -0.001767826 0.06936573 -0.04894708
v 0.03461084 0.06936573 -0.07325448
v 0.03461084 0.06936573 -0.07325448
v 0.04051477 0.06936573 -0.06441861
v 0.04051477 5.088806E-05 -0.06441861
v 0.03461084 5.088806E-05 -0.07325448
v -0.02607527 -0.1219432 -0.01256847
v -0.01644602 -0.1219432 -0.008579914
v -0.02418821 -0.1219432 0.03034304
v -0.03461084 -0.1219432 0.03034304
v -0.01565264 -0.1219432 0.0711813
v -0.02607527 -0.1219432 0.07325447
v -0.03461084 -0.1219432 0.03034304
v -0.02607527 -0.1219432 0.07325447
v -0.03461084 -0.05540098 0.03034304
v -0.02607527 -0.05540098 0.07325447
v -0.02607527 -0.05540098 -0.01256847
v -0.02607527 -0.1219432 -0.01256847
v -0.001767826 -0.05540098 -0.04894708
v -0.03461084 5.088806E-05 0.03034304
v -0.02607527 5.088806E-05 0.07325447
v -0.03461084 0.06936573 0.03034304
v -0.02607527 0.06936573 -0.01256847
v -0.02607527 5.088806E-05 -0.01256847
v -0.001767826 0.06936573 -0.04894708
v -0.001767826 5.088806E-05 -0.04894708
v 0.03461084 5.088806E-05 -0.07325448
v 0.03461084 0.06936573 -0.07325448
vt 0.421109 0.4911152
vt 0.421109 0.42946
vt 0.4627315 0.4911152
vt 0.4627315 0.42946
vt 0.421109 0.4911152
vt 0.421109 0.42946
vt 0.421109 0.42946
vt 0.421109 0.4911152
vt 0.4627315 0.4911152
vt 0.4627315 0.42946
vt 0.4627315 0.42946
vt 0.4627315 0.4911152
vt 0.4627315 0.4911152
vt 0.421109 0.4911152
vt 0.4771698 0.3407313
vt 0.4771698 0.3407313
vt 0.5296462 0.2735616
vt 0.5296462 0.2735616
vt 0.5821225 0.1929579
vt 0.5821225 0.1929579
vt 0.6870752 0.2735616
vt 0.6870752 0.3407313
vt 0.6870752 0.3407313
vt 0.6870752 0.2735616
vt 0.6870751 0.1929579
vt 0.6870751 0.1929579
vt 0.6870752 0.3407313
vt 0.6870752 0.3407313
vt 0.6345989 0.4246934
vt 0.6345989 0.4246934
vt 0.6345989 0.4246934
vt 0.5821225 0.4246934
vt 0.5821225 0.4246934
vt 0.6345989 0.4246934
vt 0.6345989 0.3407313
vt 0.6870752 0.3407313
vt 0.6870752 0.2735616
vt 0.5821225 0.3407313
vt 0.5296462 0.4246934
vt 0.6345989 0.2735616
vt 0.6870751 0.1929579
vt 0.6345989 0.1929579
vt 0.5821225 0.2735616
vt 0.5821225 0.1929579
vt 0.5296462 0.2735616
vt 0.5296462 0.3407313
vt 0.4771698 0.3407313
vt 0.4771698 0.4246934
vt 0.5296462 0.4246934
vt 0.4771698 0.4246934
vt 0.4771698 0.4246934
vt 0.4771698 0.4246934
vt 0.4771698 0.3407313
vt 0.4771698 0.3407313
vt 0.5821225 0.1929579
vt 0.5821225 0.1929579
vt 0.6345989 0.1929579
vt 0.6345989 0.1929579
vt 0.6870751 0.1929579
vt 0.6870751 0.1929579
vt 0.6345989 0.1929579
vt 0.6870751 0.1929579
vt 0.6345989 0.2735616
vt 0.6870752 0.2735616
vt 0.5821225 0.2735616
vt 0.5821225 0.1929579
vt 0.5296462 0.2735616
vt 0.6345989 0.3407313
vt 0.6870752 0.3407313
vt 0.6345989 0.4246934
vt 0.5821225 0.4246934
vt 0.5821225 0.3407313
vt 0.5296462 0.4246934
vt 0.5296462 0.3407313
vt 0.4771698 0.3407313
vt 0.4771698 0.4246934
vn 0.6953292 -0.1817511 0.69533
vn 0.7070263 -0.01503715 0.7070274
vn 0.9084922 -0.1817512 0.3763091
vn 0.9237751 -0.01503718 0.3826399
vn -0.6334808 0.007878305 0.7737183
vn -0.7070263 0.01503715 -0.7070274
vn -0.6334808 0.007878307 0.7737183
vn -0.6953292 0.1817511 -0.69533
vn -0.9084922 0.1817512 -0.3763091
vn -0.9237751 0.01503718 -0.3826399
vn 0.4723997 0.007879002 -0.8813493
vn 0.4723996 0.007879001 -0.8813493
vn -0.09600053 -0.9933123 -0.06414484
vn -0.09600053 -0.9933123 -0.06414483
vn -0.6139416 0.6084405 0.5028675
vn -0.6139416 0.6084405 0.5028676
vn -0.5440832 0.5731152 0.6127907
vn -0.5432407 0.5726583 0.6139641
vn -0.4707087 0.5311878 0.7044663
vn -0.4707087 0.5311878 0.7044663
vn -0.1950888 0 -0.9807855
vn -0.195089 0 -0.9807855
vn -0.195089 0 -0.9807855
vn -0.1950888 0 -0.9807855
vn -0.1950887 0 -0.9807855
vn -0.1950887 0 -0.9807855
vn -0.08436276 -0.5228367 -0.848248
vn -0.08436276 -0.5228367 -0.848248
vn -0.999887 0.01503719 0
vn -0.08436275 -0.5228366 -0.848248
vn -0.03089633 -0.9995216 0.001358256
vn -0.9237751 0.01503718 -0.3826399
vn -0.03089633 -0.9995216 0.001358256
vn -0.999887 0.01503719 0
vn -0.9999669 -0.001726884 0.007955131
vn -0.9798171 -0.001299353 0.1998921
vn -0.9798179 0 0.1998921
vn -0.9238665 -0.001925954 -0.3827102
vn -0.7070263 0.01503715 -0.7070274
vn -0.9999667 0.00112179 0.008088184
vn -0.9791941 0.001934199 0.2029166
vn -0.9999452 0.003068208 0.01001449
vn -0.9246517 0.002180346 -0.3808076
vn -0.9570373 0.003053573 -0.289949
vn -0.7892759 0.003439669 -0.614029
vn -0.7013926 -0.0001224172 -0.7127752
vn -0.5514891 0.001156166 -0.8341813
vn -0.3826401 0.01503715 -0.9237751
vn -0.01066853 -0.999518 -0.02915327
vn -0.01066853 -0.999518 -0.02915328
vn -0.8314701 0 0.5555694
vn -0.3826401 0.01503715 -0.9237751
vn -0.8314701 0 0.5555694
vn -0.8314701 0 0.5555694
vn 0 1 0
vn 0 1 0
vn 0 1 2.193788E-07
vn 0 1 2.187932E-07
vn 0 1 4.283348E-07
vn 0 1 4.283348E-07
vn 1 0 0
vn 0.9807854 0 -0.1950894
vn 1 0 0
vn 0.9807854 0 -0.1950895
vn 0.9238796 0 0.3826831
vn 0.9548801 0 0.2969916
vn 0.7871329 0 0.6167834
vn 1 0 0
vn 0.9807854 0 -0.1950895
vn 0.999887 -0.01503719 0
vn 0.9237751 -0.01503718 0.3826399
vn 0.9238796 0 0.3826833
vn 0.7070263 -0.01503715 0.7070274
vn 0.7071061 0 0.7071074
vn 0.5555694 0 0.8314701
vn 0.3826401 -0.01503715 0.9237751
g shard_43_0
f 3/3/3 2/2/2 1/1/1
f 4/4/4 2/2/2 3/3/3
f 7/7/7 6/6/6 5/5/5
f 6/6/6 8/8/8 5/5/5
f 6/6/6 9/9/9 8/8/8
f 6/6/6 10/10/10 9/9/9
f 9/9/9 10/10/10 11/11/11
f 12/12/12 9/9/9 11/11/11
f 8/8/8 9/9/9 13/13/13
f 14/14/14 8/8/8 13/13/13
f 17/17/17 16/16/16 15/15/15
f 18/18/18 17/17/17 15/15/15
f 19/19/19 17/17/17 18/18/18
f 20/20/20 19/19/19 18/18/18
f 23/23/23 22/22/22 21/21/21
f 22/22/22 24/24/24 21/21/21
f 21/21/21 24/24/24 25/25/25
f 24/24/24 26/26/26 25/25/25
f 29/29/29 28/28/28 27/27/27
f 30/30/30 29/29/29 27/27/27
f 33/33/33 32/32/32 31/31/31
f 32/32/32 34/34/34 31/31/31
f 35/35/35 34/34/34 32/32/32
f 36/36/36 34/34/34 35/35/35
f 37/37/37 36/36/36 35/35/35
f 35/35/35 32/32/32 38/38/38
f 38/38/38 32/32/32 39/39/39
f 37/37/37 35/35/35 40/40/40
f 40/40/40 35/35/35 38/38/38
f 41/41/41 37/37/37 40/40/40
f 41/41/41 40/40/40 42/42/42
f 42/42/42 40/40/40 43/43/43
f 40/40/40 38/38/38 43/43/43
f 42/42/42 43/43/43 44/44/44
f 44/44/44 43/43/43 45/45/45
f 43/43/43 38/38/38 46/46/46
f 43/43/43 46/46/46 45/45/45
f 38/38/38 39/39/39 46/46/46
f 45/45/45 46/46/46 47/47/47
f 46/46/46 48/48/48 47/47/47
f 46/46/46 39/39/39 48/48/48
f 48/48/48 39/39/39 49/49/49
f 50/50/50 48/48/48 49/49/49
f 53/53/53 52/52/52 51/51/51
f 54/54/54 53/53/53 51/51/51
f 57/57/57 56/56/56 55/55/55
f 58/58/58 57/57/57 55/55/55
f 59/59/59 57/57/57 58/58/58
f 60/60/60 59/59/59 58/58/58
f 63/63/63 62/62/62 61/61/61
f 64/64/64 62/62/62 63/63/63
f 63/63/63 61/61/61 65/65/65
f 65/65/65 61/61/61 66/66/66
f 65/65/65 66/66/66 67/67/67
f 68/68/68 64/64/64 63/63/63
f 69/69/69 64/64/64 68/68/68
f 70/70/70 69/69/69 68/68/68
f 70/70/70 68/68/68 71/71/71
f 68/68/68 63/63/63 72/72/72
f 71/71/71 68/68/68 72/72/72
f 72/72/72 63/63/63 65/65/65
f 71/71/71 72/72/72 73/73/73
f 74/74/74 65/65/65 67/67/67
f 72/72/72 65/65/65 74/74/74
f 73/73/73 72/72/72 74/74/74
f 74/74/74 67/67/67 75/75/75
f 73/73/73 74/74/74 76/76/76
f 76/76/76 74/74/74 75/75/75
