g shard_44
v 0.01642141 0.03886719 0.04564394
v 0.01642141 0.108182 0.04564393
v 0.05725975 0.03886719 0.03710833
v 0.01642141 0.03886719 0.05606657
v 0.05933294 0.03886719 0.04753096
v 0.01642141 0.108182 0.05606655
v -0.07834017 -0.01658466 -0.01905906
v -0.07754678 0.03886719 -0.01714368
v -0.05549869 -0.01658466 0.0158536
v -0.0553543 0.03886719 0.01570922
v -0.02250154 -0.01658466 0.03790165
v -0.07757633 0.1075686 -0.01712394
v -0.08528898 0.108182 -0.05813976
v -0.08717603 0.108182 -0.01315513
v -0.09571161 0.108182 -0.05606658
v -0.05536717 0.1075601 0.01572209
v -0.0224234 0.03886719 0.03771302
v -0.02252129 0.1075686 0.0379312
v 0.01642142 -0.01658466 0.04564394
v 0.01642142 -0.08312695 0.04564394
v 0.01642141 0.03886719 0.04564394
v 0.01642141 0.108182 0.04564393
v 0.01642141 0.108182 0.05606655
v -0.02649011 0.108182 0.0475309
v 0.01642142 -0.08312695 0.04564394
v 0.01642142 -0.01658466 0.04564394
v 0.05534438 -0.08312695 0.03790171
v 0.05534438 -0.1607595 0.03790171
v 0.08980768 -0.1607595 0.01438771
v -0.05846243 0.1607595 0.0188173
v -0.08717603 0.108182 -0.01315513
v -0.0628686 0.108182 0.0232235
v -0.02410545 0.1607595 0.04177397
v -0.02649011 0.108182 0.0475309
v -0.08717603 -0.01658466 -0.01315513
v -0.0628686 -0.01658466 0.0232235
v -0.08717603 0.03886719 -0.01315513
v -0.0628686 0.03886719 0.0232235
v -0.02649011 -0.01658466 0.0475309
v -0.08717603 0.108182 -0.01315513
v -0.09571161 0.108182 -0.05606658
v -0.0628686 0.108182 0.0232235
v -0.02649011 0.03886719 0.0475309
v -0.02649011 0.108182 0.0475309
v 0.01642141 -0.01658466 0.05606657
v 0.01642141 -0.08312695 0.05606657
v 0.01642141 0.03886719 0.05606657
v 0.01642141 0.108182 0.05606655
v 0.01642141 -0.08312695 0.05606657
v 0.05933294 -0.08312695 0.04753096
v 0.01642141 -0.01658466 0.05606657
v 0.05933294 -0.1607595 0.04753096
v 0.09571161 -0.1607595 0.02322358
v -0.05846243 0.1607595 0.0188173
v -0.07757633 0.1075686 -0.01712394
v -0.08717603 0.108182 -0.01315513
v -0.05114181 0.1595326 0.01149668
v -0.05536717 0.1075601 0.01572209
v -0.01824099 0.1595326 0.03299719
v -0.02252129 0.1075686 0.0379312
v -0.02649011 0.108182 0.0475309
v -0.02410545 0.1607595 0.04177397
v -0.02410545 0.1607595 0.04177397
v -0.05846243 0.1607595 0.0188173
v -0.08717603 -0.01658466 -0.01315513
v -0.07834017 -0.01658466 -0.01905906
v -0.05549869 -0.01658466 0.0158536
v -0.0628686 -0.01658466 0.0232235
v -0.02250154 -0.01658466 0.03790165
v -0.02649011 -0.01658466 0.0475309
v -0.08717603 0.03886719 -0.01315513
v -0.07754678 0.03886719 -0.01714368
v -0.07834017 -0.01658466 -0.01905906
v -0.08717603 -0.01658466 -0.01315513
v 0.01642141 -0.01658466 0.05606657
v 0.01642142 -0.01658466 0.04564394
v 0.01642141 0.03886719 0.04564394
v 0.01642141 0.03886719 0.05606657
v -0.09571161 0.108182 -0.05606658
v -0.08528898 0.108182 -0.05813976
v -0.07754678 0.03886719 -0.01714368
v -0.08717603 0.03886719 -0.01315513
v 0.01642141 0.03886719 0.05606657
v 0.01642141 0.03886719 0.04564394
v 0.05725975 0.03886719 0.03710833
v 0.05933294 0.03886719 0.04753096
v 0.05933294 0.03886719 0.04753096
v 0.05725975 0.03886719 0.03710833
v 0.01642141 0.108182 0.04564393
v 0.01642141 0.108182 0.05606655
v -0.02649011 -0.01658466 0.0475309
v -0.02250154 -0.01658466 0.03790165
v 0.01642142 -0.08312695 0.04564394
v 0.01642141 -0.08312695 0.05606657
v 0.05933294 -0.08312695 0.04753096
v 0.01642142 -0.01658466 0.04564394
v 0.01642141 -0.01658466 0.05606657
v 0.05534438 -0.08312695 0.03790171
v 0.09571161 -0.1607595 0.02322358
v 0.08980768 -0.1607595 0.01438771
v 0.01642141 -0.08312695 0.05606657
v 0.01642142 -0.08312695 0.04564394
v 0.05534438 -0.1607595 0.03790171
v 0.05933294 -0.1607595 0.04753096
v 0.05933294 -0.1607595 0.04753096
v 0.05534438 -0.1607595 0.03790171
v 0.08980768 -0.1607595 0.01438771
v 0.09571161 -0.1607595 0.02322358
vt 0.004882813 0.3407313
vt 0.004882813 0.4246934
vt 0.05735918 0.3407313
vt 0.004882813 0.3407313
vt 0.05735918 0.3407313
vt 0.004882813 0.4246934
vt 0.6870752 0.2735616
vt 0.6870752 0.3407313
vt 0.7395514 0.2735616
vt 0.7395514 0.3407313
vt 0.7920277 0.2735616
vt 0.6870751 0.4246934
vt 0.6345989 0.4246934
vt 0.6870751 0.4246934
vt 0.6345989 0.4246934
vt 0.7395514 0.4246934
vt 0.7920277 0.3407313
vt 0.7920277 0.4246934
vt 0.844504 0.2735616
vt 0.844504 0.1929579
vt 0.844504 0.3407313
vt 0.844504 0.4246934
vt 0.844504 0.4246934
vt 0.7920277 0.4246934
vt 0.004882813 0.1929579
vt 0.004882813 0.2735616
vt 0.05735918 0.1929579
vt 0.05735918 0.09892038
vt 0.1098356 0.09892038
vt 0.5875993 0.4911152
vt 0.5459766 0.42946
vt 0.5875993 0.42946
vt 0.6292219 0.4911152
vt 0.6292218 0.42946
vt 0.6870752 0.2735616
vt 0.7395514 0.2735616
vt 0.6870752 0.3407313
vt 0.7395514 0.3407313
vt 0.7920277 0.2735616
vt 0.6870751 0.4246934
vt 0.6345989 0.4246934
vt 0.7395514 0.4246934
vt 0.7920277 0.3407313
vt 0.7920277 0.4246934
vt 0.844504 0.2735616
vt 0.844504 0.1929579
vt 0.844504 0.3407313
vt 0.844504 0.4246934
vt 0.004882813 0.1929579
vt 0.05735918 0.1929579
vt 0.004882813 0.2735616
vt 0.05735918 0.09892038
vt 0.1098356 0.09892038
vt 0.5875993 0.4911152
vt 0.5459766 0.42946
vt 0.5459766 0.42946
vt 0.5875993 0.4911152
vt 0.5875993 0.42946
vt 0.6292219 0.4911152
vt 0.6292218 0.42946
vt 0.6292218 0.42946
vt 0.6292219 0.4911152
vt 0.6292219 0.4911152
vt 0.5875993 0.4911152
vt 0.6870752 0.2735616
vt 0.6870752 0.2735616
vt 0.7395514 0.2735616
vt 0.7395514 0.2735616
vt 0.7920277 0.2735616
vt 0.7920277 0.2735616
vt 0.6870752 0.3407313
vt 0.6870752 0.3407313
vt 0.6870752 0.2735616
vt 0.6870752 0.2735616
vt 0.844504 0.2735616
vt 0.844504 0.2735616
vt 0.844504 0.3407313
vt 0.844504 0.3407313
vt 0.6345989 0.4246934
vt 0.6345989 0.4246934
vt 0.6870752 0.3407313
vt 0.6870752 0.3407313
vt 0.004882813 0.3407313
vt 0.004882813 0.3407313
vt 0.05735918 0.3407313
vt 0.05735918 0.3407313
vt 0.05735918 0.3407313
vt 0.05735918 0.3407313
vt 0.004882813 0.4246934
vt 0.004882813 0.4246934
vt 0.7920277 0.2735616
vt 0.7920277 0.2735616
vt 0.844504 0.1929579
vt 0.844504 0.1929579
vt 0.05735918 0.1929579
vt 0.004882813 0.2735616
vt 0.004882813 0.2735616
vt 0.05735918 0.1929579
vt 0.1098356 0.09892038
vt 0.1098356 0.09892038
vt 0.004882813 0.1929579
vt 0.004882813 0.1929579
vt 0.05735918 0.09892038
vt 0.05735918 0.09892038
vt 0.05735918 0.09892038
vt 0.05735918 0.09892038
vt 0.1098356 0.09892038
vt 0.1098356 0.09892038
vn -0.05077019 -0.0008033497 0.99871
vn -5.060771E-07 0.01503716 0.999887
vn 0.2045891 2.63823E-07 0.978848
vn 0.05674121 -1.330337E-07 -0.9983889
vn -0.1950896 -2.67296E-07 -0.9807854
vn 5.060771E-07 -0.01503716 -0.999887
vn -0.8367961 -0.006937797 0.5474707
vn -0.8650427 -0.0006389272 0.5016978
vn -0.7106728 0.0003150225 0.7035227
vn -0.7053394 0.001450457 0.7088683
vn -0.3300779 0.00263547 0.94395
vn -0.9237751 0.01503717 0.3826401
vn -0.999887 0.01503719 0
vn -0.03101763 -0.9995179 -0.001301686
vn -0.03101763 -0.9995179 -0.001301686
vn -0.7070276 0.01503717 0.7070262
vn -0.3849732 -0.0001824995 0.9229278
vn -0.3826409 0.01503718 0.9237747
vn -0.1358188 0.0008453827 0.9907333
vn 0.1345654 0 0.9909047
vn -0.05077019 -0.0008033497 0.99871
vn -5.060771E-07 0.01503716 0.999887
vn 0.001358535 -0.9995217 0.03089549
vn 0.001358534 -0.9995217 0.03089549
vn 0.1345654 0 0.9909047
vn -0.1358188 0.0008453827 0.9907333
vn 0.2623465 0 0.9649737
vn 0.4884065 0 0.8726163
vn 0.5636036 0 0.8260454
vn 0.69533 -0.1817512 -0.6953292
vn 0.9237751 -0.01503717 -0.3826401
vn 0.7070276 -0.01503717 -0.7070262
vn 0.3763105 -0.1817514 -0.9084916
vn 0.3826409 -0.01503718 -0.9237747
vn 0.8314693 0 -0.5555707
vn 0.7071073 0 -0.7071062
vn 0.865438 0 -0.501016
vn 0.7071074 0 -0.7071061
vn 0.331797 0 -0.9433509
vn 0.9237751 -0.01503717 -0.3826401
vn 0.999887 -0.01503719 0
vn 0.7070276 -0.01503717 -0.7070262
vn 0.3826841 0 -0.9238793
vn 0.3826409 -0.01503718 -0.9237747
vn 0.1309285 0 -0.9913918
vn -0.1294812 0 -0.9915819
vn 0.05674121 -1.330337E-07 -0.9983889
vn 5.060771E-07 -0.01503716 -0.999887
vn -0.1294812 0 -0.9915819
vn -0.2610761 0 -0.9653183
vn 0.1309285 0 -0.9913918
vn -0.4735357 0 -0.8807746
vn -0.5555691 0 -0.8314704
vn 0.3940394 -0.6075771 0.6896253
vn -0.9237751 0.01503717 0.3826401
vn 0.3940393 -0.6075772 0.6896252
vn -0.69533 0.1817512 0.6953292
vn -0.7070276 0.01503717 0.7070262
vn -0.3763105 0.1817514 0.9084916
vn -0.3826409 0.01503718 0.9237747
vn -0.8813488 0.007879645 -0.4724005
vn -0.8813488 0.007879645 -0.4724005
vn -0.06491648 -0.9930461 0.09821043
vn -0.06491648 -0.9930461 0.09821043
vn 0 1 0
vn 0 1 0
vn 0 1 4.36364E-07
vn 0 1 4.375866E-07
vn 0 1 8.944951E-07
vn 0 1 8.944951E-07
vn 0.4721566 -0.0185987 0.8813185
vn 0.4721566 -0.0185987 0.8813184
vn 0.4721566 -0.0185987 0.8813184
vn 0.4721566 -0.0185987 0.8813185
vn -1 0 -2.859388E-07
vn -1 0 -2.859388E-07
vn -1 0 -2.859388E-07
vn -1 0 -2.859388E-07
vn 0.2466675 0.5228367 0.8159638
vn -0.999887 0.01503719 0
vn 0.2466675 0.5228367 0.8159638
vn 0.2466675 0.5228367 0.8159638
vn 0 1 1.672905E-06
vn 0 1 1.672905E-06
vn 0 1 1.672905E-06
vn 0 1 1.672905E-06
vn -0.8482477 -0.5228373 0.08436173
vn -0.8482478 -0.5228373 0.08436173
vn -5.060771E-07 0.01503716 0.999887
vn -0.8482477 -0.5228373 0.08436173
vn 0.8309739 0.5311885 0.1652911
vn 0.8309739 0.5311884 0.1652911
vn 0.8611193 0.5082468 -0.01260369
vn 0.8612294 0.5080281 -0.01384075
vn -0.8066987 -0.5081364 0.3017193
vn -0.8309745 -0.5311878 0.165291
vn -0.8309745 -0.5311878 0.165291
vn -0.8068437 -0.5082625 0.3011186
vn -0.7731304 -0.4803235 0.4141963
vn -0.7731305 -0.4803235 0.4141963
vn 0.8612294 0.5080281 -0.01384075
vn 0.8611193 0.5082468 -0.01260369
vn 0.8639398 0.4733671 -0.1718474
vn 0.8639398 0.473367 -0.1718474
vn 0 1 4.283343E-07
vn 0 1 4.283343E-07
vn 0 1 4.283343E-07
vn 0 1 4.283342E-07
g shard_44_0
f 3/3/3 2/2/2 1/1/1
f 6/6/6 5/5/5 4/4/4
f 9/9/9 8/8/8 7/7/7
f 9/9/9 10/10/10 8/8/8
f 11/11/11 10/10/10 9/9/9
f 10/10/10 12/12/12 8/8/8
f 8/8/8 12/12/12 13/13/13
f 13/13/13 12/12/12 14/14/14
f 15/15/15 13/13/13 14/14/14
f 10/10/10 16/16/16 12/12/12
f 17/17/17 16/16/16 10/10/10
f 11/11/11 17/17/17 10/10/10
f 17/17/17 18/18/18 16/16/16
f 19/19/19 17/17/17 11/11/11
f 20/20/20 19/19/19 11/11/11
f 19/19/19 21/21/21 17/17/17
f 21/21/21 18/18/18 17/17/17
f 21/21/21 22/22/22 18/18/18
f 18/18/18 22/22/22 23/23/23
f 24/24/24 18/18/18 23/23/23
f 27/27/27 26/26/26 25/25/25
f 28/28/28 27/27/27 25/25/25
f 29/29/29 27/27/27 28/28/28
f 32/32/32 31/31/31 30/30/30
f 33/33/33 32/32/32 30/30/30
f 34/34/34 32/32/32 33/33/33
f 37/37/37 36/36/36 35/35/35
f 38/38/38 36/36/36 37/37/37
f 38/38/38 39/39/39 36/36/36
f 40/40/40 38/38/38 37/37/37
f 40/40/40 37/37/37 41/41/41
f 42/42/42 38/38/38 40/40/40
f 42/42/42 43/43/43 38/38/38
f 43/43/43 39/39/39 38/38/38
f 44/44/44 43/43/43 42/42/42
f 43/43/43 45/45/45 39/39/39
f 45/45/45 46/46/46 39/39/39
f 47/47/47 45/45/45 43/43/43
f 44/44/44 47/47/47 43/43/43
f 48/48/48 47/47/47 44/44/44
f 51/51/51 50/50/50 49/49/49
f 50/50/50 52/52/52 49/49/49
f 50/50/50 53/53/53 52/52/52
f 56/56/56 55/55/55 54/54/54
f 55/55/55 57/57/57 54/54/54
f 55/55/55 58/58/58 57/57/57
f 58/58/58 59/59/59 57/57/57
f 58/58/58 60/60/60 59/59/59
f 59/59/59 60/60/60 61/61/61
f 62/62/62 59/59/59 61/61/61
f 57/57/57 59/59/59 63/63/63
f 64/64/64 57/57/57 63/63/63
f 67/67/67 66/66/66 65/65/65
f 68/68/68 67/67/67 65/65/65
f 69/69/69 67/67/67 68/68/68
f 70/70/70 69/69/69 68/68/68
f 73/73/73 72/72/72 71/71/71
f 74/74/74 73/73/73 71/71/71
f 77/77/77 76/76/76 75/75/75
f 78/78/78 77/77/77 75/75/75
f 81/81/81 80/80/80 79/79/79
f 82/82/82 81/81/81 79/79/79
f 85/85/85 84/84/84 83/83/83
f 86/86/86 85/85/85 83/83/83
f 89/89/89 88/88/88 87/87/87
f 90/90/90 89/89/89 87/87/87
f 93/93/93 92/92/92 91/91/91
f 94/94/94 93/93/93 91/91/91
f 97/97/97 96/96/96 95/95/95
f 96/96/96 98/98/98 95/95/95
f 95/95/95 98/98/98 99/99/99
f 98/98/98 100/100/100 99/99/99
f 103/103/103 102/102/102 101/101/101
f 104/104/104 103/103/103 101/101/101
f 107/107/107 106/106/106 105/105/105
f 108/108/108 107/107/107 105/105/105
