g shard_16
v -0.05606661 0.09981337 0.05606655
v -0.05813979 0.09981337 0.04564393
v -0.05813979 0.0443615 0.04564393
v -0.05606661 0.0443615 0.05606655
v -0.01315508 0.09981337 0.04753094
v -0.01714364 0.09981337 0.03790169
v -0.05813979 0.09981337 0.04564393
v -0.05606661 0.09981337 0.05606655
v 0.02322359 0.0443615 0.02322355
v 0.01585369 0.0443615 0.01585364
v -0.01714364 0.09981337 0.03790169
v -0.01315508 0.09981337 0.04753094
v -0.05606661 0.0443615 0.05606655
v -0.05813979 0.0443615 0.04564393
v -0.01714364 -0.02218076 0.03790169
v -0.01315508 -0.02218076 0.04753094
v 0.01585369 -0.09981337 0.01585363
v 0.02322359 -0.09981337 0.02322355
v 0.04753103 0.0443615 -0.01315505
v 0.03790178 0.0443615 -0.01714361
v 0.01585369 0.0443615 0.01585364
v 0.02322359 0.0443615 0.02322355
v 0.05606661 -0.02218076 -0.05606655
v 0.04564398 -0.02218076 -0.05813973
v 0.03790178 0.0443615 -0.01714361
v 0.04753103 0.0443615 -0.01315505
v 0.02322359 -0.09981337 0.02322355
v 0.01585369 -0.09981337 0.01585363
v 0.03790178 -0.09981337 -0.01714362
v 0.04753103 -0.09981337 -0.01315505
v 0.04564398 -0.09981337 -0.05813973
v 0.05606661 -0.09981337 -0.05606655
v 0.05606661 -0.09981337 -0.05606655
v 0.04564398 -0.09981337 -0.05813973
v 0.04564398 -0.02218076 -0.05813973
v 0.05606661 -0.02218076 -0.05606655
v 0.03790178 -0.09981337 -0.01714362
v 0.03771314 -0.02218076 -0.01722176
v 0.04564398 -0.09981337 -0.05813973
v 0.04564398 -0.02218076 -0.05813973
v 0.03790178 0.0443615 -0.01714361
v 0.01585369 0.0443615 0.01585364
v 0.01570931 -0.02218076 0.01570925
v 0.01585369 -0.09981337 0.01585363
v -0.01714364 -0.02218076 0.03790169
v -0.01722178 0.0443615 0.03771304
v -0.01714364 0.09981337 0.03790169
v -0.05813979 0.0443615 0.04564393
v -0.05813979 0.09981337 0.04564393
v 0.04753103 -0.09981337 -0.01315505
v 0.05606661 -0.09981337 -0.05606655
v 0.04753103 -0.02218076 -0.01315505
v 0.05606661 -0.02218076 -0.05606655
v 0.04753103 0.0443615 -0.01315505
v 0.02322359 0.0443615 0.02322355
v 0.02322359 -0.02218076 0.02322355
v 0.02322359 -0.09981337 0.02322355
v -0.01315508 -0.02218076 0.04753094
v -0.01315508 0.0443615 0.04753094
v -0.01315508 0.09981337 0.04753094
v -0.05606661 0.0443615 0.05606655
v -0.05606661 0.09981337 0.05606655
vt 0.004882813 0.3407313
vt 0.004882813 0.3407313
vt 0.004882813 0.2735616
vt 0.004882813 0.2735616
vt 0.05735918 0.3407313
vt 0.05735918 0.3407313
vt 0.004882813 0.3407313
vt 0.004882813 0.3407313
vt 0.1098355 0.2735616
vt 0.1098355 0.2735616
vt 0.05735918 0.3407313
vt 0.05735918 0.3407313
vt 0.004882813 0.2735616
vt 0.004882813 0.2735616
vt 0.05735918 0.1929579
vt 0.05735918 0.1929579
vt 0.1098356 0.09892038
vt 0.1098356 0.09892038
vt 0.1623119 0.2735616
vt 0.1623119 0.2735616
vt 0.1098355 0.2735616
vt 0.1098355 0.2735616
vt 0.2147882 0.1929579
vt 0.2147882 0.1929579
vt 0.1623119 0.2735616
vt 0.1623119 0.2735616
vt 0.1098356 0.09892038
vt 0.1098356 0.09892038
vt 0.1623119 0.09892038
vt 0.1623119 0.09892038
vt 0.2147882 0.09892038
vt 0.2147882 0.09892038
vt 0.2147882 0.09892038
vt 0.2147882 0.09892038
vt 0.2147882 0.1929579
vt 0.2147882 0.1929579
vt 0.1623119 0.09892038
vt 0.1623119 0.1929579
vt 0.2147882 0.09892038
vt 0.2147882 0.1929579
vt 0.1623119 0.2735616
vt 0.1098355 0.2735616
vt 0.1098356 0.1929579
vt 0.1098356 0.09892038
vt 0.05735918 0.1929579
vt 0.05735918 0.2735616
vt 0.05735918 0.3407313
vt 0.004882813 0.2735616
vt 0.004882813 0.3407313
vt 0.1623119 0.09892038
vt 0.2147882 0.09892038
vt 0.1623119 0.1929579
vt 0.2147882 0.1929579
vt 0.1623119 0.2735616
vt 0.1098355 0.2735616
vt 0.1098356 0.1929579
vt 0.1098356 0.09892038
vt 0.05735918 0.1929579
vt 0.05735918 0.2735616
vt 0.05735918 0.3407313
vt 0.004882813 0.2735616
vt 0.004882813 0.3407313
vn 0.9807854 0 -0.1950898
vn 0.9807854 0 -0.1950898
vn 0.9807854 0 -0.1950898
vn 0.9807854 0 -0.1950898
vn 0 -1 -1.070835E-06
vn 0 -1 -1.070835E-06
vn 0 -1 -1.070835E-06
vn 0 -1 -1.070835E-06
vn -0.6644275 -0.601198 0.4439561
vn -0.6644275 -0.601198 0.4439561
vn -0.6644275 -0.601198 0.4439561
vn -0.6644275 -0.601198 0.4439561
vn 0.806638 0.5383984 -0.2438487
vn 0.806638 0.5383984 -0.2438487
vn 0.7749653 0.5091577 -0.3744159
vn 0.7745903 0.5088304 -0.3756348
vn 0.7324129 0.473367 -0.4893822
vn 0.7324129 0.473367 -0.4893823
vn 0 -1 8.944928E-07
vn 0 -1 8.944928E-07
vn 0 -1 8.944928E-07
vn 0 -1 8.944928E-07
vn -0.2438489 -0.5383979 0.8066384
vn -0.2438489 -0.5383979 0.8066384
vn -0.2438489 -0.5383979 0.8066384
vn -0.2438489 -0.538398 0.8066384
vn 0 1 0
vn 0 1 0
vn 0 1 0
vn 0 1 0
vn 0 1 0
vn 0 1 0
vn -0.195089 0 0.9807855
vn -0.195089 0 0.9807855
vn -0.195089 0 0.9807855
vn -0.195089 0 0.9807855
vn 0.9276594 0.002629987 0.3734181
vn 0.9269081 -0.0004983806 0.3752881
vn 0.9823491 0.001767442 0.1870482
vn 0.981729 -0.001068734 0.1902816
vn 0.8861837 -0.003056407 0.4633238
vn 0.6760247 -0.003190595 0.736872
vn 0.7082791 0.000932709 0.7059319
vn 0.7790491 0.002614901 0.6269576
vn 0.5023137 0.002881341 0.8646806
vn 0.3738807 -0.000569351 0.9274766
vn 0.2899535 -0.003664403 0.9570337
vn 0.1902822 0.001310055 0.9817285
vn 0.187504 -0.002126272 0.9822615
vn -0.9238796 0 -0.3826833
vn -0.9807854 0 -0.1950892
vn -0.9238796 0 -0.3826832
vn -0.9807854 0 -0.1950891
vn -0.8852074 0 -0.4651968
vn -0.6794299 0 -0.7337404
vn -0.7071061 0 -0.7071074
vn -0.774548 0 -0.6325153
vn -0.4990866 0 -0.8665521
vn -0.382683 0 -0.9238797
vn -0.3075897 0 -0.951519
vn -0.1950901 0 -0.9807854
vn -0.1950898 0 -0.9807854
g shard_16_0
f 3/3/3 2/2/2 1/1/1
f 4/4/4 3/3/3 1/1/1
f 7/7/7 6/6/6 5/5/5
f 8/8/8 7/7/7 5/5/5
f 11/11/11 10/10/10 9/9/9
f 12/12/12 11/11/11 9/9/9
f 15/15/15 14/14/14 13/13/13
f 16/16/16 15/15/15 13/13/13
f 17/17/17 15/15/15 16/16/16
f 18/18/18 17/17/17 16/16/16
f 21/21/21 20/20/20 19/19/19
f 22/22/22 21/21/21 19/19/19
f 25/25/25 24/24/24 23/23/23
f 26/26/26 25/25/25 23/23/23
f 29/29/29 28/28/28 27/27/27
f 30/30/30 29/29/29 27/27/27
f 31/31/31 29/29/29 30/30/30
f 32/32/32 31/31/31 30/30/30
f 35/35/35 34/34/34 33/33/33
f 36/36/36 35/35/35 33/33/33
f 39/39/39 38/38/38 37/37/37
f 39/39/39 40/40/40 38/38/38
f 40/40/40 41/41/41 38/38/38
f 38/38/38 41/41/41 42/42/42
f 37/37/37 38/38/38 43/43/43
f 38/38/38 42/42/42 43/43/43
f 37/37/37 43/43/43 44/44/44
f 44/44/44 43/43/43 45/45/45
f 43/43/43 42/42/42 46/46/46
f 43/43/43 46/46/46 45/45/45
f 42/42/42 47/47/47 46/46/46
f 45/45/45 46/46/46 48/48/48
f 46/46/46 47/47/47 49/49/49
f 46/46/46 49/49/49 48/48/48
f 52/52/52 51/51/51 50/50/50
f 53/53/53 51/51/51 52/52/52
f 54/54/54 53/53/53 52/52/52
f 54/54/54 52/52/52 55/55/55
f 52/52/52 50/50/50 56/56/56
f 55/55/55 52/52/52 56/56/56
f 56/56/56 50/50/50 57/57/57
f 56/56/56 57/57/57 58/58/58
f 55/55/55 56/56/56 59/59/59
f 59/59/59 56/56/56 58/58/58
f 60/60/60 55/55/55 59/59/59
f 59/59/59 58/58/58 61/61/61
f 60/60/60 59/59/59 62/62/62
f 62/62/62 59/59/59 61/61/61
