g bench_4
v 0.1648864 0.005614409 1.197776
v 0.1648864 -0.6314095 1.197776
v 0.368072 -0.6314095 1.197776
v 0.368072 0.005614409 1.197776
v 0.368072 -0.6314095 1.302224
v 0.368072 0.005614409 1.302224
v 0.1648864 -0.6314095 1.302224
v 0.1648864 0.005614409 1.302224
v 0.1648864 -0.6314095 1.197776
v 0.368072 -0.6314095 1.197776
v 0.1648864 -0.6314095 1.197776
v 0.1648864 0.005614409 1.197776
v 0.1648864 -0.6314095 -1.197776
v 0.1648864 0.005614409 -1.197776
v 0.368072 0.005614409 -1.197776
v 0.368072 -0.6314095 -1.197776
v 0.368072 0.005614409 -1.302224
v 0.368072 -0.6314095 -1.302224
v 0.1648864 0.005614409 -1.302224
v 0.1648864 -0.6314095 -1.302224
v 0.1648864 0.005614409 -1.197776
v 0.1648864 -0.6314095 -1.197776
v 0.368072 -0.6314095 -1.197776
v 0.1648864 -0.6314095 -1.197776
v -0.3020328 -0.5767315 1.21388
v 0.3349912 -0.5767315 1.21388
v 0.3349912 -0.4701707 1.21388
v -0.3020328 -0.4701707 1.21388
v 0.3349912 -0.4701707 1.28612
v -0.3020328 -0.4701707 1.28612
v 0.3349912 -0.5767315 1.28612
v -0.3020328 -0.5767315 1.28612
v 0.3349912 -0.5767315 1.21388
v -0.3020328 -0.5767315 1.21388
v 0.3349912 -0.5767315 -1.21388
v -0.3020328 -0.5767315 -1.21388
v -0.3020328 -0.4701707 -1.21388
v 0.3349912 -0.4701707 -1.21388
v -0.3020328 -0.4701707 -1.28612
v 0.3349912 -0.4701707 -1.28612
v -0.3020328 -0.5767315 -1.28612
v 0.3349912 -0.5767315 -1.28612
v -0.3020328 -0.5767315 -1.21388
v 0.3349912 -0.5767315 -1.21388
v -0.131928 -0.6314095 1.197776
v -0.131928 0.005614485 1.197776
v -0.2335208 0.005614485 1.197776
v -0.3351136 0.005614485 1.197776
v -0.3265116 0.5060477 1.197776
v -0.4271883 0.4924355 1.197776
v -0.3351136 -0.6314095 1.197776
v -0.4271883 0.4924355 1.302224
v -0.3351136 0.005614485 1.302224
v -0.3351136 -0.6314095 1.302224
v -0.3265116 0.5060477 1.302224
v -0.3265116 0.5060477 1.197776
v -0.4271883 0.4924355 1.197776
v -0.2335208 0.005614485 1.302224
v -0.3265116 0.5060477 1.197776
v -0.2335208 0.005614485 1.197776
v -0.131928 -0.6314095 1.302224
v -0.3351136 -0.6314095 1.197776
v -0.131928 -0.6314095 1.197776
v -0.131928 0.005614485 1.302224
v -0.131928 0.005614485 1.197776
v -0.131928 -0.6314095 1.197776
v -0.2283554 0.003979277 1.490376
v -0.02480134 0.08252877 1.490376
v -0.02480134 0.003979277 1.490376
v -0.2283554 0.08252877 1.490376
v -0.02480134 0.08252877 -1.490376
v -0.02480134 0.003979277 1.490376
v -0.02480134 0.003979277 -1.490376
v -0.2283554 0.003979277 -1.490376
v -0.2283554 0.003979277 1.490376
v -0.2283554 0.08252877 -1.490376
v -0.02480134 0.003979277 -1.490376
v -0.2283554 0.003979277 -1.490376
v -0.2283554 0.003979277 -1.490376
v -0.2283554 0.003979277 1.490376
v -0.3488767 0.6176631 1.490376
v -0.2715394 0.6314095 1.490376
v -0.2359255 0.4310445 1.490376
v -0.3132628 0.4172981 1.490376
v -0.3488767 0.6176631 -1.490376
v -0.3132628 0.4172981 -1.490376
v -0.2715394 0.6314095 1.490376
v -0.2715394 0.6314095 -1.490376
v -0.2359255 0.4310445 -1.490376
v -0.2715394 0.6314095 -1.490376
v -0.2359255 0.4310445 -1.490376
v -0.2359255 0.4310445 1.490376
v -0.3132628 0.4172981 1.490376
v -0.3132628 0.4172981 -1.490376
v -0.3086345 0.3912597 1.490376
v -0.2312973 0.405006 1.490376
v -0.1956833 0.204641 1.490376
v -0.2730206 0.1908946 1.490376
v -0.3086345 0.3912597 -1.490376
v -0.2730206 0.1908946 -1.490376
v -0.2312973 0.405006 1.490376
v -0.2312973 0.405006 -1.490376
v -0.1956833 0.204641 -1.490376
v -0.2312973 0.405006 -1.490376
v -0.1956833 0.204641 -1.490376
v -0.1956833 0.204641 1.490376
v -0.2730206 0.1908946 1.490376
v -0.2730206 0.1908946 -1.490376
v 0.2236343 0.003979277 1.490376
v 0.4271883 0.08252877 1.490376
v 0.4271883 0.003979277 1.490376
v 0.2236343 0.08252877 1.490376
v 0.4271883 0.08252877 -1.490376
v 0.4271883 0.003979277 1.490376
v 0.4271883 0.003979277 -1.490376
v 0.2236343 0.003979277 -1.490376
v 0.2236343 0.003979277 1.490376
v 0.2236343 0.08252877 -1.490376
v 0.4271883 0.003979277 -1.490376
v 0.2236343 0.003979277 -1.490376
v 0.2236343 0.003979277 -1.490376
v 0.2236343 0.003979277 1.490376
v -0.0006554389 0.003979277 1.490376
v 0.2028986 0.08252877 1.490376
v 0.2028986 0.003979277 1.490376
v -0.0006554389 0.08252877 1.490376
v 0.2028986 0.08252877 -1.490376
v 0.2028986 0.003979277 1.490376
v 0.2028986 0.003979277 -1.490376
v -0.0006554389 0.003979277 -1.490376
v -0.0006554389 0.003979277 1.490376
v -0.0006554389 0.08252877 -1.490376
v 0.2028986 0.003979277 -1.490376
v -0.0006554389 0.003979277 -1.490376
v -0.0006554389 0.003979277 -1.490376
v -0.0006554389 0.003979277 1.490376
v -0.2335208 0.005614485 -1.197776
v -0.131928 0.005614485 -1.197776
v -0.131928 -0.6314095 -1.197776
v -0.3351136 -0.6314095 -1.197776
v -0.3351136 0.005614485 -1.197776
v -0.3265116 0.5060477 -1.197776
v -0.4271883 0.4924355 -1.197776
v -0.3351136 -0.6314095 -1.302224
v -0.3351136 0.005614485 -1.302224
v -0.4271883 0.4924355 -1.302224
v -0.3265116 0.5060477 -1.302224
v -0.4271883 0.4924355 -1.197776
v -0.3265116 0.5060477 -1.197776
v -0.131928 -0.6314095 -1.302224
v -0.131928 -0.6314095 -1.197776
v -0.3351136 -0.6314095 -1.197776
v -0.2335208 0.005614485 -1.302224
v -0.2335208 0.005614485 -1.197776
v -0.3265116 0.5060477 -1.197776
v -0.131928 0.005614485 -1.197776
v -0.131928 0.005614485 -1.302224
v -0.131928 -0.6314095 -1.197776
v -0.1091056 -0.5552203 -1.27032
v -0.1091056 -0.5552203 1.27032
v 0.142064 -0.5552203 1.27032
v -0.1091056 -0.5024415 1.27032
v 0.142064 -0.5552203 -1.27032
v -0.1091056 -0.5024415 -1.27032
v 0.142064 -0.5024415 -1.27032
v 0.142064 -0.5024415 1.27032
vt 0.02330863 0.02520388
vt 0.08922815 0.02521968
vt 0.08922297 0.0462454
vt 0.02330363 0.04622942
vt 0.0892204 0.05705369
vt 0.02330101 0.05703783
vt 0.08921504 0.07807955
vt 0.02329588 0.07806358
vt 0.1000237 0.07808217
vt 0.1000288 0.05705625
vt 0.08921242 0.08888772
vt 0.0232935 0.08887187
vt 0.08921933 0.02521342
vt 0.02329969 0.02520984
vt 0.0232985 0.04623562
vt 0.0892179 0.04623926
vt 0.02329814 0.05704391
vt 0.08921742 0.05704749
vt 0.02329695 0.07806969
vt 0.08921635 0.07807332
vt 0.02329636 0.08887821
vt 0.08921587 0.08888179
vt 0.1000259 0.05704826
vt 0.1000247 0.07807392
vt 0.1045624 0.06037879
vt 0.1704819 0.06036878
vt 0.1704803 0.0493418
vt 0.1045607 0.04935193
vt 0.1704792 0.04186642
vt 0.1045595 0.04187644
vt 0.1704774 0.03083938
vt 0.1045576 0.0308494
vt 0.1704762 0.02336413
vt 0.1045567 0.02337408
vt 0.1045598 0.06037426
vt 0.1704794 0.06037319
vt 0.1704792 0.04934621
vt 0.1045595 0.04934752
vt 0.1704792 0.04187083
vt 0.1045595 0.04187214
vt 0.1704788 0.03084385
vt 0.1045592 0.03084493
vt 0.1704787 0.02336848
vt 0.1045592 0.02336967
vt 0.3412906 0.1307341
vt 0.3414686 0.1964686
vt 0.3520682 0.1963874
vt 0.3625551 0.197767
vt 0.3456302 0.2470562
vt 0.3558751 0.2488966
vt 0.3625016 0.130825
vt 0.3664008 0.250282
vt 0.3736265 0.198378
vt 0.3732817 0.1308855
vt 0.3767397 0.2512265
vt 0.3757961 0.2620882
vt 0.3652786 0.2611286
vt 0.3844286 0.1981793
vt 0.3874807 0.2529916
vt 0.3951046 0.2019929
vt 0.3942434 0.1304722
vt 0.3729707 0.1200099
vt 0.3940696 0.1195471
vt 0.3942184 0.1955062
vt 0.4043005 0.1966621
vt 0.4052322 0.1304548
vt 0.3339597 0.1301239
vt 0.3258293 0.1511868
vt 0.3339574 0.1511877
vt 0.3258314 0.1301229
vt 0.01738035 0.1511562
vt 0.3258283 0.1593151
vt 0.01737945 0.1592845
vt 0.0173773 0.1803482
vt 0.3258262 0.1803789
vt 0.01738225 0.1300923
vt 0.009251944 0.1511554
vt 0.00925409 0.1300915
vt 0.01738303 0.121964
vt 0.3258319 0.1219946
vt 0.324682 0.2117586
vt 0.3328102 0.211758
vt 0.3328085 0.1906992
vt 0.3246799 0.1906999
vt 0.0162329 0.211787
vt 0.01623081 0.1907282
vt 0.3246827 0.219887
vt 0.008104614 0.2117877
vt 0.008102647 0.1907289
vt 0.01623368 0.2199153
vt 0.01623553 0.2409742
vt 0.3246846 0.2409457
vt 0.3246853 0.2490742
vt 0.01623636 0.2491025
vt 0.324682 0.2117586
vt 0.3328103 0.211758
vt 0.3328083 0.1906992
vt 0.3246799 0.1906998
vt 0.01623285 0.211787
vt 0.01623082 0.1907284
vt 0.3246827 0.2198868
vt 0.008104614 0.2117879
vt 0.008102647 0.190729
vt 0.01623367 0.2199154
vt 0.01623563 0.2409742
vt 0.3246846 0.2409458
vt 0.3246853 0.2490742
vt 0.01623642 0.2491025
vt 0.3339597 0.1301237
vt 0.3258293 0.1511868
vt 0.3339574 0.1511876
vt 0.3258312 0.130123
vt 0.01738035 0.1511562
vt 0.3258286 0.1593151
vt 0.01737939 0.1592847
vt 0.01737726 0.1803485
vt 0.3258264 0.1803789
vt 0.01738226 0.1300924
vt 0.009251944 0.1511555
vt 0.00925409 0.1300916
vt 0.01738314 0.121964
vt 0.3258321 0.1219947
vt 0.3339597 0.1301239
vt 0.3258293 0.1511868
vt 0.3339574 0.1511875
vt 0.3258314 0.1301229
vt 0.01738035 0.1511562
vt 0.3258283 0.159315
vt 0.01737945 0.1592844
vt 0.01737731 0.1803482
vt 0.3258262 0.180379
vt 0.01738225 0.1300924
vt 0.009251944 0.1511552
vt 0.00925409 0.1300914
vt 0.01738303 0.121964
vt 0.3258319 0.1219946
vt 0.3521128 0.1964221
vt 0.3415161 0.1966187
vt 0.3406578 0.130987
vt 0.3618659 0.1308775
vt 0.3626045 0.1977386
vt 0.3456159 0.2470447
vt 0.3558486 0.2489018
vt 0.3725871 0.1307927
vt 0.3736743 0.1983328
vt 0.3664545 0.2502256
vt 0.3767734 0.2511734
vt 0.3652456 0.2609952
vt 0.3757732 0.2620949
vt 0.3935187 0.1301589
vt 0.3932501 0.1192696
vt 0.3721761 0.1198885
vt 0.3844919 0.1980599
vt 0.3953542 0.2022864
vt 0.3872905 0.2528532
vt 0.4043933 0.1960172
vt 0.3942269 0.1954618
vt 0.4044157 0.1301175
vt 0.717594 0.3691518
vt 0.717594 0.3691518
vt 0.717594 0.3691518
vt 0.717594 0.3691518
vt 0.717594 0.3691518
vt 0.717594 0.3691518
vt 0.717594 0.3691518
vt 0.717594 0.3691518
vn -0.4524003 0.1442979 -0.8800637
vn -0.4524003 -0.1442979 -0.8800637
vn 0.4524003 -0.1442979 -0.8800637
vn 0.4524003 0.1442979 -0.8800637
vn 0.4524003 -0.1442979 0.8800637
vn 0.4524003 0.1442979 0.8800637
vn -0.4524003 -0.1442979 0.8800637
vn -0.4524003 0.1442979 0.8800637
vn -0.4524003 -0.1442979 -0.8800637
vn 0.4524003 -0.1442979 -0.8800637
vn -0.4524003 -0.1442979 -0.8800637
vn -0.4524003 0.1442979 -0.8800637
vn -0.4524003 -0.1442979 0.8800637
vn -0.4524003 0.1442979 0.8800637
vn 0.4524003 0.1442979 0.8800637
vn 0.4524003 -0.1442979 0.8800637
vn 0.4524003 0.1442979 -0.8800637
vn 0.4524003 -0.1442979 -0.8800637
vn -0.4524003 0.1442979 -0.8800637
vn -0.4524003 -0.1442979 -0.8800637
vn -0.4524003 0.1442979 0.8800637
vn -0.4524003 -0.1442979 0.8800637
vn 0.4524003 -0.1442979 0.8800637
vn -0.4524003 -0.1442979 0.8800637
vn -0.09345511 -0.5586778 -0.8241026
vn 0.09345511 -0.5586778 -0.8241026
vn 0.09345511 0.5586778 -0.8241026
vn -0.09345511 0.5586778 -0.8241026
vn 0.09345511 0.5586778 0.8241026
vn -0.09345511 0.5586778 0.8241026
vn 0.09345511 -0.5586778 0.8241026
vn -0.09345511 -0.5586778 0.8241026
vn 0.09345511 -0.5586778 -0.8241026
vn -0.09345511 -0.5586778 -0.8241026
vn 0.09345511 -0.5586778 0.8241026
vn -0.09345511 -0.5586778 0.8241026
vn -0.09345511 0.5586778 0.8241026
vn 0.09345511 0.5586778 0.8241026
vn -0.09345511 0.5586778 -0.8241026
vn 0.09345511 0.5586778 -0.8241026
vn -0.09345511 -0.5586778 -0.8241026
vn 0.09345511 -0.5586778 -0.8241026
vn -0.09345511 -0.5586778 0.8241026
vn 0.09345511 -0.5586778 0.8241026
vn 0.7121986 -0.1135817 -0.6927282
vn 0.7121986 0.1135817 -0.6927282
vn 0.303209 0.1178968 -0.9456028
vn -0.6621564 -0.05424934 -0.7473994
vn 0.592314 0.2356349 -0.7704806
vn -0.8329341 0.01431755 -0.553187
vn -0.7121986 -0.1135817 -0.6927282
vn -0.8329341 0.01431755 0.5531871
vn -0.6621563 -0.05424934 0.7473995
vn -0.7121986 -0.1135817 0.6927282
vn 0.5923139 0.2356348 0.7704807
vn 0.592314 0.2356349 -0.7704806
vn -0.8329341 0.01431755 -0.553187
vn 0.3032089 0.1178968 0.9456028
vn 0.592314 0.2356349 -0.7704806
vn 0.303209 0.1178968 -0.9456028
vn 0.7121986 -0.1135817 0.6927282
vn -0.7121986 -0.1135817 -0.6927282
vn 0.7121986 -0.1135817 -0.6927282
vn 0.7121986 0.1135817 0.6927282
vn 0.7121986 0.1135817 -0.6927282
vn 0.7121986 -0.1135817 -0.6927282
vn -0.359906 -0.9326648 0.0245778
vn 0.359906 0.9326648 0.0245778
vn 0.359906 -0.9326648 0.0245778
vn -0.359906 0.9326648 0.0245778
vn 0.359906 0.9326648 -0.0245778
vn 0.359906 -0.9326648 0.0245778
vn 0.359906 -0.9326648 -0.0245778
vn -0.359906 -0.9326648 -0.0245778
vn -0.359906 -0.9326648 0.0245778
vn -0.359906 0.9326648 -0.0245778
vn 0.359906 -0.9326648 -0.0245778
vn -0.359906 -0.9326648 -0.0245778
vn -0.359906 -0.9326648 -0.0245778
vn -0.359906 -0.9326648 0.0245778
vn -0.981241 0.1912118 0.02457704
vn 0.8552461 0.517639 0.02457705
vn 0.981241 -0.1912118 0.02457704
vn -0.8552461 -0.517639 0.02457705
vn -0.981241 0.1912118 -0.02457704
vn -0.8552461 -0.517639 -0.02457705
vn 0.8552461 0.517639 0.02457705
vn 0.8552461 0.517639 -0.02457705
vn 0.981241 -0.1912118 -0.02457704
vn 0.8552461 0.517639 -0.02457705
vn 0.981241 -0.1912118 -0.02457704
vn 0.981241 -0.1912118 0.02457704
vn -0.8552461 -0.517639 0.02457705
vn -0.8552461 -0.517639 -0.02457705
vn -0.981241 0.1912118 0.02457704
vn 0.8552461 0.517639 0.02457705
vn 0.981241 -0.1912118 0.02457704
vn -0.8552461 -0.517639 0.02457705
vn -0.981241 0.1912118 -0.02457704
vn -0.8552461 -0.517639 -0.02457705
vn 0.8552461 0.517639 0.02457705
vn 0.8552461 0.517639 -0.02457705
vn 0.981241 -0.1912118 -0.02457704
vn 0.8552461 0.517639 -0.02457705
vn 0.981241 -0.1912118 -0.02457704
vn 0.981241 -0.1912118 0.02457704
vn -0.8552461 -0.517639 0.02457705
vn -0.8552461 -0.517639 -0.02457705
vn -0.359906 -0.9326648 0.0245778
vn 0.359906 0.9326648 0.0245778
vn 0.359906 -0.9326648 0.0245778
vn -0.359906 0.9326648 0.0245778
vn 0.359906 0.9326648 -0.0245778
vn 0.359906 -0.9326648 0.0245778
vn 0.359906 -0.9326648 -0.0245778
vn -0.359906 -0.9326648 -0.0245778
vn -0.359906 -0.9326648 0.0245778
vn -0.359906 0.9326648 -0.0245778
vn 0.359906 -0.9326648 -0.0245778
vn -0.359906 -0.9326648 -0.0245778
vn -0.359906 -0.9326648 -0.0245778
vn -0.359906 -0.9326648 0.0245778
vn -0.359906 -0.9326648 0.0245778
vn 0.359906 0.9326648 0.0245778
vn 0.359906 -0.9326648 0.0245778
vn -0.359906 0.9326648 0.0245778
vn 0.359906 0.9326648 -0.0245778
vn 0.359906 -0.9326648 0.0245778
vn 0.359906 -0.9326648 -0.0245778
vn -0.359906 -0.9326648 -0.0245778
vn -0.359906 -0.9326648 0.0245778
vn -0.359906 0.9326648 -0.0245778
vn 0.359906 -0.9326648 -0.0245778
vn -0.359906 -0.9326648 -0.0245778
vn -0.359906 -0.9326648 -0.0245778
vn -0.359906 -0.9326648 0.0245778
vn 0.3032089 0.1178968 0.9456028
vn 0.7121986 0.1135817 0.6927282
vn 0.7121986 -0.1135817 0.6927282
vn -0.7121986 -0.1135817 0.6927282
vn -0.6621563 -0.05424934 0.7473995
vn 0.5923139 0.2356348 0.7704807
vn -0.8329341 0.01431755 0.5531871
vn -0.7121986 -0.1135817 -0.6927282
vn -0.6621564 -0.05424934 -0.7473994
vn -0.8329341 0.01431755 -0.553187
vn 0.592314 0.2356349 -0.7704806
vn -0.8329341 0.01431755 0.5531871
vn 0.5923139 0.2356348 0.7704807
vn 0.7121986 -0.1135817 -0.6927282
vn 0.7121986 -0.1135817 0.6927282
vn -0.7121986 -0.1135817 0.6927282
vn 0.303209 0.1178968 -0.9456028
vn 0.3032089 0.1178968 0.9456028
vn 0.5923139 0.2356348 0.7704807
vn 0.7121986 0.1135817 0.6927282
vn 0.7121986 0.1135817 -0.6927282
vn 0.7121986 -0.1135817 0.6927282
vn -0.2055985 -0.9784253 -0.02032563
vn -0.2055985 -0.9784253 0.02032563
vn 0.2055985 -0.9784253 0.02032563
vn -0.2055985 0.9784253 0.02032563
vn 0.2055985 -0.9784253 -0.02032563
vn -0.2055985 0.9784253 -0.02032563
vn 0.2055985 0.9784253 -0.02032563
vn 0.2055985 0.9784253 0.02032563
g bench_4_0
f 3/3/3 2/2/2 1/1/1
f 4/4/4 3/3/3 1/1/1
f 3/3/3 4/4/4 5/5/5
f 4/4/4 6/6/6 5/5/5
f 5/5/5 6/6/6 7/7/7
f 6/6/6 8/8/8 7/7/7
f 5/5/5 7/7/7 9/9/9
f 10/10/10 5/5/5 9/9/9
f 7/7/7 8/8/8 11/11/11
f 8/8/8 12/12/12 11/11/11
f 15/15/15 14/14/14 13/13/13
f 16/16/16 15/15/15 13/13/13
f 17/17/17 15/15/15 16/16/16
f 18/18/18 17/17/17 16/16/16
f 17/17/17 18/18/18 19/19/19
f 18/18/18 20/20/20 19/19/19
f 21/21/21 19/19/19 20/20/20
f 22/22/22 21/21/21 20/20/20
f 18/18/18 23/23/23 20/20/20
f 23/23/23 24/24/24 20/20/20
f 27/27/27 26/26/26 25/25/25
f 28/28/28 27/27/27 25/25/25
f 27/27/27 28/28/28 29/29/29
f 28/28/28 30/30/30 29/29/29
f 29/29/29 30/30/30 31/31/31
f 30/30/30 32/32/32 31/31/31
f 31/31/31 32/32/32 33/33/33
f 32/32/32 34/34/34 33/33/33
f 37/37/37 36/36/36 35/35/35
f 38/38/38 37/37/37 35/35/35
f 39/39/39 37/37/37 38/38/38
f 40/40/40 39/39/39 38/38/38
f 39/39/39 40/40/40 41/41/41
f 40/40/40 42/42/42 41/41/41
f 43/43/43 41/41/41 42/42/42
f 44/44/44 43/43/43 42/42/42
f 47/47/47 46/46/46 45/45/45
f 47/47/47 45/45/45 48/48/48
f 47/47/47 48/48/48 49/49/49
f 48/48/48 50/50/50 49/49/49
f 45/45/45 51/51/51 48/48/48
f 52/52/52 50/50/50 48/48/48
f 53/53/53 48/48/48 51/51/51
f 53/53/53 52/52/52 48/48/48
f 54/54/54 53/53/53 51/51/51
f 55/55/55 52/52/52 53/53/53
f 55/55/55 56/56/56 52/52/52
f 56/56/56 57/57/57 52/52/52
f 58/58/58 55/55/55 53/53/53
f 58/58/58 53/53/53 54/54/54
f 55/55/55 58/58/58 59/59/59
f 58/58/58 60/60/60 59/59/59
f 61/61/61 58/58/58 54/54/54
f 61/61/61 54/54/54 62/62/62
f 63/63/63 61/61/61 62/62/62
f 58/58/58 64/64/64 60/60/60
f 61/61/61 64/64/64 58/58/58
f 64/64/64 65/65/65 60/60/60
f 65/65/65 64/64/64 61/61/61
f 66/66/66 65/65/65 61/61/61
f 69/69/69 68/68/68 67/67/67
f 68/68/68 70/70/70 67/67/67
f 68/68/68 71/71/71 70/70/70
f 71/71/71 68/68/68 72/72/72
f 73/73/73 71/71/71 72/72/72
f 73/73/73 72/72/72 74/74/74
f 72/72/72 75/75/75 74/74/74
f 71/71/71 76/76/76 70/70/70
f 71/71/71 77/77/77 76/76/76
f 77/77/77 78/78/78 76/76/76
f 70/70/70 76/76/76 79/79/79
f 80/80/80 70/70/70 79/79/79
f 83/83/83 82/82/82 81/81/81
f 84/84/84 83/83/83 81/81/81
f 84/84/84 81/81/81 85/85/85
f 86/86/86 84/84/84 85/85/85
f 81/81/81 87/87/87 85/85/85
f 86/86/86 85/85/85 88/88/88
f 89/89/89 86/86/86 88/88/88
f 87/87/87 90/90/90 85/85/85
f 91/91/91 90/90/90 87/87/87
f 92/92/92 91/91/91 87/87/87
f 91/91/91 92/92/92 93/93/93
f 94/94/94 91/91/91 93/93/93
f 97/97/97 96/96/96 95/95/95
f 98/98/98 97/97/97 95/95/95
f 98/98/98 95/95/95 99/99/99
f 100/100/100 98/98/98 99/99/99
f 95/95/95 101/101/101 99/99/99
f 100/100/100 99/99/99 102/102/102
f 103/103/103 100/100/100 102/102/102
f 101/101/101 104/104/104 99/99/99
f 105/105/105 104/104/104 101/101/101
f 106/106/106 105/105/105 101/101/101
f 105/105/105 106/106/106 107/107/107
f 108/108/108 105/105/105 107/107/107
f 111/111/111 110/110/110 109/109/109
f 110/110/110 112/112/112 109/109/109
f 110/110/110 113/113/113 112/112/112
f 113/113/113 110/110/110 114/114/114
f 115/115/115 113/113/113 114/114/114
f 115/115/115 114/114/114 116/116/116
f 114/114/114 117/117/117 116/116/116
f 113/113/113 118/118/118 112/112/112
f 113/113/113 119/119/119 118/118/118
f 119/119/119 120/120/120 118/118/118
f 112/112/112 118/118/118 121/121/121
f 122/122/122 112/112/112 121/121/121
f 125/125/125 124/124/124 123/123/123
f 124/124/124 126/126/126 123/123/123
f 124/124/124 127/127/127 126/126/126
f 127/127/127 124/124/124 128/128/128
f 129/129/129 127/127/127 128/128/128
f 129/129/129 128/128/128 130/130/130
f 128/128/128 131/131/131 130/130/130
f 127/127/127 132/132/132 126/126/126
f 127/127/127 133/133/133 132/132/132
f 133/133/133 134/134/134 132/132/132
f 126/126/126 132/132/132 135/135/135
f 136/136/136 126/126/126 135/135/135
f 139/139/139 138/138/138 137/137/137
f 139/139/139 137/137/137 140/140/140
f 137/137/137 141/141/141 140/140/140
f 137/137/137 142/142/142 141/141/141
f 142/142/142 143/143/143 141/141/141
f 140/140/140 141/141/141 144/144/144
f 141/141/141 143/143/143 145/145/145
f 141/141/141 145/145/145 144/144/144
f 143/143/143 146/146/146 145/145/145
f 145/145/145 146/146/146 147/147/147
f 147/147/147 146/146/146 148/148/148
f 149/149/149 147/147/147 148/148/148
f 150/150/150 144/144/144 145/145/145
f 150/150/150 151/151/151 144/144/144
f 151/151/151 152/152/152 144/144/144
f 153/153/153 145/145/145 147/147/147
f 153/153/153 150/150/150 145/145/145
f 154/154/154 153/153/153 147/147/147
f 155/155/155 154/154/154 147/147/147
f 154/154/154 156/156/156 153/153/153
f 153/153/153 157/157/157 150/150/150
f 156/156/156 157/157/157 153/153/153
f 150/150/150 157/157/157 158/158/158
f 157/157/157 156/156/156 158/158/158
f 161/161/161 160/160/160 159/159/159
f 160/160/160 162/162/162 159/159/159
f 163/163/163 161/161/161 159/159/159
f 162/162/162 164/164/164 159/159/159
f 163/163/163 165/165/165 161/161/161
f 165/165/165 164/164/164 162/162/162
f 165/165/165 166/166/166 161/161/161
f 166/166/166 165/165/165 162/162/162
