g FireHydrant
v 0.07642849 -0.3435609 0.3688515
v 0.08153936 -0.3425001 0.6421648
v 0.1544848 -0.3427854 0.5040468
v -0.1491041 -0.3481222 0.5097438
v -0.07537971 -0.3462673 0.3707786
v 0.08153936 -0.3425001 0.6421648
v -0.07023595 -0.3451158 0.645934
v 0.1380664 0.3481225 0.4793926
v -0.09168575 0.3449492 0.3571128
v 0.06012167 0.3476533 0.3551192
v -0.08682593 0.3453205 0.6104979
v -0.16552 0.3427924 0.4852225
v -0.09168575 0.3449492 0.3571128
v -0.08682593 0.3453205 0.6104979
v 0.1380664 0.3481225 0.4793926
v 0.06494776 0.3479318 0.6066624
v -0.2210601 0.07970794 0.0823871
v -0.2099362 -0.0882163 0.4797678
v -0.2133222 -0.09751911 0.08235823
v -0.2177441 0.08881836 0.4715787
v -0.2313978 -0.0804811 0.8033528
v -0.1012132 0.2104979 0.08241602
v -0.240475 0.1206944 0.7864495
v -0.09796728 0.219416 0.4633894
v 0.07601389 0.2182359 0.08242795
v -0.1042084 0.2689691 0.7695462
v 0.07923079 0.2270742 0.4599974
v 0.2068039 0.09838893 0.08241602
v 0.09757907 0.2774858 0.7625446
v 0.2100498 0.107307 0.4633894
v 0.2145418 -0.0788381 0.0823871
v 0.2466829 0.1412552 0.7695462
v 0.2178577 -0.06972769 0.4715786
v 0.09469493 -0.2096281 0.08235823
v 0.2557601 -0.0599203 0.7864495
v 0.09808088 -0.2003253 0.4797678
v -0.08253215 -0.217366 0.0823463
v 0.1194935 -0.208195 0.8033527
v -0.07911722 -0.2079836 0.4831599
v -0.2133222 -0.09751911 0.08235823
v -0.08229396 -0.2167116 0.8103545
v -0.2099362 -0.0882163 0.4797678
v -0.2313978 -0.0804811 0.8033528
v -0.1321979 0.3305784 0.7777075
v -0.301691 0.1483877 0.8403144
v -0.3030277 0.1447151 0.7992868
v -0.1309015 0.3341404 0.8174977
v 0.1207845 0.3412422 0.7687691
v 0.1220642 0.3447582 0.8080466
v 0.3077258 0.1704594 0.7777074
v 0.3090223 0.1740213 0.8174977
v 0.3191184 -0.08172749 0.7992868
v 0.3204552 -0.07805487 0.8403143
v 0.1482887 -0.2675909 0.8208662
v 0.1496657 -0.2638074 0.863131
v -0.1046938 -0.2782546 0.8298047
v -0.1033 -0.2744253 0.872582
v -0.2916351 -0.1074719 0.8208663
v -0.2902581 -0.1036884 0.863131
v -0.3030277 0.1447151 0.7992868
v -0.301691 0.1483877 0.8403144
v -0.1042084 0.2689691 0.7695462
v -0.3030277 0.1447151 0.7992868
v -0.240475 0.1206944 0.7864495
v -0.1321979 0.3305784 0.7777075
v 0.09757907 0.2774858 0.7625446
v 0.1207845 0.3412422 0.7687691
v 0.2466829 0.1412552 0.7695462
v 0.3077258 0.1704594 0.7777074
v 0.2557601 -0.0599203 0.7864495
v 0.3191184 -0.08172749 0.7992868
v 0.1194935 -0.208195 0.8033527
v 0.1482887 -0.2675909 0.8208662
v -0.08229396 -0.2167116 0.8103545
v -0.1046938 -0.2782546 0.8298047
v -0.2313978 -0.0804811 0.8033528
v -0.2916351 -0.1074719 0.8208663
v -0.240475 0.1206944 0.7864495
v -0.3030277 0.1447151 0.7992868
v -0.2291726 -0.0743673 0.8716508
v -0.301691 0.1483877 0.8403144
v -0.2383021 0.1266646 0.8531432
v -0.2902581 -0.1036884 0.863131
v -0.08004707 -0.2105383 0.8793169
v -0.1033 -0.2744253 0.872582
v 0.1217187 -0.2020812 0.8716508
v 0.1496657 -0.2638074 0.863131
v 0.2579331 -0.05395014 0.8531432
v 0.3204552 -0.07805487 0.8403143
v 0.2488036 0.1470818 0.8346355
v 0.3090223 0.1740213 0.8174977
v 0.09967809 0.2832528 0.8269695
v 0.1220642 0.3447582 0.8080466
v -0.1020877 0.2747957 0.8346355
v -0.1309015 0.3341404 0.8174977
v -0.2383021 0.1266646 0.8531432
v -0.301691 0.1483877 0.8403144
v 0.1509452 -0.1415735 0.5038039
v 0.08153936 -0.3425001 0.6421648
v 0.0779902 -0.1413147 0.638783
v 0.1544848 -0.3427854 0.5040468
v 0.07288154 -0.1423696 0.3718143
v 0.07642849 -0.3435609 0.3688515
v -0.07892589 -0.1450737 0.3738078
v -0.07537971 -0.3462673 0.3707786
v -0.1526412 -0.1469036 0.5096337
v -0.1491041 -0.3481222 0.5097438
v -0.07378351 -0.143926 0.6426185
v -0.07023595 -0.3451158 0.645934
v 0.0779902 -0.1413147 0.638783
v 0.08153936 -0.3425001 0.6421648
v 0.1380664 0.3481225 0.4793926
v 0.0685102 0.1467829 0.6105995
v 0.06494776 0.3479318 0.6066624
v 0.141616 0.1469382 0.4801912
v 0.06012167 0.3476533 0.3551192
v 0.06367552 0.1464808 0.3527127
v -0.09168575 0.3449492 0.3571128
v -0.08813269 0.1437744 0.3546398
v -0.16552 0.3427924 0.4852225
v -0.1619729 0.1416016 0.4858882
v -0.08682593 0.3453205 0.6104979
v -0.08326507 0.1441672 0.6143686
v 0.06494776 0.3479318 0.6066624
v 0.0685102 0.1467829 0.6105995
v -0.03948755 0.1176309 1.143098
v 0.0386065 0.1179771 1.057457
v 0.04739451 0.142122 1.135809
v -0.03120773 0.09824723 1.062865
v -0.04237064 0.0278866 1.154891
v -0.03120773 0.09824723 1.062865
v -0.03948755 0.1176309 1.143098
v -0.03355661 0.02606377 1.071616
v 0.04272956 -0.00308732 1.154891
v -0.03355661 0.02606377 1.071616
v -0.04237064 0.0278866 1.154891
v 0.03480593 0.001181855 1.071616
v 0.09820745 0.06751404 1.143098
v 0.03480593 0.001181855 1.071616
v 0.04272956 -0.00308732 1.154891
v 0.07940518 0.05798744 1.062865
v 0.04739451 0.142122 1.135809
v 0.07940518 0.05798744 1.062865
v 0.09820745 0.06751404 1.143098
v 0.0386065 0.1179771 1.057457
v -0.04237064 0.0278866 1.154891
v 0.09820745 0.06751404 1.143098
v 0.04272956 -0.00308732 1.154891
v -0.03948755 0.1176309 1.143098
v 0.04739451 0.142122 1.135809
v 0.1124027 0.3182133 0
v -0.1381449 0.2897555 0.06102416
v -0.1458319 0.306944 0
v 0.1059233 0.3004114 0.0613062
v 0.3029781 0.1435906 0
v -0.3031918 0.1096389 0.06034337
v -0.3204552 0.1163842 0
v 0.2860411 0.1353645 0.06102421
v 0.3142579 -0.1146324 0
v -0.2925352 -0.1344285 0.05966258
v -0.3091753 -0.1418388 0
v 0.2966976 -0.1087029 0.06034341
v 0.1396346 -0.3051922 0
v -0.1124175 -0.2994755 0.05938058
v -0.1185999 -0.3164615 0
v 0.1316508 -0.2888195 0.05966262
v -0.1012132 0.2104979 0.08241602
v 0.07601389 0.2182359 0.08242795
v -0.2210601 0.07970794 0.0823871
v 0.2068039 0.09838893 0.08241602
v -0.2133222 -0.09751911 0.08235823
v 0.2145418 -0.0788381 0.0823871
v -0.08253215 -0.217366 0.0823463
v 0.09469493 -0.2096281 0.08235823
v -0.08049362 0.2531584 0.9718855
v 0.09967809 0.2832528 0.8269695
v 0.09130294 0.2602422 0.9641912
v -0.1020877 0.2747957 0.8346355
v 0.2488036 0.1470818 0.8346355
v -0.1964002 0.1272852 0.9904613
v -0.2383021 0.1266646 0.8531432
v 0.2183534 0.144387 0.9718855
v 0.2579331 -0.05395014 0.8531432
v -0.1885203 -0.04364245 1.009037
v -0.2291726 -0.0743673 0.8716508
v 0.2262333 -0.02654072 0.9904613
v 0.1217187 -0.2020812 0.8716508
v -0.0614698 -0.1594976 1.016732
v -0.08004707 -0.2105383 0.8793169
v 0.1103268 -0.1524138 1.009037
v -0.03806533 0.1813133 1.068438
v -0.106953 0.1065792 1.080584
v 0.01990066 0.06406594 1.106774
v 0.06408935 0.1854734 1.063407
v -0.10222 0.005049563 1.092729
v 0.1396703 0.1166228 1.068438
v -0.02663911 -0.06380107 1.09776
v 0.1444032 0.01509313 1.080584
v 0.07551558 -0.05964089 1.092729
vt 0.1644478 0.1679036
vt 0.2735186 0.236278
vt 0.2394976 0.174092
vt 0.1583424 0.2960521
vt 0.1235015 0.2286356
vt 0.2735186 0.236278
vt 0.2337109 0.2989146
vt 0.1576468 0.2930086
vt 0.1652652 0.1661123
vt 0.1245563 0.2313112
vt 0.2736689 0.2347153
vt 0.2401032 0.167761
vt 0.1652652 0.1661123
vt 0.2736689 0.2347153
vt 0.1576468 0.2930086
vt 0.2321717 0.2994153
vt 0.6492033 0.4257426
vt 0.7582316 0.6216301
vt 0.7370975 0.425991
vt 0.6682827 0.6213768
vt 0.7887547 0.7886837
vt 0.5627246 0.4255002
vt 0.6883371 0.7884006
vt 0.5761955 0.6211177
vt 0.4768062 0.4252583
vt 0.5893949 0.7881221
vt 0.4827479 0.6208552
vt 0.3894086 0.4250124
vt 0.4917149 0.7878473
vt 0.389196 0.6205916
vt 0.3001651 0.4247612
vt 0.3952826 0.7875765
vt 0.2963513 0.6203305
vt 0.2101299 0.4245079
vt 0.2992999 0.7873061
vt 0.2044734 0.6200717
vt 0.1187267 0.4242512
vt 0.2021905 0.7870325
vt 0.1141525 0.6198179
vt 0.02777567 0.4239958
vt 0.1034771 0.7867559
vt 0.02479721 0.6195669
vt 0.003175188 0.7864734
vt 0.6598197 0.8259716
vt 0.755371 0.842304
vt 0.7554043 0.8262402
vt 0.6598397 0.8420354
vt 0.5674708 0.8257117
vt 0.5675266 0.8417757
vt 0.4756355 0.8254532
vt 0.4756931 0.8415176
vt 0.3838067 0.8251947
vt 0.3838082 0.8412594
vt 0.291998 0.8249362
vt 0.2919336 0.8410007
vt 0.2001547 0.8246784
vt 0.2000649 0.8407426
vt 0.1078531 0.8244185
vt 0.1077622 0.8404823
vt 0.01229958 0.82415
vt 0.01219668 0.8402131
vt 0.6584571 0.8007346
vt 0.7554043 0.8262402
vt 0.7427514 0.8009716
vt 0.6598197 0.8259716
vt 0.567255 0.8004792
vt 0.5674708 0.8257117
vt 0.4754926 0.80022
vt 0.4756355 0.8254532
vt 0.3839501 0.7999631
vt 0.3838067 0.8251947
vt 0.2921751 0.7997047
vt 0.291998 0.8249362
vt 0.2003323 0.7994464
vt 0.2001547 0.8246784
vt 0.1093502 0.79919
vt 0.1078531 0.8244185
vt 0.02510107 0.798953
vt 0.01229958 0.82415
vt 0.108971 0.8654163
vt 0.01219668 0.8402131
vt 0.02470447 0.8651795
vt 0.1077622 0.8404823
vt 0.1999381 0.8656728
vt 0.2000649 0.8407426
vt 0.2918111 0.8659306
vt 0.2919336 0.8410007
vt 0.38379 0.86619
vt 0.3838082 0.8412594
vt 0.4759481 0.8664489
vt 0.4756931 0.8415176
vt 0.5677059 0.866707
vt 0.5675266 0.8417757
vt 0.6583402 0.8669617
vt 0.6598397 0.8420354
vt 0.7424766 0.8671983
vt 0.755371 0.842304
vt 0.4093225 0.8797053
vt 0.4898184 0.9818031
vt 0.4869744 0.879925
vt 0.4107685 0.9815813
vt 0.3316923 0.8794873
vt 0.3317449 0.9813595
vt 0.254816 0.8792717
vt 0.2548792 0.9811432
vt 0.1765724 0.8790516
vt 0.1752421 0.9809188
vt 0.09830047 0.878831
vt 0.09557249 0.9806951
vt 0.02144744 0.8786144
vt 0.01872077 0.9804785
vt 0.1039495 0.9794839
vt 0.02620715 0.8780381
vt 0.02916645 0.979274
vt 0.1029712 0.8782692
vt 0.1787061 0.9796952
vt 0.1797347 0.8785005
vt 0.2560896 0.9799132
vt 0.2564991 0.8787314
vt 0.3314525 0.9801245
vt 0.3332632 0.8789627
vt 0.4068512 0.9803365
vt 0.4100273 0.8791938
vt 0.4842167 0.980554
vt 0.4867919 0.8794251
vt 0.6938895 0.922638
vt 0.6420565 0.8811948
vt 0.6461788 0.9225036
vt 0.6803346 0.8813019
vt 0.7384662 0.9227633
vt 0.6803346 0.8813019
vt 0.6938895 0.922638
vt 0.715987 0.8814023
vt 0.5500036 0.9222335
vt 0.5295099 0.8808779
vt 0.5059624 0.9221095
vt 0.5648897 0.8809777
vt 0.5974925 0.9223671
vt 0.5648897 0.8809777
vt 0.5500036 0.9222335
vt 0.6029505 0.8810849
vt 0.6461788 0.9225036
vt 0.6029505 0.8810849
vt 0.5974925 0.9223671
vt 0.6420565 0.8811948
vt 0.7608349 0.9085234
vt 0.8093984 0.8420753
vt 0.760978 0.8576581
vt 0.8091671 0.924379
vt 0.8391812 0.8833106
vt 0.3778116 0.1603165
vt 0.3464367 0.293119
vt 0.3740066 0.3053026
vt 0.3494945 0.1711599
vt 0.278062 0.05514945
vt 0.2577857 0.3770157
vt 0.268547 0.4047936
vt 0.265582 0.08262303
vt 0.1331795 0.05055176
vt 0.1357165 0.3733999
vt 0.1237784 0.4003301
vt 0.1435979 0.07845923
vt 0.02810697 0.1503725
vt 0.05180052 0.2846135
vt 0.02442225 0.2950886
vt 0.05493302 0.1624754
vt 0.3054063 0.2748367
vt 0.3075659 0.187242
vt 0.2417565 0.3349693
vt 0.2471519 0.1235798
vt 0.1541649 0.3322512
vt 0.159562 0.1205553
vt 0.09394507 0.2684757
vt 0.09610166 0.1808325
vt 0.6437609 0.08957055
vt 0.5185751 0.02185114
vt 0.5445707 0.08769841
vt 0.6723742 0.0241302
vt 0.4078084 0.1285772
vt 0.7121419 0.1610225
vt 0.7800932 0.1345043
vt 0.4734071 0.1568232
vt 0.4045376 0.2827697
vt 0.709973 0.2594677
vt 0.7782019 0.2892956
vt 0.472278 0.2557188
vt 0.5116585 0.3945245
vt 0.6392625 0.3275525
vt 0.666838 0.3974026
vt 0.5411113 0.3261325
vt 0.6186708 0.1458197
vt 0.6540747 0.1829917
vt 0.5916471 0.2069491
vt 0.5671108 0.144796
vt 0.6528239 0.233981
vt 0.5301545 0.1807645
vt 0.6162103 0.2691623
vt 0.5296918 0.2320962
vt 0.5654367 0.2684799
vn 0.01777468 -0.9998343 -0.003915809
vn 0.003319877 -0.9999872 0.003819237
vn 0.003319877 -0.9999872 0.003819237
vn 0.01777468 -0.9998343 -0.003915809
vn 0.01777468 -0.9998343 -0.003915809
vn 0.02238173 -0.9997435 0.00346184
vn 0.01752642 -0.9997754 0.01191989
vn -0.01771277 0.9998162 0.007334298
vn -0.01771277 0.9998162 0.007334298
vn -0.01771277 0.9998162 0.007334298
vn -0.03071649 0.9995277 -0.0008751746
vn -0.03071649 0.9995277 -0.0008751746
vn -0.01316535 0.9999126 -0.001212363
vn -0.01741733 0.9998122 -0.008508177
vn -0.01741734 0.9998122 -0.008508177
vn -0.01741734 0.9998122 -0.008508177
vn -0.941765 0.3362718 0.0001522282
vn -0.9039475 -0.4273348 -0.01625011
vn -0.9043425 -0.4264407 0.01768737
vn -0.941346 0.3335954 -0.05081295
vn -0.901722 -0.4293873 -0.05023943
vn -0.4264876 0.9043234 -0.01753522
vn -0.9393307 0.3275899 -0.1016992
vn -0.4271614 0.9000847 -0.08591151
vn 0.3419138 0.9394013 -0.02490316
vn -0.4275084 0.8909306 -0.1532287
vn 0.3401391 0.9349573 -0.1007978
vn 0.9079963 0.4186112 -0.01753525
vn 0.336558 0.9253934 -0.1742864
vn 0.9056657 0.4150734 -0.08650874
vn 0.9375852 -0.3477556 0.0001522013
vn 0.9001488 0.4081233 -0.1522085
vn 0.9354888 -0.3495665 -0.05161383
vn 0.418656 -0.9079726 0.01768737
vn 0.9303175 -0.3527812 -0.100273
vn 0.4175829 -0.9084837 -0.01678767
vn -0.3419138 -0.9394013 0.02490309
vn 0.4145454 -0.9086954 -0.04924221
vn -0.3421425 -0.9396453 -0.002233718
vn -0.9043425 -0.4264407 0.01768737
vn -0.3420824 -0.9392329 -0.02866032
vn -0.9039475 -0.4273348 -0.01625011
vn -0.901722 -0.4293873 -0.05023943
vn -0.4241212 0.9031215 -0.06702708
vn -0.9399126 0.3414151 6.161046E-05
vn -0.9399127 0.341415 6.165924E-05
vn -0.4241211 0.9031216 -0.06702711
vn 0.3404785 0.9354576 -0.09483267
vn 0.3404785 0.9354576 -0.09483257
vn 0.9054109 0.4192118 -0.06702568
vn 0.9054108 0.4192121 -0.06702568
vn 0.9394723 -0.342625 6.175052E-05
vn 0.9394724 -0.3426249 6.180812E-05
vn 0.4232931 -0.9035054 0.06708821
vn 0.423293 -0.9035054 0.06708825
vn -0.3404783 -0.9354578 0.09483287
vn -0.3404785 -0.9354576 0.09483285
vn -0.9050232 -0.4200385 0.06708737
vn -0.9050235 -0.4200379 0.06708735
vn -0.9399127 0.341415 6.165924E-05
vn -0.9399126 0.3414151 6.161046E-05
vn -0.1090834 0.0821 -0.9906364
vn -0.2079118 -0.02023502 -0.9779383
vn -0.2086149 -0.01959076 -0.9778016
vn -0.1089465 0.08150801 -0.9907003
vn 0.0309672 0.08611922 -0.9958034
vn 0.03115447 0.08610488 -0.9957989
vn 0.1356311 -0.007007166 -0.9907347
vn 0.1363912 -0.007059664 -0.9906299
vn 0.1464951 -0.1488541 -0.9779477
vn 0.1472088 -0.1494693 -0.9777467
vn 0.05105827 -0.2591866 -0.9644768
vn 0.05120136 -0.2597572 -0.9643157
vn -0.09765022 -0.2672593 -0.9586641
vn -0.09746487 -0.2672754 -0.9586784
vn -0.2064107 -0.1654933 -0.9643685
vn -0.2056611 -0.1655679 -0.9645158
vn -0.2086149 -0.01959076 -0.9778016
vn -0.2079118 -0.02023502 -0.9779383
vn -0.1420413 0.009212406 0.9898178
vn -0.1451506 0.1551205 0.977174
vn -0.1441975 0.1551631 0.9773082
vn -0.1425252 0.008846642 0.9897516
vn -0.03332915 -0.09260416 0.995145
vn -0.03348104 -0.09249542 0.9951501
vn 0.1154086 -0.08453041 0.9897148
vn 0.1147949 -0.0840826 0.9898244
vn 0.2109105 0.02589892 0.9771623
vn 0.2099687 0.02588771 0.9773654
vn 0.200061 0.1678616 0.9652968
vn 0.1995829 0.1675163 0.9654558
vn 0.09537632 0.2610079 0.9606135
vn 0.09522316 0.2611156 0.9605994
vn -0.04467021 0.2569196 0.9653998
vn -0.04529411 0.2573458 0.9652573
vn -0.1441975 0.1551631 0.9773082
vn -0.1451506 0.1551205 0.977174
vn 0.9995859 0.02004522 -0.02064143
vn 0.5241321 0.02107853 0.8513761
vn 0.5232979 0.02343825 0.8518274
vn 0.9995576 0.02023837 -0.02179832
vn 0.492828 0.01875726 -0.8699245
vn 0.4926465 0.02160917 -0.8699612
vn -0.5185702 0.003620958 -0.8550274
vn -0.5176614 0.001304503 -0.8555846
vn -0.9996413 -0.01510855 0.02211406
vn -0.9996942 -0.01491905 0.01972108
vn -0.4865322 0.003105953 0.8736572
vn -0.4879956 0.00589196 0.8728262
vn 0.5232979 0.02343825 0.8518274
vn 0.5241321 0.02107853 0.8513761
vn 0.99954 0.0202468 -0.02258371
vn 0.512566 0.02324203 0.8583331
vn 0.5128234 0.02576706 0.8581074
vn 0.999587 0.02044384 -0.0201987
vn 0.4807874 0.01608567 -0.8766897
vn 0.4825467 0.01911159 -0.8756616
vn -0.5067284 0.001536398 -0.8621044
vn -0.5077056 -0.0009933453 -0.8615301
vn -0.9996803 -0.01487804 0.0204422
vn -0.9996604 -0.01468938 0.02152702
vn -0.4761865 0.005616904 0.8793263
vn -0.4764849 0.008594826 0.8791407
vn 0.5128234 0.02576706 0.8581074
vn 0.512566 0.02324203 0.8583331
vn -0.2820949 0.9252904 -0.2534959
vn -0.2820949 0.9252904 -0.2534959
vn -0.2820949 0.9252904 -0.2534959
vn -0.2812057 0.9257832 -0.2526831
vn -0.9941076 0.01788734 -0.1069112
vn -0.9941076 0.01788734 -0.1069112
vn -0.9941076 0.01788734 -0.1069112
vn -0.9942105 0.01954301 -0.1056578
vn -0.3419781 -0.9395779 -0.01562912
vn -0.3419781 -0.9395779 -0.01562913
vn -0.3419781 -0.9395779 -0.01562912
vn -0.3419781 -0.9395779 -0.01562914
vn 0.7732425 -0.6252508 -0.1056286
vn 0.7732425 -0.6252509 -0.1056286
vn 0.7732425 -0.6252508 -0.1056286
vn 0.7739155 -0.6241402 -0.1072562
vn 0.8109981 0.527656 -0.2527076
vn 0.8109981 0.527656 -0.2527076
vn 0.8109981 0.527656 -0.2527076
vn 0.8103255 0.52823 -0.2536647
vn 0.04683059 0.1286661 0.9905816
vn 0.04683059 0.1286661 0.9905816
vn 0.04683059 0.1286661 0.9905816
vn 0.04683032 0.1286653 0.9905818
vn 0.04683032 0.1286653 0.9905818
vn 0.3266419 0.8978161 0.2953495
vn -0.314456 0.6708622 0.671611
vn -0.4031643 0.8662541 0.2950635
vn 0.253023 0.6951035 0.672912
vn 0.8656919 0.4046405 0.2946923
vn -0.6993185 0.2522295 0.6688303
vn -0.8978236 0.3280259 0.2937887
vn 0.671768 0.3115736 0.6720489
vn 0.8987632 -0.3259005 0.2932809
vn -0.6752965 -0.3166535 0.6661119
vn -0.8671881 -0.4033395 0.2920651
vn 0.6973137 -0.2561193 0.669445
vn 0.4049311 -0.866563 0.2917181
vn -0.2553623 -0.7017085 0.6651281
vn -0.3273117 -0.8989529 0.2911197
vn 0.3136406 -0.6762764 0.6665431
vn -0.1009596 0.2148301 0.9714192
vn 0.0809246 0.2206802 0.9719833
vn -0.2296986 0.08193543 0.9698067
vn 0.2165999 0.09933613 0.9711935
vn -0.2265942 -0.1073238 0.9680581
vn 0.2298432 -0.08532369 0.9694802
vn -0.08631933 -0.2388072 0.9672229
vn 0.1057034 -0.228357 0.9678223
vn -0.3514869 0.8401038 0.4131375
vn 0.3371567 0.9250085 0.1751702
vn 0.3160129 0.86655 0.3862989
vn -0.3989178 0.8943478 0.2025007
vn 0.8803576 0.4280842 0.2042412
vn -0.8048829 0.3509262 0.4785544
vn -0.8954166 0.3537252 0.2703844
vn 0.8095505 0.4168871 0.4133195
vn 0.9127689 -0.3041435 0.2726713
vn -0.7764123 -0.3172437 0.5445552
vn -0.8611489 -0.3788046 0.3390127
vn 0.8420677 -0.2484809 0.4787268
vn 0.4165955 -0.842911 0.3405131
vn -0.2800221 -0.7709371 0.5720521
vn -0.3176224 -0.873877 0.3680423
vn 0.391525 -0.7416857 0.5446194
vn -0.1825063 0.5676581 0.80278
vn -0.4533401 0.2791011 0.8465136
vn 0.04394986 0.1207513 0.9917094
vn 0.2127929 0.5824418 0.7845258
vn -0.4387166 -0.1194479 0.8906514
vn 0.5063434 0.3170604 0.8019283
vn -0.1419995 -0.3922577 0.9088289
vn 0.5284259 -0.07838398 0.8453532
vn 0.2607588 -0.3743682 0.8898614
g FireHydrant_0
f 3/3/3 2/2/2 1/1/1
f 5/5/5 1/1/1 4/4/4
f 1/1/1 6/6/6 4/4/4
f 6/6/6 7/7/7 4/4/4
f 10/10/10 9/9/9 8/8/8
f 13/13/13 12/12/12 11/11/11
f 15/15/15 13/13/13 14/14/14
f 16/16/16 15/15/15 14/14/14
f 19/19/19 18/18/18 17/17/17
f 20/20/20 17/17/17 18/18/18
f 18/18/18 21/21/21 20/20/20
f 17/17/17 20/20/20 22/22/22
f 23/23/23 20/20/20 21/21/21
f 24/24/24 22/22/22 20/20/20
f 20/20/20 23/23/23 24/24/24
f 22/22/22 24/24/24 25/25/25
f 26/26/26 24/24/24 23/23/23
f 27/27/27 25/25/25 24/24/24
f 24/24/24 26/26/26 27/27/27
f 25/25/25 27/27/27 28/28/28
f 29/29/29 27/27/27 26/26/26
f 30/30/30 28/28/28 27/27/27
f 27/27/27 29/29/29 30/30/30
f 28/28/28 30/30/30 31/31/31
f 32/32/32 30/30/30 29/29/29
f 33/33/33 31/31/31 30/30/30
f 30/30/30 32/32/32 33/33/33
f 31/31/31 33/33/33 34/34/34
f 35/35/35 33/33/33 32/32/32
f 36/36/36 34/34/34 33/33/33
f 33/33/33 35/35/35 36/36/36
f 34/34/34 36/36/36 37/37/37
f 38/38/38 36/36/36 35/35/35
f 39/39/39 37/37/37 36/36/36
f 36/36/36 38/38/38 39/39/39
f 37/37/37 39/39/39 40/40/40
f 41/41/41 39/39/39 38/38/38
f 42/42/42 40/40/40 39/39/39
f 39/39/39 41/41/41 42/42/42
f 43/43/43 42/42/42 41/41/41
f 46/46/46 45/45/45 44/44/44
f 47/47/47 44/44/44 45/45/45
f 44/44/44 47/47/47 48/48/48
f 49/49/49 48/48/48 47/47/47
f 48/48/48 49/49/49 50/50/50
f 51/51/51 50/50/50 49/49/49
f 50/50/50 51/51/51 52/52/52
f 53/53/53 52/52/52 51/51/51
f 52/52/52 53/53/53 54/54/54
f 55/55/55 54/54/54 53/53/53
f 54/54/54 55/55/55 56/56/56
f 57/57/57 56/56/56 55/55/55
f 56/56/56 57/57/57 58/58/58
f 59/59/59 58/58/58 57/57/57
f 58/58/58 59/59/59 60/60/60
f 61/61/61 60/60/60 59/59/59
f 64/64/64 63/63/63 62/62/62
f 65/65/65 62/62/62 63/63/63
f 62/62/62 65/65/65 66/66/66
f 67/67/67 66/66/66 65/65/65
f 66/66/66 67/67/67 68/68/68
f 69/69/69 68/68/68 67/67/67
f 68/68/68 69/69/69 70/70/70
f 71/71/71 70/70/70 69/69/69
f 70/70/70 71/71/71 72/72/72
f 73/73/73 72/72/72 71/71/71
f 72/72/72 73/73/73 74/74/74
f 75/75/75 74/74/74 73/73/73
f 74/74/74 75/75/75 76/76/76
f 77/77/77 76/76/76 75/75/75
f 76/76/76 77/77/77 78/78/78
f 79/79/79 78/78/78 77/77/77
f 82/82/82 81/81/81 80/80/80
f 83/83/83 80/80/80 81/81/81
f 80/80/80 83/83/83 84/84/84
f 85/85/85 84/84/84 83/83/83
f 84/84/84 85/85/85 86/86/86
f 87/87/87 86/86/86 85/85/85
f 86/86/86 87/87/87 88/88/88
f 89/89/89 88/88/88 87/87/87
f 88/88/88 89/89/89 90/90/90
f 91/91/91 90/90/90 89/89/89
f 90/90/90 91/91/91 92/92/92
f 93/93/93 92/92/92 91/91/91
f 92/92/92 93/93/93 94/94/94
f 95/95/95 94/94/94 93/93/93
f 94/94/94 95/95/95 96/96/96
f 97/97/97 96/96/96 95/95/95
f 100/100/100 99/99/99 98/98/98
f 101/101/101 98/98/98 99/99/99
f 98/98/98 101/101/101 102/102/102
f 103/103/103 102/102/102 101/101/101
f 102/102/102 103/103/103 104/104/104
f 105/105/105 104/104/104 103/103/103
f 104/104/104 105/105/105 106/106/106
f 107/107/107 106/106/106 105/105/105
f 106/106/106 107/107/107 108/108/108
f 109/109/109 108/108/108 107/107/107
f 108/108/108 109/109/109 110/110/110
f 111/111/111 110/110/110 109/109/109
f 114/114/114 113/113/113 112/112/112
f 115/115/115 112/112/112 113/113/113
f 112/112/112 115/115/115 116/116/116
f 117/117/117 116/116/116 115/115/115
f 116/116/116 117/117/117 118/118/118
f 119/119/119 118/118/118 117/117/117
f 118/118/118 119/119/119 120/120/120
f 121/121/121 120/120/120 119/119/119
f 120/120/120 121/121/121 122/122/122
f 123/123/123 122/122/122 121/121/121
f 122/122/122 123/123/123 124/124/124
f 125/125/125 124/124/124 123/123/123
f 128/128/128 127/127/127 126/126/126
f 129/129/129 126/126/126 127/127/127
f 132/132/132 131/131/131 130/130/130
f 133/133/133 130/130/130 131/131/131
f 136/136/136 135/135/135 134/134/134
f 137/137/137 134/134/134 135/135/135
f 140/140/140 139/139/139 138/138/138
f 141/141/141 138/138/138 139/139/139
f 144/144/144 143/143/143 142/142/142
f 145/145/145 142/142/142 143/143/143
f 148/148/148 147/147/147 146/146/146
f 147/147/147 149/149/149 146/146/146
f 150/150/150 149/149/149 147/147/147
f 153/153/153 152/152/152 151/151/151
f 154/154/154 151/151/151 152/152/152
f 151/151/151 154/154/154 155/155/155
f 152/152/152 153/153/153 156/156/156
f 157/157/157 156/156/156 153/153/153
f 158/158/158 155/155/155 154/154/154
f 155/155/155 158/158/158 159/159/159
f 156/156/156 157/157/157 160/160/160
f 161/161/161 160/160/160 157/157/157
f 162/162/162 159/159/159 158/158/158
f 159/159/159 162/162/162 163/163/163
f 160/160/160 161/161/161 164/164/164
f 165/165/165 164/164/164 161/161/161
f 163/163/163 166/166/166 165/165/165
f 166/166/166 163/163/163 162/162/162
f 164/164/164 165/165/165 166/166/166
f 152/152/152 167/167/167 154/154/154
f 168/168/168 154/154/154 167/167/167
f 154/154/154 168/168/168 158/158/158
f 167/167/167 152/152/152 169/169/169
f 156/156/156 169/169/169 152/152/152
f 170/170/170 158/158/158 168/168/168
f 158/158/158 170/170/170 162/162/162
f 169/169/169 156/156/156 171/171/171
f 160/160/160 171/171/171 156/156/156
f 172/172/172 162/162/162 170/170/170
f 162/162/162 172/172/172 166/166/166
f 171/171/171 160/160/160 173/173/173
f 164/164/164 173/173/173 160/160/160
f 174/174/174 166/166/166 172/172/172
f 173/173/173 164/164/164 174/174/174
f 166/166/166 174/174/174 164/164/164
f 177/177/177 176/176/176 175/175/175
f 178/178/178 175/175/175 176/176/176
f 176/176/176 177/177/177 179/179/179
f 175/175/175 178/178/178 180/180/180
f 181/181/181 180/180/180 178/178/178
f 182/182/182 179/179/179 177/177/177
f 179/179/179 182/182/182 183/183/183
f 180/180/180 181/181/181 184/184/184
f 185/185/185 184/184/184 181/181/181
f 186/186/186 183/183/183 182/182/182
f 183/183/183 186/186/186 187/187/187
f 184/184/184 185/185/185 188/188/188
f 189/189/189 188/188/188 185/185/185
f 187/187/187 190/190/190 189/189/189
f 190/190/190 187/187/187 186/186/186
f 188/188/188 189/189/189 190/190/190
f 175/175/175 191/191/191 177/177/177
f 180/180/180 192/192/192 175/175/175
f 191/191/191 175/175/175 192/192/192
f 192/192/192 193/193/193 191/191/191
f 194/194/194 177/177/177 191/191/191
f 177/177/177 194/194/194 182/182/182
f 191/191/191 193/193/193 194/194/194
f 192/192/192 180/180/180 195/195/195
f 184/184/184 195/195/195 180/180/180
f 195/195/195 193/193/193 192/192/192
f 196/196/196 182/182/182 194/194/194
f 182/182/182 196/196/196 186/186/186
f 194/194/194 193/193/193 196/196/196
f 195/195/195 184/184/184 197/197/197
f 188/188/188 197/197/197 184/184/184
f 197/197/197 193/193/193 195/195/195
f 198/198/198 186/186/186 196/196/196
f 196/196/196 193/193/193 198/198/198
f 186/186/186 198/198/198 190/190/190
f 197/197/197 188/188/188 199/199/199
f 199/199/199 193/193/193 197/197/197
f 190/190/190 199/199/199 188/188/188
f 199/199/199 190/190/190 198/198/198
f 198/198/198 193/193/193 199/199/199
