g Grass01
v 0.03310669 0.004420166 -7.629394E-08
v 0.07085998 0.05593933 0.07188755
v 0.03653778 0.04815201 -7.629394E-08
v 0.07206848 0.02288559 0.08259838
v 0.1430493 0.08726212 0.1566271
v 0.1448416 0.06103317 0.1664144
v 0.2464267 0.1367548 0.238067
v -0.01011322 -0.008640747 -7.629394E-08
v 0.07206848 0.02288559 0.08259838
v 0.03310669 0.004420166 -7.629394E-08
v 0.04633728 0.0179541 0.1055703
v 0.1448416 0.06103317 0.1664144
v 0.1254932 0.0576059 0.1867836
v 0.2464267 0.1367548 0.238067
v -0.03339233 0.02701935 -7.629394E-08
v 0.04633728 0.0179541 0.1055703
v -0.01011322 -0.008640747 -7.629394E-08
v 0.02922485 0.04795944 0.1090572
v 0.1254932 0.0576059 0.1867836
v 0.1117429 0.08171676 0.1895853
v 0.2464267 0.1367548 0.238067
v 0.0443808 0.07143539 0.0882402
v -0.03339233 0.02701935 -7.629394E-08
v -0.004560547 0.06211944 -7.629394E-08
v 0.02922485 0.04795944 0.1090572
v 0.1225931 0.100045 0.1709475
v 0.1117429 0.08171676 0.1895853
v 0.2464267 0.1367548 0.238067
v 0.07085998 0.05593933 0.07188755
v -0.004560547 0.06211944 -7.629394E-08
v 0.03653778 0.04815201 -7.629394E-08
v 0.0443808 0.07143539 0.0882402
v 0.1430493 0.08726212 0.1566271
v 0.1225931 0.100045 0.1709475
v 0.2464267 0.1367548 0.238067
v -0.04079193 -0.03450455 -7.629394E-08
v 0.02055908 -0.1037373 0.09829579
v 0.002193909 -0.0765358 -7.629394E-08
v -0.005959167 -0.08839676 0.1147318
v 0.008012085 -0.1318324 0.1655597
v 0.03181702 -0.137494 0.1458835
v 0.02537064 -0.2003832 0.1843345
v 0.04333395 -0.2000132 0.1685862
v 0.06579986 -0.304942 0.1471867
v -0.02627075 0.009451752 -7.629394E-08
v -0.005959167 -0.08839676 0.1147318
v -0.04079193 -0.03450455 -7.629394E-08
v 0.006633301 -0.06146652 0.1329071
v 0.01954315 -0.1177402 0.1913197
v 0.008012085 -0.1318324 0.1655597
v 0.03428745 -0.1961737 0.2063297
v 0.02537064 -0.2003832 0.1843345
v 0.06579986 -0.304942 0.1471867
v 0.02937714 0.01973343 -7.629394E-08
v 0.006633301 -0.06146652 0.1329071
v -0.02627075 0.009451752 -7.629394E-08
v 0.04093414 -0.06016296 0.1277044
v 0.01954315 -0.1177402 0.1913197
v 0.05047455 -0.1146922 0.1875644
v 0.03428745 -0.1961737 0.2063297
v 0.05776141 -0.1932017 0.2041755
v 0.06579986 -0.304942 0.1471867
v 0.04954071 -0.08628784 0.1063134
v 0.02937714 0.01973343 -7.629394E-08
v 0.04899231 -0.03976517 -7.629394E-08
v 0.04093414 -0.06016296 0.1277044
v 0.05047455 -0.1146922 0.1875644
v 0.05806015 -0.1269007 0.1594831
v 0.05776141 -0.1932017 0.2041755
v 0.06335238 -0.1955748 0.1808486
v 0.06579986 -0.304942 0.1471867
v 0.02055908 -0.1037373 0.09829579
v 0.04899231 -0.03976517 -7.629394E-08
v 0.002193909 -0.0765358 -7.629394E-08
v 0.04954071 -0.08628784 0.1063134
v 0.05806015 -0.1269007 0.1594831
v 0.03181702 -0.137494 0.1458835
v 0.06335238 -0.1955748 0.1808486
v 0.04333395 -0.2000132 0.1685862
v 0.06579986 -0.304942 0.1471867
v -0.06895996 0.04290253 -7.629394E-08
v -0.06400085 0.01463425 0.09739719
v -0.08922669 0.01034576 -7.629394E-08
v -0.05497681 0.03861633 0.1002803
v -0.08900665 0.005927582 0.2073984
v -0.08184876 0.02516373 0.210805
v -0.1433755 -0.01089584 0.3243035
v -0.03473938 0.04188171 -7.629394E-08
v -0.05497681 0.03861633 0.1002803
v -0.06895996 0.04290253 -7.629394E-08
v -0.02953827 0.03719269 0.1046095
v -0.08184876 0.02516373 0.210805
v -0.06155731 0.02396469 0.216047
v -0.1433755 -0.01089584 0.3243035
v -0.02273041 0.001024628 -7.629394E-08
v -0.02953827 0.03719269 0.1046095
v -0.03473938 0.04188171 -7.629394E-08
v -0.02284058 0.01233063 0.1044019
v -0.06155731 0.02396469 0.216047
v -0.05617614 0.003987427 0.2158802
v -0.1433755 -0.01089584 0.3243035
v -0.0441391 -0.001611328 0.09994449
v -0.02273041 0.001024628 -7.629394E-08
v -0.05135132 -0.01846573 -7.629394E-08
v -0.02284058 0.01233063 0.1044019
v -0.07313995 -0.007160339 0.210535
v -0.05617614 0.003987427 0.2158802
v -0.1433755 -0.01089584 0.3243035
v -0.06400085 0.01463425 0.09739719
v -0.05135132 -0.01846573 -7.629394E-08
v -0.08922669 0.01034576 -7.629394E-08
v -0.0441391 -0.001611328 0.09994449
v -0.08900665 0.005927582 0.2073984
v -0.07313995 -0.007160339 0.210535
v -0.1433755 -0.01089584 0.3243035
vt 0.8318136 0.8395231
vt 0.8352565 0.8858582
vt 0.8366772 0.8458881
vt 0.83217 0.8842634
vt 0.8523598 0.9305068
vt 0.8500376 0.9298043
vt 0.8835325 0.9813356
vt 0.8112791 0.837649
vt 0.83217 0.8842634
vt 0.8318136 0.8395231
vt 0.817866 0.8878757
vt 0.8500376 0.9298043
vt 0.8387996 0.9336438
vt 0.8835325 0.9813356
vt 0.8034515 0.8428556
vt 0.817866 0.8878757
vt 0.8112791 0.837649
vt 0.812112 0.8917032
vt 0.8387996 0.9336438
vt 0.8341761 0.9367191
vt 0.8835325 0.9813356
vt 0.8228599 0.8904563
vt 0.8034515 0.8428556
vt 0.8191485 0.8479478
vt 0.812112 0.8917032
vt 0.8425568 0.9347805
vt 0.8341761 0.9367191
vt 0.8835325 0.9813356
vt 0.8352565 0.8858582
vt 0.8191485 0.8479478
vt 0.8366772 0.8458881
vt 0.8228599 0.8904563
vt 0.8523598 0.9305068
vt 0.8425568 0.9347805
vt 0.8835325 0.9813356
vt 0.677273 0.8457812
vt 0.6905062 0.8864492
vt 0.6844047 0.8501911
vt 0.6842554 0.8852564
vt 0.6857178 0.9067698
vt 0.6908083 0.9076455
vt 0.6871803 0.9282832
vt 0.6911103 0.9288417
vt 0.687521 0.9773977
vt 0.6832857 0.8395771
vt 0.6842554 0.8852564
vt 0.677273 0.8457812
vt 0.7002805 0.8840107
vt 0.6987566 0.90597
vt 0.6857178 0.9067698
vt 0.6972327 0.9279294
vt 0.6871803 0.9282832
vt 0.687521 0.9773977
vt 0.6973014 0.8401524
vt 0.7002805 0.8840107
vt 0.6832857 0.8395771
vt 0.7077558 0.8844336
vt 0.6987566 0.90597
vt 0.705776 0.9063514
vt 0.6972327 0.9279294
vt 0.7037961 0.9282693
vt 0.687521 0.9773977
vt 0.7004836 0.8859408
vt 0.6973014 0.8401524
vt 0.6934497 0.8467122
vt 0.7077558 0.8844336
vt 0.705776 0.9063514
vt 0.6996349 0.9073869
vt 0.7037961 0.9282693
vt 0.6987863 0.9288331
vt 0.687521 0.9773977
vt 0.6905062 0.8864492
vt 0.6934497 0.8467122
vt 0.6844047 0.8501911
vt 0.7004836 0.8859408
vt 0.6996349 0.9073869
vt 0.6908083 0.9076455
vt 0.6987863 0.9288331
vt 0.6911103 0.9288417
vt 0.687521 0.9773977
vt 0.7095399 0.844893
vt 0.7247891 0.8885239
vt 0.6989705 0.8446107
vt 0.7329625 0.8910896
vt 0.697863 0.9328692
vt 0.7043567 0.9353726
vt 0.6344019 0.9796788
vt 0.7539746 0.8418145
vt 0.7329625 0.8910896
vt 0.7095399 0.844893
vt 0.7662787 0.8926423
vt 0.7043567 0.9353726
vt 0.7310081 0.937335
vt 0.6344019 0.9796788
vt 0.7708674 0.8396298
vt 0.7662787 0.8926423
vt 0.7539746 0.8418145
vt 0.7786964 0.8910363
vt 0.7310081 0.937335
vt 0.740986 0.9360445
vt 0.6344019 0.9796788
vt 0.7530546 0.8884909
vt 0.7708674 0.8396298
vt 0.7368727 0.8413579
vt 0.7786964 0.8910363
vt 0.7205012 0.9332845
vt 0.740986 0.9360445
vt 0.6344019 0.9796788
vt 0.7247891 0.8885239
vt 0.7368727 0.8413579
vt 0.6989705 0.8446107
vt 0.7530546 0.8884909
vt 0.697863 0.9328692
vt 0.7205012 0.9332845
vt 0.6344019 0.9796788
vn 0.9046521 -0.07846354 -0.4188652
vn 0.8534697 -0.1278064 -0.5052276
vn 0.903116 -0.07085623 -0.4235103
vn 0.8499982 -0.134349 -0.5093659
vn 0.725626 -0.1960964 -0.6595552
vn 0.7321207 -0.1936625 -0.6530652
vn 0.6665152 -0.22022 -0.7122223
vn 0.2833952 -0.9554303 0.0827051
vn 0.2933939 -0.9483019 0.121011
vn 0.2884105 -0.9543803 0.07731434
vn 0.2942026 -0.9475002 0.1252527
vn 0.3845436 -0.8976964 0.2150986
vn 0.3741139 -0.9048663 0.2031154
vn 0.441703 -0.8536747 0.2759309
vn -0.7226809 -0.4716065 0.5052916
vn -0.6461118 -0.4409735 0.6229622
vn -0.7226303 -0.4717371 0.5052421
vn -0.6452535 -0.4405289 0.6241651
vn -0.4093323 -0.332185 0.8497648
vn -0.4093313 -0.3321831 0.849766
vn -0.2381676 -0.2450321 0.939806
vn -0.6610423 0.68366 0.3092443
vn -0.7177117 0.6175628 0.3217237
vn -0.7266877 0.596913 0.3400291
vn -0.6532648 0.6930068 0.3049371
vn -0.5458465 0.7336813 0.4046767
vn -0.5585032 0.7304174 0.3931472
vn -0.4729289 0.7500781 0.4622997
vn 0.2736712 0.8835577 -0.3800392
vn 0.3221167 0.910388 -0.2596818
vn 0.3117117 0.9171925 -0.2481805
vn 0.2742266 0.8795947 -0.3887324
vn 0.140672 0.8295888 -0.5403645
vn 0.1467274 0.8327933 -0.533785
vn 0.08451707 0.8002855 -0.593633
vn -0.6712265 -0.7346771 -0.09851201
vn -0.6113448 -0.7407418 -0.2784944
vn -0.697548 -0.7133902 -0.06709056
vn -0.6092055 -0.7355431 -0.2963865
vn -0.6195583 -0.5510232 -0.5590358
vn -0.5934185 -0.580056 -0.5580229
vn -0.6470653 -0.2114653 -0.7325223
vn -0.6473886 -0.1720539 -0.7424861
vn -0.6593183 0.01215332 -0.7517657
vn -0.8808072 0.2717696 0.3877113
vn -0.9144116 0.1916844 0.3565229
vn -0.8705167 0.2875795 0.3993729
vn -0.9158603 0.1892836 0.3540785
vn -0.9132985 0.02129585 0.4067337
vn -0.9191015 0.02042452 0.3934911
vn -0.8731984 -0.2576537 0.4136894
vn -0.8629251 -0.2993554 0.40712
vn -0.7933481 -0.4517424 0.4080779
vn -0.1288853 0.8558847 0.5008492
vn 0.03820278 0.7963201 0.6036677
vn -0.1578673 0.8544307 0.4950012
vn 0.05406919 0.794776 0.6044897
vn 0.06434593 0.5007391 0.8632033
vn 0.05180789 0.5034729 0.8624564
vn 0.1076872 -0.09717774 0.989424
vn 0.1052758 -0.1156042 0.9877007
vn 0.1373217 -0.4421726 0.8863555
vn 0.959082 0.2700566 0.08503553
vn 0.9470866 0.2984858 0.1180396
vn 0.9415393 0.3104016 0.1309747
vn 0.9638304 0.2555389 0.07570211
vn 0.9640287 0.2162428 0.1545569
vn 0.9571257 0.2459131 0.1530922
vn 0.9724743 0.06315444 0.2242884
vn 0.9725981 0.03978348 0.2290636
vn 0.9699706 -0.05145951 0.2377161
vn 0.555755 -0.704124 -0.4419795
vn 0.5787959 -0.7498205 -0.3205691
vn 0.5861749 -0.7460315 -0.3159686
vn 0.5483267 -0.7016439 -0.4550094
vn 0.5441732 -0.4239605 -0.7239702
vn 0.5499144 -0.446078 -0.7061222
vn 0.5161093 0.01088604 -0.8564535
vn 0.5162415 0.03571814 -0.8556979
vn 0.4584612 0.2707881 -0.8464556
vn -0.8512335 0.4907991 0.1857897
vn -0.9270565 0.3749153 -0.002196743
vn -0.833002 0.5185474 0.1929149
vn -0.934858 0.3544902 -0.01942287
vn -0.8877928 0.3767392 -0.2643704
vn -0.8913097 0.3764201 -0.252735
vn -0.8583015 0.3803764 -0.3444304
vn 0.03268971 0.9986998 0.03911721
vn 0.03985415 0.9958152 0.08224162
vn 0.02979497 0.9988129 0.03853671
vn 0.04036586 0.9953731 0.08719609
vn 0.002637503 0.9765584 0.2152362
vn 0.006650407 0.980091 0.1984375
vn -0.0192718 0.9558464 0.2932344
vn 0.9598681 0.2784087 -0.03379093
vn 0.9568591 0.2596155 0.1304632
vn 0.9588261 0.2818242 -0.03503964
vn 0.9577572 0.2569343 0.129174
vn 0.8558009 0.2266422 0.465014
vn 0.8548452 0.2263671 0.4669021
vn 0.7506143 0.1969236 0.6307132
vn 0.5341467 -0.8400605 0.09479279
vn 0.5558738 -0.8255527 0.09729803
vn 0.56014 -0.8225461 0.09829117
vn 0.5310162 -0.8421017 0.09426834
vn 0.4988445 -0.8468078 0.1845829
vn 0.5041462 -0.8472966 0.1671079
vn 0.4706437 -0.8422458 0.2629
vn -0.6275272 -0.7785915 0.002200157
vn -0.6016496 -0.7768349 0.1858638
vn -0.5945889 -0.781642 0.1884145
vn -0.6318818 -0.7749767 -0.01168549
vn -0.5766993 -0.7663086 -0.2831765
vn -0.5794205 -0.7679002 -0.2731321
vn -0.5489413 -0.7526324 -0.3636041
g Grass01_0
f 3/3/3 2/2/2 1/1/1
f 4/4/4 1/1/1 2/2/2
f 2/2/2 5/5/5 4/4/4
f 6/6/6 4/4/4 5/5/5
f 7/7/7 6/6/6 5/5/5
f 10/10/10 9/9/9 8/8/8
f 11/11/11 8/8/8 9/9/9
f 9/9/9 12/12/12 11/11/11
f 13/13/13 11/11/11 12/12/12
f 14/14/14 13/13/13 12/12/12
f 17/17/17 16/16/16 15/15/15
f 18/18/18 15/15/15 16/16/16
f 16/16/16 19/19/19 18/18/18
f 20/20/20 18/18/18 19/19/19
f 21/21/21 20/20/20 19/19/19
f 24/24/24 23/23/23 22/22/22
f 25/25/25 22/22/22 23/23/23
f 22/22/22 25/25/25 26/26/26
f 27/27/27 26/26/26 25/25/25
f 28/28/28 26/26/26 27/27/27
f 31/31/31 30/30/30 29/29/29
f 32/32/32 29/29/29 30/30/30
f 29/29/29 32/32/32 33/33/33
f 34/34/34 33/33/33 32/32/32
f 35/35/35 33/33/33 34/34/34
f 38/38/38 37/37/37 36/36/36
f 39/39/39 36/36/36 37/37/37
f 39/39/39 37/37/37 40/40/40
f 41/41/41 40/40/40 37/37/37
f 40/40/40 41/41/41 42/42/42
f 43/43/43 42/42/42 41/41/41
f 44/44/44 42/42/42 43/43/43
f 47/47/47 46/46/46 45/45/45
f 48/48/48 45/45/45 46/46/46
f 48/48/48 46/46/46 49/49/49
f 50/50/50 49/49/49 46/46/46
f 49/49/49 50/50/50 51/51/51
f 52/52/52 51/51/51 50/50/50
f 53/53/53 51/51/51 52/52/52
f 56/56/56 55/55/55 54/54/54
f 57/57/57 54/54/54 55/55/55
f 55/55/55 58/58/58 57/57/57
f 59/59/59 57/57/57 58/58/58
f 58/58/58 60/60/60 59/59/59
f 61/61/61 59/59/59 60/60/60
f 62/62/62 61/61/61 60/60/60
f 65/65/65 64/64/64 63/63/63
f 66/66/66 63/63/63 64/64/64
f 66/66/66 67/67/67 63/63/63
f 68/68/68 63/63/63 67/67/67
f 67/67/67 69/69/69 68/68/68
f 70/70/70 68/68/68 69/69/69
f 71/71/71 70/70/70 69/69/69
f 74/74/74 73/73/73 72/72/72
f 75/75/75 72/72/72 73/73/73
f 75/75/75 76/76/76 72/72/72
f 77/77/77 72/72/72 76/76/76
f 76/76/76 78/78/78 77/77/77
f 79/79/79 77/77/77 78/78/78
f 80/80/80 79/79/79 78/78/78
f 83/83/83 82/82/82 81/81/81
f 84/84/84 81/81/81 82/82/82
f 82/82/82 85/85/85 84/84/84
f 86/86/86 84/84/84 85/85/85
f 87/87/87 86/86/86 85/85/85
f 90/90/90 89/89/89 88/88/88
f 91/91/91 88/88/88 89/89/89
f 89/89/89 92/92/92 91/91/91
f 93/93/93 91/91/91 92/92/92
f 94/94/94 93/93/93 92/92/92
f 97/97/97 96/96/96 95/95/95
f 98/98/98 95/95/95 96/96/96
f 96/96/96 99/99/99 98/98/98
f 100/100/100 98/98/98 99/99/99
f 101/101/101 100/100/100 99/99/99
f 104/104/104 103/103/103 102/102/102
f 105/105/105 102/102/102 103/103/103
f 102/102/102 105/105/105 106/106/106
f 107/107/107 106/106/106 105/105/105
f 108/108/108 106/106/106 107/107/107
f 111/111/111 110/110/110 109/109/109
f 112/112/112 109/109/109 110/110/110
f 109/109/109 112/112/112 113/113/113
f 114/114/114 113/113/113 112/112/112
f 115/115/115 113/113/113 114/114/114
