g Grass02
v 0.03993875 -0.003365388 -8.940697E-10
v 0.06973714 0.05404837 0.08319912
v 0.04302327 0.04147178 -8.940697E-10
v 0.06810384 0.02108391 0.09698735
v 0.099682 0.09185015 0.1633763
v 0.1033802 0.08109676 0.1804222
v 0.08560152 0.1825208 0.2066797
v -0.002229931 -0.02053972 -8.940697E-10
v 0.06810384 0.02108391 0.09698735
v 0.03993875 -0.003365388 -8.940697E-10
v 0.0434147 0.01572673 0.1186975
v 0.1033802 0.08109676 0.1804222
v 0.09042656 0.08036455 0.1957399
v 0.08560152 0.1825208 0.2066797
v -0.02278829 0.0116855 -8.940697E-10
v 0.0434147 0.01572673 0.1186975
v -0.002229931 -0.02053972 -8.940697E-10
v 0.03140676 0.04452433 0.1179127
v 0.09042656 0.08036455 0.1957399
v 0.08044725 0.09154185 0.1865714
v 0.08560152 0.1825208 0.2066797
v 0.04837137 0.06947811 0.09620062
v -0.02278829 0.0116855 -8.940697E-10
v 0.008621648 0.05083454 -1.192093E-09
v 0.03140676 0.04452433 0.1179127
v 0.08760761 0.09899729 0.1664871
v 0.08044725 0.09154185 0.1865714
v 0.08560152 0.1825208 0.2066797
v 0.06973714 0.05404837 0.08319912
v 0.008621648 0.05083454 -1.192093E-09
v 0.04302327 0.04147178 -8.940697E-10
v 0.04837137 0.06947811 0.09620062
v 0.099682 0.09185015 0.1633763
v 0.08760761 0.09899729 0.1664871
v 0.08560152 0.1825208 0.2066797
v -0.02635235 -0.04603988 -1.192093E-09
v 0.02365879 -0.05012176 0.07884857
v 0.008010219 -0.04931055 -8.940697E-10
v 0.005587182 -0.05202083 0.0955044
v 0.02382497 -0.07666938 0.1910978
v -0.02042007 -0.01386222 -1.192093E-09
v 0.005587182 -0.05202083 0.0955044
v -0.02635235 -0.04603988 -1.192093E-09
v 0.01084486 -0.03580924 0.1095431
v 0.02382497 -0.07666938 0.1910978
v 0.01695996 0.009502391 -8.940697E-10
v 0.01084486 -0.03580924 0.1095431
v -0.02042007 -0.01386222 -1.192093E-09
v 0.03293533 -0.02491872 0.1021311
v 0.02382497 -0.07666938 0.1910978
v 0.04081991 -0.03457411 0.08388834
v 0.01695996 0.009502391 -8.940697E-10
v 0.03790142 -0.01796637 -1.192093E-09
v 0.03293533 -0.02491872 0.1021311
v 0.02382497 -0.07666938 0.1910978
v 0.02365879 -0.05012176 0.07884857
v 0.03790142 -0.01796637 -1.192093E-09
v 0.008010219 -0.04931055 -8.940697E-10
v 0.04081991 -0.03457411 0.08388834
v 0.02382497 -0.07666938 0.1910978
v -0.05902544 0.02841628 -8.940697E-10
v -0.05618452 0.0009610832 0.1153597
v -0.08250966 -0.00410347 -8.940697E-10
v -0.04494449 0.03051006 0.1181769
v -0.08496269 -0.008308532 0.1840487
v -0.08397865 0.008028829 0.1898339
v -0.1673529 -0.04171594 0.2403162
v -0.02317014 0.027037 -1.192093E-09
v -0.04494449 0.03051006 0.1181769
v -0.05902544 0.02841628 -8.940697E-10
v -0.01399309 0.02816913 0.1229637
v -0.08397865 0.008028829 0.1898339
v -0.07296046 0.004504019 0.2093331
v -0.1673529 -0.04171594 0.2403162
v -0.0140283 -0.0142687 -1.192093E-09
v -0.01399309 0.02816913 0.1229637
v -0.02317014 0.027037 -1.192093E-09
v -0.006514409 -0.002187578 0.1227832
v -0.07296046 0.004504019 0.2093331
v -0.06641318 -0.01395353 0.2145992
v -0.1673529 -0.04171594 0.2403162
v -0.03183899 -0.01899806 0.1189619
v -0.0140283 -0.0142687 -1.192093E-09
v -0.04460732 -0.03340096 -8.940697E-10
v -0.006514409 -0.002187578 0.1227832
v -0.07470698 -0.02203053 0.1993512
v -0.06641318 -0.01395353 0.2145992
v -0.1673529 -0.04171594 0.2403162
v -0.05618452 0.0009610832 0.1153597
v -0.04460732 -0.03340096 -8.940697E-10
v -0.08250966 -0.00410347 -8.940697E-10
v -0.03183899 -0.01899806 0.1189619
v -0.08496269 -0.008308532 0.1840487
v -0.07470698 -0.02203053 0.1993512
v -0.1673529 -0.04171594 0.2403162
v 0.02124575 -0.04560408 -1.192093E-09
v 0.1090503 -0.016187 0.05343625
v 0.0665618 -0.02098353 -8.940697E-10
v 0.0843761 -0.03125904 0.06970034
v 0.1690892 -0.02619996 0.09160826
v 0.1657787 -0.03708972 0.1059539
v 0.2506633 -0.05058118 0.07967748
v 0.003579521 -0.02800843 -1.192093E-09
v 0.0843761 -0.03125904 0.06970034
v 0.02124575 -0.04560408 -1.192093E-09
v 0.08105397 -0.02171791 0.08519876
v 0.1657787 -0.03708972 0.1059539
v 0.1589667 -0.02812453 0.1223069
v 0.2506633 -0.05058118 0.07967748
v 0.003849335 0.008745844 -1.192093E-09
v 0.08105397 -0.02171791 0.08519876
v 0.003579521 -0.02800843 -1.192093E-09
v 0.08042327 -0.000663321 0.08064682
v 0.1589667 -0.02812453 0.1223069
v 0.1605446 -0.01167532 0.1181166
v 0.2506633 -0.05058118 0.07967748
v 0.09012914 0.002338703 0.06353002
v 0.003849335 0.008745844 -1.192093E-09
v 0.06231974 0.01359892 -8.940697E-10
v 0.08042327 -0.000663321 0.08064682
v 0.1677402 -0.01103024 0.09779896
v 0.1605446 -0.01167532 0.1181166
v 0.2506633 -0.05058118 0.07967748
v 0.1090503 -0.016187 0.05343625
v 0.06231974 0.01359892 -8.940697E-10
v 0.0665618 -0.02098353 -8.940697E-10
v 0.09012914 0.002338703 0.06353002
v 0.1690892 -0.02619996 0.09160826
v 0.1677402 -0.01103024 0.09779896
v 0.2506633 -0.05058118 0.07967748
vt 0.8664224 0.8396298
vt 0.8883295 0.8906213
vt 0.8743905 0.844927
vt 0.8842235 0.8900204
vt 0.9250088 0.9343957
vt 0.9221129 0.9345053
vt 0.9799812 0.9796788
vt 0.8425021 0.8454986
vt 0.8842235 0.8900204
vt 0.8664224 0.8396298
vt 0.8694735 0.8996626
vt 0.9221129 0.9345053
vt 0.9109138 0.9432118
vt 0.9799812 0.9796788
vt 0.8356866 0.8544229
vt 0.8694735 0.8996626
vt 0.8425021 0.8454986
vt 0.8644634 0.9062229
vt 0.9109138 0.9432118
vt 0.9068881 0.9484831
vt 0.9799812 0.9796788
vt 0.8761171 0.900635
vt 0.8356866 0.8544229
vt 0.8553947 0.8540697
vt 0.8644634 0.9062229
vt 0.9155993 0.9430345
vt 0.9068881 0.9484831
vt 0.9799812 0.9796788
vt 0.8883295 0.8906213
vt 0.8553947 0.8540697
vt 0.8743905 0.844927
vt 0.8761171 0.900635
vt 0.9250088 0.9343957
vt 0.9155993 0.9430345
vt 0.9799812 0.9796788
vt 0.7763982 0.8457812
vt 0.7896314 0.8864492
vt 0.7835299 0.8501911
vt 0.7833805 0.8852564
vt 0.7866461 0.9773977
vt 0.7824109 0.8395771
vt 0.7833805 0.8852564
vt 0.7763982 0.8457812
vt 0.7994057 0.8840107
vt 0.7866461 0.9773977
vt 0.7964265 0.8401524
vt 0.7994057 0.8840107
vt 0.7824109 0.8395771
vt 0.806881 0.8844336
vt 0.7866461 0.9773977
vt 0.7996087 0.8859408
vt 0.7964265 0.8401524
vt 0.7925749 0.8467122
vt 0.806881 0.8844336
vt 0.7866461 0.9773977
vt 0.7896314 0.8864492
vt 0.7925749 0.8467122
vt 0.7835299 0.8501911
vt 0.7996087 0.8859408
vt 0.7866461 0.9773977
vt 0.9108247 0.844893
vt 0.9260738 0.8885239
vt 0.9002552 0.8446107
vt 0.9342473 0.8910896
vt 0.8991477 0.9328692
vt 0.9056414 0.9353726
vt 0.8356866 0.9796788
vt 0.9552593 0.8418145
vt 0.9342473 0.8910896
vt 0.9108247 0.844893
vt 0.9675634 0.8926423
vt 0.9056414 0.9353726
vt 0.9322928 0.937335
vt 0.8356866 0.9796788
vt 0.9721521 0.8396298
vt 0.9675634 0.8926423
vt 0.9552593 0.8418145
vt 0.9799811 0.8910363
vt 0.9322928 0.937335
vt 0.9422708 0.9360445
vt 0.8356866 0.9796788
vt 0.9543393 0.8884909
vt 0.9721521 0.8396298
vt 0.9381574 0.8413579
vt 0.9799811 0.8910363
vt 0.921786 0.9332845
vt 0.9422708 0.9360445
vt 0.8356866 0.9796788
vt 0.9260738 0.8885239
vt 0.9381574 0.8413579
vt 0.9002552 0.8446107
vt 0.9543393 0.8884909
vt 0.8991477 0.9328692
vt 0.921786 0.9332845
vt 0.8356866 0.9796788
vt 0.6469286 0.8457812
vt 0.6601618 0.8864492
vt 0.6540603 0.8501911
vt 0.6539109 0.8852564
vt 0.6607658 0.9288417
vt 0.6568359 0.9282832
vt 0.6571766 0.9773977
vt 0.6529413 0.8395771
vt 0.6539109 0.8852564
vt 0.6469286 0.8457812
vt 0.6699361 0.8840107
vt 0.6568359 0.9282832
vt 0.6668883 0.9279294
vt 0.6571766 0.9773977
vt 0.666957 0.8401524
vt 0.6699361 0.8840107
vt 0.6529413 0.8395771
vt 0.6774114 0.8844336
vt 0.6668883 0.9279294
vt 0.6734517 0.9282693
vt 0.6571766 0.9773977
vt 0.6701391 0.8859408
vt 0.666957 0.8401524
vt 0.6631053 0.8467122
vt 0.6774114 0.8844336
vt 0.6684418 0.9288331
vt 0.6734517 0.9282693
vt 0.6571766 0.9773977
vt 0.6601618 0.8864492
vt 0.6631053 0.8467122
vt 0.6540603 0.8501911
vt 0.6701391 0.8859408
vt 0.6607658 0.9288417
vt 0.6684418 0.9288331
vt 0.6571766 0.9773977
vn 0.9554404 -0.08723499 -0.2819994
vn 0.9532218 -0.1448059 -0.2653288
vn 0.9529181 -0.06555484 -0.296057
vn 0.9533133 -0.1541038 -0.259703
vn 0.978341 0.003727948 -0.2069664
vn 0.9807628 0.03206579 -0.1925512
vn 0.9768555 0.1943575 -0.08932172
vn 0.3660502 -0.9214689 0.1300087
vn 0.4093966 -0.8800839 0.2405133
vn 0.3743297 -0.9191033 0.1229893
vn 0.4267928 -0.8619245 0.2737408
vn 0.6576985 -0.5362511 0.529025
vn 0.7052554 -0.4123574 0.5766942
vn 0.7639341 -0.03293128 0.6444535
vn -0.7681109 -0.4612677 0.4441147
vn -0.7701574 -0.3240455 0.5494107
vn -0.757495 -0.4832504 0.4389422
vn -0.7632231 -0.2954461 0.5746323
vn -0.7406688 -0.1472274 0.6555408
vn -0.7442939 -0.1266283 0.6557376
vn -0.7347411 -0.1064463 0.6699437
vn -0.7503198 0.6413239 0.1603869
vn -0.7598783 0.6221972 0.1882968
vn -0.7646911 0.6135244 0.197067
vn -0.7450491 0.6510791 0.1449066
vn -0.8664519 0.4880542 -0.1051866
vn -0.8911511 0.42451 -0.160128
vn -0.9483895 0.1187199 -0.2940461
vn 0.3482232 0.853445 -0.3877785
vn 0.2915429 0.9233578 -0.2498261
vn 0.2559165 0.9403145 -0.224311
vn 0.3458886 0.8345359 -0.4288485
vn 0.2339411 0.7025335 -0.6720999
vn 0.1638052 0.613107 -0.772831
vn 0.02485541 0.4339695 -0.9005846
vn -0.06941477 -0.9975588 -0.007614686
vn -0.02127175 -0.9939201 -0.1080291
vn -0.09474945 -0.9954644 0.008562718
vn -0.05856713 -0.9827189 -0.1755937
vn -0.1090606 -0.9673851 -0.2286308
vn -0.9348535 0.1582624 0.3178079
vn -0.9590855 0.09363325 0.267185
vn -0.9310132 0.1716417 0.3221078
vn -0.964806 0.1036024 0.2416941
vn -0.4855524 -0.8697091 0.08857075
vn -0.4803479 0.8196258 0.3122168
vn -0.3083984 0.8576544 0.4114844
vn -0.5046445 0.8073589 0.3057864
vn -0.2988096 0.8712046 0.3895064
vn -0.2608737 0.8458385 0.4652981
vn 0.8602829 0.4962294 0.1169176
vn 0.7971787 0.5974193 0.08715755
vn 0.7918814 0.6037096 0.09196933
vn 0.9083705 0.3685746 0.1975243
vn 0.9269607 0.2751795 0.2549905
vn 0.6926127 -0.7025589 -0.163397
vn 0.7104976 -0.6871151 -0.1518746
vn 0.7155983 -0.6824263 -0.1490411
vn 0.6884168 -0.7061026 -0.1658356
vn -0.4855524 -0.8697091 0.08857075
vn -0.8260629 0.543344 0.1496571
vn -0.91657 0.386862 -0.1011784
vn -0.8006113 0.5781633 0.1573172
vn -0.9311697 0.3501784 -0.1014793
vn -0.7698773 0.2723867 -0.5771434
vn -0.7837901 0.2487145 -0.5690467
vn -0.6175808 0.2953283 -0.7289549
vn 0.04458101 0.9987821 -0.02113865
vn 0.04794091 0.9873185 0.1513401
vn 0.03842986 0.9990129 -0.0222788
vn 0.04544698 0.9904799 0.1299388
vn -0.1672964 0.9457288 0.278584
vn -0.2168707 0.9318226 0.2909876
vn -0.3207628 0.8836517 0.3409851
vn 0.9726971 0.2192944 -0.07596248
vn 0.93828 0.2267419 0.2611871
vn 0.9736486 0.2154895 -0.07464956
vn 0.9360266 0.2435907 0.2540036
vn 0.5219227 0.3784241 0.7644552
vn 0.4614121 0.3909005 0.7964268
vn 0.1502507 0.320167 0.9353704
vn 0.5302655 -0.8351482 0.1461028
vn 0.5324724 -0.8451899 0.04611972
vn 0.5298517 -0.8468602 0.04566095
vn 0.5303834 -0.8368428 0.1356014
vn 0.4094179 -0.8778521 0.2485009
vn 0.3975328 -0.88252 0.2512492
vn 0.3232285 -0.8976215 0.2996646
vn -0.6203747 -0.7801722 -0.0804142
vn -0.6088078 -0.7749473 0.1697342
vn -0.6024863 -0.7794402 0.1717069
vn -0.6230255 -0.7781587 -0.07942538
vn -0.3917869 -0.7979766 -0.45797
vn -0.309605 -0.8016571 -0.5113616
vn -0.1100872 -0.7755248 -0.6216447
vn 0.442823 -0.859787 -0.2543111
vn 0.2944174 -0.8734918 -0.3877247
vn 0.4571735 -0.8414635 -0.2879784
vn 0.3329732 -0.8855596 -0.323903
vn -0.04209074 -0.7958121 -0.6040791
vn -0.04624939 -0.7904881 -0.6107287
vn -0.3066053 -0.7227428 -0.6193836
vn -0.5380983 -0.5960501 0.5959652
vn -0.3561517 -0.8182076 0.4513227
vn -0.5550918 -0.5573182 0.6174703
vn -0.313759 -0.8407895 0.4411669
vn -0.09951149 -0.8869938 0.4509318
vn -0.1709854 -0.8922436 0.4179298
vn 0.01081663 -0.8749126 0.4841603
vn -0.7373168 0.01990877 0.6752536
vn -0.55981 0.1477842 0.8153358
vn -0.7400379 0.005432626 0.6725433
vn -0.5931597 0.1577237 0.7894838
vn 0.05446853 0.234918 0.9704879
vn -0.009041116 0.24766 0.9688048
vn 0.450533 0.1795565 0.8745168
vn 0.0035645 0.9825905 0.1857502
vn -0.07176825 0.9779546 0.196097
vn -0.08090378 0.9747389 0.2081796
vn 0.02554762 0.9846231 0.1728136
vn 0.3033751 0.9414793 0.1469019
vn 0.2427562 0.9630606 0.1165499
vn 0.4560963 0.8695993 0.189138
vn 0.5802164 0.6893479 -0.4337607
vn 0.7945541 0.2797403 -0.5389149
vn 0.7750075 0.09506624 -0.6247606
vn 0.5905553 0.7403456 -0.321143
vn 0.187699 0.4197963 -0.8879979
vn 0.2629617 0.3844993 -0.8848793
vn -0.02310881 0.3759805 -0.9263394
g Grass02_0
f 3/3/3 2/2/2 1/1/1
f 4/4/4 1/1/1 2/2/2
f 2/2/2 5/5/5 4/4/4
f 6/6/6 4/4/4 5/5/5
f 7/7/7 6/6/6 5/5/5
f 10/10/10 9/9/9 8/8/8
f 11/11/11 8/8/8 9/9/9
f 9/9/9 12/12/12 11/11/11
f 13/13/13 11/11/11 12/12/12
f 14/14/14 13/13/13 12/12/12
f 17/17/17 16/16/16 15/15/15
f 18/18/18 15/15/15 16/16/16
f 16/16/16 19/19/19 18/18/18
f 20/20/20 18/18/18 19/19/19
f 21/21/21 20/20/20 19/19/19
f 24/24/24 23/23/23 22/22/22
f 25/25/25 22/22/22 23/23/23
f 22/22/22 25/25/25 26/26/26
f 27/27/27 26/26/26 25/25/25
f 28/28/28 26/26/26 27/27/27
f 31/31/31 30/30/30 29/29/29
f 32/32/32 29/29/29 30/30/30
f 29/29/29 32/32/32 33/33/33
f 34/34/34 33/33/33 32/32/32
f 35/35/35 33/33/33 34/34/34
f 38/38/38 37/37/37 36/36/36
f 39/39/39 36/36/36 37/37/37
f 40/40/40 39/39/39 37/37/37
f 43/43/43 42/42/42 41/41/41
f 44/44/44 41/41/41 42/42/42
f 45/45/45 44/44/44 42/42/42
f 48/48/48 47/47/47 46/46/46
f 49/49/49 46/46/46 47/47/47
f 50/50/50 49/49/49 47/47/47
f 53/53/53 52/52/52 51/51/51
f 54/54/54 51/51/51 52/52/52
f 55/55/55 51/51/51 54/54/54
f 58/58/58 57/57/57 56/56/56
f 59/59/59 56/56/56 57/57/57
f 60/60/60 56/56/56 59/59/59
f 63/63/63 62/62/62 61/61/61
f 64/64/64 61/61/61 62/62/62
f 62/62/62 65/65/65 64/64/64
f 66/66/66 64/64/64 65/65/65
f 67/67/67 66/66/66 65/65/65
f 70/70/70 69/69/69 68/68/68
f 71/71/71 68/68/68 69/69/69
f 69/69/69 72/72/72 71/71/71
f 73/73/73 71/71/71 72/72/72
f 74/74/74 73/73/73 72/72/72
f 77/77/77 76/76/76 75/75/75
f 78/78/78 75/75/75 76/76/76
f 76/76/76 79/79/79 78/78/78
f 80/80/80 78/78/78 79/79/79
f 81/81/81 80/80/80 79/79/79
f 84/84/84 83/83/83 82/82/82
f 85/85/85 82/82/82 83/83/83
f 82/82/82 85/85/85 86/86/86
f 87/87/87 86/86/86 85/85/85
f 88/88/88 86/86/86 87/87/87
f 91/91/91 90/90/90 89/89/89
f 92/92/92 89/89/89 90/90/90
f 89/89/89 92/92/92 93/93/93
f 94/94/94 93/93/93 92/92/92
f 95/95/95 93/93/93 94/94/94
f 98/98/98 97/97/97 96/96/96
f 99/99/99 96/96/96 97/97/97
f 97/97/97 100/100/100 99/99/99
f 101/101/101 99/99/99 100/100/100
f 102/102/102 101/101/101 100/100/100
f 105/105/105 104/104/104 103/103/103
f 106/106/106 103/103/103 104/104/104
f 104/104/104 107/107/107 106/106/106
f 108/108/108 106/106/106 107/107/107
f 109/109/109 108/108/108 107/107/107
f 112/112/112 111/111/111 110/110/110
f 113/113/113 110/110/110 111/111/111
f 111/111/111 114/114/114 113/113/113
f 115/115/115 113/113/113 114/114/114
f 116/116/116 115/115/115 114/114/114
f 119/119/119 118/118/118 117/117/117
f 120/120/120 117/117/117 118/118/118
f 117/117/117 120/120/120 121/121/121
f 122/122/122 121/121/121 120/120/120
f 123/123/123 121/121/121 122/122/122
f 126/126/126 125/125/125 124/124/124
f 127/127/127 124/124/124 125/125/125
f 124/124/124 127/127/127 128/128/128
f 129/129/129 128/128/128 127/127/127
f 130/130/130 128/128/128 129/129/129
