g Items_SodaCan_03
v -0.09617248 -0.1458859 0.0950075
v -0.09617248 -0.1458859 -0.0950075
v -0.08388732 -0.1711385 0.08287185
v -0.08388732 -0.1711385 -0.08287185
v 0.08388793 -0.1711385 0.08287185
v 0.08388793 -0.1711385 -0.08287185
v 0.09617248 -0.1458859 0.0950075
v 0.09617248 -0.1458859 -0.0950075
v 0.09617248 0.1458859 0.0950075
v 0.09617248 0.1458859 -0.0950075
v 0.08388793 0.1711385 0.08287185
v 0.08388793 0.1711385 -0.08287185
v -0.08388732 0.1711385 0.08287185
v -0.08388732 0.1711385 -0.08287185
v -0.09617248 0.1458859 0.0950075
v -0.09617248 0.1458859 -0.0950075
v -0.08388732 -0.1711385 -0.08287185
v -0.08388732 -0.1711385 0.08287185
v 0.08388793 -0.1711385 0.08287185
v 0.08388793 -0.1711385 -0.08287185
v 0.09617248 -0.1458859 -0.0950075
v -0.09617248 -0.1458859 -0.0950075
v -0.08388732 -0.1711385 -0.08287185
v 0.08388793 -0.1711385 -0.08287185
v -0.08388732 -0.1711385 0.08287185
v -0.09617248 -0.1458859 0.0950075
v 0.09617248 -0.1458859 0.0950075
v 0.08388793 -0.1711385 0.08287185
v 0.08388793 0.1711385 -0.08287185
v 0.08388793 0.1711385 0.08287185
v -0.08388732 0.1711385 0.08287185
v -0.08388732 0.1711385 -0.08287185
v -0.09617248 0.1458859 -0.0950075
v 0.09617248 0.1458859 -0.0950075
v 0.08388793 0.1711385 -0.08287185
v -0.08388732 0.1711385 -0.08287185
v 0.08388793 0.1711385 0.08287185
v 0.09617248 0.1458859 0.0950075
v -0.09617248 0.1458859 0.0950075
v -0.08388732 0.1711385 0.08287185
v -0.09617248 -0.1458859 -0.0950075
v -0.09617248 0.1458859 -0.0950075
v -0.09617248 0.1458859 0.0950075
v -0.09617248 -0.1458859 0.0950075
v 0.09617248 -0.1458859 0.0950075
v 0.09617248 0.1458859 0.0950075
v 0.09617248 0.1458859 -0.0950075
v 0.09617248 -0.1458859 -0.0950075
v -0.09617248 -0.1458859 0.0950075
v -0.09617248 0.1458859 0.0950075
v 0.09617248 0.1458859 0.0950075
v 0.09617248 -0.1458859 0.0950075
v 0.09617248 -0.1458859 -0.0950075
v 0.09617248 0.1458859 -0.0950075
v -0.09617248 0.1458859 -0.0950075
v -0.09617248 -0.1458859 -0.0950075
vt 0.2980957 0.4775391
vt 0.2980957 0.4775391
vt 0.2980957 0.4775391
vt 0.2980957 0.4775391
vt 0.2365723 0.4775391
vt 0.2365723 0.4775391
vt 0.2980957 0.4775391
vt 0.2980957 0.4775391
vt 0.2980957 0.4775391
vt 0.2980957 0.4775391
vt 0.2980957 0.4775391
vt 0.2980957 0.4775391
vt 0.6772461 0.5336914
vt 0.7089844 0.5336914
vt 0.2980957 0.4775391
vt 0.2980957 0.4775391
vt 0.2365723 0.4775391
vt 0.2365723 0.4775391
vt 0.2980957 0.4775391
vt 0.2980957 0.4775391
vt 0.2648926 0.4775391
vt 0.2648926 0.4775391
vt 0.2648926 0.4775391
vt 0.2648926 0.4775391
vt 0.2648926 0.4775391
vt 0.2648926 0.4775391
vt 0.2648926 0.4775391
vt 0.2648926 0.4775391
vt 0.7089844 0.5009766
vt 0.6772461 0.5009766
vt 0.2980957 0.4775391
vt 0.2980957 0.4775391
vt 0.2648926 0.4775391
vt 0.2648926 0.4775391
vt 0.2648926 0.4775391
vt 0.2648926 0.4775391
vt 0.2648926 0.4775391
vt 0.2648926 0.4775391
vt 0.2648926 0.4775391
vt 0.2648926 0.4775391
vt 0.6743164 0.6298828
vt 0.6743164 0.6826172
vt 0.6381836 0.6826172
vt 0.6381836 0.6298828
vt 0.6743164 0.6298828
vt 0.6743164 0.6826172
vt 0.6381836 0.6826172
vt 0.6381836 0.6298828
vt 0.6381836 0.6298828
vt 0.6381836 0.6826172
vt 0.6040039 0.6826172
vt 0.6040039 0.6298828
vt 0.6381836 0.6298828
vt 0.6381836 0.6826172
vt 0.6040039 0.6826172
vt 0.6040039 0.6298828
vn -0.8994141 -0.4375 0
vn -0.8994141 -0.4375 0
vn -0.8994141 -0.4375 0
vn -0.8994141 -0.4375 0
vn 0 -1 0
vn 0 -1 0
vn 0.8994141 -0.4375 0
vn 0.8994141 -0.4375 0
vn 0.8994141 0.4375 0
vn 0.8994141 0.4375 0
vn 0.8994141 0.4375 0
vn 0.8994141 0.4375 0
vn 0 1 0
vn 0 1 0
vn -0.8994141 0.4375 0
vn -0.8994141 0.4375 0
vn 0 -1 0
vn 0 -1 0
vn 0.8994141 -0.4375 0
vn 0.8994141 -0.4375 0
vn 0 -0.4331055 -0.9013672
vn 0 -0.4331055 -0.9013672
vn 0 -0.4331055 -0.9013672
vn 0 -0.4331055 -0.9013672
vn 0 -0.4331055 0.9013672
vn 0 -0.4331055 0.9013672
vn 0 -0.4331055 0.9013672
vn 0 -0.4331055 0.9013672
vn 0 1 0
vn 0 1 0
vn -0.8994141 0.4375 0
vn -0.8994141 0.4375 0
vn 0 0.4331055 -0.9013672
vn 0 0.4331055 -0.9013672
vn 0 0.4331055 -0.9013672
vn 0 0.4331055 -0.9013672
vn 0 0.4331055 0.9013672
vn 0 0.4331055 0.9013672
vn 0 0.4331055 0.9013672
vn 0 0.4331055 0.9013672
vn -1 0 0
vn -1 0 0
vn -1 0 0
vn -1 0 0
vn 1 0 0
vn 1 0 0
vn 1 0 0
vn 1 0 0
vn 0 0 1
vn 0 0 1
vn 0 0 1
vn 0 0 1
vn 0 0 -1
vn 0 0 -1
vn 0 0 -1
vn 0 0 -1
g Items_SodaCan_03_0
f 1/1/1 2/2/2 4/4/4
f 3/3/3 1/1/1 4/4/4
f 18/18/18 17/17/17 6/6/6
f 5/5/5 18/18/18 6/6/6
f 8/8/8 7/7/7 19/19/19
f 20/20/20 8/8/8 19/19/19
f 23/23/23 22/22/22 21/21/21
f 24/24/24 23/23/23 21/21/21
f 27/27/27 26/26/26 25/25/25
f 28/28/28 27/27/27 25/25/25
f 9/9/9 10/10/10 12/12/12
f 11/11/11 9/9/9 12/12/12
f 30/30/30 29/29/29 14/14/14
f 13/13/13 30/30/30 14/14/14
f 16/16/16 15/15/15 31/31/31
f 32/32/32 16/16/16 31/31/31
f 35/35/35 34/34/34 33/33/33
f 36/36/36 35/35/35 33/33/33
f 39/39/39 38/38/38 37/37/37
f 40/40/40 39/39/39 37/37/37
f 43/43/43 42/42/42 41/41/41
f 44/44/44 43/43/43 41/41/41
f 47/47/47 46/46/46 45/45/45
f 48/48/48 47/47/47 45/45/45
f 51/51/51 50/50/50 49/49/49
f 52/52/52 51/51/51 49/49/49
f 55/55/55 54/54/54 53/53/53
f 56/56/56 55/55/55 53/53/53
