g lamp
v -1.454493E-09 0 -0.1084585
v -0.04218165 0.08296959 -0.04218165
v -0.07669178 0 -0.07669178
v 0 0.08296959 -0.05965383
v 0.07669178 0 -0.07669178
v -0.0329117 0.08296959 -0.0329117
v 0.04218165 0.08296959 -0.04218165
v 0.1084585 0 0
v 0 0.08296959 -0.04654415
v -0.0329117 0.8918899 -0.0329117
v 0.05965384 0.08296959 0
v 0.07669178 0 0.07669178
v 0 0.8918899 -0.04654415
v -0.04218165 0.8918899 -0.04218165
v 0.0329117 0.08296959 -0.0329117
v 0.04218165 0.08296959 0.04218165
v -1.454493E-09 0 0.1084585
v 0 0.8918899 -0.05965383
v -0.04218165 1 -0.04218165
v 0.0329117 0.8918899 -0.0329117
v 0.04654416 0.08296959 1.329306E-09
v 0 0.08296959 0.05965383
v -0.07669178 0 0.07669178
v 0 1 -0.05965383
v -0.05191877 1.021634 -0.05191877
v 0.03291171 0.08296959 0.03291171
v 0.04654416 0.8918899 1.329306E-09
v 0.04218165 0.8918899 -0.04218165
v -0.04218165 0.08296959 0.04218165
v -0.1084585 0 0
v -4.103891E-10 1.021634 -0.07342421
v -0.04150522 1.029975 -0.04150522
v 0 1.029975 -0.05869722
v 6.646532E-10 0.08296959 0.04654415
v 0.04218165 1 -0.04218165
v 0.05191877 1.021634 -0.05191877
v 0.04150522 1.029975 -0.04150523
v 0.03291171 0.8918899 0.03291171
v 0.05965384 0.8918899 0
v 0.05965384 1 0
v 0.07342421 1.021634 0
v 0.05869723 1.029975 -2.658613E-09
v 0.04218165 0.8918899 0.04218165
v 6.646532E-10 0.8918899 0.04654415
v 0.04218165 1 0.04218165
v 0.05191877 1.021634 0.05191877
v 0.04150522 1.029975 0.04150522
v 0 0.8918899 0.05965383
v -0.0329117 0.08296959 0.0329117
v 0 1 0.05965383
v -4.103891E-10 1.021634 0.07342421
v -1.329306E-09 1.029975 0.05869722
v -0.0329117 0.8918899 0.0329117
v -0.05965383 0.08296959 0
v -0.07669178 0 -0.07669178
v -0.04218165 0.08296959 -0.04218165
v -0.04654415 0.08296959 0
v -0.0329117 0.08296959 -0.0329117
v -0.04654415 0.8918899 0
v -0.0329117 0.8918899 -0.0329117
v -0.04218165 0.8918899 0.04218165
v -0.05965383 0.8918899 0
v -0.04218165 0.8918899 -0.04218165
v -0.04218165 1 0.04218165
v -0.05965383 1 0
v -0.04218165 1 -0.04218165
v -0.05191877 1.021634 0.05191877
v -0.04150522 1.029975 0.04150522
v -0.07342421 1.021634 0
v -0.05191877 1.021634 -0.05191877
v -0.05869723 1.029975 2.437062E-09
v -0.04150522 1.029975 -0.04150522
v -0.1389716 1.2138 -0.1389716
v -0.1285581 1.21146 -0.1285581
v -3.544817E-09 1.21146 -0.1818086
v -4.079392E-09 1.2138 -0.1965355
v 0.1285581 1.21146 -0.1285581
v -0.1480457 1.243857 -0.1480457
v 0.1389716 1.2138 -0.1389716
v -4.461837E-09 1.243857 -0.2093682
v -0.1880106 1.243857 -0.1880106
v 0.1480457 1.243857 -0.1480457
v -4.431023E-09 1.243857 -0.2658872
v 0.1880106 1.243857 -0.1880106
v -0.1880106 1.271392 -0.1880106
v -4.431023E-09 1.271392 -0.2658872
v 0.1880106 1.271392 -0.1880106
v -0.1480457 1.311138 -0.1480457
v -4.461837E-09 1.311138 -0.2093682
v -4.461837E-09 1.311138 0
v -0.2093682 1.311138 0
v -0.2658872 1.271392 0
v -0.1880106 1.243857 -0.1880106
v 0.1480457 1.311138 -0.1480457
v -0.1480457 1.311138 0.1480457
v -0.2658872 1.243857 0
v -0.1480457 1.243857 -0.1480457
v -0.1880106 1.271392 0.1880106
v -0.2093682 1.243857 0
v -0.1389716 1.2138 -0.1389716
v -0.1880106 1.243857 0.1880106
v -0.1480457 1.243857 0.1480457
v -0.1965355 1.2138 0
v -0.1285581 1.21146 -0.1285581
v -0.1389716 1.2138 0.1389716
v -0.1818086 1.21146 2.437062E-09
v -0.1285581 1.21146 0.1285581
v -4.461837E-09 1.311138 0.2093682
v -4.431023E-09 1.271392 0.2658872
v -0.1880106 1.243857 0.1880106
v 0.1480457 1.311138 0.1480457
v -4.431023E-09 1.243857 0.2658872
v -0.1480457 1.243857 0.1480457
v 0.2093682 1.311138 0
v 0.1880106 1.271392 0.1880106
v 0.2658872 1.271392 0
v 0.1880106 1.243857 0.1880106
v 0.1880106 1.243857 0.1880106
v -4.461837E-09 1.243857 0.2093682
v -0.1389716 1.2138 0.1389716
v 0.1480457 1.243857 0.1480457
v 0.2658872 1.243857 0
v 0.1880106 1.243857 -0.1880106
v 0.1480457 1.243857 0.1480457
v -4.079392E-09 1.2138 0.1965355
v -0.1285581 1.21146 0.1285581
v 0.1389716 1.2138 0.1389716
v -4.874123E-09 1.21146 0.1818086
v 0.1285581 1.21146 0.1285581
v 0.2093682 1.243857 0
v 0.1480457 1.243857 -0.1480457
v 0.1389716 1.2138 0.1389716
v 0.1965355 1.2138 0
v 0.1285581 1.21146 0.1285581
v 0.1389716 1.2138 -0.1389716
v 0.1818086 1.21146 -2.658613E-09
v 0.1285581 1.21146 -0.1285581
v 0.08503167 1.126683 -0.08503167
v 0.1285581 1.21146 -0.1285581
v -3.544817E-09 1.21146 -0.1818086
v -1.772409E-09 1.126683 -0.1202529
v -0.1285581 1.21146 -0.1285581
v 0.1202529 1.126683 -2.658613E-09
v 0.1818086 1.21146 -2.658613E-09
v -0.08503167 1.126683 -0.08503165
v -0.1818086 1.21146 2.437062E-09
v 0.08503167 1.126683 0.08503167
v 0.1285581 1.21146 0.1285581
v -0.1202529 1.126683 2.437061E-09
v -0.1285581 1.21146 0.1285581
v -3.101715E-09 1.126683 0.1202529
v -4.874123E-09 1.21146 0.1818086
v -0.08503167 1.126683 0.08503167
v 0.05869723 1.029975 -2.658613E-09
v 0.04150522 1.029975 0.04150522
v 0.04150522 1.029975 -0.04150523
v -1.329306E-09 1.029975 0.05869722
v -0.04150522 1.029975 0.04150522
v 0 1.029975 -0.05869722
v -0.05869723 1.029975 2.437062E-09
v -0.04150522 1.029975 -0.04150522
vt 0.2230158 0.771045
vt 0.2201269 0.7841228
vt 0.23071 0.7774192
vt 0.2151141 0.7813181
vt 0.2150408 0.7677876
vt 0.2186078 0.7841349
vt 0.209757 0.7799484
vt 0.2073531 0.7662061
vt 0.2139476 0.7826442
vt 0.2187832 0.8902965
vt 0.2043214 0.7792469
vt 0.1998365 0.7655224
vt 0.2138925 0.8909155
vt 0.2202488 0.8917275
vt 0.2090084 0.7816708
vt 0.198857 0.7789704
vt 0.1921367 0.7655401
vt 0.21442 0.8925672
vt 0.2226728 0.9070115
vt 0.2089264 0.8911234
vt 0.2039243 0.7810926
vt 0.1933692 0.7790753
vt 0.1839091 0.7666039
vt 0.2165776 0.9071664
vt 0.2233643 0.9107857
vt 0.1987728 0.7808635
vt 0.2039431 0.8911973
vt 0.2091176 0.8927677
vt 0.1878721 0.7796543
vt 0.1751497 0.7696756
vt 0.2165869 0.9105569
vt 0.222379 0.912949
vt 0.2164176 0.9126501
vt 0.1936154 0.7809805
vt 0.2105491 0.9073286
vt 0.210533 0.9106877
vt 0.2104413 0.9128118
vt 0.1989589 0.8912095
vt 0.2039753 0.8928404
vt 0.2046769 0.9074448
vt 0.2046401 0.9108177
vt 0.2045545 0.9129433
vt 0.1988816 0.8928527
vt 0.1939836 0.891175
vt 0.1988844 0.9074726
vt 0.1988073 0.9108515
vt 0.1987061 0.9129777
vt 0.1937948 0.8928189
vt 0.1885166 0.7814826
vt 0.1930859 0.9074024
vt 0.1929643 0.9107771
vt 0.1928457 0.9129013
vt 0.1890283 0.8910826
vt 0.1824494 0.7809788
vt 0.1667756 0.7760789
vt 0.1774287 0.7838132
vt 0.1835622 0.7824585
vt 0.1788859 0.7840585
vt 0.1841136 0.8908694
vt 0.1793112 0.8902501
vt 0.1886777 0.8927221
vt 0.1834532 0.8924465
vt 0.177906 0.8914917
vt 0.1871904 0.9072361
vt 0.1810949 0.9070091
vt 0.1748569 0.9066048
vt 0.1870366 0.9105901
vt 0.1869193 0.9127122
vt 0.180909 0.9102908
vt 0.1738735 0.9101241
vt 0.1808848 0.9124323
vt 0.1747374 0.9124357
vt 0.1319309 0.7429444
vt 0.1302822 0.7397629
vt 0.09575945 0.7382032
vt 0.09565911 0.7410659
vt 0.06184541 0.73821
vt 0.1337648 0.75061
vt 0.06010912 0.7412691
vt 0.09555125 0.747668
vt 0.1394657 0.7644426
vt 0.05787687 0.7487651
vt 0.09521471 0.7570438
vt 0.05102384 0.761609
vt 0.1393558 0.7715459
vt 0.09512657 0.7620667
vt 0.0505932 0.7687173
vt 0.1271675 0.7830182
vt 0.09522322 0.7744111
vt 0.09355871 0.8145109
vt 0.1336598 0.8161762
vt 0.1460048 0.8160819
vt 0.1464655 0.7719775
vt 0.06206506 0.780905
vt 0.1250471 0.8481195
vt 0.1510275 0.8161716
vt 0.159311 0.7788351
vt 0.1365156 0.8603098
vt 0.1604027 0.816512
vt 0.1668076 0.7810714
vt 0.1436175 0.8604226
vt 0.1574495 0.8547268
vt 0.1670045 0.816623
vt 0.1698663 0.7828102
vt 0.1651149 0.8528966
vt 0.169867 0.8167251
vt 0.1682969 0.8512495
vt 0.09188996 0.8546113
vt 0.09198412 0.8669559
vt 0.1360835 0.8674189
vt 0.05994874 0.8460026
vt 0.09189475 0.8719787
vt 0.1292279 0.880263
vt 0.05345692 0.8128462
vt 0.04775949 0.8574729
vt 0.04111208 0.8129418
vt 0.0476474 0.8645755
vt 0.04065092 0.8570416
vt 0.09155558 0.8813546
vt 0.1269939 0.8877587
vt 0.05334419 0.8784074
vt 0.03608919 0.812853
vt 0.04349031 0.768606
vt 0.02780712 0.8501878
vt 0.09144592 0.8879565
vt 0.1252569 0.8908175
vt 0.0551758 0.8860728
vt 0.0913447 0.8908193
vt 0.05682361 0.8892548
vt 0.02671328 0.8125151
vt 0.02965808 0.7743043
vt 0.02031118 0.8479545
vt 0.02011117 0.8124065
vt 0.01725231 0.8462181
vt 0.02199258 0.7761366
vt 0.01724846 0.8123057
vt 0.01881086 0.7777848
vt 0.09037906 0.9556295
vt 0.1082802 0.9622412
vt 0.1082833 0.9282658
vt 0.09095055 0.936253
vt 0.08425117 0.9042321
vt 0.07626998 0.9689292
vt 0.08425397 0.9862627
vt 0.0776518 0.9221392
vt 0.05026597 0.9042504
vt 0.05689514 0.9683552
vt 0.0502854 0.986259
vt 0.05827206 0.9215721
vt 0.02625954 0.9282852
vt 0.04360181 0.9542472
vt 0.02627176 0.962243
vt 0.04416949 0.9348783
vt 0.0694648 0.9537603
vt 0.06280547 0.9528158
vt 0.07484102 0.9497252
vt 0.05878234 0.9474359
vt 0.05971354 0.9407711
vt 0.07577211 0.9430602
vt 0.06508929 0.9367356
vt 0.07174802 0.9376793
vn 0 0.5070128 -0.8619385
vn -0.5931272 0.5444266 -0.5931273
vn -0.6094825 0.5070128 -0.6094825
vn 0 0.5444264 -0.8388087
vn 0.6094825 0.5070128 -0.6094825
vn -0.706918 0.02310478 -0.706918
vn 0.5931273 0.5444266 -0.5931273
vn 0.8619385 0.5070128 0
vn 0 0.02310476 -0.999733
vn -0.706918 -0.02310478 -0.706918
vn 0.8388087 0.5444264 0
vn 0.6094825 0.5070128 0.6094825
vn 0 -0.02310476 -0.999733
vn -0.7048011 -0.08068948 -0.7048011
vn 0.7069179 0.02310478 -0.706918
vn 0.5931271 0.5444266 0.5931273
vn 0 0.5070127 0.8619385
vn 0 -0.08068953 -0.9967393
vn -0.7005254 -0.1361199 -0.7005253
vn 0.7069179 -0.02310478 -0.706918
vn 0.999733 0.02310476 0
vn 0 0.5444263 0.8388087
vn -0.6094825 0.5070128 0.6094825
vn 0 -0.1361198 -0.9906924
vn -0.7069737 0.01940842 -0.7069734
vn 0.7069179 0.02310478 0.706918
vn 0.999733 -0.02310476 0
vn 0.704801 -0.08068948 -0.7048012
vn -0.5931273 0.5444266 0.5931272
vn -0.8619386 0.5070127 0
vn 0 0.01940846 -0.9998117
vn -0.6346895 -0.4408381 -0.6346898
vn -1.264776E-07 -0.440838 -0.8975866
vn 0 0.02310476 0.999733
vn 0.7005252 -0.1361199 -0.7005254
vn 0.7069738 0.0194084 -0.7069734
vn 0.6346895 -0.4408382 -0.6346896
vn 0.7069179 -0.02310478 0.706918
vn 0.9967393 -0.0806895 0
vn 0.9906924 -0.1361198 1.777392E-07
vn 0.9998117 0.01940854 6.546649E-07
vn 0.8975866 -0.440838 -2.05526E-07
vn 0.704801 -0.08068945 0.7048012
vn 0 -0.02310476 0.999733
vn 0.700525 -0.1361198 0.7005255
vn 0.7069734 0.0194085 0.7069738
vn 0.6346896 -0.4408383 0.6346895
vn 0 -0.08068953 0.9967393
vn -0.706918 0.02310478 0.706918
vn 0 -0.1361198 0.9906924
vn 0 0.0194084 0.9998117
vn 0 -0.4408379 0.8975866
vn -0.706918 -0.02310478 0.706918
vn -0.8388087 0.5444264 0
vn -0.6094825 0.5070128 -0.6094825
vn -0.5931272 0.5444266 -0.5931273
vn -0.999733 0.02310476 0
vn -0.706918 0.02310478 -0.706918
vn -0.999733 -0.02310476 0
vn -0.706918 -0.02310478 -0.706918
vn -0.704801 -0.08068948 0.7048012
vn -0.9967393 -0.08068955 0
vn -0.7048011 -0.08068948 -0.7048011
vn -0.7005253 -0.1361199 0.7005253
vn -0.9906923 -0.1361198 1.777392E-07
vn -0.7005254 -0.1361199 -0.7005253
vn -0.7069741 0.01940834 0.7069731
vn -0.6346893 -0.4408381 0.6346899
vn -0.9998117 0.01940824 0
vn -0.7069737 0.01940842 -0.7069734
vn -0.8975866 -0.440838 0
vn -0.6346895 -0.4408381 -0.6346898
vn -0.5852218 -0.561276 -0.5852219
vn -0.493929 -0.7155895 -0.4939288
vn 0 -0.7155896 -0.6985209
vn 0 -0.5612756 -0.827629
vn 0.4939291 -0.7155894 -0.4939289
vn -0.1739113 -0.969283 -0.1739117
vn 0.5852215 -0.561276 -0.5852223
vn 0 -0.969283 -0.2459479
vn -0.4157359 -0.8089047 -0.4157363
vn 0.1739112 -0.969283 -0.1739112
vn 0 -0.8089048 -0.5879397
vn 0.4157361 -0.808905 -0.4157358
vn -0.5790172 0.5740019 -0.5790172
vn 0 0.5740018 -0.818854
vn 0.5790171 0.5740018 -0.5790173
vn -0.236447 0.9424359 -0.2364473
vn 0 0.942436 -0.3343865
vn 0 1 0
vn -0.3343866 0.942436 -2.841662E-07
vn -0.8188539 0.5740019 0
vn -0.4157359 -0.8089047 -0.4157363
vn 0.236447 0.9424359 -0.2364473
vn -0.2364471 0.9424359 0.2364473
vn -0.5879396 -0.8089049 -3.028587E-07
vn -0.1739113 -0.969283 -0.1739117
vn -0.5790171 0.5740018 0.5790173
vn -0.2459477 -0.969283 -2.884053E-07
vn -0.5852218 -0.561276 -0.5852219
vn -0.4157361 -0.808905 0.4157358
vn -0.1739112 -0.969283 0.1739112
vn -0.8276286 -0.561276 2.041871E-07
vn -0.493929 -0.7155895 -0.4939288
vn -0.5852215 -0.561276 0.5852223
vn -0.6985212 -0.7155892 1.06602E-07
vn -0.4939291 -0.7155894 0.4939289
vn 0 0.942436 0.3343866
vn 0 0.5740018 0.818854
vn -0.4157361 -0.808905 0.4157358
vn 0.236447 0.9424359 0.2364474
vn 0 -0.8089048 0.5879397
vn -0.1739112 -0.969283 0.1739112
vn 0.3343866 0.942436 2.841662E-07
vn 0.5790172 0.5740019 0.5790172
vn 0.8188539 0.5740019 0
vn 0.4157359 -0.8089047 0.4157363
vn 0.4157359 -0.8089047 0.4157363
vn 0 -0.969283 0.2459479
vn -0.5852215 -0.561276 0.5852223
vn 0.1739113 -0.969283 0.1739117
vn 0.5879396 -0.8089049 3.028587E-07
vn 0.4157361 -0.808905 -0.4157358
vn 0.1739113 -0.969283 0.1739117
vn 0 -0.5612756 0.827629
vn -0.4939291 -0.7155894 0.4939289
vn 0.5852218 -0.561276 0.5852218
vn 0 -0.7155898 0.6985208
vn 0.4939291 -0.7155896 0.4939287
vn 0.2459477 -0.969283 2.884053E-07
vn 0.1739112 -0.969283 -0.1739112
vn 0.5852218 -0.561276 0.5852218
vn 0.8276286 -0.561276 -2.041871E-07
vn 0.4939291 -0.7155896 0.4939287
vn 0.5852215 -0.561276 -0.5852223
vn 0.6985212 -0.7155892 -1.06602E-07
vn 0.4939291 -0.7155894 -0.4939289
vn 0.5793818 -0.5732653 -0.5793821
vn 0.4939291 -0.7155894 -0.4939289
vn 0 -0.7155896 -0.6985209
vn 0 -0.5732651 -0.81937
vn -0.493929 -0.7155895 -0.4939288
vn 0.8193699 -0.5732652 0
vn 0.6985212 -0.7155892 -1.06602E-07
vn -0.5793819 -0.5732651 -0.5793821
vn -0.6985212 -0.7155892 1.06602E-07
vn 0.5793818 -0.5732653 0.579382
vn 0.4939291 -0.7155896 0.4939287
vn -0.8193699 -0.5732652 0
vn -0.4939291 -0.7155894 0.4939289
vn 0 -0.5732652 0.8193699
vn 0 -0.7155898 0.6985208
vn -0.5793819 -0.5732651 0.5793822
vn 0.8975866 -0.440838 -2.05526E-07
vn 0.6346896 -0.4408383 0.6346895
vn 0.6346895 -0.4408382 -0.6346896
vn 0 -0.4408379 0.8975866
vn -0.6346893 -0.4408381 0.6346899
vn -1.264776E-07 -0.440838 -0.8975866
vn -0.8975866 -0.440838 0
vn -0.6346895 -0.4408381 -0.6346898
g lamp_0
f 3/3/3 2/2/2 1/1/1
f 2/2/2 4/4/4 1/1/1
f 1/1/1 4/4/4 5/5/5
f 2/2/2 6/6/6 4/4/4
f 4/4/4 7/7/7 5/5/5
f 5/5/5 7/7/7 8/8/8
f 6/6/6 9/9/9 4/4/4
f 4/4/4 9/9/9 7/7/7
f 6/6/6 10/10/10 9/9/9
f 7/7/7 11/11/11 8/8/8
f 8/8/8 11/11/11 12/12/12
f 10/10/10 13/13/13 9/9/9
f 13/13/13 10/10/10 14/14/14
f 9/9/9 15/15/15 7/7/7
f 7/7/7 15/15/15 11/11/11
f 9/9/9 13/13/13 15/15/15
f 11/11/11 16/16/16 12/12/12
f 12/12/12 16/16/16 17/17/17
f 18/18/18 13/13/13 14/14/14
f 14/14/14 19/19/19 18/18/18
f 13/13/13 20/20/20 15/15/15
f 20/20/20 13/13/13 18/18/18
f 15/15/15 21/21/21 11/11/11
f 11/11/11 21/21/21 16/16/16
f 15/15/15 20/20/20 21/21/21
f 16/16/16 22/22/22 17/17/17
f 17/17/17 22/22/22 23/23/23
f 19/19/19 24/24/24 18/18/18
f 19/19/19 25/25/25 24/24/24
f 21/21/21 26/26/26 16/16/16
f 16/16/16 26/26/26 22/22/22
f 20/20/20 27/27/27 21/21/21
f 21/21/21 27/27/27 26/26/26
f 28/28/28 20/20/20 18/18/18
f 18/18/18 24/24/24 28/28/28
f 27/27/27 20/20/20 28/28/28
f 22/22/22 29/29/29 23/23/23
f 23/23/23 29/29/29 30/30/30
f 25/25/25 31/31/31 24/24/24
f 25/25/25 32/32/32 31/31/31
f 32/32/32 33/33/33 31/31/31
f 26/26/26 34/34/34 22/22/22
f 22/22/22 34/34/34 29/29/29
f 24/24/24 35/35/35 28/28/28
f 24/24/24 31/31/31 35/35/35
f 31/31/31 33/33/33 36/36/36
f 31/31/31 36/36/36 35/35/35
f 33/33/33 37/37/37 36/36/36
f 27/27/27 38/38/38 26/26/26
f 26/26/26 38/38/38 34/34/34
f 39/39/39 27/27/27 28/28/28
f 28/28/28 35/35/35 39/39/39
f 38/38/38 27/27/27 39/39/39
f 35/35/35 36/36/36 40/40/40
f 35/35/35 40/40/40 39/39/39
f 36/36/36 37/37/37 41/41/41
f 36/36/36 41/41/41 40/40/40
f 37/37/37 42/42/42 41/41/41
f 43/43/43 38/38/38 39/39/39
f 39/39/39 40/40/40 43/43/43
f 38/38/38 44/44/44 34/34/34
f 44/44/44 38/38/38 43/43/43
f 40/40/40 41/41/41 45/45/45
f 40/40/40 45/45/45 43/43/43
f 41/41/41 42/42/42 46/46/46
f 41/41/41 46/46/46 45/45/45
f 42/42/42 47/47/47 46/46/46
f 43/43/43 45/45/45 48/48/48
f 48/48/48 44/44/44 43/43/43
f 34/34/34 44/44/44 49/49/49
f 34/34/34 49/49/49 29/29/29
f 45/45/45 46/46/46 50/50/50
f 45/45/45 50/50/50 48/48/48
f 46/46/46 47/47/47 51/51/51
f 46/46/46 51/51/51 50/50/50
f 47/47/47 52/52/52 51/51/51
f 53/53/53 44/44/44 48/48/48
f 44/44/44 53/53/53 49/49/49
f 29/29/29 49/49/49 54/54/54
f 29/29/29 54/54/54 30/30/30
f 30/30/30 54/54/54 55/55/55
f 54/54/54 56/56/56 55/55/55
f 49/49/49 57/57/57 54/54/54
f 54/54/54 57/57/57 56/56/56
f 49/49/49 53/53/53 57/57/57
f 57/57/57 58/58/58 56/56/56
f 57/57/57 59/59/59 58/58/58
f 53/53/53 59/59/59 57/57/57
f 59/59/59 60/60/60 58/58/58
f 61/61/61 53/53/53 48/48/48
f 59/59/59 53/53/53 61/61/61
f 48/48/48 50/50/50 61/61/61
f 60/60/60 59/59/59 62/62/62
f 62/62/62 59/59/59 61/61/61
f 63/63/63 60/60/60 62/62/62
f 50/50/50 64/64/64 61/61/61
f 61/61/61 64/64/64 62/62/62
f 50/50/50 51/51/51 64/64/64
f 62/62/62 65/65/65 63/63/63
f 64/64/64 65/65/65 62/62/62
f 65/65/65 66/66/66 63/63/63
f 51/51/51 67/67/67 64/64/64
f 64/64/64 67/67/67 65/65/65
f 51/51/51 52/52/52 67/67/67
f 52/52/52 68/68/68 67/67/67
f 65/65/65 69/69/69 66/66/66
f 67/67/67 69/69/69 65/65/65
f 67/67/67 68/68/68 69/69/69
f 69/69/69 70/70/70 66/66/66
f 68/68/68 71/71/71 69/69/69
f 69/69/69 71/71/71 70/70/70
f 71/71/71 72/72/72 70/70/70
f 75/75/75 74/74/74 73/73/73
f 76/76/76 75/75/75 73/73/73
f 77/77/77 75/75/75 76/76/76
f 73/73/73 78/78/78 76/76/76
f 79/79/79 77/77/77 76/76/76
f 78/78/78 80/80/80 76/76/76
f 76/76/76 80/80/80 79/79/79
f 78/78/78 81/81/81 80/80/80
f 80/80/80 82/82/82 79/79/79
f 81/81/81 83/83/83 80/80/80
f 80/80/80 83/83/83 82/82/82
f 83/83/83 84/84/84 82/82/82
f 81/81/81 85/85/85 83/83/83
f 83/83/83 86/86/86 84/84/84
f 85/85/85 86/86/86 83/83/83
f 86/86/86 87/87/87 84/84/84
f 86/86/86 85/85/85 88/88/88
f 87/87/87 86/86/86 89/89/89
f 89/89/89 86/86/86 88/88/88
f 88/88/88 90/90/90 89/89/89
f 88/88/88 85/85/85 91/91/91
f 91/91/91 90/90/90 88/88/88
f 85/85/85 92/92/92 91/91/91
f 92/92/92 85/85/85 93/93/93
f 94/94/94 87/87/87 89/89/89
f 89/89/89 90/90/90 94/94/94
f 95/95/95 90/90/90 91/91/91
f 91/91/91 92/92/92 95/95/95
f 96/96/96 92/92/92 93/93/93
f 96/96/96 93/93/93 97/97/97
f 92/92/92 98/98/98 95/95/95
f 98/98/98 92/92/92 96/96/96
f 99/99/99 96/96/96 97/97/97
f 99/99/99 97/97/97 100/100/100
f 101/101/101 98/98/98 96/96/96
f 101/101/101 96/96/96 99/99/99
f 102/102/102 101/101/101 99/99/99
f 103/103/103 99/99/99 100/100/100
f 102/102/102 99/99/99 103/103/103
f 100/100/100 104/104/104 103/103/103
f 105/105/105 102/102/102 103/103/103
f 104/104/104 106/106/106 103/103/103
f 103/103/103 106/106/106 105/105/105
f 106/106/106 107/107/107 105/105/105
f 95/95/95 98/98/98 108/108/108
f 108/108/108 90/90/90 95/95/95
f 98/98/98 109/109/109 108/108/108
f 109/109/109 98/98/98 110/110/110
f 111/111/111 90/90/90 108/108/108
f 108/108/108 109/109/109 111/111/111
f 112/112/112 109/109/109 110/110/110
f 112/112/112 110/110/110 113/113/113
f 114/114/114 90/90/90 111/111/111
f 94/94/94 90/90/90 114/114/114
f 109/109/109 115/115/115 111/111/111
f 111/111/111 115/115/115 114/114/114
f 115/115/115 109/109/109 112/112/112
f 114/114/114 116/116/116 94/94/94
f 115/115/115 116/116/116 114/114/114
f 116/116/116 87/87/87 94/94/94
f 117/117/117 115/115/115 112/112/112
f 116/116/116 115/115/115 118/118/118
f 119/119/119 112/112/112 113/113/113
f 117/117/117 112/112/112 119/119/119
f 119/119/119 113/113/113 120/120/120
f 121/121/121 117/117/117 119/119/119
f 87/87/87 116/116/116 122/122/122
f 122/122/122 116/116/116 118/118/118
f 123/123/123 87/87/87 122/122/122
f 122/122/122 118/118/118 124/124/124
f 125/125/125 119/119/119 120/120/120
f 121/121/121 119/119/119 125/125/125
f 120/120/120 126/126/126 125/125/125
f 127/127/127 121/121/121 125/125/125
f 126/126/126 128/128/128 125/125/125
f 125/125/125 128/128/128 127/127/127
f 128/128/128 129/129/129 127/127/127
f 123/123/123 122/122/122 130/130/130
f 130/130/130 122/122/122 124/124/124
f 131/131/131 123/123/123 130/130/130
f 130/130/130 124/124/124 132/132/132
f 131/131/131 130/130/130 133/133/133
f 133/133/133 130/130/130 132/132/132
f 132/132/132 134/134/134 133/133/133
f 135/135/135 131/131/131 133/133/133
f 134/134/134 136/136/136 133/133/133
f 133/133/133 136/136/136 135/135/135
f 136/136/136 137/137/137 135/135/135
f 140/140/140 139/139/139 138/138/138
f 141/141/141 140/140/140 138/138/138
f 142/142/142 140/140/140 141/141/141
f 138/138/138 139/139/139 143/143/143
f 139/139/139 144/144/144 143/143/143
f 145/145/145 142/142/142 141/141/141
f 146/146/146 142/142/142 145/145/145
f 143/143/143 144/144/144 147/147/147
f 144/144/144 148/148/148 147/147/147
f 149/149/149 146/146/146 145/145/145
f 150/150/150 146/146/146 149/149/149
f 147/147/147 148/148/148 151/151/151
f 148/148/148 152/152/152 151/151/151
f 152/152/152 150/150/150 153/153/153
f 153/153/153 150/150/150 149/149/149
f 151/151/151 152/152/152 153/153/153
f 138/138/138 143/143/143 154/154/154
f 154/154/154 143/143/143 155/155/155
f 143/143/143 147/147/147 155/155/155
f 156/156/156 138/138/138 154/154/154
f 155/155/155 147/147/147 157/157/157
f 147/147/147 151/151/151 157/157/157
f 141/141/141 138/138/138 156/156/156
f 157/157/157 151/151/151 158/158/158
f 151/151/151 153/153/153 158/158/158
f 159/159/159 141/141/141 156/156/156
f 158/158/158 153/153/153 160/160/160
f 153/153/153 149/149/149 160/160/160
f 145/145/145 141/141/141 159/159/159
f 160/160/160 149/149/149 161/161/161
f 161/161/161 145/145/145 159/159/159
f 149/149/149 145/145/145 161/161/161
