g microwave1_PLY
v -2.379894 0 1.498187
v -2.379894 3.128583 1.498187
v 1.229633 3.128583 1.498187
v 1.229633 0 1.498187
v 2.379894 0 1.498187
v 2.379894 3.128583 1.498187
v -2.379894 3.128583 -1.498187
v -2.379894 0 -1.498187
v 1.229633 0 -1.498187
v 1.229633 3.128583 -1.498187
v 2.379894 3.128583 -1.498187
v 2.379894 0 -1.498187
v 1.229633 0 1.498187
v -2.379894 0 1.09166
v -2.379894 0 1.498187
v 1.229633 0 1.09166
v 2.379894 0 1.498187
v -2.379894 0 -1.498187
v 2.379894 0 1.09166
v 1.229633 0 -1.498187
v 2.379894 0 -1.498187
v 2.379894 0 1.09166
v 2.379894 0 1.498187
v 2.379894 3.128583 1.498187
v 2.379894 3.128583 1.09166
v 2.379894 3.128583 -1.498187
v 2.379894 0 -1.498187
v -2.379894 0 1.498187
v -2.379894 3.128583 1.09166
v -2.379894 3.128583 1.498187
v -2.379894 0 1.09166
v -2.379894 3.128583 -1.498187
v -2.379894 0 -1.498187
v 1.229633 3.128583 1.498187
v 2.379894 3.128583 1.09166
v 2.379894 3.128583 1.498187
v 1.229633 3.128583 1.09166
v -2.379894 3.128583 1.498187
v 2.379894 3.128583 -1.498187
v -2.379894 3.128583 1.09166
v 1.229633 3.128583 -1.498187
v -2.379894 3.128583 -1.498187
v 1.965141 2.584714 1.446019
v 1.965141 2.584714 1.662743
v 1.62244 2.584714 1.662743
v 1.62244 2.584714 1.446019
v 1.62244 2.584714 1.446019
v 1.62244 2.584714 1.662743
v 1.451084 2.287923 1.662743
v 1.451084 2.287923 1.446019
v 1.451084 2.287923 1.446019
v 1.451084 2.287923 1.662743
v 1.62244 1.991133 1.662743
v 1.62244 1.991133 1.446019
v 1.62244 1.991133 1.446019
v 1.62244 1.991133 1.662743
v 1.965141 1.991133 1.662743
v 1.965141 1.991133 1.446019
v 1.965141 1.991133 1.446019
v 1.965141 1.991133 1.662743
v 2.136494 2.287923 1.662743
v 2.136494 2.287923 1.446019
v 2.136494 2.287923 1.446019
v 2.136494 2.287923 1.662743
v 1.965141 2.584714 1.662743
v 1.965141 2.584714 1.446019
v 0.685173 0.8115053 1.892505
v 1.045712 0.8115053 1.892505
v 1.045712 2.318594 1.892505
v 0.685173 2.318594 1.892505
v 0.685173 2.318594 1.892505
v 1.045712 2.318594 1.892505
v 1.045712 2.590005 1.474387
v 0.685173 2.590005 1.474387
v 0.685173 0.5400944 1.474387
v 1.045712 0.5400944 1.474387
v 1.045712 0.8115053 1.892505
v 0.685173 0.8115053 1.892505
v 0.685173 0.6787934 2.132215
v 0.685173 2.451306 2.132215
v 1.045712 2.451306 2.132215
v 1.045712 0.6787934 2.132215
v 0.685173 2.451306 2.132215
v 0.685173 2.863307 1.474387
v 1.045712 2.863307 1.474387
v 1.045712 2.451306 2.132215
v 0.685173 0.2667923 1.474387
v 0.685173 0.6787934 2.132215
v 1.045712 0.6787934 2.132215
v 1.045712 0.2667923 1.474387
v 1.045712 2.451306 2.132215
v 1.045712 2.863307 1.474387
v 1.045712 2.590005 1.474387
v 1.045712 2.318594 1.892505
v 1.045712 0.6787934 2.132215
v 1.045712 0.8115053 1.892505
v 1.045712 0.2667923 1.474387
v 1.045712 0.5400944 1.474387
v 0.685173 2.863307 1.474387
v 0.685173 2.318594 1.892505
v 0.685173 2.590005 1.474387
v 0.685173 2.451306 2.132215
v 0.685173 0.8115053 1.892505
v 0.685173 0.6787934 2.132215
v 0.685173 0.5400944 1.474387
v 0.685173 0.2667923 1.474387
v 1.965141 1.74521 1.446019
v 1.965141 1.74521 1.662743
v 1.62244 1.74521 1.662743
v 1.62244 1.74521 1.446019
v 1.62244 1.74521 1.446019
v 1.62244 1.74521 1.662743
v 1.451084 1.44842 1.662743
v 1.451084 1.44842 1.446019
v 1.451084 1.44842 1.446019
v 1.451084 1.44842 1.662743
v 1.62244 1.151629 1.662743
v 1.62244 1.151629 1.446019
v 1.62244 1.151629 1.446019
v 1.62244 1.151629 1.662743
v 1.965141 1.151629 1.662743
v 1.965141 1.151629 1.446019
v 1.965141 1.151629 1.446019
v 1.965141 1.151629 1.662743
v 2.136494 1.44842 1.662743
v 2.136494 1.44842 1.446019
v 2.136494 1.44842 1.446019
v 2.136494 1.44842 1.662743
v 1.965141 1.74521 1.662743
v 1.965141 1.74521 1.446019
v 1.965141 2.584714 1.662743
v 1.793789 2.287923 1.662743
v 1.62244 2.584714 1.662743
v 2.136494 2.287923 1.662743
v 1.451084 2.287923 1.662743
v 1.965141 1.991133 1.662743
v 1.62244 1.991133 1.662743
v 1.965141 1.74521 1.662743
v 1.793789 1.44842 1.662743
v 1.62244 1.74521 1.662743
v 2.136494 1.44842 1.662743
v 1.451084 1.44842 1.662743
v 1.965141 1.151629 1.662743
v 1.62244 1.151629 1.662743
vt 0.2799031 0.03824356
vt 0.2799031 0.2926225
vt 0.5733865 0.2926225
vt 0.5733865 0.03824364
vt 0.6669117 0.03824364
vt 0.6669118 0.2926225
vt 0.254726 0.7102129
vt 0.5091048 0.710213
vt 0.5091048 0.4167295
vt 0.254726 0.4167295
vt 0.254726 0.3232043
vt 0.5091049 0.3232043
vt 0.7527339 0.4167295
vt 0.7196801 0.7102129
vt 0.7527339 0.7102129
vt 0.7196801 0.4167295
vt 0.7527339 0.3232044
vt 0.5091048 0.710213
vt 0.7196801 0.3232044
vt 0.5091048 0.4167295
vt 0.5091049 0.3232043
vt 0.7172282 0.04169616
vt 0.6841744 0.04169617
vt 0.6841744 0.296075
vt 0.7172283 0.296075
vt 0.9278035 0.296075
vt 0.9278036 0.04169609
vt 0.2609141 0.03996982
vt 0.2278604 0.2943488
vt 0.2609142 0.2943487
vt 0.2278603 0.03996984
vt 0.01728506 0.2943489
vt 0.0172849 0.0399699
vt 0.01109689 0.4167295
vt 0.04415073 0.3232043
vt 0.01109689 0.3232043
vt 0.04415073 0.4167295
vt 0.01109688 0.7102129
vt 0.254726 0.3232043
vt 0.04415072 0.7102129
vt 0.254726 0.4167295
vt 0.254726 0.7102129
vt 0.8054908 0.7901915
vt 0.8231122 0.7901915
vt 0.8231122 0.7623269
vt 0.8054908 0.7623268
vt 0.8054908 0.7623268
vt 0.8231122 0.7623269
vt 0.8231121 0.7344623
vt 0.8054908 0.7344623
vt 0.8054908 0.7344623
vt 0.8231121 0.7344623
vt 0.8231122 0.7065977
vt 0.8054909 0.7065977
vt 0.8054909 0.7065977
vt 0.8231122 0.7065977
vt 0.8231122 0.6787332
vt 0.8054909 0.6787331
vt 0.8054909 0.6787331
vt 0.8231122 0.6787332
vt 0.8231121 0.6508685
vt 0.8054909 0.6508685
vt 0.8054909 0.6508685
vt 0.8231121 0.6508685
vt 0.8231121 0.6230039
vt 0.8054909 0.6230039
vt 0.9138724 0.4914516
vt 0.9431868 0.4914516
vt 0.9431867 0.3689131
vt 0.9138723 0.368913
vt 0.9138723 0.368913
vt 0.9431867 0.3689131
vt 0.9431865 0.3283825
vt 0.9138723 0.3283825
vt 0.9138722 0.5319826
vt 0.9431868 0.5319825
vt 0.9431868 0.4914516
vt 0.9138724 0.4914516
vt 0.8587526 0.5365268
vt 0.8587537 0.3924159
vt 0.8294454 0.3924156
vt 0.8294443 0.5365266
vt 0.8587537 0.3924159
vt 0.8587578 0.3293205
vt 0.8294474 0.3293221
vt 0.8294454 0.3924156
vt 0.8587506 0.5996204
vt 0.8587526 0.5365268
vt 0.8294443 0.5365266
vt 0.8294405 0.5996221
vt 0.8294454 0.3924156
vt 0.7761045 0.3587771
vt 0.7760271 0.3809973
vt 0.8099499 0.403179
vt 0.8294443 0.5365266
vt 0.8099435 0.525763
vt 0.7761003 0.5701647
vt 0.7760236 0.5479444
vt 0.9120978 0.3587777
vt 0.8782547 0.4031794
vt 0.9121744 0.380998
vt 0.8587537 0.3924159
vt 0.878248 0.5257634
vt 0.8587526 0.5365268
vt 0.912171 0.5479451
vt 0.9120935 0.5701653
vt 0.8054908 0.7901914
vt 0.8231122 0.7901914
vt 0.8231122 0.7623268
vt 0.8054908 0.7623268
vt 0.8054908 0.7623268
vt 0.8231122 0.7623268
vt 0.8231122 0.7344623
vt 0.8054908 0.7344623
vt 0.8054908 0.7344623
vt 0.8231122 0.7344623
vt 0.8231122 0.7065977
vt 0.8054909 0.7065977
vt 0.8054909 0.7065977
vt 0.8231122 0.7065977
vt 0.8231122 0.6787331
vt 0.8054909 0.6787331
vt 0.8054909 0.6787331
vt 0.8231122 0.6787331
vt 0.8231122 0.6508685
vt 0.8054909 0.6508685
vt 0.8054909 0.6508685
vt 0.8231122 0.6508685
vt 0.8231122 0.6230039
vt 0.8054909 0.6230039
vt 0.8713754 0.6787331
vt 0.8472436 0.6926655
vt 0.8713751 0.7065976
vt 0.8472436 0.6648008
vt 0.8472438 0.7205299
vt 0.8231122 0.6787332
vt 0.8231122 0.7065977
vt 0.8713751 0.6787331
vt 0.8472436 0.6926653
vt 0.8713751 0.7065976
vt 0.8472436 0.6648008
vt 0.8472436 0.7205299
vt 0.8231122 0.6787331
vt 0.8231122 0.7065977
vn 0 0 1
vn 0 0 1
vn 0 0 1
vn 0 0 1
vn 0 0 1
vn 0 0 1
vn 0 0 -1
vn 0 0 -1
vn 0 0 -1
vn 0 0 -1
vn 0 0 -1
vn 0 0 -1
vn 0 -1 0
vn 0 -1 0
vn 0 -1 0
vn 0 -1 0
vn 0 -1 0
vn 0 -1 0
vn 0 -1 0
vn 0 -1 0
vn 0 -1 0
vn 1 0 0
vn 1 0 0
vn 1 0 0
vn 1 0 0
vn 1 0 0
vn 1 0 0
vn -1 0 0
vn -1 0 0
vn -1 0 0
vn -1 0 0
vn -1 0 0
vn -1 0 0
vn 0 1 0
vn 0 1 0
vn 0 1 0
vn 0 1 0
vn 0 1 0
vn 0 1 0
vn 0 1 0
vn 0 1 0
vn 0 1 0
vn 0 1 0
vn 0 1 0
vn 0 1 0
vn 0 1 0
vn -0.8660251 0.5000005 0
vn -0.8660251 0.5000005 0
vn -0.8660251 0.5000005 0
vn -0.8660251 0.5000005 0
vn -0.8660251 -0.5000005 0
vn -0.8660251 -0.5000005 0
vn -0.8660251 -0.5000005 0
vn -0.8660251 -0.5000005 0
vn 0 -1 0
vn 0 -1 0
vn 0 -1 0
vn 0 -1 0
vn 0.8660251 -0.5000005 0
vn 0.8660251 -0.5000005 0
vn 0.8660251 -0.5000005 0
vn 0.8660251 -0.5000005 0
vn 0.8660251 0.5000005 0
vn 0.8660251 0.5000005 0
vn 0.8660251 0.5000005 0
vn 0.8660251 0.5000005 0
vn 0 0 -1
vn 0 0 -1
vn 0 0 -1
vn 0 0 -1
vn 0 -0.8387794 -0.5444713
vn 0 -0.8387794 -0.5444713
vn 0 -0.8387794 -0.5444713
vn 0 -0.8387794 -0.5444713
vn 0 0.8387795 -0.5444713
vn 0 0.8387795 -0.5444713
vn 0 0.8387795 -0.5444713
vn 0 0.8387795 -0.5444713
vn 0 0 1
vn 0 0 1
vn 0 0 1
vn 0 0 1
vn 0 0.8475009 0.5307939
vn 0 0.8475009 0.5307939
vn 0 0.8475009 0.5307939
vn 0 0.8475009 0.5307939
vn 0 -0.8475009 0.530794
vn 0 -0.8475009 0.530794
vn 0 -0.8475009 0.530794
vn 0 -0.8475009 0.530794
vn 1 0 0
vn 1 0 0
vn 1 0 0
vn 1 0 0
vn 1 0 0
vn 1 0 0
vn 1 0 0
vn 1 0 0
vn -1 0 0
vn -1 0 0
vn -1 0 0
vn -1 0 0
vn -1 0 0
vn -1 0 0
vn -1 0 0
vn -1 0 0
vn 0 1 0
vn 0 1 0
vn 0 1 0
vn 0 1 0
vn -0.8660251 0.5000005 0
vn -0.8660251 0.5000005 0
vn -0.8660251 0.5000005 0
vn -0.8660251 0.5000005 0
vn -0.8660251 -0.5000005 0
vn -0.8660251 -0.5000005 0
vn -0.8660251 -0.5000005 0
vn -0.8660251 -0.5000005 0
vn 0 -1 0
vn 0 -1 0
vn 0 -1 0
vn 0 -1 0
vn 0.8660251 -0.5000005 0
vn 0.8660251 -0.5000005 0
vn 0.8660251 -0.5000005 0
vn 0.8660251 -0.5000005 0
vn 0.8660251 0.5000005 0
vn 0.8660251 0.5000005 0
vn 0.8660251 0.5000005 0
vn 0.8660251 0.5000005 0
vn 0 0 1
vn 0 0 1
vn 0 0 1
vn 0 0 1
vn 0 0 1
vn 0 0 1
vn 0 0 1
vn 0 0 1
vn 0 0 1
vn 0 0 1
vn 0 0 1
vn 0 0 1
vn 0 0 1
vn 0 0 1
g microwave1_PLY_0
f 3/3/3 2/2/2 1/1/1
f 4/4/4 3/3/3 1/1/1
f 4/4/4 5/5/5 3/3/3
f 5/5/5 6/6/6 3/3/3
f 9/9/9 8/8/8 7/7/7
f 10/10/10 9/9/9 7/7/7
f 10/10/10 11/11/11 9/9/9
f 11/11/11 12/12/12 9/9/9
f 15/15/15 14/14/14 13/13/13
f 14/14/14 16/16/16 13/13/13
f 13/13/13 16/16/16 17/17/17
f 14/14/14 18/18/18 16/16/16
f 16/16/16 19/19/19 17/17/17
f 18/18/18 20/20/20 16/16/16
f 16/16/16 20/20/20 19/19/19
f 20/20/20 21/21/21 19/19/19
f 24/24/24 23/23/23 22/22/22
f 25/25/25 24/24/24 22/22/22
f 25/25/25 22/22/22 26/26/26
f 22/22/22 27/27/27 26/26/26
f 30/30/30 29/29/29 28/28/28
f 29/29/29 31/31/31 28/28/28
f 29/29/29 32/32/32 31/31/31
f 32/32/32 33/33/33 31/31/31
f 36/36/36 35/35/35 34/34/34
f 35/35/35 37/37/37 34/34/34
f 34/34/34 37/37/37 38/38/38
f 35/35/35 39/39/39 37/37/37
f 37/37/37 40/40/40 38/38/38
f 39/39/39 41/41/41 37/37/37
f 37/37/37 41/41/41 40/40/40
f 41/41/41 42/42/42 40/40/40
f 45/45/45 44/44/44 43/43/43
f 46/46/46 45/45/45 43/43/43
f 49/49/49 48/48/48 47/47/47
f 50/50/50 49/49/49 47/47/47
f 53/53/53 52/52/52 51/51/51
f 54/54/54 53/53/53 51/51/51
f 57/57/57 56/56/56 55/55/55
f 58/58/58 57/57/57 55/55/55
f 61/61/61 60/60/60 59/59/59
f 62/62/62 61/61/61 59/59/59
f 65/65/65 64/64/64 63/63/63
f 66/66/66 65/65/65 63/63/63
f 69/69/69 68/68/68 67/67/67
f 70/70/70 69/69/69 67/67/67
f 73/73/73 72/72/72 71/71/71
f 74/74/74 73/73/73 71/71/71
f 77/77/77 76/76/76 75/75/75
f 78/78/78 77/77/77 75/75/75
f 81/81/81 80/80/80 79/79/79
f 82/82/82 81/81/81 79/79/79
f 85/85/85 84/84/84 83/83/83
f 86/86/86 85/85/85 83/83/83
f 89/89/89 88/88/88 87/87/87
f 90/90/90 89/89/89 87/87/87
f 93/93/93 92/92/92 91/91/91
f 94/94/94 93/93/93 91/91/91
f 94/94/94 91/91/91 95/95/95
f 96/96/96 94/94/94 95/95/95
f 96/96/96 95/95/95 97/97/97
f 98/98/98 96/96/96 97/97/97
f 101/101/101 100/100/100 99/99/99
f 100/100/100 102/102/102 99/99/99
f 100/100/100 103/103/103 102/102/102
f 103/103/103 104/104/104 102/102/102
f 103/103/103 105/105/105 104/104/104
f 105/105/105 106/106/106 104/104/104
f 109/109/109 108/108/108 107/107/107
f 110/110/110 109/109/109 107/107/107
f 113/113/113 112/112/112 111/111/111
f 114/114/114 113/113/113 111/111/111
f 117/117/117 116/116/116 115/115/115
f 118/118/118 117/117/117 115/115/115
f 121/121/121 120/120/120 119/119/119
f 122/122/122 121/121/121 119/119/119
f 125/125/125 124/124/124 123/123/123
f 126/126/126 125/125/125 123/123/123
f 129/129/129 128/128/128 127/127/127
f 130/130/130 129/129/129 127/127/127
f 133/133/133 132/132/132 131/131/131
f 131/131/131 132/132/132 134/134/134
f 135/135/135 132/132/132 133/133/133
f 134/134/134 132/132/132 136/136/136
f 137/137/137 132/132/132 135/135/135
f 136/136/136 132/132/132 137/137/137
f 140/140/140 139/139/139 138/138/138
f 138/138/138 139/139/139 141/141/141
f 142/142/142 139/139/139 140/140/140
f 141/141/141 139/139/139 143/143/143
f 144/144/144 139/139/139 142/142/142
f 143/143/143 139/139/139 144/144/144
