g Muishroom02
v 0.02493645 0.04982641 0
v -0.04795029 0.0792256 0.03882293
v -0.03097667 0.04982641 0
v 0.04191007 0.0792256 0.03882293
v -0.04345727 0.07144344 0.1406367
v 0.05289301 0.00140422 0
v 0.03741705 0.07144344 0.1406367
v -0.02571213 0.04070795 0.3040093
v 0.01967191 0.04070795 0.3040093
v 0.08684026 0.001404221 0.03882292
v 0.02493645 -0.04701795 0
v 0.0778542 0.00140422 0.1406366
v 0.04236393 0.001404218 0.3040093
v 0.01967191 -0.03789951 0.3040093
v 0.04191007 -0.07641712 0.03882293
v -0.03097666 -0.04701795 0
v 0.03741704 -0.06863499 0.1406366
v -0.04795028 -0.07641712 0.03882293
v -0.05893322 0.001404215 0
v -0.04345725 -0.06863499 0.1406366
v -0.02571212 -0.03789951 0.3040093
v -0.09288049 0.001404213 0.03882293
v -0.03097667 0.04982641 0
v -0.04795029 0.0792256 0.03882293
v -0.08389442 0.001404213 0.1406366
v -0.04840414 0.001404214 0.3040093
v -0.04345727 0.07144344 0.1406367
v -0.02571213 0.04070795 0.3040093
v 0.02493645 -0.04701795 0
v -0.05893322 0.001404215 0
v -0.03097666 -0.04701795 0
v 0.02493645 0.04982641 0
v 0.05289301 0.00140422 0
v -0.03097667 0.04982641 0
v -0.08071836 -0.149339 0.2482479
v -0.005613199 0.001399438 0.3266735
v -0.140759 -0.1066081 0.247573
v -0.009093874 -0.1690336 0.2459844
v -0.1721401 -0.0483693 0.2476083
v 0.05613078 -0.1655933 0.2466941
v -0.181442 0.01210518 0.2473388
v 0.1296001 -0.1332157 0.2511165
v -0.1732073 0.07207003 0.2472687
v 0.1768367 -0.07929128 0.253536
v -0.13079 0.119686 0.2473472
v 0.1810825 -0.01383962 0.2526137
v -0.0721025 0.1543376 0.2499335
v 0.1655603 0.05194489 0.2518601
v -0.01136483 0.1686908 0.2506047
v 0.1162423 0.120413 0.2516191
v 0.05491999 0.1585865 0.2512206
v -0.08071836 -0.149339 0.2482479
v -0.009153743 -0.174221 0.2786542
v -0.009093874 -0.1690336 0.2459844
v -0.0832011 -0.1543224 0.2809926
v -0.140759 -0.1066081 0.247573
v 0.05822711 -0.170667 0.2793875
v 0.05613078 -0.1655933 0.2466941
v -0.1452265 -0.1101789 0.2802954
v -0.1721401 -0.0483693 0.2476083
v 0.1340054 -0.13757 0.283956
v 0.1296001 -0.1332157 0.2511165
v -0.1776451 -0.05001476 0.2803318
v -0.181442 0.01210518 0.2473388
v 0.1828683 -0.08195897 0.2864555
v 0.1768367 -0.07929128 0.253536
v -0.1872544 0.01245888 0.2800535
v -0.1732073 0.07207003 0.2472687
v 0.1872544 -0.0143436 0.2855027
v 0.1810825 -0.01383962 0.2526137
v -0.1787475 0.07440607 0.279981
v -0.13079 0.119686 0.2473472
v 0.1712191 0.0536156 0.2847242
v 0.1655603 0.05194489 0.2518601
v -0.1349279 0.1235962 0.2800622
v -0.0721025 0.1543376 0.2499335
v 0.1202707 0.1243472 0.2844752
v 0.1162423 0.120413 0.2516191
v -0.07430039 0.1593933 0.2827339
v -0.01136483 0.1686908 0.2506047
v 0.05692122 0.1637826 0.2840636
v 0.05491999 0.1585865 0.2512206
v -0.01155485 0.174221 0.2834274
v 0.1344479 0.04163973 0.3307513
v 0.1021784 0.09864859 0.3287063
v 0.05028868 0.1225145 0.3274279
v -0.009152325 0.1306503 0.3295191
v -0.06471078 0.1186554 0.3243318
v -0.1109798 0.1022593 0.3237282
v -0.1321107 0.06433095 0.3263793
v 0.0584896 0.04346868 0.4023273
v 0.1461623 -0.0144366 0.3351185
v -0.001138862 0.05134052 0.4256765
v -0.06012965 0.05493782 0.4024473
v -0.1394495 0.01257191 0.3301601
v 0.06458376 -0.01246189 0.4148295
v 0.140759 -0.06832218 0.3322216
v 0.0009748492 -0.007470709 0.44394
v -0.06202615 0.001446621 0.4224172
v -0.1371723 -0.03992968 0.3278757
v 0.05781874 -0.06276123 0.4006294
v 0.1025437 -0.1121373 0.3271739
v 0.04684279 -0.1369237 0.3296409
v -0.004898939 -0.1328657 0.3326635
v 0.0001691787 -0.06107393 0.4248585
v -0.06421127 -0.1209385 0.3292838
v -0.1094461 -0.08582238 0.3243458
v -0.05765401 -0.0498414 0.412787
vt 0.9623862 0.5255803
vt 0.9868568 0.5394031
vt 0.9801908 0.5246452
vt 0.9631506 0.5389992
vt 0.9829176 0.5709952
vt 0.9414685 0.5237575
vt 0.9614244 0.5667101
vt 0.9631448 0.6154848
vt 0.9503744 0.6121153
vt 0.9413119 0.5369498
vt 0.9194954 0.523499
vt 0.9407838 0.5647913
vt 0.9362407 0.6110534
vt 0.921728 0.6109855
vt 0.9199255 0.5366695
vt 0.8976353 0.5250612
vt 0.9207562 0.5645098
vt 0.8985723 0.5381988
vt 0.8769122 0.5279467
vt 0.9007197 0.5658602
vt 0.9073113 0.611836
vt 0.8768623 0.5413783
vt 0.8590956 0.5279327
vt 0.8532198 0.5430127
vt 0.880128 0.5688967
vt 0.8933514 0.6136746
vt 0.8588503 0.5742949
vt 0.880791 0.6177059
vt 0.9765004 0.9174293
vt 0.9534777 0.9041373
vt 0.961152 0.9174293
vt 0.9765004 0.8908452
vt 0.9841744 0.9041373
vt 0.961152 0.8908452
vt 0.7000611 0.4372703
vt 0.750323 0.5052734
vt 0.7325459 0.4195367
vt 0.6754912 0.4652638
vt 0.7657369 0.4181656
vt 0.6627241 0.495488
vt 0.7950987 0.4272541
vt 0.6611556 0.5358418
vt 0.82038 0.4441535
vt 0.6751096 0.5690595
vt 0.8325819 0.4737795
vt 0.7037592 0.5853533
vt 0.8353149 0.5079345
vt 0.7368926 0.5927935
vt 0.8284624 0.5385305
vt 0.7786435 0.585566
vt 0.8093463 0.5662555
vt 0.885921 0.8199716
vt 0.8859167 0.8660088
vt 0.8999469 0.8645095
vt 0.8731165 0.8262842
vt 0.8574996 0.7834505
vt 0.8818988 0.9031391
vt 0.8956512 0.906601
vt 0.8479089 0.7941413
vt 0.8210243 0.7616163
vt 0.8595699 0.9411508
vt 0.8710213 0.9497868
vt 0.8160897 0.7751002
vt 0.7814753 0.7548065
vt 0.8292029 0.9660652
vt 0.8345902 0.9782122
vt 0.781575 0.7691177
vt 0.7423984 0.7633907
vt 0.7929682 0.9723275
vt 0.7920341 0.9864303
vt 0.7480161 0.7759262
vt 0.7094308 0.7880816
vt 0.7558682 0.9634216
vt 0.7495584 0.9760563
vt 0.7203039 0.7980891
vt 0.6862463 0.82429
vt 0.7195575 0.9350235
vt 0.7087046 0.9448216
vt 0.6995733 0.8299993
vt 0.6770691 0.8639495
vt 0.6977297 0.9016298
vt 0.6843849 0.9064831
vt 0.6911757 0.8644921
vt 0.7645614 0.9397969
vt 0.7383041 0.9203889
vt 0.7228063 0.896214
vt 0.717729 0.8659141
vt 0.7238362 0.8371353
vt 0.7365307 0.8158611
vt 0.7549555 0.8035712
vt 0.7708459 0.89564
vt 0.7930568 0.9457487
vt 0.7707328 0.8718662
vt 0.7659115 0.8481612
vt 0.7814223 0.7985535
vt 0.7930782 0.8979058
vt 0.8201321 0.9415127
vt 0.7909181 0.8731738
vt 0.7865832 0.8498688
vt 0.8083971 0.8010721
vt 0.8126199 0.8958974
vt 0.842239 0.9217057
vt 0.8573481 0.8949964
vt 0.8574941 0.8687729
vt 0.8086789 0.8732527
vt 0.8502598 0.8388267
vt 0.8315586 0.8162222
vt 0.8047714 0.851748
vn 0.2568548 0.4448855 -0.8579642
vn -0.4802286 0.8317804 -0.2784275
vn -0.2568548 0.4448855 -0.8579642
vn 0.4802287 0.8317804 -0.2784275
vn -0.4945309 0.8565525 0.1475027
vn 0.5137095 0 -0.8579642
vn 0.4945309 0.8565525 0.1475027
vn -0.4886041 0.8462869 0.212284
vn 0.488604 0.846287 0.212284
vn 0.9604571 -1.219377E-07 -0.2784276
vn 0.2568548 -0.4448857 -0.857964
vn 0.9890617 0 0.1475026
vn 0.9772081 0 0.2122839
vn 0.488604 -0.846287 0.2122839
vn 0.4802285 -0.8317804 -0.2784275
vn -0.2568549 -0.4448858 -0.857964
vn 0.4945308 -0.8565525 0.1475025
vn -0.4802285 -0.8317804 -0.2784275
vn -0.5137096 -1.512321E-07 -0.8579642
vn -0.4945308 -0.8565525 0.1475025
vn -0.4886039 -0.8462871 0.2122839
vn -0.9604571 -2.241016E-07 -0.2784275
vn -0.2568548 0.4448855 -0.8579642
vn -0.4802286 0.8317804 -0.2784275
vn -0.9890617 -1.451072E-07 0.1475027
vn -0.9772081 -1.632226E-07 0.212284
vn -0.4945309 0.8565525 0.1475027
vn -0.4886041 0.8462869 0.212284
vn 0.2568548 -0.4448857 -0.857964
vn -0.5137096 -1.512321E-07 -0.8579642
vn -0.2568549 -0.4448858 -0.857964
vn 0.2568548 0.4448855 -0.8579642
vn 0.5137095 0 -0.8579642
vn -0.2568548 0.4448855 -0.8579642
vn -0.2338193 -0.4797455 -0.8456788
vn 0.0225335 -0.002857213 -0.999742
vn -0.4050341 -0.3654691 -0.8380809
vn -0.06679919 -0.517168 -0.8532732
vn -0.5004189 -0.1708839 -0.8487518
vn 0.1414807 -0.5112051 -0.8477338
vn -0.5193802 -0.00894706 -0.8544965
vn 0.3486855 -0.434325 -0.8305301
vn -0.5154397 0.2402569 -0.8225561
vn 0.5548907 -0.220139 -0.8022689
vn -0.313847 0.4125769 -0.8551493
vn 0.5319524 0.04045542 -0.8458073
vn -0.1775009 0.4957972 -0.850105
vn 0.4949637 0.2270844 -0.8387154
vn -0.0144034 0.5381315 -0.8427378
vn 0.3711834 0.3956501 -0.84005
vn 0.1930681 0.5082716 -0.8392763
vn -0.2338193 -0.4797455 -0.8456788
vn -0.1068451 -0.9682422 0.226034
vn -0.06679919 -0.517168 -0.8532732
vn -0.4139653 -0.877443 0.2423358
vn -0.4050341 -0.3654691 -0.8380809
vn 0.2294723 -0.9489546 0.2163966
vn 0.1414807 -0.5112051 -0.8477338
vn -0.7312081 -0.6264314 0.2700337
vn -0.5004189 -0.1708839 -0.8487518
vn 0.5687497 -0.7822585 0.2541567
vn 0.3486855 -0.434325 -0.8305301
vn -0.9121911 -0.3116435 0.2660561
vn -0.5193802 -0.00894706 -0.8544965
vn 0.8908364 -0.3750076 0.256476
vn 0.5548907 -0.220139 -0.8022689
vn -0.9620531 -0.001306152 0.2728591
vn -0.5154397 0.2402569 -0.8225561
vn 0.9665179 0.08266868 0.2429177
vn 0.5319524 0.04045542 -0.8458073
vn -0.8761572 0.3988883 0.2706228
vn -0.313847 0.4125769 -0.8551493
vn 0.8888441 0.392345 0.2366885
vn 0.4949637 0.2270844 -0.8387154
vn -0.6348372 0.7374325 0.2305968
vn -0.1775009 0.4957972 -0.850105
vn 0.6519871 0.7239494 0.2254105
vn 0.3711834 0.3956501 -0.84005
vn -0.3445919 0.896078 0.2798225
vn -0.0144034 0.5381315 -0.8427378
vn 0.3283976 0.9037434 0.2745959
vn 0.1930681 0.5082716 -0.8392763
vn -0.04634113 0.9583595 0.2817792
vn 0.6907626 0.2907701 0.6620422
vn 0.5004371 0.5852486 0.6380022
vn 0.2442924 0.7089306 0.6616182
vn -0.05011116 0.7451972 0.6649585
vn -0.2691948 0.6755582 0.6864076
vn -0.359202 0.4095089 0.8386158
vn -0.6275387 0.3304058 0.7050015
vn 0.4897246 0.4253379 0.7610897
vn 0.7190871 0.04324389 0.6935731
vn 0.03886057 0.5264761 0.8493013
vn -0.4619254 0.5096838 0.7258424
vn -0.730162 0.05067388 0.6813925
vn 0.5559915 -0.03815349 0.8303118
vn 0.6045094 -0.3226064 0.7283499
vn 0.05881105 -0.01584899 0.9981433
vn -0.5449597 0.06187761 0.8361759
vn -0.7158509 -0.2562545 0.6495314
vn 0.4268357 -0.5041084 0.7507903
vn 0.3069474 -0.488405 0.8168501
vn 0.1731233 -0.7365111 0.6538959
vn -0.08363147 -0.7697045 0.6328986
vn 0.03349273 -0.5628496 0.8258805
vn -0.3450695 -0.7018594 0.6231536
vn -0.5868486 -0.4971106 0.6391321
vn -0.4825668 -0.437829 0.7585744
g Muishroom02_0
f 3/3/3 2/2/2 1/1/1
f 4/4/4 1/1/1 2/2/2
f 2/2/2 5/5/5 4/4/4
f 1/1/1 4/4/4 6/6/6
f 7/7/7 4/4/4 5/5/5
f 5/5/5 8/8/8 7/7/7
f 9/9/9 7/7/7 8/8/8
f 10/10/10 6/6/6 4/4/4
f 4/4/4 7/7/7 10/10/10
f 6/6/6 10/10/10 11/11/11
f 7/7/7 9/9/9 12/12/12
f 12/12/12 10/10/10 7/7/7
f 13/13/13 12/12/12 9/9/9
f 13/13/13 14/14/14 12/12/12
f 15/15/15 11/11/11 10/10/10
f 10/10/10 12/12/12 15/15/15
f 11/11/11 15/15/15 16/16/16
f 17/17/17 12/12/12 14/14/14
f 17/17/17 15/15/15 12/12/12
f 18/18/18 16/16/16 15/15/15
f 15/15/15 17/17/17 18/18/18
f 16/16/16 18/18/18 19/19/19
f 17/17/17 14/14/14 20/20/20
f 20/20/20 18/18/18 17/17/17
f 21/21/21 20/20/20 14/14/14
f 22/22/22 19/19/19 18/18/18
f 18/18/18 20/20/20 22/22/22
f 19/19/19 22/22/22 23/23/23
f 24/24/24 23/23/23 22/22/22
f 20/20/20 21/21/21 25/25/25
f 25/25/25 22/22/22 20/20/20
f 22/22/22 25/25/25 24/24/24
f 26/26/26 25/25/25 21/21/21
f 27/27/27 24/24/24 25/25/25
f 25/25/25 26/26/26 27/27/27
f 28/28/28 27/27/27 26/26/26
f 31/31/31 30/30/30 29/29/29
f 30/30/30 32/32/32 29/29/29
f 29/29/29 32/32/32 33/33/33
f 34/34/34 32/32/32 30/30/30
f 37/37/37 36/36/36 35/35/35
f 35/35/35 36/36/36 38/38/38
f 39/39/39 36/36/36 37/37/37
f 38/38/38 36/36/36 40/40/40
f 41/41/41 36/36/36 39/39/39
f 40/40/40 36/36/36 42/42/42
f 43/43/43 36/36/36 41/41/41
f 42/42/42 36/36/36 44/44/44
f 45/45/45 36/36/36 43/43/43
f 44/44/44 36/36/36 46/46/46
f 47/47/47 36/36/36 45/45/45
f 46/46/46 36/36/36 48/48/48
f 49/49/49 36/36/36 47/47/47
f 48/48/48 36/36/36 50/50/50
f 51/51/51 36/36/36 49/49/49
f 50/50/50 36/36/36 51/51/51
f 54/54/54 53/53/53 52/52/52
f 55/55/55 52/52/52 53/53/53
f 52/52/52 55/55/55 56/56/56
f 53/53/53 54/54/54 57/57/57
f 58/58/58 57/57/57 54/54/54
f 59/59/59 56/56/56 55/55/55
f 56/56/56 59/59/59 60/60/60
f 57/57/57 58/58/58 61/61/61
f 62/62/62 61/61/61 58/58/58
f 63/63/63 60/60/60 59/59/59
f 60/60/60 63/63/63 64/64/64
f 61/61/61 62/62/62 65/65/65
f 66/66/66 65/65/65 62/62/62
f 67/67/67 64/64/64 63/63/63
f 64/64/64 67/67/67 68/68/68
f 65/65/65 66/66/66 69/69/69
f 70/70/70 69/69/69 66/66/66
f 71/71/71 68/68/68 67/67/67
f 68/68/68 71/71/71 72/72/72
f 69/69/69 70/70/70 73/73/73
f 74/74/74 73/73/73 70/70/70
f 75/75/75 72/72/72 71/71/71
f 72/72/72 75/75/75 76/76/76
f 73/73/73 74/74/74 77/77/77
f 78/78/78 77/77/77 74/74/74
f 79/79/79 76/76/76 75/75/75
f 76/76/76 79/79/79 80/80/80
f 77/77/77 78/78/78 81/81/81
f 82/82/82 81/81/81 78/78/78
f 80/80/80 83/83/83 82/82/82
f 83/83/83 80/80/80 79/79/79
f 81/81/81 82/82/82 83/83/83
f 73/73/73 84/84/84 69/69/69
f 77/77/77 85/85/85 73/73/73
f 84/84/84 73/73/73 85/85/85
f 81/81/81 86/86/86 77/77/77
f 85/85/85 77/77/77 86/86/86
f 83/83/83 87/87/87 81/81/81
f 86/86/86 81/81/81 87/87/87
f 79/79/79 88/88/88 83/83/83
f 87/87/87 83/83/83 88/88/88
f 75/75/75 89/89/89 79/79/79
f 88/88/88 79/79/79 89/89/89
f 89/89/89 75/75/75 90/90/90
f 89/89/89 90/90/90 88/88/88
f 71/71/71 90/90/90 75/75/75
f 86/86/86 91/91/91 85/85/85
f 84/84/84 85/85/85 91/91/91
f 92/92/92 69/69/69 84/84/84
f 69/69/69 92/92/92 65/65/65
f 87/87/87 93/93/93 86/86/86
f 91/91/91 86/86/86 93/93/93
f 88/88/88 94/94/94 87/87/87
f 94/94/94 88/88/88 90/90/90
f 93/93/93 87/87/87 94/94/94
f 90/90/90 71/71/71 95/95/95
f 90/90/90 95/95/95 94/94/94
f 67/67/67 95/95/95 71/71/71
f 91/91/91 96/96/96 84/84/84
f 92/92/92 84/84/84 96/96/96
f 97/97/97 65/65/65 92/92/92
f 65/65/65 97/97/97 61/61/61
f 93/93/93 98/98/98 91/91/91
f 96/96/96 91/91/91 98/98/98
f 94/94/94 99/99/99 93/93/93
f 99/99/99 94/94/94 95/95/95
f 98/98/98 93/93/93 99/99/99
f 95/95/95 67/67/67 100/100/100
f 95/95/95 100/100/100 99/99/99
f 63/63/63 100/100/100 67/67/67
f 96/96/96 101/101/101 92/92/92
f 97/97/97 92/92/92 101/101/101
f 102/102/102 61/61/61 97/97/97
f 61/61/61 102/102/102 57/57/57
f 102/102/102 97/97/97 103/103/103
f 103/103/103 57/57/57 102/102/102
f 101/101/101 103/103/103 97/97/97
f 57/57/57 103/103/103 53/53/53
f 104/104/104 53/53/53 103/103/103
f 103/103/103 101/101/101 104/104/104
f 53/53/53 104/104/104 55/55/55
f 101/101/101 96/96/96 105/105/105
f 105/105/105 104/104/104 101/101/101
f 98/98/98 105/105/105 96/96/96
f 106/106/106 55/55/55 104/104/104
f 104/104/104 105/105/105 106/106/106
f 55/55/55 106/106/106 59/59/59
f 59/59/59 107/107/107 63/63/63
f 107/107/107 59/59/59 106/106/106
f 100/100/100 63/63/63 107/107/107
f 105/105/105 98/98/98 108/108/108
f 108/108/108 106/106/106 105/105/105
f 106/106/106 108/108/108 107/107/107
f 100/100/100 107/107/107 108/108/108
f 99/99/99 108/108/108 98/98/98
f 108/108/108 99/99/99 100/100/100
