g polySurface19
v -0.5041965 0.4006992 0.5225988
v -0.4776175 0.4571478 0.5867661
v -0.4776175 0.4006992 0.5867661
v -0.5041965 0.4571478 0.5225988
v -0.5041965 0.4571478 -0.5225989
v -0.5041965 0.4006992 -0.5225989
v -0.4776175 0.4006992 -0.5867662
v -0.4776175 0.4571478 -0.5867662
v -0.41345 0.4571478 0.6133451
v -0.4776175 0.4006992 0.5867661
v -0.41345 0.4006992 0.6133451
v 0.41345 0.4006992 0.6133451
v -0.41345 0.4571478 0.5225988
v 0.41345 0.4571478 0.6133451
v 0.4776175 0.4571478 0.5867661
v 0.4776175 0.4006992 0.5867661
v 0.5041965 0.4571478 0.5225988
v 0.4776175 0.4006992 0.5867661
v 0.5041965 0.4006992 0.5225988
v 0.5041965 0.4006992 -0.5225989
v 0.41345 0.4571478 0.5225988
v -0.41345 0.4571478 -0.5225992
v 0.5041965 0.4571478 -0.5225989
v -0.41345 0.4571478 -0.6133453
v 0.4134503 0.4571478 -0.5225989
v 0.4776175 0.4571478 -0.5867662
v 0.4776175 0.4006992 -0.5867662
v 0.41345 0.4571478 -0.6133453
v 0.4776175 0.4006992 -0.5867662
v 0.41345 0.4006992 -0.6133453
v -0.41345 0.4006992 -0.6133453
v -0.4776175 0.4006992 -0.5867662
v -0.5041965 0.4006992 0.5225988
v -0.4776175 0.4006992 0.5867661
v -0.41345 0.4006992 0.6133451
v -0.4134503 0.4006992 0.5225988
v 0.41345 0.4006992 0.5225982
v 0.41345 0.4006992 0.6133451
v 0.4776175 0.4006992 0.5867661
v 0.5041965 0.4006992 0.5225988
v -0.5041965 0.4006992 -0.5225989
v 0.5041965 0.4006992 -0.5225989
v -0.41345 0.4006992 -0.5225992
v 0.41345 0.4006992 -0.5225989
v 0.41345 0.4006992 -0.6133453
v 0.4776175 0.4006992 -0.5867662
v -0.41345 0.4006992 -0.6133453
v -0.4776175 0.4006992 -0.5867662
v -0.3607745 -0.4567672 -0.4554102
v -0.4593039 -0.4571479 -0.4554102
v 0.264733 0.4057255 -0.4554102
v 0.3637463 0.4066829 -0.4554102
v -0.3607745 -0.4567672 -0.5059164
v 0.3637463 0.4066829 -0.5059164
v -0.4593039 -0.4571479 -0.5059164
v 0.264733 0.4057255 -0.5059164
v -0.4593039 -0.4571479 -0.4554102
v -0.3607745 -0.4567672 -0.4554102
v -0.4593039 -0.4571479 -0.4554102
v 0.264733 0.4057255 -0.4554102
v 0.480982 -0.4571479 -0.4044065
v -0.2430548 0.4057255 -0.4549126
v 0.480982 -0.4571479 -0.4549126
v -0.2430548 0.4057255 -0.4044065
v 0.3824524 -0.4567672 -0.4044065
v -0.3420682 0.4066829 -0.4044065
v 0.3824524 -0.4567672 -0.4549126
v 0.480982 -0.4571479 -0.4549126
v 0.3824524 -0.4567672 -0.4549126
v -0.3420682 0.4066829 -0.4549126
v 0.480982 -0.4571479 -0.4549126
v -0.2430548 0.4057255 -0.4549126
v -0.2099176 -0.2166346 -0.4640614
v -0.2640195 -0.2816556 -0.4640614
v -0.2640195 -0.2816556 0.4640612
v -0.2099176 -0.2166346 0.4640612
v -0.237457 -0.1937201 0.4640612
v -0.237457 -0.1937201 -0.4640614
v -0.2915588 -0.2587411 -0.4640614
v -0.2915588 -0.2587411 0.4640612
v -0.2640195 -0.2816556 0.4640612
v -0.2640195 -0.2816556 -0.4640614
v 0.2099176 -0.2166346 -0.4640614
v 0.2640195 -0.2816556 0.4640612
v 0.2640195 -0.2816556 -0.4640614
v 0.2099176 -0.2166346 0.4640612
v 0.237457 -0.1937201 0.4640612
v 0.237457 -0.1937201 -0.4640614
v 0.2915585 -0.2587411 -0.4640614
v 0.2915585 -0.2587411 0.4640612
v 0.2640195 -0.2816556 0.4640612
v 0.2640195 -0.2816556 -0.4640614
v 0.3824524 -0.4567672 0.456028
v -0.2430548 0.4057255 0.456028
v 0.480982 -0.4571479 0.456028
v -0.3420682 0.4066829 0.456028
v 0.3824524 -0.4567672 0.4055221
v -0.3420682 0.4066829 0.4055221
v 0.480982 -0.4571479 0.4055221
v -0.2430548 0.4057255 0.4055221
v 0.480982 -0.4571479 0.456028
v 0.3824524 -0.4567672 0.456028
v 0.480982 -0.4571479 0.456028
v -0.2430548 0.4057255 0.456028
v -0.4761856 0.3617539 0.375432
v -0.4761856 0.4048078 0.375432
v 0.4761856 0.4048078 0.375432
v 0.4761856 0.3617539 0.375432
v -0.4761856 0.3617539 0.252763
v -0.4761856 0.4048078 0.375432
v -0.4761856 0.4048078 0.252763
v 0.4761856 0.3617539 0.252763
v -0.4761856 0.4048078 0.252763
v 0.4761856 0.4048078 0.252763
v 0.4761856 0.4048078 0.252763
v 0.4761856 0.4048078 0.375432
v -0.4761856 0.3617539 -0.2534767
v -0.4761856 0.4048078 -0.2534767
v 0.4761856 0.4048078 -0.2534767
v 0.4761856 0.3617539 -0.2534767
v -0.4761856 0.3617539 -0.3761458
v -0.4761856 0.4048078 -0.2534767
v -0.4761856 0.4048078 -0.3761458
v 0.4761856 0.3617539 -0.3761458
v -0.4761856 0.4048078 -0.3761458
v 0.4761856 0.4048078 -0.3761458
v 0.4761856 0.4048078 -0.3761458
v 0.4761856 0.4048078 -0.2534767
v -0.4593039 -0.4571479 0.5063462
v -0.4593039 -0.4571479 0.4558401
v 0.264733 0.4057255 0.4558401
v 0.264733 0.4057255 0.5063462
v -0.3607745 -0.4567672 0.5063462
v 0.3637463 0.4066829 0.5063462
v -0.3607745 -0.4567672 0.4558401
v -0.4593039 -0.4571479 0.4558401
v -0.3607745 -0.4567672 0.4558401
v 0.3637463 0.4066829 0.4558401
v -0.4593039 -0.4571479 0.4558401
v 0.264733 0.4057255 0.4558401
vt 0.4319866 0.281029
vt 0.4232867 0.2702069
vt 0.4218147 0.2783245
vt 0.4324341 0.2733637
vt 0.5756701 0.2733257
vt 0.5761493 0.2810345
vt 0.5861281 0.2782039
vt 0.5848489 0.2702108
vt 0.4201772 0.2610259
vt 0.4153048 0.2715075
vt 0.4124739 0.2615471
vt 0.412434 0.1472282
vt 0.4324877 0.261017
vt 0.4200842 0.1476918
vt 0.4232329 0.1385385
vt 0.4151188 0.1370657
vt 0.4324065 0.1354141
vt 0.4219375 0.1305528
vt 0.4319126 0.1277065
vt 0.5761247 0.12764
vt 0.4324163 0.1477484
vt 0.5756785 0.2609848
vt 0.5756936 0.1353063
vt 0.588009 0.2610561
vt 0.5756589 0.1476591
vt 0.5848485 0.1384605
vt 0.5863073 0.1303347
vt 0.5879694 0.1476498
vt 0.5928369 0.1371664
vt 0.5956725 0.1471326
vt 0.5956587 0.2615251
vt 0.592963 0.2716884
vt 0.4201772 0.2610258
vt 0.4232867 0.2702069
vt 0.4324341 0.2733638
vt 0.4324877 0.261017
vt 0.5756785 0.2609848
vt 0.5756701 0.2733257
vt 0.5848489 0.2702108
vt 0.588009 0.2610561
vt 0.4200842 0.1476918
vt 0.5879694 0.1476498
vt 0.4324163 0.1477484
vt 0.5756589 0.1476591
vt 0.5756936 0.1353063
vt 0.5848485 0.1384605
vt 0.4324065 0.1354141
vt 0.4232329 0.1385385
vt 0.4596457 0.3090211
vt 0.4493375 0.3003057
vt 0.449358 0.4546258
vt 0.4596661 0.4634444
vt 0.4665652 0.3090202
vt 0.4665856 0.4634435
vt 0.4768712 0.3003019
vt 0.4768916 0.4546221
vt 0.4724024 0.2950192
vt 0.4620964 0.3037374
vt 0.4837907 0.3003012
vt 0.4838111 0.4546213
vt 0.4768886 0.3003041
vt 0.4837938 0.4546249
vt 0.483808 0.3003049
vt 0.4768742 0.4546242
vt 0.4665807 0.30902
vt 0.4665663 0.4634433
vt 0.462113 0.3037362
vt 0.4724209 0.2950203
vt 0.4596612 0.3090194
vt 0.4596468 0.4634426
vt 0.4493547 0.3003016
vt 0.4493406 0.4546217
vt 0.4144597 0.4581106
vt 0.4270782 0.4581115
vt 0.4270886 0.3196542
vt 0.41447 0.3196532
vt 0.4091256 0.3196527
vt 0.4091152 0.4581101
vt 0.3964967 0.4581091
vt 0.3965072 0.3196518
vt 0.3911626 0.3196514
vt 0.3911522 0.4581088
vt 0.4144593 0.3196523
vt 0.4270891 0.4581087
vt 0.4270777 0.3196512
vt 0.4144706 0.4581097
vt 0.4091261 0.4581101
vt 0.4091147 0.3196527
vt 0.3964962 0.3196538
vt 0.3965076 0.4581112
vt 0.3911631 0.4581116
vt 0.3911518 0.3196543
vt 0.4596649 0.3090188
vt 0.4493361 0.4546207
vt 0.4493589 0.3003005
vt 0.459642 0.463442
vt 0.4665845 0.3090199
vt 0.4665615 0.463443
vt 0.4768928 0.3003046
vt 0.47687 0.4546247
vt 0.4724254 0.2950206
vt 0.462117 0.3037359
vt 0.4838124 0.3003056
vt 0.4837894 0.4546258
vt 0.6077958 0.2819374
vt 0.607795 0.2878359
vt 0.7382724 0.2878559
vt 0.7382733 0.2819575
vt 0.6077985 0.2651315
vt 0.6018974 0.2819366
vt 0.6019 0.2651305
vt 0.738276 0.2651514
vt 0.6077994 0.2592329
vt 0.7382768 0.2592529
vt 0.7441745 0.2651523
vt 0.744172 0.2819582
vt 0.6077958 0.2819378
vt 0.6077951 0.2878363
vt 0.7382725 0.2878556
vt 0.7382733 0.2819571
vt 0.6077985 0.2651317
vt 0.6018975 0.2819369
vt 0.6019 0.2651309
vt 0.738276 0.2651511
vt 0.6077994 0.2592334
vt 0.7382767 0.2592526
vt 0.7441744 0.2651519
vt 0.744172 0.281958
vt 0.4769139 0.3002934
vt 0.4838334 0.3002971
vt 0.4837513 0.4546172
vt 0.4768318 0.4546135
vt 0.4666021 0.3090048
vt 0.4665199 0.463428
vt 0.4621367 0.303719
vt 0.4724486 0.2950076
vt 0.4596826 0.3090011
vt 0.4596003 0.4634243
vt 0.4493801 0.3002787
vt 0.449298 0.4545988
vn -0.5347632 -0.8449048 0.01281223
vn -0.4503323 0.7709744 0.4503323
vn -0.4503323 -0.7709744 0.4503323
vn -0.5347626 0.8449051 0.01281222
vn -0.5347622 0.8449055 -0.01281221
vn -0.5347626 -0.8449051 -0.01281222
vn -0.4503329 -0.7709739 -0.4503329
vn -0.4503329 0.7709739 -0.4503329
vn -0.01592551 0.8453928 0.5339076
vn -0.4503323 -0.7709744 0.4503323
vn -0.01592547 -0.845394 0.5339058
vn 0.01592547 -0.8453937 0.5339063
vn 0 1 0
vn 0.01592551 0.8453928 0.5339076
vn 0.4503323 0.7709744 0.4503323
vn 0.4503311 -0.7709759 0.4503311
vn 0.534763 0.8449049 0.01281223
vn 0.4503311 -0.7709759 0.4503311
vn 0.5347636 -0.8449047 0.01281224
vn 0.5347626 -0.8449053 -0.01281222
vn 0 1 0
vn 0 1 0
vn 0.534763 0.8449049 -0.01281223
vn -0.01592553 0.8453926 -0.5339081
vn 0 1 0
vn 0.4503326 0.770974 -0.4503326
vn 0.450332 -0.7709748 -0.450332
vn 0.01592551 0.8453928 -0.5339075
vn 0.450332 -0.7709748 -0.450332
vn 0.01592553 -0.8453925 -0.5339082
vn -0.01592553 -0.8453926 -0.5339081
vn -0.4503329 -0.7709739 -0.4503329
vn -0.5347632 -0.8449048 0.01281223
vn -0.4503323 -0.7709744 0.4503323
vn -0.01592547 -0.845394 0.5339058
vn 0 -1 0
vn 0 -1 0
vn 0.01592547 -0.8453937 0.5339063
vn 0.4503311 -0.7709759 0.4503311
vn 0.5347636 -0.8449047 0.01281224
vn -0.5347626 -0.8449051 -0.01281222
vn 0.5347626 -0.8449053 -0.01281222
vn 0 -1 0
vn 0 -1 0
vn 0.01592553 -0.8453925 -0.5339082
vn 0.450332 -0.7709748 -0.450332
vn -0.01592553 -0.8453926 -0.5339081
vn -0.4503329 -0.7709739 -0.4503329
vn 0.3192502 -0.3041793 0.8975267
vn -0.6103395 0.4426367 0.6569311
vn -0.3185962 0.3035544 0.8979706
vn 0.6121002 -0.4439147 0.6544257
vn 0.3192515 -0.3041791 -0.8975263
vn 0.6121009 -0.4439144 -0.6544253
vn -0.6103388 0.442637 -0.6569316
vn -0.3185948 0.3035545 -0.897971
vn -0.6103395 0.4426367 0.6569311
vn 0.3192502 -0.3041793 0.8975267
vn -0.6103395 0.4426367 0.6569311
vn -0.3185962 0.3035544 0.8979706
vn 0.6103395 0.4426367 0.6569311
vn 0.3185948 0.3035545 -0.897971
vn 0.6103388 0.442637 -0.6569316
vn 0.3185962 0.3035544 0.8979706
vn -0.3192502 -0.3041793 0.8975267
vn -0.6121002 -0.4439147 0.6544257
vn -0.3192515 -0.3041791 -0.8975263
vn 0.6103388 0.442637 -0.6569316
vn -0.3192515 -0.3041791 -0.8975263
vn -0.6121009 -0.4439144 -0.6544253
vn 0.6103388 0.442637 -0.6569316
vn 0.3185948 0.3035545 -0.897971
vn 0.9572794 -0.2891644 0
vn 0.4583786 -0.8887569 0
vn 0.4583786 -0.8887569 0
vn 0.9572794 -0.2891644 0
vn -0.4583788 0.8887569 0
vn -0.4583788 0.8887569 0
vn -0.9572794 0.2891644 0
vn -0.9572794 0.2891644 0
vn 0.4583786 -0.8887569 0
vn 0.4583786 -0.8887569 0
vn -0.9572795 -0.2891642 0
vn -0.4583789 -0.8887569 0
vn -0.4583789 -0.8887569 0
vn -0.9572795 -0.2891642 0
vn 0.4583789 0.8887569 0
vn 0.4583789 0.8887569 0
vn 0.9572795 0.2891642 0
vn 0.9572795 0.2891642 0
vn -0.4583789 -0.8887569 0
vn -0.4583789 -0.8887569 0
vn -0.3192502 -0.3041793 0.8975267
vn 0.3185962 0.3035544 0.8979706
vn 0.6103395 0.4426367 0.6569311
vn -0.6121002 -0.4439147 0.6544257
vn -0.3192515 -0.3041791 -0.8975263
vn -0.6121009 -0.4439144 -0.6544253
vn 0.6103388 0.442637 -0.6569316
vn 0.3185948 0.3035545 -0.897971
vn 0.6103395 0.4426367 0.6569311
vn -0.3192502 -0.3041793 0.8975267
vn 0.6103395 0.4426367 0.6569311
vn 0.3185962 0.3035544 0.8979706
vn -0.04261738 -0.9427134 0.3308702
vn -0.04261738 0.9427134 0.3308702
vn 0.04261738 0.9427134 0.3308702
vn 0.04261738 -0.9427134 0.3308702
vn -0.04261738 -0.9427134 -0.3308702
vn -0.04261738 0.9427134 0.3308702
vn -0.04261738 0.9427134 -0.3308702
vn 0.04261738 -0.9427134 -0.3308702
vn -0.04261738 0.9427134 -0.3308702
vn 0.04261738 0.9427134 -0.3308702
vn 0.04261738 0.9427134 -0.3308702
vn 0.04261738 0.9427134 0.3308702
vn -0.04261738 -0.9427134 0.3308702
vn -0.04261738 0.9427134 0.3308702
vn 0.04261738 0.9427134 0.3308702
vn 0.04261738 -0.9427134 0.3308702
vn -0.04261738 -0.9427134 -0.3308702
vn -0.04261738 0.9427134 0.3308702
vn -0.04261738 0.9427134 -0.3308702
vn 0.04261738 -0.9427134 -0.3308702
vn -0.04261738 0.9427134 -0.3308702
vn 0.04261738 0.9427134 -0.3308702
vn 0.04261738 0.9427134 -0.3308702
vn 0.04261738 0.9427134 0.3308702
vn -0.6103395 0.4426367 0.6569311
vn -0.6103388 0.442637 -0.6569316
vn -0.3185948 0.3035545 -0.897971
vn -0.3185962 0.3035544 0.8979706
vn 0.3192502 -0.3041793 0.8975267
vn 0.6121002 -0.4439147 0.6544257
vn 0.3192515 -0.3041791 -0.8975263
vn -0.6103388 0.442637 -0.6569316
vn 0.3192515 -0.3041791 -0.8975263
vn 0.6121009 -0.4439144 -0.6544253
vn -0.6103388 0.442637 -0.6569316
vn -0.3185948 0.3035545 -0.897971
g polySurface19_0
f 3/3/3 2/2/2 1/1/1
f 2/2/2 4/4/4 1/1/1
f 1/1/1 4/4/4 5/5/5
f 6/6/6 1/1/1 5/5/5
f 7/7/7 6/6/6 5/5/5
f 8/8/8 7/7/7 5/5/5
f 4/4/4 2/2/2 9/9/9
f 9/9/9 2/2/2 10/10/10
f 11/11/11 9/9/9 10/10/10
f 11/11/11 12/12/12 9/9/9
f 13/13/13 4/4/4 9/9/9
f 5/5/5 4/4/4 13/13/13
f 12/12/12 14/14/14 9/9/9
f 13/13/13 9/9/9 14/14/14
f 15/15/15 14/14/14 12/12/12
f 16/16/16 15/15/15 12/12/12
f 14/14/14 15/15/15 17/17/17
f 17/17/17 15/15/15 18/18/18
f 19/19/19 17/17/17 18/18/18
f 19/19/19 20/20/20 17/17/17
f 21/21/21 13/13/13 14/14/14
f 21/21/21 14/14/14 17/17/17
f 22/22/22 5/5/5 13/13/13
f 22/22/22 13/13/13 21/21/21
f 20/20/20 23/23/23 17/17/17
f 21/21/21 17/17/17 23/23/23
f 22/22/22 24/24/24 5/5/5
f 24/24/24 8/8/8 5/5/5
f 25/25/25 22/22/22 21/21/21
f 25/25/25 21/21/21 23/23/23
f 24/24/24 22/22/22 25/25/25
f 23/23/23 20/20/20 26/26/26
f 25/25/25 23/23/23 26/26/26
f 20/20/20 27/27/27 26/26/26
f 28/28/28 25/25/25 26/26/26
f 28/28/28 24/24/24 25/25/25
f 26/26/26 29/29/29 28/28/28
f 29/29/29 30/30/30 28/28/28
f 28/28/28 30/30/30 31/31/31
f 24/24/24 28/28/28 31/31/31
f 24/24/24 31/31/31 8/8/8
f 31/31/31 32/32/32 8/8/8
f 35/35/35 34/34/34 33/33/33
f 36/36/36 35/35/35 33/33/33
f 36/36/36 37/37/37 35/35/35
f 37/37/37 38/38/38 35/35/35
f 39/39/39 38/38/38 37/37/37
f 40/40/40 39/39/39 37/37/37
f 36/36/36 33/33/33 41/41/41
f 40/40/40 37/37/37 42/42/42
f 43/43/43 36/36/36 41/41/41
f 37/37/37 36/36/36 43/43/43
f 37/37/37 44/44/44 42/42/42
f 44/44/44 37/37/37 43/43/43
f 44/44/44 45/45/45 42/42/42
f 44/44/44 43/43/43 45/45/45
f 45/45/45 46/46/46 42/42/42
f 43/43/43 47/47/47 45/45/45
f 43/43/43 41/41/41 47/47/47
f 41/41/41 48/48/48 47/47/47
f 51/51/51 50/50/50 49/49/49
f 52/52/52 51/51/51 49/49/49
f 52/52/52 49/49/49 53/53/53
f 54/54/54 52/52/52 53/53/53
f 54/54/54 53/53/53 55/55/55
f 56/56/56 54/54/54 55/55/55
f 57/57/57 55/55/55 53/53/53
f 58/58/58 57/57/57 53/53/53
f 56/56/56 55/55/55 59/59/59
f 60/60/60 56/56/56 59/59/59
f 63/63/63 62/62/62 61/61/61
f 62/62/62 64/64/64 61/61/61
f 61/61/61 64/64/64 65/65/65
f 64/64/64 66/66/66 65/65/65
f 61/61/61 65/65/65 67/67/67
f 68/68/68 61/61/61 67/67/67
f 65/65/65 66/66/66 69/69/69
f 66/66/66 70/70/70 69/69/69
f 69/69/69 70/70/70 71/71/71
f 70/70/70 72/72/72 71/71/71
f 75/75/75 74/74/74 73/73/73
f 76/76/76 75/75/75 73/73/73
f 77/77/77 76/76/76 73/73/73
f 78/78/78 77/77/77 73/73/73
f 78/78/78 79/79/79 77/77/77
f 79/79/79 80/80/80 77/77/77
f 80/80/80 79/79/79 81/81/81
f 79/79/79 82/82/82 81/81/81
f 85/85/85 84/84/84 83/83/83
f 84/84/84 86/86/86 83/83/83
f 86/86/86 87/87/87 83/83/83
f 87/87/87 88/88/88 83/83/83
f 89/89/89 88/88/88 87/87/87
f 90/90/90 89/89/89 87/87/87
f 89/89/89 90/90/90 91/91/91
f 92/92/92 89/89/89 91/91/91
f 95/95/95 94/94/94 93/93/93
f 94/94/94 96/96/96 93/93/93
f 93/93/93 96/96/96 97/97/97
f 96/96/96 98/98/98 97/97/97
f 97/97/97 98/98/98 99/99/99
f 98/98/98 100/100/100 99/99/99
f 99/99/99 101/101/101 97/97/97
f 101/101/101 102/102/102 97/97/97
f 99/99/99 100/100/100 103/103/103
f 100/100/100 104/104/104 103/103/103
f 107/107/107 106/106/106 105/105/105
f 108/108/108 107/107/107 105/105/105
f 108/108/108 105/105/105 109/109/109
f 105/105/105 110/110/110 109/109/109
f 110/110/110 111/111/111 109/109/109
f 112/112/112 108/108/108 109/109/109
f 112/112/112 109/109/109 113/113/113
f 114/114/114 112/112/112 113/113/113
f 112/112/112 115/115/115 108/108/108
f 115/115/115 116/116/116 108/108/108
f 119/119/119 118/118/118 117/117/117
f 120/120/120 119/119/119 117/117/117
f 120/120/120 117/117/117 121/121/121
f 117/117/117 122/122/122 121/121/121
f 122/122/122 123/123/123 121/121/121
f 124/124/124 120/120/120 121/121/121
f 124/124/124 121/121/121 125/125/125
f 126/126/126 124/124/124 125/125/125
f 124/124/124 127/127/127 120/120/120
f 127/127/127 128/128/128 120/120/120
f 131/131/131 130/130/130 129/129/129
f 132/132/132 131/131/131 129/129/129
f 132/132/132 129/129/129 133/133/133
f 134/134/134 132/132/132 133/133/133
f 133/133/133 129/129/129 135/135/135
f 129/129/129 136/136/136 135/135/135
f 134/134/134 133/133/133 137/137/137
f 138/138/138 134/134/134 137/137/137
f 138/138/138 137/137/137 139/139/139
f 140/140/140 138/138/138 139/139/139
