g polySurface40
v 0.4764522 0.4809296 0.6557803
v 0.2504857 0.4809296 0.770916
v 0.1678254 0.4357263 0.5165137
v 0.3192229 0.4357263 0.4393728
v 0.1890923 0.3977837 0.2602631
v 0.09941161 0.3977837 0.3059577
v 0.6557803 0.4809296 0.4764523
v 0.4764522 0.4809296 0.6557803
v 0.3192229 0.4357263 0.4393728
v 0.4393727 0.4357263 0.319223
v 0.2602631 0.3977837 0.1890924
v 0.1890923 0.3977837 0.2602631
v 0.7709159 0.4809296 0.2504857
v 0.6557803 0.4809296 0.4764523
v 0.4393727 0.4357263 0.319223
v 0.5165136 0.4357263 0.1678255
v 0.3059577 0.3977837 0.09941167
v 0.2602631 0.3977837 0.1890924
v 0.8105889 0.4809296 -8.479003E-18
v 0.7709159 0.4809296 0.2504857
v 0.5165136 0.4357263 0.1678255
v 0.5430946 0.4357263 5.148757E-19
v 0.3217033 0.3977837 -3.692902E-08
v 0.3059577 0.3977837 0.09941167
v 0.8105889 0.4809296 -8.479003E-18
v 0.5165139 0.4357263 -0.1678256
v 0.7709164 0.4809296 -0.2504859
v 0.5430946 0.4357263 5.148757E-19
v 0.3059577 0.3977837 -0.09941178
v 0.3217033 0.3977837 -3.692902E-08
v 0.439373 0.4357263 -0.3192232
v 0.6557807 0.4809296 -0.4764526
v 0.7709164 0.4809296 -0.2504859
v 0.5165139 0.4357263 -0.1678256
v 0.2602632 0.3977837 -0.1890926
v 0.3059577 0.3977837 -0.09941178
v 0.3192232 0.4357263 -0.439373
v 0.4764526 0.4809296 -0.6557806
v 0.6557807 0.4809296 -0.4764526
v 0.439373 0.4357263 -0.3192232
v 0.1890925 0.3977837 -0.2602633
v 0.2602632 0.3977837 -0.1890926
v 0.1678255 0.4357263 -0.5165139
v 0.2504859 0.4809296 -0.7709163
v 0.4764526 0.4809296 -0.6557806
v 0.3192232 0.4357263 -0.439373
v 0.09941169 0.3977837 -0.3059579
v 0.1890925 0.3977837 -0.2602633
v -3.985976E-08 0.4357263 -0.5430948
v -1.019881E-17 0.4809296 -0.8105893
v 0.2504859 0.4809296 -0.7709163
v 0.1678255 0.4357263 -0.5165139
v -7.284967E-08 0.3977837 -0.3217035
v 0.09941169 0.3977837 -0.3059579
v -0.1678256 0.4357263 -0.5165139
v -0.2504859 0.4809296 -0.7709163
v -1.019881E-17 0.4809296 -0.8105893
v -3.985976E-08 0.4357263 -0.5430948
v -0.09941181 0.3977837 -0.3059579
v -7.284967E-08 0.3977837 -0.3217035
v -0.3192231 0.4357263 -0.439373
v -0.4764524 0.4809296 -0.6557806
v -0.2504859 0.4809296 -0.7709163
v -0.1678256 0.4357263 -0.5165139
v -0.1890926 0.3977837 -0.2602633
v -0.09941181 0.3977837 -0.3059579
v -0.439373 0.4357263 -0.3192231
v -0.6557805 0.4809296 -0.4764524
v -0.4764524 0.4809296 -0.6557806
v -0.3192231 0.4357263 -0.439373
v -0.2602633 0.3977837 -0.1890925
v -0.1890926 0.3977837 -0.2602633
v -0.5165138 0.4357263 -0.1678255
v -0.7709161 0.4809296 -0.2504858
v -0.6557805 0.4809296 -0.4764524
v -0.439373 0.4357263 -0.3192231
v -0.3059579 0.3977837 -0.09941173
v -0.2602633 0.3977837 -0.1890925
v -0.5430948 0.4357263 7.595872E-18
v -0.8105891 0.4809296 3.257156E-18
v -0.7709161 0.4809296 -0.2504858
v -0.5165138 0.4357263 -0.1678255
v -0.3217034 0.3977837 -3.692902E-08
v -0.3059579 0.3977837 -0.09941173
v -0.7709161 0.4809296 0.2504858
v -0.8105891 0.4809296 3.257156E-18
v -0.5430948 0.4357263 7.595872E-18
v -0.5165138 0.4357263 0.1678255
v -0.3059579 0.3977837 0.0994117
v -0.3217034 0.3977837 -3.692902E-08
v -0.6557805 0.4809296 0.4764523
v -0.7709161 0.4809296 0.2504858
v -0.5165138 0.4357263 0.1678255
v -0.4393729 0.4357263 0.319223
v -0.2602633 0.3977837 0.1890924
v -0.3059579 0.3977837 0.0994117
v -0.4764523 0.4809296 0.6557803
v -0.6557805 0.4809296 0.4764523
v -0.4393729 0.4357263 0.319223
v -0.3192231 0.4357263 0.4393728
v -0.1890925 0.3977837 0.2602631
v -0.2602633 0.3977837 0.1890924
v -0.2504858 0.4809296 0.7709161
v -0.4764523 0.4809296 0.6557803
v -0.3192231 0.4357263 0.4393728
v -0.1678255 0.4357263 0.5165138
v -0.09941177 0.3977837 0.3059577
v -0.1890925 0.3977837 0.2602631
v -2.415743E-08 0.4809296 0.8105891
v -0.2504858 0.4809296 0.7709161
v -0.1678255 0.4357263 0.5165138
v -5.604524E-08 0.4357263 0.5430947
v -8.243713E-08 0.3977837 0.3217033
v -0.09941177 0.3977837 0.3059577
v 0.2504857 0.4809296 0.770916
v -2.415743E-08 0.4809296 0.8105891
v -5.604524E-08 0.4357263 0.5430947
v 0.1678254 0.4357263 0.5165137
v 0.09941161 0.3977837 0.3059577
v -8.243713E-08 0.3977837 0.3217033
v 0.09941161 0.3977837 0.3059577
v -1.010109E-07 0.3829799 -8.772642E-08
v 0.1890923 0.3977837 0.2602631
v 0.2602631 0.3977837 0.1890924
v 0.3059577 0.3977837 0.09941167
v 0.3217033 0.3977837 -3.692902E-08
v -8.243713E-08 0.3977837 0.3217033
v -1.010109E-07 0.3829799 -8.772642E-08
v -0.09941177 0.3977837 0.3059577
v -0.1890925 0.3977837 0.2602631
v -0.2602633 0.3977837 0.1890924
v -1.010109E-07 0.3829799 -8.772642E-08
v 0.3059577 0.3977837 -0.09941178
v 0.2602632 0.3977837 -0.1890926
v 0.1890925 0.3977837 -0.2602633
v 0.09941169 0.3977837 -0.3059579
v -0.3059579 0.3977837 0.0994117
v -1.010109E-07 0.3829799 -8.772642E-08
v -0.3217034 0.3977837 -3.692902E-08
v -0.3059579 0.3977837 -0.09941173
v -0.2602633 0.3977837 -0.1890925
v -1.010109E-07 0.3829799 -8.772642E-08
v -7.284967E-08 0.3977837 -0.3217035
v -0.1890926 0.3977837 -0.2602633
v -0.09941181 0.3977837 -0.3059579
vt 0.4701353 0.5008039
vt 0.4507954 0.4867338
vt 0.4392317 0.5093584
vt 0.4521477 0.5187494
vt 0.4373066 0.5335932
vt 0.4297026 0.5280615
vt 0.4841793 0.5201586
vt 0.4701353 0.5008039
vt 0.4521477 0.5187494
vt 0.4615295 0.531671
vt 0.4428291 0.5412038
vt 0.4373066 0.5335932
vt 0.4915545 0.5429015
vt 0.4841793 0.5201586
vt 0.4615295 0.531671
vt 0.4664604 0.5468589
vt 0.4457301 0.5501482
vt 0.4428291 0.5412038
vt 0.49154 0.5668055
vt 0.4915545 0.5429015
vt 0.4664604 0.5468589
vt 0.4664619 0.562829
vt 0.4457255 0.5595509
vt 0.4457301 0.5501482
vt 0.49154 0.5668055
vt 0.46152 0.5780147
vt 0.4841587 0.5895414
vt 0.4664619 0.562829
vt 0.4428147 0.5684919
vt 0.4457255 0.5595509
vt 0.4521323 0.5909321
vt 0.4701096 0.608887
vt 0.4841587 0.5895414
vt 0.46152 0.5780147
vt 0.4372839 0.5760963
vt 0.4428147 0.5684919
vt 0.4392132 0.6003176
vt 0.4507667 0.6229475
vt 0.4701096 0.608887
vt 0.4521323 0.5909321
vt 0.4296741 0.5816199
vt 0.4372839 0.5760963
vt 0.4240255 0.6052522
vt 0.4280229 0.6303443
vt 0.4507667 0.6229475
vt 0.4392132 0.6003176
vt 0.4207298 0.5845219
vt 0.4296741 0.5816199
vt 0.4080551 0.605252
vt 0.4041037 0.6303512
vt 0.4280229 0.6303443
vt 0.4240255 0.6052522
vt 0.411326 0.5845179
vt 0.4207298 0.5845219
vt 0.3928651 0.6003162
vt 0.3813508 0.6229659
vt 0.4041037 0.6303512
vt 0.4080551 0.605252
vt 0.4023836 0.5816082
vt 0.411326 0.5845179
vt 0.3799427 0.5909275
vt 0.3619918 0.6089091
vt 0.3813508 0.6229659
vt 0.3928651 0.6003162
vt 0.3947776 0.5760772
vt 0.4023836 0.5816082
vt 0.3705536 0.578004
vt 0.3479224 0.589555
vt 0.3619918 0.6089091
vt 0.3799427 0.5909275
vt 0.3892535 0.5684664
vt 0.3947776 0.5760772
vt 0.3656194 0.5628112
vt 0.3405211 0.5667955
vt 0.3479224 0.589555
vt 0.3705536 0.578004
vt 0.3863521 0.5595208
vt 0.3892535 0.5684664
vt 0.3656295 0.5468398
vt 0.3405116 0.5428567
vt 0.3405211 0.5667955
vt 0.3656194 0.5628112
vt 0.3863576 0.5501159
vt 0.3863521 0.5595208
vt 0.3479266 0.5200951
vt 0.3405116 0.5428567
vt 0.3656295 0.5468398
vt 0.3705611 0.5316483
vt 0.3892679 0.5411729
vt 0.3863576 0.5501159
vt 0.3620057 0.5007418
vt 0.3479266 0.5200951
vt 0.3705611 0.5316483
vt 0.3799533 0.5187274
vt 0.3947996 0.5335676
vt 0.3892679 0.5411729
vt 0.3813724 0.4866897
vt 0.3620057 0.5007418
vt 0.3799533 0.5187274
vt 0.3928797 0.5093426
vt 0.4024112 0.5280445
vt 0.3947996 0.5335676
vt 0.4041304 0.4793117
vt 0.3813724 0.4866897
vt 0.3928797 0.5093426
vt 0.4080728 0.5044121
vt 0.4113571 0.525144
vt 0.4024112 0.5280445
vt 0.4280519 0.4793274
vt 0.4041304 0.4793117
vt 0.4080728 0.5044121
vt 0.4240447 0.5044178
vt 0.420761 0.5251499
vt 0.4113571 0.525144
vt 0.4507954 0.4867338
vt 0.4280519 0.4793274
vt 0.4240447 0.5044178
vt 0.4392317 0.5093584
vt 0.4297026 0.5280615
vt 0.420761 0.5251499
vt 0.4297026 0.5280615
vt 0.4160399 0.5548335
vt 0.4373066 0.5335932
vt 0.4428291 0.5412038
vt 0.4457301 0.5501482
vt 0.4457255 0.5595509
vt 0.420761 0.5251499
vt 0.4160399 0.5548335
vt 0.4113571 0.525144
vt 0.4024112 0.5280445
vt 0.3947996 0.5335676
vt 0.4160399 0.5548335
vt 0.4428147 0.5684919
vt 0.4372839 0.5760963
vt 0.4296741 0.5816199
vt 0.4207298 0.5845219
vt 0.3892679 0.5411729
vt 0.4160399 0.5548335
vt 0.3863576 0.5501159
vt 0.3863521 0.5595208
vt 0.3892535 0.5684664
vt 0.4160399 0.5548335
vt 0.411326 0.5845179
vt 0.3947776 0.5760772
vt 0.4023836 0.5816082
vn -0.07656261 0.9856771 -0.1502627
vn -0.07656263 0.9856771 -0.1502627
vn -0.07656261 0.9856771 -0.1502627
vn -0.07656261 0.9856771 -0.1502627
vn -0.07761604 0.9852774 -0.15233
vn -0.07761603 0.9852774 -0.15233
vn -0.1192491 0.9856771 -0.1192493
vn -0.1192491 0.9856771 -0.1192493
vn -0.1192491 0.9856771 -0.1192493
vn -0.1192491 0.9856771 -0.1192493
vn -0.1208898 0.9852774 -0.1208899
vn -0.1208898 0.9852774 -0.1208899
vn -0.1502627 0.9856771 -0.0765627
vn -0.1502626 0.9856771 -0.0765627
vn -0.1502627 0.9856771 -0.0765627
vn -0.1502627 0.9856771 -0.0765627
vn -0.15233 0.9852774 -0.07761609
vn -0.15233 0.9852774 -0.07761609
vn -0.1665674 0.9856771 -0.02638155
vn -0.1665674 0.9856771 -0.02638155
vn -0.1665674 0.9856771 -0.02638155
vn -0.1665674 0.9856771 -0.02638155
vn -0.1688592 0.9852772 -0.0267449
vn -0.1688592 0.9852772 -0.0267449
vn -0.1665674 0.9856771 0.02638123
vn -0.1665674 0.9856771 0.02638123
vn -0.1665674 0.9856771 0.02638123
vn -0.1665674 0.9856771 0.02638123
vn -0.1688592 0.9852772 0.02674489
vn -0.1688592 0.9852772 0.02674489
vn -0.1502625 0.9856771 0.0765627
vn -0.1502625 0.9856771 0.0765627
vn -0.1502625 0.9856771 0.07656269
vn -0.1502625 0.9856771 0.0765627
vn -0.15233 0.9852774 0.07761579
vn -0.15233 0.9852774 0.0776158
vn -0.119249 0.9856771 0.1192491
vn -0.119249 0.9856771 0.1192491
vn -0.119249 0.9856771 0.1192491
vn -0.119249 0.9856771 0.1192491
vn -0.1208897 0.9852772 0.12089
vn -0.1208897 0.9852772 0.12089
vn -0.07656255 0.9856771 0.1502626
vn -0.07656255 0.9856771 0.1502626
vn -0.07656255 0.9856771 0.1502626
vn -0.07656254 0.9856771 0.1502626
vn -0.07761597 0.9852774 0.1523301
vn -0.07761597 0.9852774 0.1523301
vn -0.02638161 0.9856771 0.1665673
vn -0.02638161 0.9856771 0.1665673
vn -0.02638161 0.9856771 0.1665673
vn -0.02638161 0.9856771 0.1665673
vn -0.02674479 0.9852774 0.168859
vn -0.02674479 0.9852774 0.168859
vn 0.02638161 0.9856771 0.1665673
vn 0.02638161 0.9856771 0.1665673
vn 0.02638161 0.9856771 0.1665673
vn 0.02638161 0.9856771 0.1665673
vn 0.0267448 0.9852774 0.1688592
vn 0.02674479 0.9852774 0.1688592
vn 0.07656266 0.9856771 0.1502628
vn 0.07656266 0.9856771 0.1502628
vn 0.07656266 0.9856771 0.1502628
vn 0.07656266 0.9856771 0.1502628
vn 0.07761607 0.9852774 0.1523299
vn 0.07761607 0.9852774 0.1523299
vn 0.119249 0.9856771 0.119249
vn 0.119249 0.9856771 0.119249
vn 0.1192491 0.9856771 0.1192491
vn 0.119249 0.9856771 0.119249
vn 0.1208898 0.9852774 0.1208896
vn 0.1208898 0.9852774 0.1208896
vn 0.1502626 0.9856771 0.07656279
vn 0.1502627 0.9856771 0.0765628
vn 0.1502626 0.9856771 0.07656278
vn 0.1502627 0.9856771 0.0765628
vn 0.15233 0.9852774 0.07761587
vn 0.15233 0.9852774 0.07761588
vn 0.1665674 0.9856771 0.02638168
vn 0.1665674 0.9856771 0.02638168
vn 0.1665674 0.9856771 0.02638168
vn 0.1665674 0.9856771 0.02638168
vn 0.1688592 0.9852772 0.0267449
vn 0.1688592 0.9852772 0.0267449
vn 0.1665674 0.9856771 -0.02638176
vn 0.1665674 0.9856771 -0.02638176
vn 0.1665674 0.9856771 -0.02638176
vn 0.1665674 0.9856771 -0.02638176
vn 0.1688592 0.9852772 -0.0267449
vn 0.1688592 0.9852772 -0.0267449
vn 0.1502626 0.9856771 -0.07656267
vn 0.1502626 0.9856771 -0.07656267
vn 0.1502626 0.9856771 -0.07656267
vn 0.1502626 0.9856771 -0.07656267
vn 0.15233 0.9852774 -0.07761592
vn 0.15233 0.9852774 -0.07761593
vn 0.1192491 0.9856771 -0.1192492
vn 0.1192491 0.9856771 -0.1192492
vn 0.1192491 0.9856771 -0.1192492
vn 0.1192491 0.9856771 -0.1192492
vn 0.1208898 0.9852774 -0.1208899
vn 0.1208898 0.9852774 -0.1208899
vn 0.07656267 0.9856771 -0.1502627
vn 0.07656267 0.9856771 -0.1502627
vn 0.07656267 0.9856771 -0.1502627
vn 0.07656267 0.9856771 -0.1502627
vn 0.07761601 0.9852774 -0.1523298
vn 0.07761601 0.9852774 -0.1523298
vn 0.02638162 0.9856771 -0.1665675
vn 0.02638163 0.9856771 -0.1665675
vn 0.02638162 0.9856771 -0.1665675
vn 0.02638163 0.9856771 -0.1665675
vn 0.02674485 0.9852774 -0.1688592
vn 0.02674485 0.9852774 -0.1688592
vn -0.02638173 0.9856771 -0.1665671
vn -0.02638173 0.9856771 -0.1665671
vn -0.02638173 0.9856771 -0.1665671
vn -0.02638173 0.9856771 -0.1665671
vn -0.0267449 0.9852774 -0.1688592
vn -0.0267449 0.9852774 -0.1688592
vn -0.02112882 0.9989164 -0.04146799
vn -0.02112882 0.9989164 -0.04146799
vn -0.02112882 0.9989164 -0.04146799
vn -0.03290892 0.9989164 -0.03290894
vn -0.04146766 0.9989164 -0.02112835
vn -0.04596722 0.9989164 -0.007280956
vn 0.007280659 0.9989164 -0.04596714
vn 0.03290891 0.9989164 -0.03290893
vn 0.02112882 0.9989164 -0.04146742
vn 0.03290891 0.9989164 -0.03290893
vn 0.04146764 0.9989164 -0.02112911
vn -0.04596722 0.9989164 0.007280193
vn -0.04596722 0.9989164 0.007280193
vn -0.04146768 0.9989164 0.02112909
vn -0.0329089 0.9989164 0.03290892
vn -0.02112881 0.9989164 0.04146777
vn 0.04596722 0.9989164 -0.007280955
vn 0.04146766 0.9989164 0.02112909
vn 0.04596722 0.9989164 0.00728096
vn 0.04146766 0.9989164 0.02112909
vn 0.03290894 0.9989164 0.0329093
vn -0.007280631 0.9989164 0.04596711
vn -0.007280631 0.9989164 0.04596711
vn 0.02112882 0.9989164 0.04146742
vn 0.007280631 0.9989164 0.0459672
g polySurface40_0
f 3/3/3 2/2/2 1/1/1
f 4/4/4 3/3/3 1/1/1
f 4/4/4 5/5/5 3/3/3
f 5/5/5 6/6/6 3/3/3
f 9/9/9 8/8/8 7/7/7
f 10/10/10 9/9/9 7/7/7
f 10/10/10 11/11/11 9/9/9
f 11/11/11 12/12/12 9/9/9
f 15/15/15 14/14/14 13/13/13
f 16/16/16 15/15/15 13/13/13
f 16/16/16 17/17/17 15/15/15
f 17/17/17 18/18/18 15/15/15
f 21/21/21 20/20/20 19/19/19
f 22/22/22 21/21/21 19/19/19
f 22/22/22 23/23/23 21/21/21
f 23/23/23 24/24/24 21/21/21
f 27/27/27 26/26/26 25/25/25
f 26/26/26 28/28/28 25/25/25
f 26/26/26 29/29/29 28/28/28
f 29/29/29 30/30/30 28/28/28
f 33/33/33 32/32/32 31/31/31
f 34/34/34 33/33/33 31/31/31
f 31/31/31 35/35/35 34/34/34
f 35/35/35 36/36/36 34/34/34
f 39/39/39 38/38/38 37/37/37
f 40/40/40 39/39/39 37/37/37
f 37/37/37 41/41/41 40/40/40
f 41/41/41 42/42/42 40/40/40
f 45/45/45 44/44/44 43/43/43
f 46/46/46 45/45/45 43/43/43
f 43/43/43 47/47/47 46/46/46
f 47/47/47 48/48/48 46/46/46
f 51/51/51 50/50/50 49/49/49
f 52/52/52 51/51/51 49/49/49
f 49/49/49 53/53/53 52/52/52
f 53/53/53 54/54/54 52/52/52
f 57/57/57 56/56/56 55/55/55
f 58/58/58 57/57/57 55/55/55
f 55/55/55 59/59/59 58/58/58
f 59/59/59 60/60/60 58/58/58
f 63/63/63 62/62/62 61/61/61
f 64/64/64 63/63/63 61/61/61
f 61/61/61 65/65/65 64/64/64
f 65/65/65 66/66/66 64/64/64
f 69/69/69 68/68/68 67/67/67
f 70/70/70 69/69/69 67/67/67
f 67/67/67 71/71/71 70/70/70
f 71/71/71 72/72/72 70/70/70
f 75/75/75 74/74/74 73/73/73
f 76/76/76 75/75/75 73/73/73
f 73/73/73 77/77/77 76/76/76
f 77/77/77 78/78/78 76/76/76
f 81/81/81 80/80/80 79/79/79
f 82/82/82 81/81/81 79/79/79
f 79/79/79 83/83/83 82/82/82
f 83/83/83 84/84/84 82/82/82
f 87/87/87 86/86/86 85/85/85
f 88/88/88 87/87/87 85/85/85
f 88/88/88 89/89/89 87/87/87
f 89/89/89 90/90/90 87/87/87
f 93/93/93 92/92/92 91/91/91
f 94/94/94 93/93/93 91/91/91
f 94/94/94 95/95/95 93/93/93
f 95/95/95 96/96/96 93/93/93
f 99/99/99 98/98/98 97/97/97
f 100/100/100 99/99/99 97/97/97
f 100/100/100 101/101/101 99/99/99
f 101/101/101 102/102/102 99/99/99
f 105/105/105 104/104/104 103/103/103
f 106/106/106 105/105/105 103/103/103
f 106/106/106 107/107/107 105/105/105
f 107/107/107 108/108/108 105/105/105
f 111/111/111 110/110/110 109/109/109
f 112/112/112 111/111/111 109/109/109
f 112/112/112 113/113/113 111/111/111
f 113/113/113 114/114/114 111/111/111
f 117/117/117 116/116/116 115/115/115
f 118/118/118 117/117/117 115/115/115
f 118/118/118 119/119/119 117/117/117
f 119/119/119 120/120/120 117/117/117
f 123/123/123 122/122/122 121/121/121
f 124/124/124 122/122/122 123/123/123
f 125/125/125 122/122/122 124/124/124
f 126/126/126 122/122/122 125/125/125
f 121/121/121 128/128/128 127/127/127
f 127/127/127 128/128/128 129/129/129
f 129/129/129 128/128/128 130/130/130
f 130/130/130 128/128/128 131/131/131
f 133/133/133 132/132/132 126/126/126
f 134/134/134 132/132/132 133/133/133
f 135/135/135 132/132/132 134/134/134
f 136/136/136 132/132/132 135/135/135
f 131/131/131 138/138/138 137/137/137
f 137/137/137 138/138/138 139/139/139
f 139/139/139 138/138/138 140/140/140
f 140/140/140 138/138/138 141/141/141
f 143/143/143 142/142/142 136/136/136
f 141/141/141 142/142/142 144/144/144
f 145/145/145 142/142/142 143/143/143
f 144/144/144 142/142/142 145/145/145
