g polySurface18
v 0.2414697 0.2537595 -0.2145222
v -0.24147 0.2333578 -0.2145222
v 0.2414697 0.2333578 -0.2145222
v -0.24147 0.2537595 -0.2145222
v 0.2414697 0.267766 -0.1823439
v -0.24147 0.267766 -0.1823439
v -0.24147 0.2593184 -0.1445045
v 0.2414697 0.2593184 -0.1445045
v 0.2414697 0.2477113 -1.144409E-07
v -0.24147 0.2477113 -1.144409E-07
v -0.24147 0.2593184 0.1445043
v 0.2414697 0.2593184 0.1445043
v -0.24147 0.2677661 0.1823436
v 0.24147 0.2677661 0.1823436
v 0.2414697 0.2537595 0.214522
v -0.24147 0.2537595 0.214522
v 0.2414697 0.2333578 0.214522
v -0.24147 0.2333578 0.214522
v -0.24147 0.2166552 0.1823436
v 0.24147 0.2166552 0.1823436
v -0.24147 0.2210588 0.1445043
v 0.2414697 0.2210588 0.1445043
v -0.24147 0.2094514 -1.144409E-07
v 0.2414697 0.2094514 -1.144409E-07
v -0.24147 0.2210588 -0.1445045
v 0.2414697 0.2210588 -0.1445045
v -0.24147 0.2166552 -0.1823439
v 0.2414697 0.2166552 -0.1823439
v -0.24147 0.2333578 -0.2145222
v 0.2414697 0.2333578 -0.2145222
v -0.24147 0.2333578 0.214522
v -0.24147 0.2677661 0.1823436
v -0.24147 0.2537595 0.214522
v -0.24147 0.2166552 0.1823436
v -0.24147 0.2593184 0.1445043
v -0.24147 0.2210588 0.1445043
v -0.24147 0.2477113 -1.144409E-07
v -0.24147 0.2094514 -1.144409E-07
v -0.24147 0.2593184 -0.1445045
v -0.24147 0.2210588 -0.1445045
v -0.24147 0.267766 -0.1823439
v -0.24147 0.2166552 -0.1823439
v -0.24147 0.2537595 -0.2145222
v -0.24147 0.2333578 -0.2145222
v 0.2414697 0.2537595 0.214522
v 0.24147 0.2166552 0.1823436
v 0.2414697 0.2333578 0.214522
v 0.24147 0.2677661 0.1823436
v 0.2414697 0.2210588 0.1445043
v 0.2414697 0.2593184 0.1445043
v 0.2414697 0.2094514 -1.144409E-07
v 0.2414697 0.2477113 -1.144409E-07
v 0.2414697 0.2210588 -0.1445045
v 0.2414697 0.2593184 -0.1445045
v 0.2414697 0.2166552 -0.1823439
v 0.2414697 0.267766 -0.1823439
v 0.2414697 0.2333578 -0.2145222
v 0.2414697 0.2537595 -0.2145222
v -0.2093133 -0.2675431 0.2176485
v -0.2093133 -0.2677661 0.275356
v -0.2093133 0.2376065 -0.148702
v -0.2093133 0.2381672 -0.2066928
v -0.238894 -0.2675431 0.2176485
v -0.2093133 -0.2677661 0.275356
v -0.238894 -0.2677661 0.275356
v -0.238894 0.2381672 -0.2066929
v -0.238894 -0.2677661 0.275356
v -0.238894 0.2376065 -0.1487022
v -0.2093133 -0.2677661 0.275356
v -0.2093133 0.2376065 -0.148702
v -0.178833 -0.2675431 -0.2176487
v -0.178833 0.2376065 0.148702
v -0.178833 -0.2677661 -0.2753559
v -0.178833 0.2381672 0.2066927
v -0.208414 -0.2675431 -0.2176487
v -0.178833 -0.2677661 -0.2753559
v -0.208414 -0.2677661 -0.2753561
v -0.208414 0.2381672 0.2066927
v -0.208414 -0.2677661 -0.2753561
v -0.208414 0.2376065 0.148702
v -0.178833 -0.2677661 -0.2753559
v -0.178833 0.2376065 0.148702
v 0.210686 -0.2675431 -0.2176487
v 0.210686 0.2376065 0.148702
v 0.210686 -0.2677661 -0.2753559
v 0.210686 0.2381672 0.2066927
v 0.1811054 -0.2675431 -0.2176487
v 0.210686 -0.2677661 -0.2753559
v 0.1811054 -0.2677661 -0.2753561
v 0.1811054 0.2381672 0.2066927
v 0.1811054 -0.2677661 -0.2753561
v 0.1811054 0.2376065 0.148702
v 0.210686 -0.2677661 -0.2753559
v 0.210686 0.2376065 0.148702
v 0.2401565 -0.2677661 0.275356
v 0.2105759 -0.2677661 0.275356
v 0.2105759 0.2376065 -0.1487022
v 0.2401565 0.2376065 -0.148702
v 0.2401565 -0.2675431 0.2176485
v 0.2401565 0.2381672 -0.2066928
v 0.2105759 -0.2675431 0.2176485
v 0.2401565 -0.2677661 0.275356
v 0.2105759 -0.2677661 0.275356
v 0.2105759 0.2381672 -0.2066929
v 0.2105759 -0.2677661 0.275356
v 0.2105759 0.2376065 -0.1487022
vt 0.7266749 0.1320212
vt 0.7294636 0.1981856
vt 0.7294703 0.1320216
vt 0.7266686 0.1981854
vt 0.7218668 0.1320208
vt 0.7218605 0.1981849
vt 0.7165489 0.1981844
vt 0.7165554 0.1320202
vt 0.696694 0.1320183
vt 0.6966876 0.1981824
vt 0.6768264 0.1981805
vt 0.6768327 0.1320165
vt 0.6715146 0.19818
vt 0.6715211 0.1320159
vt 0.666713 0.1320155
vt 0.6667066 0.1981795
vt 0.6639179 0.1320151
vt 0.6639115 0.1981793
vt 0.6589445 0.1981789
vt 0.6589508 0.1320146
vt 0.6537253 0.1981783
vt 0.6537318 0.1320142
vt 0.633864 0.1981763
vt 0.6338705 0.1320123
vt 0.6140029 0.1981745
vt 0.6140093 0.1320103
vt 0.6087837 0.1981739
vt 0.6087902 0.1320098
vt 0.6038167 0.1981734
vt 0.6038231 0.1320094
vt 0.6897681 0.2423438
vt 0.6836855 0.2488696
vt 0.6897681 0.2462109
vt 0.6836957 0.2392019
vt 0.6765355 0.2472584
vt 0.6765255 0.2400478
vt 0.6492143 0.2450831
vt 0.6492143 0.2378323
vt 0.621883 0.2472584
vt 0.6218929 0.2400277
vt 0.6147228 0.2488494
vt 0.6147329 0.2391818
vt 0.6086504 0.2462109
vt 0.6086504 0.2423438
vt 0.6086366 0.2462227
vt 0.6147227 0.2392096
vt 0.6086366 0.2423635
vt 0.6147227 0.2488626
vt 0.6218771 0.2400357
vt 0.621877 0.2472707
vt 0.6492141 0.2378391
vt 0.6492041 0.245074
vt 0.6765414 0.2400357
vt 0.6765313 0.2472606
vt 0.6836958 0.2391893
vt 0.6836958 0.2488626
vt 0.6897818 0.2423534
vt 0.6897818 0.2462127
vt 0.6951272 0.2218547
vt 0.6925797 0.2278752
vt 0.6098503 0.2279012
vt 0.6072992 0.2218792
vt 0.6951268 0.217802
vt 0.7030333 0.2218537
vt 0.703033 0.2178011
vt 0.6072974 0.2178266
vt 0.7002314 0.2117647
vt 0.6021289 0.2117906
vt 0.700231 0.2077121
vt 0.6021268 0.207738
vt 0.6951268 0.2218667
vt 0.6098478 0.2278877
vt 0.6925772 0.2278887
vt 0.6072985 0.2218643
vt 0.6951274 0.217814
vt 0.7030329 0.221868
vt 0.7030336 0.2178154
vt 0.6072979 0.2178117
vt 0.7002339 0.2117782
vt 0.6021311 0.2117773
vt 0.7002347 0.2077255
vt 0.6021307 0.2077245
vt 0.6951267 0.2218667
vt 0.6098478 0.2278877
vt 0.6925772 0.2278887
vt 0.6072985 0.2218642
vt 0.6951274 0.217814
vt 0.7030329 0.221868
vt 0.7030336 0.2178154
vt 0.6072979 0.2178115
vt 0.7002339 0.2117782
vt 0.6021311 0.2117772
vt 0.7002347 0.2077255
vt 0.6021307 0.2077245
vt 0.7002313 0.2117648
vt 0.700231 0.2077122
vt 0.6021268 0.2077379
vt 0.6021289 0.2117906
vt 0.6951268 0.2178022
vt 0.6072972 0.2178265
vt 0.6951272 0.2218548
vt 0.7030329 0.2178012
vt 0.7030332 0.2218538
vt 0.6072992 0.2218791
vt 0.6925796 0.2278753
vt 0.6098502 0.227901
vn 0.06580277 0.6815634 -0.7287945
vn -0.06544183 -0.6537728 -0.7538558
vn 0.06544182 -0.6537728 -0.7538558
vn -0.06580278 0.6815634 -0.7287945
vn 0.06508448 0.9947497 -0.07897529
vn -0.06508447 0.9947496 -0.07897533
vn -0.08059884 0.9907724 0.108968
vn 0.08059884 0.9907724 0.1089681
vn 0.08372883 0.9964886 0
vn -0.08372883 0.9964886 0
vn -0.08059888 0.9907722 -0.1089686
vn 0.08059883 0.9907722 -0.1089688
vn -0.06508417 0.9947497 0.07897529
vn 0.06508441 0.9947497 0.07897512
vn 0.0658026 0.6815627 0.7287952
vn -0.06580279 0.6815619 0.7287959
vn 0.06544168 -0.6537738 0.7538549
vn -0.06544184 -0.6537731 0.7538555
vn -0.06650943 -0.9827399 0.1726232
vn 0.06650964 -0.9827399 0.172623
vn -0.08706904 -0.9954258 0.03932597
vn 0.08706898 -0.9954258 0.03932575
vn -0.07421559 -0.9972422 0
vn 0.07421559 -0.9972422 0
vn -0.08706905 -0.9954258 -0.03932563
vn 0.08706905 -0.9954259 -0.03932556
vn -0.06650944 -0.9827399 -0.1726231
vn 0.06650944 -0.9827399 -0.1726231
vn -0.06544183 -0.6537728 -0.7538558
vn 0.06544182 -0.6537728 -0.7538558
vn -0.06544184 -0.6537731 0.7538555
vn -0.06508417 0.9947497 0.07897529
vn -0.06580279 0.6815619 0.7287959
vn -0.06650943 -0.9827399 0.1726232
vn -0.08059888 0.9907722 -0.1089686
vn -0.08706904 -0.9954258 0.03932597
vn -0.08372883 0.9964886 0
vn -0.07421559 -0.9972422 0
vn -0.08059884 0.9907724 0.108968
vn -0.08706905 -0.9954258 -0.03932563
vn -0.06508447 0.9947496 -0.07897533
vn -0.06650944 -0.9827399 -0.1726231
vn -0.06580278 0.6815634 -0.7287945
vn -0.06544183 -0.6537728 -0.7538558
vn 0.0658026 0.6815627 0.7287952
vn 0.06650964 -0.9827399 0.172623
vn 0.06544168 -0.6537738 0.7538549
vn 0.06508441 0.9947497 0.07897512
vn 0.08706898 -0.9954258 0.03932575
vn 0.08059883 0.9907722 -0.1089688
vn 0.07421559 -0.9972422 0
vn 0.08372883 0.9964886 0
vn 0.08706905 -0.9954259 -0.03932556
vn 0.08059884 0.9907724 0.1089681
vn 0.06650944 -0.9827399 -0.1726231
vn 0.06508448 0.9947497 -0.07897529
vn 0.06544182 -0.6537728 -0.7538558
vn 0.06580277 0.6815634 -0.7287945
vn 0.8975269 -0.3041793 -0.3192502
vn 0.6569311 0.4426367 0.6103395
vn 0.8979706 0.3035544 0.3185962
vn 0.6544257 -0.4439147 -0.6121002
vn -0.8975263 -0.3041791 -0.3192515
vn 0.6569311 0.4426367 0.6103395
vn -0.6569316 0.4426371 0.6103388
vn -0.6544253 -0.4439144 -0.6121009
vn -0.6569316 0.4426371 0.6103388
vn -0.897971 0.3035545 0.3185948
vn 0.6569311 0.4426367 0.6103395
vn 0.8979706 0.3035544 0.3185962
vn 0.8975269 -0.3041793 0.3192502
vn 0.8979706 0.3035544 -0.3185962
vn 0.6569311 0.4426367 -0.6103395
vn 0.6544257 -0.4439147 0.6121002
vn -0.8975263 -0.3041791 0.3192515
vn 0.6569311 0.4426367 -0.6103395
vn -0.6569316 0.4426371 -0.6103388
vn -0.6544253 -0.4439144 0.6121009
vn -0.6569316 0.4426371 -0.6103388
vn -0.897971 0.3035545 -0.3185948
vn 0.6569311 0.4426367 -0.6103395
vn 0.8979706 0.3035544 -0.3185962
vn 0.8975269 -0.3041793 0.3192502
vn 0.8979706 0.3035544 -0.3185962
vn 0.6569311 0.4426367 -0.6103395
vn 0.6544257 -0.4439147 0.6121002
vn -0.8975263 -0.3041791 0.3192515
vn 0.6569311 0.4426367 -0.6103395
vn -0.6569316 0.4426371 -0.6103388
vn -0.6544253 -0.4439144 0.6121009
vn -0.6569316 0.4426371 -0.6103388
vn -0.897971 0.3035545 -0.3185948
vn 0.6569311 0.4426367 -0.6103395
vn 0.8979706 0.3035544 -0.3185962
vn 0.6569311 0.4426367 0.6103395
vn -0.6569316 0.4426371 0.6103388
vn -0.897971 0.3035545 0.3185948
vn 0.8979706 0.3035544 0.3185962
vn 0.8975269 -0.3041793 -0.3192502
vn 0.6544257 -0.4439147 -0.6121002
vn -0.8975263 -0.3041791 -0.3192515
vn 0.6569311 0.4426367 0.6103395
vn -0.6569316 0.4426371 0.6103388
vn -0.6544253 -0.4439144 -0.6121009
vn -0.6569316 0.4426371 0.6103388
vn -0.897971 0.3035545 0.3185948
g polySurface18_0
f 3/3/3 2/2/2 1/1/1
f 2/2/2 4/4/4 1/1/1
f 5/5/5 1/1/1 4/4/4
f 6/6/6 5/5/5 4/4/4
f 6/6/6 7/7/7 5/5/5
f 7/7/7 8/8/8 5/5/5
f 8/8/8 7/7/7 9/9/9
f 7/7/7 10/10/10 9/9/9
f 10/10/10 11/11/11 9/9/9
f 11/11/11 12/12/12 9/9/9
f 12/12/12 11/11/11 13/13/13
f 14/14/14 12/12/12 13/13/13
f 14/14/14 13/13/13 15/15/15
f 13/13/13 16/16/16 15/15/15
f 15/15/15 16/16/16 17/17/17
f 16/16/16 18/18/18 17/17/17
f 18/18/18 19/19/19 17/17/17
f 19/19/19 20/20/20 17/17/17
f 19/19/19 21/21/21 20/20/20
f 21/21/21 22/22/22 20/20/20
f 22/22/22 21/21/21 23/23/23
f 24/24/24 22/22/22 23/23/23
f 23/23/23 25/25/25 24/24/24
f 25/25/25 26/26/26 24/24/24
f 26/26/26 25/25/25 27/27/27
f 28/28/28 26/26/26 27/27/27
f 28/28/28 27/27/27 29/29/29
f 30/30/30 28/28/28 29/29/29
f 33/33/33 32/32/32 31/31/31
f 32/32/32 34/34/34 31/31/31
f 32/32/32 35/35/35 34/34/34
f 35/35/35 36/36/36 34/34/34
f 35/35/35 37/37/37 36/36/36
f 37/37/37 38/38/38 36/36/36
f 37/37/37 39/39/39 38/38/38
f 39/39/39 40/40/40 38/38/38
f 39/39/39 41/41/41 40/40/40
f 41/41/41 42/42/42 40/40/40
f 41/41/41 43/43/43 42/42/42
f 43/43/43 44/44/44 42/42/42
f 47/47/47 46/46/46 45/45/45
f 46/46/46 48/48/48 45/45/45
f 46/46/46 49/49/49 48/48/48
f 49/49/49 50/50/50 48/48/48
f 49/49/49 51/51/51 50/50/50
f 51/51/51 52/52/52 50/50/50
f 51/51/51 53/53/53 52/52/52
f 53/53/53 54/54/54 52/52/52
f 53/53/53 55/55/55 54/54/54
f 55/55/55 56/56/56 54/54/54
f 55/55/55 57/57/57 56/56/56
f 57/57/57 58/58/58 56/56/56
f 61/61/61 60/60/60 59/59/59
f 62/62/62 61/61/61 59/59/59
f 62/62/62 59/59/59 63/63/63
f 59/59/59 64/64/64 63/63/63
f 64/64/64 65/65/65 63/63/63
f 66/66/66 62/62/62 63/63/63
f 66/66/66 63/63/63 67/67/67
f 68/68/68 66/66/66 67/67/67
f 68/68/68 67/67/67 69/69/69
f 70/70/70 68/68/68 69/69/69
f 73/73/73 72/72/72 71/71/71
f 72/72/72 74/74/74 71/71/71
f 71/71/71 74/74/74 75/75/75
f 76/76/76 71/71/71 75/75/75
f 77/77/77 76/76/76 75/75/75
f 74/74/74 78/78/78 75/75/75
f 75/75/75 78/78/78 79/79/79
f 78/78/78 80/80/80 79/79/79
f 79/79/79 80/80/80 81/81/81
f 80/80/80 82/82/82 81/81/81
f 85/85/85 84/84/84 83/83/83
f 84/84/84 86/86/86 83/83/83
f 83/83/83 86/86/86 87/87/87
f 88/88/88 83/83/83 87/87/87
f 89/89/89 88/88/88 87/87/87
f 86/86/86 90/90/90 87/87/87
f 87/87/87 90/90/90 91/91/91
f 90/90/90 92/92/92 91/91/91
f 91/91/91 92/92/92 93/93/93
f 92/92/92 94/94/94 93/93/93
f 97/97/97 96/96/96 95/95/95
f 98/98/98 97/97/97 95/95/95
f 98/98/98 95/95/95 99/99/99
f 100/100/100 98/98/98 99/99/99
f 100/100/100 99/99/99 101/101/101
f 99/99/99 102/102/102 101/101/101
f 102/102/102 103/103/103 101/101/101
f 104/104/104 100/100/100 101/101/101
f 104/104/104 101/101/101 105/105/105
f 106/106/106 104/104/104 105/105/105
