g polySurface38
v -0.02922008 0.7404072 -0.7954224
v -0.03529077 0.811568 -0.7457684
v 0.1356344 0.8031089 -0.7127482
v -0.189892 0.8190314 -0.7479134
v -0.1201246 0.7555655 -0.7975307
v -0.1343134 0.8173317 -0.892378
v 0.1417051 0.7319481 -0.7624022
v -0.01524965 0.7347706 -0.8691826
v -0.08862206 0.7438647 -0.8833709
v -0.05558371 0.7434314 -1.054501
v -0.101275 0.8168985 -1.063508
v -0.09908193 0.8178407 -1.218286
v 0.01778868 0.7343373 -1.040313
v -0.05285788 0.7546835 -1.145955
v 0.04520028 0.8105125 -1.162691
v 0.03228429 0.7396007 -1.113999
v 0.1556752 0.7263116 -0.8361624
v 0.2278819 0.7383428 -0.730301
v 0.2799166 0.7957808 -0.6571534
v 0.2295728 0.7281173 -0.8219003
v 0.2821097 0.7967231 -0.8119313
v 0.315148 0.7962899 -0.9830613
v 0.2032094 0.7311416 -1.080979
v 0.2161254 0.8020535 -1.129671
v 0.3707266 0.7945901 -1.127526
v 0.1887135 0.7258784 -1.007293
v 0.2626112 0.7276841 -0.9930304
v 0.2951486 0.7374608 -1.078725
v -0.03529077 0.811568 -0.7457684
v 0.1485502 0.8740208 -0.7614403
v 0.1356344 0.8031089 -0.7127482
v 0.2799166 0.7957808 -0.6571534
v 0.2336924 0.858938 -0.7294846
v 0.2821097 0.7967231 -0.8119313
v -0.02237467 0.8824798 -0.7944604
v 0.1630458 0.8792842 -0.8351267
v 0.2364181 0.87019 -0.8209385
v 0.2694564 0.8697568 -0.9920685
v 0.315148 0.7962899 -0.9830613
v 0.3707266 0.7945901 -1.127526
v 0.1960841 0.8788509 -1.006257
v 0.3009591 0.8580559 -1.077909
v 0.2161254 0.8020535 -1.129671
v 0.2100545 0.8732143 -1.080017
v -0.007879072 0.8877431 -0.8681469
v -0.114314 0.8761608 -0.7967141
v -0.189892 0.8190314 -0.7479134
v -0.08177673 0.8859374 -0.882409
v -0.1343134 0.8173317 -0.892378
v -0.101275 0.8168985 -1.063508
v 0.03912969 0.8816734 -1.113037
v 0.04520028 0.8105125 -1.162691
v -0.09908193 0.8178407 -1.218286
v 0.02515926 0.8873099 -1.039277
v -0.04873839 0.8855042 -1.053539
v -0.04704729 0.8752788 -1.145138
vt 0.9055268 0.08393998
vt 0.9058175 0.07470306
vt 0.8871785 0.07476259
vt 0.922637 0.07475394
vt 0.9147632 0.0825937
vt 0.9225789 0.09156306
vt 0.8874587 0.08391126
vt 0.9055547 0.09181193
vt 0.9134302 0.09184308
vt 0.9134017 0.1099108
vt 0.9226386 0.1102019
vt 0.9225879 0.1270215
vt 0.9055299 0.1099391
vt 0.914748 0.1191475
vt 0.9057786 0.1269632
vt 0.9054984 0.1178144
vt 0.8874273 0.09178701
vt 0.8782094 0.08257829
vt 0.8703693 0.07470427
vt 0.8795556 0.09181505
vt 0.8703185 0.09152412
vt 0.8703783 0.1101627
vt 0.8874305 0.1177858
vt 0.8871398 0.1270231
vt 0.8703201 0.126972
vt 0.8874025 0.1099142
vt 0.8795269 0.1098827
vt 0.878194 0.1191321
vt 0.9225771 0.09155787
vt 0.9134034 0.1099076
vt 0.9226405 0.1101967
vt 0.9225932 0.1270161
vt 0.9147516 0.1191439
vt 0.9057838 0.1269613
vt 0.9134285 0.0918398
vt 0.9055318 0.1099372
vt 0.9055018 0.1178128
vt 0.887434 0.1177877
vt 0.887145 0.127025
vt 0.8703253 0.1269775
vt 0.8874044 0.1099159
vt 0.8781978 0.1191359
vt 0.8703802 0.1101683
vt 0.8795286 0.1098862
vt 0.9055529 0.09180985
vt 0.9147595 0.08258989
vt 0.9226319 0.0747484
vt 0.9055231 0.08393826
vt 0.9058121 0.07470063
vt 0.8871734 0.07476467
vt 0.8795537 0.09181834
vt 0.8703168 0.09152932
vt 0.8703641 0.07470998
vt 0.8874255 0.09178892
vt 0.8874553 0.08391333
vt 0.8782055 0.08258193
vn -0.1326116 -0.8572965 0.4974503
vn -0.1350099 -0.000203731 0.9908442
vn -0.2435272 0.005166902 0.9698803
vn -0.8274903 0.03607656 0.5603198
vn -0.4805965 -0.8268656 0.2920961
vn -0.9686995 0.04832231 -0.243488
vn -0.1439904 -0.8567334 0.4952522
vn -0.07680722 -0.9969652 0.01268315
vn -0.5418146 -0.8334784 -0.1084012
vn -0.544014 -0.8334495 -0.09700882
vn -0.9896749 0.04859736 -0.1348408
vn -0.5594134 0.03256141 -0.8282489
vn -0.06750572 -0.9970873 -0.03549617
vn -0.3381068 -0.8287341 -0.4459637
vn 0.2435273 -0.005167368 -0.9698803
vn 0.0612831 -0.859839 -0.506874
vn -0.02868571 -0.9993468 0.02197945
vn 0.2565795 -0.8633484 0.4345072
vn 0.559414 -0.03256076 0.8282486
vn 0.4613061 -0.8831227 0.08538666
vn 0.9896749 -0.04859667 0.1348406
vn 0.9686995 -0.04832165 0.2434882
vn 0.04990432 -0.8592758 -0.5090722
vn 0.1350099 0.0002031928 -0.9908442
vn 0.8274907 -0.03607609 -0.5603192
vn -0.01938424 -0.9994687 -0.02619976
vn 0.4591067 -0.8830939 0.09677932
vn 0.399069 -0.8652169 -0.3035518
vn -0.1350099 -0.000203731 0.9908442
vn -0.0612831 0.859839 0.506874
vn -0.2435272 0.005166902 0.9698803
vn 0.559414 -0.03256076 0.8282486
vn 0.3381064 0.8287346 0.445963
vn 0.9896749 -0.04859667 0.1348406
vn -0.04990403 0.8592759 0.5090722
vn 0.06750575 0.9970873 0.03549612
vn 0.5440131 0.8334501 0.09700856
vn 0.5418137 0.833479 0.1084011
vn 0.9686995 -0.04832165 0.2434882
vn 0.8274907 -0.03607609 -0.5603192
vn 0.07680722 0.9969652 -0.01268308
vn 0.480596 0.8268662 -0.2920957
vn 0.1350099 0.0002031928 -0.9908442
vn 0.1326115 0.8572965 -0.4974503
vn 0.01938448 0.9994687 0.02619977
vn -0.3990687 0.8652168 0.3035524
vn -0.8274903 0.03607656 0.5603198
vn -0.4591069 0.8830938 -0.09677929
vn -0.9686995 0.04832231 -0.243488
vn -0.9896749 0.04859736 -0.1348408
vn 0.1439906 0.8567334 -0.495252
vn 0.2435273 -0.005167368 -0.9698803
vn -0.5594134 0.03256141 -0.8282489
vn 0.02868594 0.9993468 -0.02197937
vn -0.4613064 0.8831226 -0.08538678
vn -0.256579 0.8633484 -0.4345075
g polySurface38_0
f 3/3/3 2/2/2 1/1/1
f 2/2/2 4/4/4 1/1/1
f 4/4/4 5/5/5 1/1/1
f 4/4/4 6/6/6 5/5/5
f 7/7/7 3/3/3 1/1/1
f 1/1/1 5/5/5 8/8/8
f 1/1/1 8/8/8 7/7/7
f 6/6/6 9/9/9 5/5/5
f 5/5/5 9/9/9 8/8/8
f 9/9/9 6/6/6 10/10/10
f 6/6/6 11/11/11 10/10/10
f 11/11/11 12/12/12 10/10/10
f 13/13/13 8/8/8 9/9/9
f 10/10/10 13/13/13 9/9/9
f 12/12/12 14/14/14 10/10/10
f 12/12/12 15/15/15 14/14/14
f 10/10/10 14/14/14 16/16/16
f 15/15/15 16/16/16 14/14/14
f 13/13/13 10/10/10 16/16/16
f 17/17/17 8/8/8 13/13/13
f 8/8/8 17/17/17 7/7/7
f 3/3/3 7/7/7 18/18/18
f 19/19/19 3/3/3 18/18/18
f 18/18/18 7/7/7 20/20/20
f 19/19/19 18/18/18 20/20/20
f 7/7/7 17/17/17 20/20/20
f 21/21/21 19/19/19 20/20/20
f 22/22/22 21/21/21 20/20/20
f 16/16/16 15/15/15 23/23/23
f 15/15/15 24/24/24 23/23/23
f 24/24/24 25/25/25 23/23/23
f 26/26/26 13/13/13 16/16/16
f 26/26/26 17/17/17 13/13/13
f 23/23/23 26/26/26 16/16/16
f 20/20/20 17/17/17 27/27/27
f 27/27/27 22/22/22 20/20/20
f 17/17/17 26/26/26 27/27/27
f 25/25/25 28/28/28 23/23/23
f 25/25/25 22/22/22 28/28/28
f 22/22/22 27/27/27 28/28/28
f 26/26/26 23/23/23 28/28/28
f 27/27/27 26/26/26 28/28/28
f 31/31/31 30/30/30 29/29/29
f 30/30/30 31/31/31 32/32/32
f 33/33/33 30/30/30 32/32/32
f 33/33/33 32/32/32 34/34/34
f 30/30/30 35/35/35 29/29/29
f 36/36/36 30/30/30 33/33/33
f 30/30/30 36/36/36 35/35/35
f 37/37/37 33/33/33 34/34/34
f 37/37/37 36/36/36 33/33/33
f 38/38/38 37/37/37 34/34/34
f 39/39/39 38/38/38 34/34/34
f 38/38/38 39/39/39 40/40/40
f 41/41/41 36/36/36 37/37/37
f 38/38/38 41/41/41 37/37/37
f 42/42/42 38/38/38 40/40/40
f 42/42/42 40/40/40 43/43/43
f 42/42/42 44/44/44 38/38/38
f 44/44/44 42/42/42 43/43/43
f 44/44/44 41/41/41 38/38/38
f 36/36/36 41/41/41 45/45/45
f 36/36/36 45/45/45 35/35/35
f 35/35/35 46/46/46 29/29/29
f 46/46/46 47/47/47 29/29/29
f 48/48/48 46/46/46 35/35/35
f 46/46/46 48/48/48 47/47/47
f 45/45/45 48/48/48 35/35/35
f 48/48/48 49/49/49 47/47/47
f 49/49/49 48/48/48 50/50/50
f 51/51/51 44/44/44 43/43/43
f 52/52/52 51/51/51 43/43/43
f 51/51/51 52/52/52 53/53/53
f 54/54/54 41/41/41 44/44/44
f 41/41/41 54/54/54 45/45/45
f 51/51/51 54/54/54 44/44/44
f 48/48/48 45/45/45 55/55/55
f 48/48/48 55/55/55 50/50/50
f 45/45/45 54/54/54 55/55/55
f 56/56/56 53/53/53 50/50/50
f 56/56/56 51/51/51 53/53/53
f 55/55/55 56/56/56 50/50/50
f 56/56/56 55/55/55 54/54/54
f 51/51/51 56/56/56 54/54/54
