g Prop_Tv_04
v -0.7375097 -5.960464E-08 -0.2204189
v -0.7375097 0.1036496 -0.2204189
v -0.7375097 0.1036496 0.2204208
v -0.7375097 -5.960464E-08 0.2204208
v 0.7375107 0.1036496 -0.2204189
v 0.7375107 -5.960464E-08 -0.2204189
v 0.7375107 -5.960464E-08 0.2204208
v 0.7375107 0.1036496 0.2204208
v 0.7375107 -5.960464E-08 -0.2204189
v -0.7375097 -5.960464E-08 -0.2204189
v -0.7375097 -5.960464E-08 0.2204208
v 0.7375107 -5.960464E-08 0.2204208
v -0.7375097 -5.960464E-08 0.2204208
v -0.7375097 0.1036496 0.2204208
v 0.7375107 0.1036496 0.2204208
v 0.7375107 -5.960464E-08 0.2204208
v 0.7375107 -5.960464E-08 -0.2204189
v 0.7375107 0.1036496 -0.2204189
v -0.7375097 0.1036496 -0.2204189
v -0.7375097 -5.960464E-08 -0.2204189
v -0.07779408 0.1036496 -0.07779884
v -0.07779408 0.2903008 -0.07779884
v -0.07779408 0.2250807 0.07779503
v -0.07779408 0.1036496 0.07779503
v -0.07779408 0.1036496 0.07779503
v -0.07779408 0.2250807 0.07779503
v 0.07780075 0.2250807 0.07779503
v 0.07780075 0.1036496 0.07779503
v 0.07780075 0.1036496 0.07779503
v 0.07780075 0.2250807 0.07779503
v 0.07780075 0.2903008 -0.07779884
v 0.07780075 0.1036496 -0.07779884
v 0.07780075 0.1036496 -0.07779884
v 0.07780075 0.2903008 -0.07779884
v -0.07779408 0.2903008 -0.07779884
v -0.07779408 0.1036496 -0.07779884
v -1.249437 0.2123035 -0.01316452
v -1.249437 1.712718 -0.01316452
v -1.249437 1.712718 0.1036072
v -1.249437 0.2123035 0.1036072
v -1.249437 1.712718 -0.01316452
v 1.249438 1.712718 -0.01316452
v 1.249438 1.712718 0.1036072
v -1.249437 1.712718 0.1036072
v 1.249438 1.712718 -0.01316452
v 1.249438 0.2123035 -0.01316452
v 1.249438 0.2123035 0.1036072
v 1.249438 1.712718 0.1036072
v 1.249438 0.2123035 -0.01316452
v -1.249437 0.2123035 0.1036072
v 1.249438 0.2123035 0.1036072
v -1.249437 0.2123035 -0.01316452
v -1.13238 0.2911038 -0.1198196
v 1.132381 0.2911038 -0.1198196
v -1.122907 0.4229861 0.07004738
v -1.122907 1.600868 0.07004738
v 1.122908 1.600868 0.07004738
v 1.122908 0.4229861 0.07004738
v 1.132381 0.2911038 -0.1198196
v 1.132381 1.633917 -0.1198196
v -1.13238 1.633917 -0.1198196
v -1.13238 0.2911038 -0.1198196
v -0.1428709 0.2753245 0.1036072
v -0.1428738 0.3242933 0.1036072
v 0.1428747 0.3242933 0.1036072
v 0.1428719 0.2753245 0.1036072
v -1.249437 0.2123035 -0.01316452
v -1.13238 0.2911038 -0.1198196
v -1.13238 1.633917 -0.1198196
v -1.249437 1.712718 -0.01316452
v -1.249437 1.712718 -0.01316452
v -1.13238 1.633917 -0.1198196
v 1.132381 1.633917 -0.1198196
v 1.249438 1.712718 -0.01316452
v 1.249438 1.712718 -0.01316452
v 1.132381 1.633917 -0.1198196
v 1.132381 0.2911038 -0.1198196
v 1.249438 0.2123035 -0.01316452
v -0.7375097 0.1036496 -0.2204189
v -0.07779408 0.1036496 -0.07779884
v -0.07779408 0.1036496 0.07779503
v -0.7375097 0.1036496 0.2204208
v 0.7375107 0.1036496 -0.2204189
v 0.07780075 0.1036496 0.07779503
v 0.07780075 0.1036496 -0.07779884
v 0.7375107 0.1036496 0.2204208
v 1.249438 0.2123035 0.1036072
v 1.158388 0.3873143 0.1036072
v 1.158388 1.636539 0.1036072
v 1.249438 1.712718 0.1036072
v -1.158388 1.636539 0.1036072
v -1.249437 1.712718 0.1036072
v -1.158388 0.3873143 0.1036072
v -1.249437 0.2123035 0.1036072
v 0.1428747 0.3242933 0.1036072
v 0.1428719 0.2753245 0.1036072
v -0.1428738 0.3242933 0.1036072
v -0.1428709 0.2753245 0.1036072
v -1.158388 0.3873143 0.1036072
v -1.122907 0.4229861 0.07004738
v 1.122908 0.4229861 0.07004738
v 1.158388 0.3873143 0.1036072
v -1.158388 1.636539 0.1036072
v 1.122908 1.600868 0.07004738
v -1.122907 1.600868 0.07004738
v 1.158388 1.636539 0.1036072
vt 0.1409912 0.4753418
vt 0.1409912 0.4753418
vt 0.1409912 0.4753418
vt 0.1409912 0.4753418
vt 0.1409912 0.4753418
vt 0.1409912 0.4753418
vt 0.1409912 0.4753418
vt 0.1409912 0.4753418
vt 0.1715088 0.4753418
vt 0.1715088 0.4753418
vt 0.1715088 0.4753418
vt 0.1715088 0.4753418
vt 0.1715088 0.4753418
vt 0.1715088 0.4753418
vt 0.1715088 0.4753418
vt 0.1715088 0.4753418
vt 0.1715088 0.4753418
vt 0.1715088 0.4753418
vt 0.1715088 0.4753418
vt 0.1715088 0.4753418
vt 0.1409912 0.4753418
vt 0.1409912 0.4753418
vt 0.1409912 0.4753418
vt 0.1409912 0.4753418
vt 0.1715088 0.4753418
vt 0.1715088 0.4753418
vt 0.1715088 0.4753418
vt 0.1715088 0.4753418
vt 0.1409912 0.4753418
vt 0.1409912 0.4753418
vt 0.1409912 0.4753418
vt 0.1409912 0.4753418
vt 0.1715088 0.4753418
vt 0.1715088 0.4753418
vt 0.1715088 0.4753418
vt 0.1715088 0.4753418
vt 0.1098633 0.4753418
vt 0.1098633 0.4753418
vt 0.1098633 0.4753418
vt 0.1098633 0.4753418
vt 0.2033691 0.4753418
vt 0.2033691 0.4753418
vt 0.2033691 0.4753418
vt 0.2033691 0.4753418
vt 0.1098633 0.4753418
vt 0.1098633 0.4753418
vt 0.1098633 0.4753418
vt 0.1098633 0.4753418
vt 0.1098633 0.4753418
vt 0.1098633 0.4753418
vt 0.1098633 0.4753418
vt 0.1098633 0.4753418
vt 0.1098633 0.4753418
vt 0.1098633 0.4753418
vt 0.1715088 0.4753418
vt 0.1715088 0.4753418
vt 0.1715088 0.4753418
vt 0.1715088 0.4753418
vt 0.1715088 0.4753418
vt 0.1715088 0.4753418
vt 0.1715088 0.4753418
vt 0.1715088 0.4753418
vt 0.3261719 0.4753418
vt 0.3261719 0.4753418
vt 0.3261719 0.4753418
vt 0.3261719 0.4753418
vt 0.1409912 0.4753418
vt 0.1409912 0.4753418
vt 0.1409912 0.4753418
vt 0.1409912 0.4753418
vt 0.1715088 0.4753418
vt 0.1715088 0.4753418
vt 0.1715088 0.4753418
vt 0.1715088 0.4753418
vt 0.1409912 0.4753418
vt 0.1409912 0.4753418
vt 0.1409912 0.4753418
vt 0.1409912 0.4753418
vt 0.2033691 0.4753418
vt 0.2033691 0.4753418
vt 0.2033691 0.4753418
vt 0.2033691 0.4753418
vt 0.2033691 0.4753418
vt 0.2033691 0.4753418
vt 0.2033691 0.4753418
vt 0.2033691 0.4753418
vt 0.1409912 0.4753418
vt 0.1409912 0.4753418
vt 0.1409912 0.4753418
vt 0.1409912 0.4753418
vt 0.1409912 0.4753418
vt 0.1409912 0.4753418
vt 0.1409912 0.4753418
vt 0.1409912 0.4753418
vt 0.1409912 0.4753418
vt 0.1409912 0.4753418
vt 0.1409912 0.4753418
vt 0.1409912 0.4753418
vt 0.1098633 0.4753418
vt 0.1098633 0.4753418
vt 0.1098633 0.4753418
vt 0.1098633 0.4753418
vt 0.1098633 0.4753418
vt 0.1098633 0.4753418
vt 0.1098633 0.4753418
vt 0.1098633 0.4753418
vn -1 0 0
vn -1 0 0
vn -1 0 0
vn -1 0 0
vn 1 0 0
vn 1 0 0
vn 1 0 0
vn 1 0 0
vn 0 -1 0
vn 0 -1 0
vn 0 -1 0
vn 0 -1 0
vn 0 0 1
vn 0 0 1
vn 0 0 1
vn 0 0 1
vn 0 0 -1
vn 0 0 -1
vn 0 0 -1
vn 0 0 -1
vn -1 0 0
vn -1 0 0
vn -1 0 0
vn -1 0 0
vn 0 0 1
vn 0 0 1
vn 0 0 1
vn 0 0 1
vn 1 0 0
vn 1 0 0
vn 1 0 0
vn 1 0 0
vn 0 0 -1
vn 0 0 -1
vn 0 0 -1
vn 0 0 -1
vn -0.9145508 0 -0.4040527
vn -0.9145508 0 -0.4040527
vn -1 0 0
vn -1 0 0
vn 0 0.949707 -0.3127441
vn 0 0.949707 -0.3127441
vn 0 1 0
vn 0 1 0
vn 0.9145508 0 -0.4040527
vn 0.9145508 0 -0.4040527
vn 1 0 0
vn 1 0 0
vn 0 -0.949707 -0.3127441
vn 0 -1 0
vn 0 -1 0
vn 0 -0.949707 -0.3127441
vn 0 -0.4504395 -0.8925781
vn 0 -0.4504395 -0.8925781
vn 0.2602539 0.2595215 0.9301758
vn 0.2602539 -0.2595215 0.9301758
vn -0.2602539 -0.2595215 0.9301758
vn -0.2602539 0.2595215 0.9301758
vn 0.2631836 -0.3144531 -0.9121094
vn 0.2631836 0.3144531 -0.9121094
vn -0.2631836 0.3144531 -0.9121094
vn -0.2631836 -0.3144531 -0.9121094
vn 0 0 1
vn 0 0 1
vn 0 0 1
vn 0 0 1
vn -0.9145508 0 -0.4040527
vn -0.361084 0 -0.9326172
vn -0.361084 0 -0.9326172
vn -0.9145508 0 -0.4040527
vn 0 0.949707 -0.3127441
vn 0 0.4504395 -0.8925781
vn 0 0.4504395 -0.8925781
vn 0 0.949707 -0.3127441
vn 0.9145508 0 -0.4040527
vn 0.361084 0 -0.9326172
vn 0.361084 0 -0.9326172
vn 0.9145508 0 -0.4040527
vn 0 1 0
vn 0 1 0
vn 0 1 0
vn 0 1 0
vn 0 1 0
vn 0 1 0
vn 0 1 0
vn 0 1 0
vn 0 0 1
vn -0.1507568 0.1502686 0.9770508
vn -0.1915283 -0.190918 0.9628906
vn 0 0 1
vn 0.1915283 -0.190918 0.9628906
vn 0 0 1
vn 0.1507568 0.1502686 0.9770508
vn 0 0 1
vn 0 0 1
vn 0 0 1
vn 0 0 1
vn 0 0 1
vn 0.1507568 0.1502686 0.9770508
vn 0.2602539 0.2595215 0.9301758
vn -0.2602539 0.2595215 0.9301758
vn -0.1507568 0.1502686 0.9770508
vn 0.1915283 -0.190918 0.9628906
vn -0.2602539 -0.2595215 0.9301758
vn 0.2602539 -0.2595215 0.9301758
vn -0.1915283 -0.190918 0.9628906
g Prop_Tv_04_0
f 3/3/3 2/2/2 1/1/1
f 4/4/4 3/3/3 1/1/1
f 7/7/7 6/6/6 5/5/5
f 8/8/8 7/7/7 5/5/5
f 11/11/11 10/10/10 9/9/9
f 12/12/12 11/11/11 9/9/9
f 15/15/15 14/14/14 13/13/13
f 16/16/16 15/15/15 13/13/13
f 19/19/19 18/18/18 17/17/17
f 20/20/20 19/19/19 17/17/17
f 23/23/23 22/22/22 21/21/21
f 24/24/24 23/23/23 21/21/21
f 27/27/27 26/26/26 25/25/25
f 28/28/28 27/27/27 25/25/25
f 31/31/31 30/30/30 29/29/29
f 32/32/32 31/31/31 29/29/29
f 35/35/35 34/34/34 33/33/33
f 36/36/36 35/35/35 33/33/33
f 39/39/39 38/38/38 37/37/37
f 40/40/40 39/39/39 37/37/37
f 43/43/43 42/42/42 41/41/41
f 44/44/44 43/43/43 41/41/41
f 47/47/47 46/46/46 45/45/45
f 48/48/48 47/47/47 45/45/45
f 51/51/51 50/50/50 49/49/49
f 50/50/50 52/52/52 49/49/49
f 52/52/52 53/53/53 49/49/49
f 53/53/53 54/54/54 49/49/49
f 57/57/57 56/56/56 55/55/55
f 58/58/58 57/57/57 55/55/55
f 61/61/61 60/60/60 59/59/59
f 62/62/62 61/61/61 59/59/59
f 65/65/65 64/64/64 63/63/63
f 66/66/66 65/65/65 63/63/63
f 69/69/69 68/68/68 67/67/67
f 70/70/70 69/69/69 67/67/67
f 73/73/73 72/72/72 71/71/71
f 74/74/74 73/73/73 71/71/71
f 77/77/77 76/76/76 75/75/75
f 78/78/78 77/77/77 75/75/75
f 81/81/81 80/80/80 79/79/79
f 82/82/82 81/81/81 79/79/79
f 79/79/79 80/80/80 83/83/83
f 84/84/84 81/81/81 82/82/82
f 80/80/80 85/85/85 83/83/83
f 86/86/86 84/84/84 82/82/82
f 83/83/83 85/85/85 86/86/86
f 85/85/85 84/84/84 86/86/86
f 89/89/89 88/88/88 87/87/87
f 90/90/90 89/89/89 87/87/87
f 91/91/91 89/89/89 90/90/90
f 92/92/92 91/91/91 90/90/90
f 93/93/93 91/91/91 92/92/92
f 94/94/94 93/93/93 92/92/92
f 88/88/88 95/95/95 87/87/87
f 95/95/95 96/96/96 87/87/87
f 87/87/87 96/96/96 94/94/94
f 97/97/97 95/95/95 88/88/88
f 93/93/93 97/97/97 88/88/88
f 96/96/96 98/98/98 94/94/94
f 98/98/98 97/97/97 93/93/93
f 94/94/94 98/98/98 93/93/93
f 101/101/101 100/100/100 99/99/99
f 102/102/102 101/101/101 99/99/99
f 99/99/99 100/100/100 103/103/103
f 104/104/104 101/101/101 102/102/102
f 100/100/100 105/105/105 103/103/103
f 106/106/106 104/104/104 102/102/102
f 103/103/103 105/105/105 106/106/106
f 105/105/105 104/104/104 106/106/106
