g Prop_Game_02
v -0.1924877 0 -0.2185364
v -0.1924877 0.06830487 -0.2185364
v -0.1924887 0.06830487 0.08152771
v -0.1924887 0 0.08152771
v -0.1924877 0 0.1664391
v -0.1924877 0.06830487 0.1664391
v -0.1924877 0.06830487 -0.2185364
v -0.1393623 0.06830487 -0.2185364
v -0.1393633 0.06830487 0.08152771
v -0.1924887 0.06830487 0.08152771
v -0.1924877 0.06830487 0.1664391
v -0.1393623 0.06830487 0.1664391
v 0.1393633 0.06830487 0.08152771
v 0.1393623 0.06830487 0.1664391
v -0.1393623 0.06830487 0.2185364
v 0.1393623 0.06830487 0.2185364
v 0.1924887 0.06830487 0.08152771
v 0.1924877 0.06830487 0.1664391
v 0.1393623 0.06830487 -0.2185364
v 0.1924877 0.06830487 -0.2185364
v 0.1924877 0.06830487 -0.2185364
v 0.1924877 0 -0.2185364
v 0.1924887 0 0.08152771
v 0.1924887 0.06830487 0.08152771
v 0.1924877 0 0.1664391
v 0.1924877 0.06830487 0.1664391
v -0.1393623 0 -0.2185364
v -0.1924877 0 -0.2185364
v -0.1924887 0 0.08152771
v -0.1393633 0 0.08152771
v 0.1393623 0 -0.2185364
v -0.1393623 0 0.1664391
v -0.1924877 0 0.1664391
v 0.1393633 0 0.08152771
v 0.1924877 0 -0.2185364
v 0.1924887 0 0.08152771
v 0.1924877 0 0.1664391
v 0.1393623 0 0.1664391
v 0.1393623 0 0.2185364
v -0.1393623 0 0.2185364
v -0.1924877 0 0.1664391
v -0.1924877 0.06830487 0.1664391
v -0.1393623 0.06830487 0.1664391
v -0.1393623 0 0.1664391
v -0.1393623 0 -0.2185364
v -0.1393623 0.06830487 -0.2185364
v -0.1924877 0.06830487 -0.2185364
v -0.1924877 0 -0.2185364
v 0.1924877 0 -0.2185364
v 0.1924877 0.06830487 -0.2185364
v 0.1393623 0.06830487 -0.2185364
v 0.1393623 0 -0.2185364
v 0.1393623 0.06830487 0.1664391
v 0.1924877 0.06830487 0.1664391
v 0.1924877 0 0.1664391
v 0.1393623 0 0.1664391
v 0.1103935 0.02506459 -0.2185364
v 0.1103935 0.06830487 -0.2185364
v -0.1103935 0.06830487 -0.2185364
v -0.1103935 0.02506459 -0.2185364
v -0.1207466 0.05437821 0.2185364
v 0.1207466 0.05437821 0.2185364
v 0.1207466 0.01392663 0.2185364
v -0.1207466 0.01392663 0.2185364
v -0.09533346 0.06830487 -0.01659364
v 0.09533441 0.06830487 -0.1216777
v 0.09533447 0.06830487 -0.07690459
v -0.09533331 0.06830487 0.02790481
v -0.1393623 0.06830487 0.1664391
v -0.1393623 0.06830487 0.2185364
v -0.1393623 0 0.2185364
v -0.1393623 0 0.1664391
v 0.1393623 0 0.1664391
v 0.1393623 0 0.2185364
v 0.1393623 0.06830487 0.2185364
v 0.1393623 0.06830487 0.1664391
v -0.1393623 0 -0.2185364
v -0.1103935 0.06830487 -0.2185364
v -0.1393623 0.06830487 -0.2185364
v -0.1103935 0.02506459 -0.2185364
v 0.1393623 0 -0.2185364
v 0.1103935 0.02506459 -0.2185364
v 0.1393623 0.06830487 -0.2185364
v 0.1103935 0.06830487 -0.2185364
v -0.1393623 0.06830487 -0.2185364
v -0.1103935 0.06830487 -0.2185364
v -0.1103935 0.06830487 0.05588913
v -0.1393633 0.06830487 0.08152771
v 0.1103935 0.06830487 -0.06630706
v 0.1393633 0.06830487 0.08152771
v 0.1103935 0.06830487 -0.2185364
v 0.1393623 0.06830487 -0.2185364
v -0.1393623 0.06830487 0.2185364
v -0.1207466 0.05437821 0.2185364
v -0.1207466 0.01392663 0.2185364
v -0.1393623 0 0.2185364
v 0.1393623 0.06830487 0.2185364
v 0.1207466 0.01392663 0.2185364
v 0.1207466 0.05437821 0.2185364
v 0.1393623 0 0.2185364
v -0.1103935 0.06830487 -0.2185364
v -0.09533346 0.06830487 -0.01659364
v -0.09533331 0.06830487 0.02790481
v -0.1103935 0.06830487 0.05588913
v 0.1103935 0.06830487 -0.2185364
v 0.09533447 0.06830487 -0.07690459
v 0.09533441 0.06830487 -0.1216777
v 0.1103935 0.06830487 -0.06630706
vt 0.2033691 0.4753418
vt 0.2033691 0.4753418
vt 0.2033691 0.4753418
vt 0.2033691 0.4753418
vt 0.2033691 0.4753418
vt 0.2033691 0.4753418
vt 0.2331543 0.4753418
vt 0.2331543 0.4753418
vt 0.2331543 0.4753418
vt 0.2331543 0.4753418
vt 0.2331543 0.4753418
vt 0.2331543 0.4753418
vt 0.2331543 0.4753418
vt 0.2331543 0.4753418
vt 0.2331543 0.4753418
vt 0.2331543 0.4753418
vt 0.2331543 0.4753418
vt 0.2331543 0.4753418
vt 0.2331543 0.4753418
vt 0.2331543 0.4753418
vt 0.2033691 0.4753418
vt 0.2033691 0.4753418
vt 0.2033691 0.4753418
vt 0.2033691 0.4753418
vt 0.2033691 0.4753418
vt 0.2033691 0.4753418
vt 0.2331543 0.4753418
vt 0.2331543 0.4753418
vt 0.2331543 0.4753418
vt 0.2331543 0.4753418
vt 0.2331543 0.4753418
vt 0.2331543 0.4753418
vt 0.2331543 0.4753418
vt 0.2331543 0.4753418
vt 0.2331543 0.4753418
vt 0.2331543 0.4753418
vt 0.2331543 0.4753418
vt 0.2331543 0.4753418
vt 0.2331543 0.4753418
vt 0.2331543 0.4753418
vt 0.1715088 0.4753418
vt 0.1715088 0.4753418
vt 0.1715088 0.4753418
vt 0.1715088 0.4753418
vt 0.1715088 0.4753418
vt 0.1715088 0.4753418
vt 0.1715088 0.4753418
vt 0.1715088 0.4753418
vt 0.1715088 0.4753418
vt 0.1715088 0.4753418
vt 0.1715088 0.4753418
vt 0.1715088 0.4753418
vt 0.1715088 0.4753418
vt 0.1715088 0.4753418
vt 0.1715088 0.4753418
vt 0.1715088 0.4753418
vt 0.2629395 0.2209473
vt 0.2629395 0.2209473
vt 0.2629395 0.2209473
vt 0.2629395 0.2209473
vt 0.1098633 0.4753418
vt 0.1098633 0.4753418
vt 0.1098633 0.4753418
vt 0.1098633 0.4753418
vt 0.2956543 0.1987305
vt 0.2956543 0.1987305
vt 0.2956543 0.1987305
vt 0.2956543 0.1987305
vt 0.2033691 0.4753418
vt 0.2033691 0.4753418
vt 0.2033691 0.4753418
vt 0.2033691 0.4753418
vt 0.2033691 0.4753418
vt 0.2033691 0.4753418
vt 0.2033691 0.4753418
vt 0.2033691 0.4753418
vt 0.1098633 0.4753418
vt 0.1098633 0.4753418
vt 0.1098633 0.4753418
vt 0.1098633 0.4753418
vt 0.1098633 0.4753418
vt 0.1098633 0.4753418
vt 0.1098633 0.4753418
vt 0.1098633 0.4753418
vt 0.1409912 0.4753418
vt 0.1409912 0.4753418
vt 0.1409912 0.4753418
vt 0.1409912 0.4753418
vt 0.1409912 0.4753418
vt 0.1409912 0.4753418
vt 0.1409912 0.4753418
vt 0.1409912 0.4753418
vt 0.1715088 0.4753418
vt 0.1715088 0.4753418
vt 0.1715088 0.4753418
vt 0.1715088 0.4753418
vt 0.1715088 0.4753418
vt 0.1715088 0.4753418
vt 0.1715088 0.4753418
vt 0.1715088 0.4753418
vt 0.2956543 0.2209473
vt 0.2956543 0.2209473
vt 0.2956543 0.2209473
vt 0.2956543 0.2209473
vt 0.2956543 0.2209473
vt 0.2956543 0.2209473
vt 0.2956543 0.2209473
vt 0.2956543 0.2209473
vn -1 0 0
vn -1 0 0
vn -1 0 0
vn -1 0 0
vn -1 0 0
vn -1 0 0
vn 0 1 0
vn 0 1 0
vn 0 1 0
vn 0 1 0
vn 0 1 0
vn 0 1 0
vn 0 1 0
vn 0 1 0
vn 0 1 0
vn 0 1 0
vn 0 1 0
vn 0 1 0
vn 0 1 0
vn 0 1 0
vn 1 0 0
vn 1 0 0
vn 1 0 0
vn 1 0 0
vn 1 0 0
vn 1 0 0
vn 0 -1 0
vn 0 -1 0
vn 0 -1 0
vn 0 -1 0
vn 0 -1 0
vn 0 -1 0
vn 0 -1 0
vn 0 -1 0
vn 0 -1 0
vn 0 -1 0
vn 0 -1 0
vn 0 -1 0
vn 0 -1 0
vn 0 -1 0
vn 0 0 1
vn 0 0 1
vn 0 0 1
vn 0 0 1
vn 0 0 -1
vn 0 0 -1
vn 0 0 -1
vn 0 0 -1
vn 0 0 -1
vn 0 0 -1
vn 0 0 -1
vn 0 0 -1
vn 0 0 1
vn 0 0 1
vn 0 0 1
vn 0 0 1
vn 0 0 -1
vn 0 0 -1
vn 0 0 -1
vn 0 0 -1
vn 0 0 1
vn 0 0 1
vn 0 0 1
vn 0 0 1
vn 0 1 0
vn 0 1 0
vn 0 1 0
vn 0 1 0
vn -1 0 0
vn -1 0 0
vn -1 0 0
vn -1 0 0
vn 1 0 0
vn 1 0 0
vn 1 0 0
vn 1 0 0
vn 0 0 -1
vn 0 0 -1
vn 0 0 -1
vn 0 0 -1
vn 0 0 -1
vn 0 0 -1
vn 0 0 -1
vn 0 0 -1
vn 0 1 0
vn 0 1 0
vn 0 1 0
vn 0 1 0
vn 0 1 0
vn 0 1 0
vn 0 1 0
vn 0 1 0
vn 0 0 1
vn 0 0 1
vn 0 0 1
vn 0 0 1
vn 0 0 1
vn 0 0 1
vn 0 0 1
vn 0 0 1
vn 0 1 0
vn 0 1 0
vn 0 1 0
vn 0 1 0
vn 0 1 0
vn 0 1 0
vn 0 1 0
vn 0 1 0
g Prop_Game_02_0
f 3/3/3 2/2/2 1/1/1
f 4/4/4 3/3/3 1/1/1
f 4/4/4 5/5/5 3/3/3
f 5/5/5 6/6/6 3/3/3
f 9/9/9 8/8/8 7/7/7
f 10/10/10 9/9/9 7/7/7
f 10/10/10 11/11/11 9/9/9
f 11/11/11 12/12/12 9/9/9
f 9/9/9 12/12/12 13/13/13
f 12/12/12 14/14/14 13/13/13
f 12/12/12 15/15/15 14/14/14
f 15/15/15 16/16/16 14/14/14
f 13/13/13 14/14/14 17/17/17
f 14/14/14 18/18/18 17/17/17
f 13/13/13 17/17/17 19/19/19
f 17/17/17 20/20/20 19/19/19
f 23/23/23 22/22/22 21/21/21
f 24/24/24 23/23/23 21/21/21
f 25/25/25 23/23/23 24/24/24
f 26/26/26 25/25/25 24/24/24
f 29/29/29 28/28/28 27/27/27
f 30/30/30 29/29/29 27/27/27
f 30/30/30 27/27/27 31/31/31
f 30/30/30 32/32/32 29/29/29
f 32/32/32 33/33/33 29/29/29
f 34/34/34 30/30/30 31/31/31
f 34/34/34 31/31/31 35/35/35
f 36/36/36 34/34/34 35/35/35
f 36/36/36 37/37/37 34/34/34
f 37/37/37 38/38/38 34/34/34
f 34/34/34 38/38/38 30/30/30
f 38/38/38 32/32/32 30/30/30
f 38/38/38 39/39/39 32/32/32
f 39/39/39 40/40/40 32/32/32
f 43/43/43 42/42/42 41/41/41
f 44/44/44 43/43/43 41/41/41
f 47/47/47 46/46/46 45/45/45
f 48/48/48 47/47/47 45/45/45
f 51/51/51 50/50/50 49/49/49
f 52/52/52 51/51/51 49/49/49
f 55/55/55 54/54/54 53/53/53
f 56/56/56 55/55/55 53/53/53
f 59/59/59 58/58/58 57/57/57
f 60/60/60 59/59/59 57/57/57
f 63/63/63 62/62/62 61/61/61
f 64/64/64 63/63/63 61/61/61
f 67/67/67 66/66/66 65/65/65
f 68/68/68 67/67/67 65/65/65
f 71/71/71 70/70/70 69/69/69
f 72/72/72 71/71/71 69/69/69
f 75/75/75 74/74/74 73/73/73
f 76/76/76 75/75/75 73/73/73
f 79/79/79 78/78/78 77/77/77
f 78/78/78 80/80/80 77/77/77
f 77/77/77 80/80/80 81/81/81
f 80/80/80 82/82/82 81/81/81
f 81/81/81 82/82/82 83/83/83
f 82/82/82 84/84/84 83/83/83
f 87/87/87 86/86/86 85/85/85
f 88/88/88 87/87/87 85/85/85
f 89/89/89 87/87/87 88/88/88
f 90/90/90 89/89/89 88/88/88
f 91/91/91 89/89/89 90/90/90
f 92/92/92 91/91/91 90/90/90
f 95/95/95 94/94/94 93/93/93
f 96/96/96 95/95/95 93/93/93
f 93/93/93 94/94/94 97/97/97
f 98/98/98 95/95/95 96/96/96
f 94/94/94 99/99/99 97/97/97
f 100/100/100 98/98/98 96/96/96
f 97/97/97 99/99/99 100/100/100
f 99/99/99 98/98/98 100/100/100
f 103/103/103 102/102/102 101/101/101
f 104/104/104 103/103/103 101/101/101
f 101/101/101 102/102/102 105/105/105
f 106/106/106 103/103/103 104/104/104
f 102/102/102 107/107/107 105/105/105
f 108/108/108 106/106/106 104/104/104
f 105/105/105 107/107/107 108/108/108
f 107/107/107 106/106/106 108/108/108
