g Prop_Sound_System
v -0.4596901 0 -0.3403664
v -0.4596901 0.2431967 -0.3403664
v -0.4596901 0.2431967 0.2985268
v -0.4596901 0 0.2985268
v -0.4596901 0.2431967 -0.3403664
v 0.4596901 0.2431967 -0.3403664
v 0.4596901 0.2431967 0.2985268
v -0.4596901 0.2431967 0.2985268
v 0.4596901 0.2431967 -0.3403664
v 0.4596901 0 -0.3403664
v 0.4596901 0 0.2985268
v 0.4596901 0.2431967 0.2985268
v 0.4596901 0 -0.3403664
v -0.4596901 0 -0.3403664
v -0.4596901 0 0.2985268
v 0.4596901 0 0.2985268
v -0.2101355 0.06694114 0.2985268
v -0.2101355 0.2037718 0.2985268
v 0.2077637 0.2037718 0.2985268
v 0.2077637 0.06694114 0.2985268
v 0.4596901 0 -0.3403664
v 0.4596901 0.2431967 -0.3403664
v -0.4596901 0.2431967 -0.3403664
v -0.4596901 0 -0.3403664
v 0.4205418 0.03913614 0.2985268
v 0.3901329 0.03913614 0.2985268
v 0.3901329 0.06233302 0.2985268
v 0.4205418 0.06233302 0.2985268
v -0.4234409 0.1684166 0.2985268
v -0.2841835 0.1684166 0.2985268
v -0.2841835 0.1285001 0.2985268
v -0.4234409 0.1285001 0.2985268
v 0.3526039 0.03913614 0.2985268
v 0.3231325 0.03913614 0.2985268
v 0.3231325 0.06233299 0.2985268
v 0.3526039 0.06233302 0.2985268
v 0.2831612 0.08493203 0.2985268
v 0.2831612 0.2011543 0.2985268
v 0.2831612 0.2011543 0.3403664
v 0.2831612 0.08493203 0.3403664
v 0.2831612 0.2011543 0.2985268
v 0.3993845 0.2011543 0.2985268
v 0.3993845 0.2011543 0.3403702
v 0.2831612 0.2011543 0.3403664
v 0.3993845 0.2011543 0.2985268
v 0.3993845 0.08493203 0.2985268
v 0.3993845 0.08493203 0.3403702
v 0.3993845 0.2011543 0.3403702
v 0.3993845 0.08493203 0.2985268
v 0.2831612 0.08493203 0.2985268
v 0.2831612 0.08493203 0.3403664
v 0.3993845 0.08493203 0.3403702
v 0.2831612 0.08493203 0.3403664
v 0.2831612 0.2011543 0.3403664
v 0.3993845 0.2011543 0.3403702
v 0.3993845 0.08493203 0.3403702
v 0.3993845 0.08493203 0.2985268
v 0.3993845 0.2011543 0.2985268
v 0.2831612 0.2011543 0.2985268
v 0.2831612 0.08493203 0.2985268
v -0.2841835 0.1684166 0.2985268
v -0.4234409 0.1684166 0.2985268
v -0.4596901 0.2431967 0.2985268
v -0.4234409 0.1285001 0.2985268
v -0.4596901 0 0.2985268
v -0.2841835 0.1285001 0.2985268
v -0.2101355 0.06694114 0.2985268
v -0.2101355 0.2037718 0.2985268
v 0.2077637 0.2037718 0.2985268
v 0.2077637 0.06694114 0.2985268
v 0.4596901 0.2431967 0.2985268
v 0.3231325 0.03913614 0.2985268
v 0.3231325 0.06233299 0.2985268
v 0.3526039 0.03913614 0.2985268
v 0.4596901 0 0.2985268
v 0.3526039 0.06233302 0.2985268
v 0.3901329 0.03913614 0.2985268
v 0.3901329 0.06233302 0.2985268
v 0.4205418 0.03913614 0.2985268
v 0.4205418 0.06233302 0.2985268
vt 0.1098633 0.4753418
vt 0.1098633 0.4753418
vt 0.1098633 0.4753418
vt 0.1098633 0.4753418
vt 0.1715088 0.4753418
vt 0.1715088 0.4753418
vt 0.1715088 0.4753418
vt 0.1715088 0.4753418
vt 0.1098633 0.4753418
vt 0.1098633 0.4753418
vt 0.1098633 0.4753418
vt 0.1098633 0.4753418
vt 0.1409912 0.4753418
vt 0.1409912 0.4753418
vt 0.1409912 0.4753418
vt 0.1409912 0.4753418
vt 0.2033691 0.4753418
vt 0.2033691 0.4753418
vt 0.2033691 0.4753418
vt 0.2033691 0.4753418
vt 0.1409912 0.4753418
vt 0.1409912 0.4753418
vt 0.1409912 0.4753418
vt 0.1409912 0.4753418
vt 0.2629395 0.3320313
vt 0.2629395 0.3320313
vt 0.2629395 0.3320313
vt 0.2629395 0.3320313
vt 0.3261719 0.4753418
vt 0.3261719 0.4753418
vt 0.3261719 0.4753418
vt 0.3261719 0.4753418
vt 0.2331543 0.170166
vt 0.2331543 0.170166
vt 0.2331543 0.170166
vt 0.2331543 0.170166
vt 0.2033691 0.4753418
vt 0.2033691 0.4753418
vt 0.2033691 0.4753418
vt 0.2033691 0.4753418
vt 0.2629395 0.4753418
vt 0.2629395 0.4753418
vt 0.2629395 0.4753418
vt 0.2629395 0.4753418
vt 0.2033691 0.4753418
vt 0.2033691 0.4753418
vt 0.2033691 0.4753418
vt 0.2033691 0.4753418
vt 0.2033691 0.4753418
vt 0.2033691 0.4753418
vt 0.2033691 0.4753418
vt 0.2033691 0.4753418
vt 0.2331543 0.4753418
vt 0.2331543 0.4753418
vt 0.2331543 0.4753418
vt 0.2331543 0.4753418
vt 0.2331543 0.4753418
vt 0.2331543 0.4753418
vt 0.2331543 0.4753418
vt 0.2331543 0.4753418
vt 0.1409912 0.4753418
vt 0.1409912 0.4753418
vt 0.1409912 0.4753418
vt 0.1409912 0.4753418
vt 0.1409912 0.4753418
vt 0.1409912 0.4753418
vt 0.1409912 0.4753418
vt 0.1409912 0.4753418
vt 0.1409912 0.4753418
vt 0.1409912 0.4753418
vt 0.1409912 0.4753418
vt 0.1409912 0.4753418
vt 0.1409912 0.4753418
vt 0.1409912 0.4753418
vt 0.1409912 0.4753418
vt 0.1409912 0.4753418
vt 0.1409912 0.4753418
vt 0.1409912 0.4753418
vt 0.1409912 0.4753418
vt 0.1409912 0.4753418
vn -1 0 0
vn -1 0 0
vn -1 0 0
vn -1 0 0
vn 0 1 0
vn 0 1 0
vn 0 1 0
vn 0 1 0
vn 1 0 0
vn 1 0 0
vn 1 0 0
vn 1 0 0
vn 0 -1 0
vn 0 -1 0
vn 0 -1 0
vn 0 -1 0
vn 0 0 1
vn 0 0 1
vn 0 0 1
vn 0 0 1
vn 0 0 -1
vn 0 0 -1
vn 0 0 -1
vn 0 0 -1
vn 0 0 1
vn 0 0 1
vn 0 0 1
vn 0 0 1
vn 0 0 1
vn 0 0 1
vn 0 0 1
vn 0 0 1
vn 0 0 1
vn 0 0 1
vn 0 0 1
vn 0 0 1
vn -1 0 0
vn -1 0 0
vn -1 0 0
vn -1 0 0
vn 0 1 0
vn 0 1 0
vn 0 1 0
vn 0 1 0
vn 1 0 0
vn 1 0 0
vn 1 0 0
vn 1 0 0
vn 0 -1 0
vn 0 -1 0
vn 0 -1 0
vn 0 -1 0
vn 0 0 1
vn 0 0 1
vn 0 0 1
vn 0 0 1
vn 0 0 -1
vn 0 0 -1
vn 0 0 -1
vn 0 0 -1
vn 0 0 1
vn 0 0 1
vn 0 0 1
vn 0 0 1
vn 0 0 1
vn 0 0 1
vn 0 0 1
vn 0 0 1
vn 0 0 1
vn 0 0 1
vn 0 0 1
vn 0 0 1
vn 0 0 1
vn 0 0 1
vn 0 0 1
vn 0 0 1
vn 0 0 1
vn 0 0 1
vn 0 0 1
vn 0 0 1
g Prop_Sound_System_0
f 3/3/3 2/2/2 1/1/1
f 4/4/4 3/3/3 1/1/1
f 7/7/7 6/6/6 5/5/5
f 8/8/8 7/7/7 5/5/5
f 11/11/11 10/10/10 9/9/9
f 12/12/12 11/11/11 9/9/9
f 15/15/15 14/14/14 13/13/13
f 16/16/16 15/15/15 13/13/13
f 19/19/19 18/18/18 17/17/17
f 20/20/20 19/19/19 17/17/17
f 23/23/23 22/22/22 21/21/21
f 24/24/24 23/23/23 21/21/21
f 27/27/27 26/26/26 25/25/25
f 28/28/28 27/27/27 25/25/25
f 31/31/31 30/30/30 29/29/29
f 32/32/32 31/31/31 29/29/29
f 35/35/35 34/34/34 33/33/33
f 36/36/36 35/35/35 33/33/33
f 39/39/39 38/38/38 37/37/37
f 40/40/40 39/39/39 37/37/37
f 43/43/43 42/42/42 41/41/41
f 44/44/44 43/43/43 41/41/41
f 47/47/47 46/46/46 45/45/45
f 48/48/48 47/47/47 45/45/45
f 51/51/51 50/50/50 49/49/49
f 52/52/52 51/51/51 49/49/49
f 55/55/55 54/54/54 53/53/53
f 56/56/56 55/55/55 53/53/53
f 59/59/59 58/58/58 57/57/57
f 60/60/60 59/59/59 57/57/57
f 63/63/63 62/62/62 61/61/61
f 64/64/64 62/62/62 63/63/63
f 65/65/65 64/64/64 63/63/63
f 66/66/66 64/64/64 65/65/65
f 61/61/61 66/66/66 67/67/67
f 67/67/67 66/66/66 65/65/65
f 68/68/68 61/61/61 67/67/67
f 63/63/63 61/61/61 68/68/68
f 63/63/63 68/68/68 69/69/69
f 70/70/70 67/67/67 65/65/65
f 69/69/69 71/71/71 63/63/63
f 72/72/72 70/70/70 65/65/65
f 70/70/70 72/72/72 69/69/69
f 72/72/72 73/73/73 69/69/69
f 69/69/69 73/73/73 71/71/71
f 74/74/74 72/72/72 65/65/65
f 65/65/65 75/75/75 74/74/74
f 73/73/73 76/76/76 71/71/71
f 76/76/76 74/74/74 77/77/77
f 75/75/75 77/77/77 74/74/74
f 78/78/78 76/76/76 77/77/77
f 76/76/76 78/78/78 71/71/71
f 75/75/75 79/79/79 77/77/77
f 78/78/78 80/80/80 71/71/71
f 80/80/80 79/79/79 75/75/75
f 71/71/71 80/80/80 75/75/75
