g Prop_Fireplace_01
v -1.140348 1.297449 -0.535959
v -1.140348 1.355277 -0.535959
v -1.140348 1.355277 0.189268
v -1.140348 1.297449 0.189268
v -1.140348 1.297449 0.189268
v -1.140348 1.355277 0.189268
v 1.14035 1.355277 0.189268
v 1.14035 1.297449 0.189268
v 1.14035 1.297449 0.189268
v 1.14035 1.355277 0.189268
v 1.14035 1.355277 -0.535959
v 1.14035 1.297449 -0.535959
v -1.060398 1.297449 -0.535959
v -1.140348 1.297449 -0.535959
v -1.140348 1.297449 0.189268
v -1.060398 1.297449 0.1350859
v 1.14035 1.297449 0.189268
v 1.0604 1.297449 0.135086
v 1.14035 1.297449 -0.535959
v 1.0604 1.297449 -0.535959
v -1.060398 1.355277 0.1350859
v -1.140348 1.355277 -0.535959
v -1.060398 1.355277 -0.535959
v -1.140348 1.355277 0.189268
v 1.0604 1.355277 0.135086
v 1.14035 1.355277 0.189268
v 1.0604 1.355277 -0.535959
v 1.14035 1.355277 -0.535959
v -1.096624 0 -0.497013
v -1.096624 1.526855 -0.497013
v -1.096624 1.526855 0.1497361
v -1.096624 0 0.1497361
v -1.253096 1.748862 -0.497013
v 1.253096 1.748862 -0.497013
v 1.253096 1.748862 0.28694
v -1.253096 1.748862 0.28694
v 1.096626 1.526855 -0.497013
v 1.096626 0 -0.497013
v 1.096626 0 0.1497359
v 1.096626 1.526855 0.1497359
v 1.096626 0 0.1497359
v 0.700886 0 0.149736
v 0.700886 1.13875 0.149736
v 1.096626 1.526855 0.1497359
v -0.700886 1.13875 0.149736
v -1.096624 1.526855 0.1497361
v -0.700886 0 0.149736
v -1.096624 0 0.1497361
v 0.700886 0 0.149736
v 0.700885 0 -0.342777
v 0.700885 1.13875 -0.342777
v 0.700886 1.13875 0.149736
v 0.700886 1.13875 0.149736
v 0.700885 1.13875 -0.342777
v -0.7008849 1.13875 -0.342777
v -0.700886 1.13875 0.149736
v -0.700886 1.13875 0.149736
v -0.7008849 1.13875 -0.342777
v -0.7008849 0 -0.342777
v -0.700886 0 0.149736
v 0.700885 0 -0.342777
v -0.7008849 0 -0.342777
v -0.7008849 1.13875 -0.342777
v 0.700885 1.13875 -0.342777
v -1.096624 1.526855 -0.497013
v -1.165241 1.663026 -0.497013
v -1.16524 1.663026 0.2283711
v -1.096624 1.526855 0.1497361
v -1.096624 1.526855 0.1497361
v -1.16524 1.663026 0.2283711
v 1.16524 1.663026 0.228371
v 1.096626 1.526855 0.1497359
v 1.096626 1.526855 0.1497359
v 1.16524 1.663026 0.228371
v 1.165241 1.663026 -0.497013
v 1.096626 1.526855 -0.497013
v -1.253096 1.663026 -0.497013
v -1.253096 1.748862 -0.497013
v -1.253096 1.748862 0.28694
v -1.253096 1.663026 0.28694
v -1.253096 1.663026 0.28694
v -1.253096 1.748862 0.28694
v 1.253096 1.748862 0.28694
v 1.253096 1.663026 0.28694
v 1.253096 1.663026 0.28694
v 1.253096 1.748862 0.28694
v 1.253096 1.748862 -0.497013
v 1.253096 1.663026 -0.497013
v -1.165241 1.663026 -0.497013
v -1.253096 1.663026 -0.497013
v -1.253096 1.663026 0.28694
v -1.16524 1.663026 0.2283711
v 1.253096 1.663026 0.28694
v 1.16524 1.663026 0.228371
v 1.253096 1.663026 -0.497013
v 1.165241 1.663026 -0.497013
v -1.001997 0 -0.497013
v -1.001997 0.089084 -0.497013
v -1.001997 0.089084 0.535955
v -1.001997 0 0.535955
v -0.583988 0.089084 -0.423635
v 0.583992 0.089084 -0.423635
v 0.583992 0.089084 0.188145
v -0.583988 0.089084 0.188145
v 1.001999 0.089084 -0.497013
v 1.001999 0 -0.497013
v 1.001999 0 0.5359549
v 1.001999 0.089084 0.5359549
v -1.001997 0 0.535955
v -1.001997 0.089084 0.535955
v 1.001999 0.089084 0.5359549
v 1.001999 0 0.5359549
v -0.523983 0.086694 0.188345
v -0.523983 0.225853 0.188345
v -0.523983 0.225853 0.311071
v -0.523983 0.086694 0.311071
v -0.523983 0.225853 0.188345
v 0.523985 0.225853 0.188345
v 0.523985 0.225853 0.311071
v -0.523983 0.225853 0.311071
v 0.523985 0.225853 0.188345
v 0.523985 0.086694 0.188345
v 0.523985 0.086694 0.311071
v 0.523985 0.225853 0.311071
v 0.523985 0.086694 0.188345
v -0.523983 0.086694 0.188345
v -0.523983 0.086694 0.311071
v 0.523985 0.086694 0.311071
v -0.523983 0.086694 0.311071
v -0.523983 0.225853 0.311071
v 0.523985 0.225853 0.311071
v 0.523985 0.086694 0.311071
v 0.523985 0.086694 0.188345
v 0.523985 0.225853 0.188345
v -0.523983 0.225853 0.188345
v -0.523983 0.086694 0.188345
v -0.04387302 0.436324 -0.281534
v 0.001124 0.529367 -0.231647
v -0.05573601 0.503259 -0.131668
v -0.100732 0.410215 -0.181557
v 0.001124 0.529367 -0.231647
v 0.492012 0.189826 -0.04113803
v 0.435154 0.163717 0.058842
v -0.05573601 0.503259 -0.131668
v 0.492012 0.189826 -0.04113803
v 0.447015 0.096782 -0.091024
v 0.390158 0.070674 0.008953
v 0.435154 0.163717 0.058842
v 0.447015 0.096782 -0.091024
v -0.04387302 0.436324 -0.281534
v -0.100732 0.410215 -0.181557
v 0.390158 0.070674 0.008953
v -0.100732 0.410215 -0.181557
v -0.05573601 0.503259 -0.131668
v 0.435154 0.163717 0.058842
v 0.390158 0.070674 0.008953
v 0.447015 0.096782 -0.091024
v 0.492012 0.189826 -0.04113803
v 0.001124 0.529367 -0.231647
v -0.04387302 0.436324 -0.281534
v 0.090193 0.221926 0.092274
v 0.145618 0.219479 -0.008188
v 0.144522 0.101564 -0.00592
v 0.08909799 0.104011 0.094542
v 0.145618 0.219479 -0.008188
v -0.402987 0.218754 -0.310825
v -0.404082 0.100838 -0.308556
v 0.144522 0.101564 -0.00592
v -0.402987 0.218754 -0.310825
v -0.458407 0.2212 -0.210361
v -0.459504 0.103285 -0.208094
v -0.404082 0.100838 -0.308556
v -0.458407 0.2212 -0.210361
v 0.090193 0.221926 0.092274
v 0.08909799 0.104011 0.094542
v -0.459504 0.103285 -0.208094
v 0.08909799 0.104011 0.094542
v 0.144522 0.101564 -0.00592
v -0.404082 0.100838 -0.308556
v -0.459504 0.103285 -0.208094
v -0.458407 0.2212 -0.210361
v -0.402987 0.218754 -0.310825
v 0.145618 0.219479 -0.008188
v 0.090193 0.221926 0.092274
v -0.254125 0.277764 -0.155607
v -0.217768 0.386464 -0.161345
v -0.180876 0.380028 -0.049505
v -0.217231 0.271328 -0.043768
v -0.217768 0.386464 -0.161345
v 0.343256 0.188446 -0.357803
v 0.380148 0.18201 -0.245966
v -0.180876 0.380028 -0.049505
v 0.343256 0.188446 -0.357803
v 0.306899 0.079746 -0.352066
v 0.343789 0.07331 -0.240229
v 0.380148 0.18201 -0.245966
v 0.306899 0.079746 -0.352066
v -0.254125 0.277764 -0.155607
v -0.217231 0.271328 -0.043768
v 0.343789 0.07331 -0.240229
v -0.217231 0.271328 -0.043768
v -0.180876 0.380028 -0.049505
v 0.380148 0.18201 -0.245966
v 0.343789 0.07331 -0.240229
v 0.306899 0.079746 -0.352066
v 0.343256 0.188446 -0.357803
v -0.217768 0.386464 -0.161345
v -0.254125 0.277764 -0.155607
v -1.001997 0.089084 -0.497013
v -0.583988 0.089084 -0.423635
v -0.583988 0.089084 0.188145
v -1.001997 0.089084 0.535955
v 1.001999 0.089084 -0.497013
v 0.583992 0.089084 0.188145
v 0.583992 0.089084 -0.423635
v 1.001999 0.089084 0.5359549
vt 0.1715088 0.1119995
vt 0.1715088 0.1119995
vt 0.1715088 0.1119995
vt 0.1715088 0.1119995
vt 0.2331543 0.1119995
vt 0.2331543 0.1119995
vt 0.2331543 0.1119995
vt 0.2331543 0.1119995
vt 0.1715088 0.1119995
vt 0.1715088 0.1119995
vt 0.1715088 0.1119995
vt 0.1715088 0.1119995
vt 0.1715088 0.1119995
vt 0.1715088 0.1119995
vt 0.1715088 0.1119995
vt 0.1715088 0.1119995
vt 0.1715088 0.1119995
vt 0.1715088 0.1119995
vt 0.1715088 0.1119995
vt 0.1715088 0.1119995
vt 0.2629395 0.1119995
vt 0.2629395 0.1119995
vt 0.2629395 0.1119995
vt 0.2629395 0.1119995
vt 0.2629395 0.1119995
vt 0.2629395 0.1119995
vt 0.2629395 0.1119995
vt 0.2629395 0.1119995
vt 0.1715088 0.1119995
vt 0.1715088 0.1119995
vt 0.1715088 0.1119995
vt 0.1715088 0.1119995
vt 0.2629395 0.1119995
vt 0.2629395 0.1119995
vt 0.2629395 0.1119995
vt 0.2629395 0.1119995
vt 0.1715088 0.1119995
vt 0.1715088 0.1119995
vt 0.1715088 0.1119995
vt 0.1715088 0.1119995
vt 0.2331543 0.1119995
vt 0.2331543 0.1119995
vt 0.2331543 0.1119995
vt 0.2331543 0.1119995
vt 0.2331543 0.1119995
vt 0.2331543 0.1119995
vt 0.2331543 0.1119995
vt 0.2331543 0.1119995
vt 0.1409912 0.4753418
vt 0.1409912 0.4753418
vt 0.1409912 0.4753418
vt 0.1409912 0.4753418
vt 0.1715088 0.4753418
vt 0.1715088 0.4753418
vt 0.1715088 0.4753418
vt 0.1715088 0.4753418
vt 0.1409912 0.4753418
vt 0.1409912 0.4753418
vt 0.1409912 0.4753418
vt 0.1409912 0.4753418
vt 0.1715088 0.4753418
vt 0.1715088 0.4753418
vt 0.1715088 0.4753418
vt 0.1715088 0.4753418
vt 0.1409912 0.1119995
vt 0.1409912 0.1119995
vt 0.1409912 0.1119995
vt 0.1409912 0.1119995
vt 0.2033691 0.1119995
vt 0.2033691 0.1119995
vt 0.2033691 0.1119995
vt 0.2033691 0.1119995
vt 0.1409912 0.1119995
vt 0.1409912 0.1119995
vt 0.1409912 0.1119995
vt 0.1409912 0.1119995
vt 0.1715088 0.1119995
vt 0.1715088 0.1119995
vt 0.1715088 0.1119995
vt 0.1715088 0.1119995
vt 0.2331543 0.1119995
vt 0.2331543 0.1119995
vt 0.2331543 0.1119995
vt 0.2331543 0.1119995
vt 0.1715088 0.1119995
vt 0.1715088 0.1119995
vt 0.1715088 0.1119995
vt 0.1715088 0.1119995
vt 0.1715088 0.1119995
vt 0.1715088 0.1119995
vt 0.1715088 0.1119995
vt 0.1715088 0.1119995
vt 0.1715088 0.1119995
vt 0.1715088 0.1119995
vt 0.1715088 0.1119995
vt 0.1715088 0.1119995
vt 0.2956543 0.2685547
vt 0.2956543 0.2685547
vt 0.2956543 0.2685547
vt 0.2956543 0.2685547
vt 0.2629395 0.2678223
vt 0.2629395 0.2678223
vt 0.2629395 0.2678223
vt 0.2629395 0.2678223
vt 0.2956543 0.2685547
vt 0.2956543 0.2685547
vt 0.2956543 0.2685547
vt 0.2956543 0.2685547
vt 0.2956543 0.2685547
vt 0.2956543 0.2685547
vt 0.2956543 0.2685547
vt 0.2956543 0.2685547
vt 0.1409912 0.4753418
vt 0.1409912 0.4753418
vt 0.1409912 0.4753418
vt 0.1409912 0.4753418
vt 0.2033691 0.4753418
vt 0.2033691 0.4753418
vt 0.2033691 0.4753418
vt 0.2033691 0.4753418
vt 0.1409912 0.4753418
vt 0.1409912 0.4753418
vt 0.1409912 0.4753418
vt 0.1409912 0.4753418
vt 0.1715088 0.4753418
vt 0.1715088 0.4753418
vt 0.1715088 0.4753418
vt 0.1715088 0.4753418
vt 0.1715088 0.4753418
vt 0.1715088 0.4753418
vt 0.1715088 0.4753418
vt 0.1715088 0.4753418
vt 0.1715088 0.4753418
vt 0.1715088 0.4753418
vt 0.1715088 0.4753418
vt 0.1715088 0.4753418
vt 0.2956543 0.3962402
vt 0.2956543 0.3962402
vt 0.2956543 0.3962402
vt 0.2956543 0.3962402
vt 0.2331543 0.3962402
vt 0.2331543 0.3962402
vt 0.2331543 0.3962402
vt 0.2331543 0.3962402
vt 0.2033691 0.3962402
vt 0.2033691 0.3962402
vt 0.2033691 0.3962402
vt 0.2033691 0.3962402
vt 0.2033691 0.3962402
vt 0.2033691 0.3962402
vt 0.2033691 0.3962402
vt 0.2033691 0.3962402
vt 0.2033691 0.3962402
vt 0.2033691 0.3962402
vt 0.2033691 0.3962402
vt 0.2033691 0.3962402
vt 0.2033691 0.3962402
vt 0.2033691 0.3962402
vt 0.2033691 0.3962402
vt 0.2033691 0.3962402
vt 0.2033691 0.3962402
vt 0.2033691 0.3962402
vt 0.2033691 0.3962402
vt 0.2033691 0.3962402
vt 0.2033691 0.3962402
vt 0.2033691 0.3962402
vt 0.2033691 0.3962402
vt 0.2033691 0.3962402
vt 0.2033691 0.3962402
vt 0.2033691 0.3962402
vt 0.2033691 0.3962402
vt 0.2033691 0.3962402
vt 0.2033691 0.3962402
vt 0.2033691 0.3962402
vt 0.2033691 0.3962402
vt 0.2033691 0.3962402
vt 0.2033691 0.3962402
vt 0.2033691 0.3962402
vt 0.2033691 0.3962402
vt 0.2033691 0.3962402
vt 0.2331543 0.3962402
vt 0.2331543 0.3962402
vt 0.2331543 0.3962402
vt 0.2331543 0.3962402
vt 0.2956543 0.3962402
vt 0.2956543 0.3962402
vt 0.2956543 0.3962402
vt 0.2956543 0.3962402
vt 0.2331543 0.3962402
vt 0.2331543 0.3962402
vt 0.2331543 0.3962402
vt 0.2331543 0.3962402
vt 0.2033691 0.3962402
vt 0.2033691 0.3962402
vt 0.2033691 0.3962402
vt 0.2033691 0.3962402
vt 0.2033691 0.3962402
vt 0.2033691 0.3962402
vt 0.2033691 0.3962402
vt 0.2033691 0.3962402
vt 0.2033691 0.3962402
vt 0.2033691 0.3962402
vt 0.2033691 0.3962402
vt 0.2033691 0.3962402
vt 0.2033691 0.3962402
vt 0.2033691 0.3962402
vt 0.2033691 0.3962402
vt 0.2033691 0.3962402
vt 0.3261719 0.2678223
vt 0.3261719 0.2678223
vt 0.3261719 0.2678223
vt 0.3261719 0.2678223
vt 0.3261719 0.2678223
vt 0.3261719 0.2678223
vt 0.3261719 0.2678223
vt 0.3261719 0.2678223
vn -1 0 0
vn -1 0 0
vn -1 0 0
vn -1 0 0
vn 0 0 1
vn 0 0 1
vn 0 0 1
vn 0 0 1
vn 1 0 0
vn 1 0 0
vn 1 0 0
vn 1 0 0
vn 0 -1 0
vn 0 -1 0
vn 0 -1 0
vn 0 -1 0
vn 0 -1 0
vn 0 -1 0
vn 0 -1 0
vn 0 -1 0
vn 0 1 0
vn 0 1 0
vn 0 1 0
vn 0 1 0
vn 0 1 0
vn 0 1 0
vn 0 1 0
vn 0 1 0
vn -1 0 0
vn -0.9726563 -0.2313232 0
vn -0.9726563 -0.2313232 0
vn -1 0 0
vn 0 1 0
vn 0 1 0
vn 0 1 0
vn 0 1 0
vn 0.9726563 -0.2313232 0
vn 1 0 0
vn 1 0 0
vn 0.9726563 -0.2313232 0
vn 0 0 1
vn 0 0 1
vn 0 0 1
vn 0 -0.171875 0.9853516
vn 0 0 1
vn 0 -0.171875 0.9853516
vn 0 0 1
vn 0 0 1
vn -1 0 0
vn -1 0 0
vn -1 0 0
vn -1 0 0
vn 0 -1 0
vn 0 -1 0
vn 0 -1 0
vn 0 -1 0
vn 1 0 0
vn 1 0 0
vn 1 0 0
vn 1 0 0
vn 0 0 1
vn 0 0 1
vn 0 0 1
vn 0 0 1
vn -0.9726563 -0.2313232 0
vn -0.8930664 -0.4499512 0
vn -0.8930664 -0.4499512 0
vn -0.9726563 -0.2313232 0
vn 0 -0.171875 0.9853516
vn 0 -0.9448242 0.3273926
vn 0 -0.9448242 0.3273926
vn 0 -0.171875 0.9853516
vn 0.9726563 -0.2313232 0
vn 0.8930664 -0.4499512 0
vn 0.8930664 -0.4499512 0
vn 0.9726563 -0.2313232 0
vn -1 0 0
vn -1 0 0
vn -1 0 0
vn -1 0 0
vn 0 0 1
vn 0 0 1
vn 0 0 1
vn 0 0 1
vn 1 0 0
vn 1 0 0
vn 1 0 0
vn 1 0 0
vn 0 -1 0
vn 0 -1 0
vn 0 -1 0
vn 0 -0.9448242 0.3273926
vn 0 -1 0
vn 0 -0.9448242 0.3273926
vn 0 -1 0
vn 0 -1 0
vn -1 0 0
vn -1 0 0
vn -1 0 0
vn -1 0 0
vn 0 1 0
vn 0 1 0
vn 0 1 0
vn 0 1 0
vn 1 0 0
vn 1 0 0
vn 1 0 0
vn 1 0 0
vn 0 0 1
vn 0 0 1
vn 0 0 1
vn 0 0 1
vn -1 0 0
vn -1 0 0
vn -1 0 0
vn -1 0 0
vn 0 1 0
vn 0 1 0
vn 0 1 0
vn 0 1 0
vn 1 0 0
vn 1 0 0
vn 1 0 0
vn 1 0 0
vn 0 -1 0
vn 0 -1 0
vn 0 -1 0
vn 0 -1 0
vn 0 0 1
vn 0 0 1
vn 0 0 1
vn 0 0 1
vn 0 0 -1
vn 0 0 -1
vn 0 0 -1
vn 0 0 -1
vn -0.7836914 0.5419922 -0.3039551
vn -0.7836914 0.5419922 -0.3039551
vn -0.7836914 0.5419922 -0.3039551
vn -0.7836914 0.5419922 -0.3039551
vn 0.3920898 0.8105469 0.4348145
vn 0.3920898 0.8105469 0.4348145
vn 0.3920898 0.8105469 0.4348145
vn 0.3920898 0.8105469 0.4348145
vn 0.7836914 -0.5419922 0.3039551
vn 0.7836914 -0.5419922 0.3039551
vn 0.7836914 -0.5419922 0.3039551
vn 0.7836914 -0.5419922 0.3039551
vn -0.3920898 -0.8105469 -0.4348145
vn -0.3920898 -0.8105469 -0.4348145
vn -0.3920898 -0.8105469 -0.4348145
vn -0.3920898 -0.8105469 -0.4348145
vn -0.4821777 -0.2214355 0.8476563
vn -0.4821777 -0.2214355 0.8476563
vn -0.4821777 -0.2214355 0.8476563
vn -0.4821777 -0.2214355 0.8476563
vn 0.4821777 0.2213135 -0.8476563
vn 0.4821777 0.2213135 -0.8476563
vn 0.4821777 0.2213135 -0.8476563
vn 0.4821777 0.2213135 -0.8476563
vn 0.8754883 0.001155853 0.4831543
vn 0.8754883 0.001155853 0.4831543
vn 0.8754883 0.001155853 0.4831543
vn 0.8754883 0.001155853 0.4831543
vn 0.4829102 -0.02133179 -0.8754883
vn 0.4829102 -0.02133179 -0.8754883
vn 0.4829102 -0.02133179 -0.8754883
vn 0.4829102 -0.02133179 -0.8754883
vn -0.8754883 -0.001152039 -0.4829102
vn -0.8754883 -0.001152039 -0.4829102
vn -0.8754883 -0.001152039 -0.4829102
vn -0.8754883 -0.001152039 -0.4829102
vn -0.4829102 0.02131653 0.8754883
vn -0.4829102 0.02131653 0.8754883
vn -0.4829102 0.02131653 0.8754883
vn -0.4829102 0.02131653 0.8754883
vn -0.009284973 -1 0.01922607
vn -0.009284973 -1 0.01922607
vn -0.009284973 -1 0.01922607
vn -0.009284973 -1 0.01922607
vn 0.009284973 1 -0.01922607
vn 0.009284973 1 -0.01922607
vn 0.009284973 1 -0.01922607
vn 0.009284973 1 -0.01922607
vn -0.8955078 0.315918 0.3134766
vn -0.8955078 0.315918 0.3134766
vn -0.8955078 0.315918 0.3134766
vn -0.8955078 0.315918 0.3134766
vn 0.3168945 0.9472656 -0.04998779
vn 0.3168945 0.9472656 -0.04998779
vn 0.3168945 0.9472656 -0.04998779
vn 0.3168945 0.9472656 -0.04998779
vn 0.8955078 -0.3161621 -0.3134766
vn 0.8955078 -0.3161621 -0.3134766
vn 0.8955078 -0.3161621 -0.3134766
vn 0.8955078 -0.3161621 -0.3134766
vn -0.3168945 -0.9472656 0.04998779
vn -0.3168945 -0.9472656 0.04998779
vn -0.3168945 -0.9472656 0.04998779
vn -0.3168945 -0.9472656 0.04998779
vn 0.3127441 -0.05456543 0.9482422
vn 0.3127441 -0.05456543 0.9482422
vn 0.3127441 -0.05456543 0.9482422
vn 0.3127441 -0.05456543 0.9482422
vn -0.3127441 0.05456543 -0.9482422
vn -0.3127441 0.05456543 -0.9482422
vn -0.3127441 0.05456543 -0.9482422
vn -0.3127441 0.05456543 -0.9482422
vn 0 1 0
vn 0 1 0
vn 0 1 0
vn 0 1 0
vn 0 1 0
vn 0 1 0
vn 0 1 0
vn 0 1 0
g Prop_Fireplace_01_0
f 3/3/3 2/2/2 1/1/1
f 4/4/4 3/3/3 1/1/1
f 7/7/7 6/6/6 5/5/5
f 8/8/8 7/7/7 5/5/5
f 11/11/11 10/10/10 9/9/9
f 12/12/12 11/11/11 9/9/9
f 15/15/15 14/14/14 13/13/13
f 16/16/16 15/15/15 13/13/13
f 17/17/17 15/15/15 16/16/16
f 18/18/18 17/17/17 16/16/16
f 19/19/19 17/17/17 18/18/18
f 20/20/20 19/19/19 18/18/18
f 23/23/23 22/22/22 21/21/21
f 22/22/22 24/24/24 21/21/21
f 21/21/21 24/24/24 25/25/25
f 24/24/24 26/26/26 25/25/25
f 25/25/25 26/26/26 27/27/27
f 26/26/26 28/28/28 27/27/27
f 31/31/31 30/30/30 29/29/29
f 32/32/32 31/31/31 29/29/29
f 35/35/35 34/34/34 33/33/33
f 36/36/36 35/35/35 33/33/33
f 39/39/39 38/38/38 37/37/37
f 40/40/40 39/39/39 37/37/37
f 43/43/43 42/42/42 41/41/41
f 44/44/44 43/43/43 41/41/41
f 45/45/45 43/43/43 44/44/44
f 46/46/46 45/45/45 44/44/44
f 47/47/47 45/45/45 46/46/46
f 48/48/48 47/47/47 46/46/46
f 51/51/51 50/50/50 49/49/49
f 52/52/52 51/51/51 49/49/49
f 55/55/55 54/54/54 53/53/53
f 56/56/56 55/55/55 53/53/53
f 59/59/59 58/58/58 57/57/57
f 60/60/60 59/59/59 57/57/57
f 63/63/63 62/62/62 61/61/61
f 64/64/64 63/63/63 61/61/61
f 67/67/67 66/66/66 65/65/65
f 68/68/68 67/67/67 65/65/65
f 71/71/71 70/70/70 69/69/69
f 72/72/72 71/71/71 69/69/69
f 75/75/75 74/74/74 73/73/73
f 76/76/76 75/75/75 73/73/73
f 79/79/79 78/78/78 77/77/77
f 80/80/80 79/79/79 77/77/77
f 83/83/83 82/82/82 81/81/81
f 84/84/84 83/83/83 81/81/81
f 87/87/87 86/86/86 85/85/85
f 88/88/88 87/87/87 85/85/85
f 91/91/91 90/90/90 89/89/89
f 92/92/92 91/91/91 89/89/89
f 93/93/93 91/91/91 92/92/92
f 94/94/94 93/93/93 92/92/92
f 95/95/95 93/93/93 94/94/94
f 96/96/96 95/95/95 94/94/94
f 99/99/99 98/98/98 97/97/97
f 100/100/100 99/99/99 97/97/97
f 103/103/103 102/102/102 101/101/101
f 104/104/104 103/103/103 101/101/101
f 107/107/107 106/106/106 105/105/105
f 108/108/108 107/107/107 105/105/105
f 111/111/111 110/110/110 109/109/109
f 112/112/112 111/111/111 109/109/109
f 115/115/115 114/114/114 113/113/113
f 116/116/116 115/115/115 113/113/113
f 119/119/119 118/118/118 117/117/117
f 120/120/120 119/119/119 117/117/117
f 123/123/123 122/122/122 121/121/121
f 124/124/124 123/123/123 121/121/121
f 127/127/127 126/126/126 125/125/125
f 128/128/128 127/127/127 125/125/125
f 131/131/131 130/130/130 129/129/129
f 132/132/132 131/131/131 129/129/129
f 135/135/135 134/134/134 133/133/133
f 136/136/136 135/135/135 133/133/133
f 139/139/139 138/138/138 137/137/137
f 140/140/140 139/139/139 137/137/137
f 143/143/143 142/142/142 141/141/141
f 144/144/144 143/143/143 141/141/141
f 147/147/147 146/146/146 145/145/145
f 148/148/148 147/147/147 145/145/145
f 151/151/151 150/150/150 149/149/149
f 152/152/152 151/151/151 149/149/149
f 155/155/155 154/154/154 153/153/153
f 156/156/156 155/155/155 153/153/153
f 159/159/159 158/158/158 157/157/157
f 160/160/160 159/159/159 157/157/157
f 163/163/163 162/162/162 161/161/161
f 164/164/164 163/163/163 161/161/161
f 167/167/167 166/166/166 165/165/165
f 168/168/168 167/167/167 165/165/165
f 171/171/171 170/170/170 169/169/169
f 172/172/172 171/171/171 169/169/169
f 175/175/175 174/174/174 173/173/173
f 176/176/176 175/175/175 173/173/173
f 179/179/179 178/178/178 177/177/177
f 180/180/180 179/179/179 177/177/177
f 183/183/183 182/182/182 181/181/181
f 184/184/184 183/183/183 181/181/181
f 187/187/187 186/186/186 185/185/185
f 188/188/188 187/187/187 185/185/185
f 191/191/191 190/190/190 189/189/189
f 192/192/192 191/191/191 189/189/189
f 195/195/195 194/194/194 193/193/193
f 196/196/196 195/195/195 193/193/193
f 199/199/199 198/198/198 197/197/197
f 200/200/200 199/199/199 197/197/197
f 203/203/203 202/202/202 201/201/201
f 204/204/204 203/203/203 201/201/201
f 207/207/207 206/206/206 205/205/205
f 208/208/208 207/207/207 205/205/205
f 211/211/211 210/210/210 209/209/209
f 212/212/212 211/211/211 209/209/209
f 209/209/209 210/210/210 213/213/213
f 214/214/214 211/211/211 212/212/212
f 210/210/210 215/215/215 213/213/213
f 216/216/216 214/214/214 212/212/212
f 213/213/213 215/215/215 216/216/216
f 215/215/215 214/214/214 216/216/216
