g Prop_PowerPoint
v -0.06887412 -0.1198813 -0.01297641
v -0.06887412 0.1198813 -0.01297641
v -0.06887412 0.1198813 0.01297641
v -0.06887412 -0.1198813 0.01297641
v 0.06887412 0.1198813 0.01297641
v -0.06887412 0.1198813 0.01297641
v -0.06887412 0.1198813 -0.01297641
v 0.06887412 0.1198813 -0.01297641
v 0.06887412 0.1198813 -0.01297641
v 0.06887412 -0.1198813 -0.01297641
v 0.06887412 -0.1198813 0.01297641
v 0.06887412 0.1198813 0.01297641
v 0.006959677 0.08270478 0.01297641
v 0.02257371 0.08270478 0.01297641
v 0.02257371 0.03134692 0.01297641
v 0.006959677 0.03134692 0.01297641
v -0.06887412 -0.1198813 -0.01297641
v -0.06887412 -0.1198813 0.01297641
v 0.06887412 -0.1198813 0.01297641
v 0.06887412 -0.1198813 -0.01297641
v 0.02257371 -0.08270478 0.01297641
v 0.02257371 0.03134692 0.01297641
v 0.02257371 0.08270478 0.01297641
v 0.02257371 -0.03134692 0.01297641
v 0.006959677 -0.03134692 0.01297641
v 0.02257371 -0.03134692 0.01297641
v 0.02257371 -0.08270478 0.01297641
v 0.006959677 -0.08270478 0.01297641
v 0.02257371 -0.03134692 0.01297641
v 0.006959677 0.03134692 0.01297641
v 0.02257371 0.03134692 0.01297641
v 0.006959677 -0.03134692 0.01297641
v -0.006959677 0.03134692 0.01297641
v -0.006959677 0.08270478 0.01297641
v 0.006959677 0.08270478 0.01297641
v -0.006959677 -0.03134692 0.01297641
v -0.02257371 0.03134692 0.01297641
v -0.006959677 -0.08270478 0.01297641
v -0.02257371 -0.03134692 0.01297641
v 0.006959677 -0.08270478 0.01297641
v -0.06887412 0.1198813 0.01297641
v -0.02257371 0.08270478 0.01297641
v -0.02257371 -0.08270478 0.01297641
v -0.06887412 -0.1198813 0.01297641
v 0.06887412 0.1198813 0.01297641
v 0.02257371 0.08270478 0.01297641
v 0.06887412 -0.1198813 0.01297641
v 0.02257371 -0.08270478 0.01297641
v -0.02257371 0.03134692 0.01297641
v -0.02257371 0.08270478 0.01297641
v -0.006959677 0.08270478 0.01297641
v -0.006959677 0.03134692 0.01297641
v -0.02257371 -0.08270478 0.01297641
v -0.02257371 -0.03134692 0.01297641
v -0.006959677 -0.03134692 0.01297641
v -0.006959677 -0.08270478 0.01297641
vt 0.2678223 0.4746094
vt 0.2678223 0.4746094
vt 0.2678223 0.4746094
vt 0.2678223 0.4746094
vt 0.3251953 0.4770508
vt 0.3251953 0.4770508
vt 0.3251953 0.4770508
vt 0.3251953 0.4770508
vt 0.2678223 0.4746094
vt 0.2678223 0.4746094
vt 0.2678223 0.4746094
vt 0.2678223 0.4746094
vt 0.08099365 0.4797363
vt 0.08099365 0.4797363
vt 0.08099365 0.4797363
vt 0.08099365 0.4797363
vt 0.2922363 0.4731445
vt 0.2922363 0.4812012
vt 0.300293 0.4812012
vt 0.300293 0.4731445
vt 0.2973633 0.4794922
vt 0.2973633 0.4794922
vt 0.2973633 0.4794922
vt 0.2973633 0.4794922
vt 0.08099365 0.4797363
vt 0.08099365 0.4797363
vt 0.08099365 0.4797363
vt 0.08099365 0.4797363
vt 0.2973633 0.4794922
vt 0.2973633 0.4794922
vt 0.2973633 0.4794922
vt 0.2973633 0.4794922
vt 0.2973633 0.4794922
vt 0.2973633 0.4794922
vt 0.2973633 0.4794922
vt 0.2973633 0.4794922
vt 0.2973633 0.4794922
vt 0.2973633 0.4794922
vt 0.2973633 0.4794922
vt 0.2973633 0.4794922
vt 0.2973633 0.4794922
vt 0.2973633 0.4794922
vt 0.2973633 0.4794922
vt 0.2973633 0.4794922
vt 0.2973633 0.4794922
vt 0.2973633 0.4794922
vt 0.2973633 0.4794922
vt 0.2973633 0.4794922
vt 0.08099365 0.4797363
vt 0.08099365 0.4797363
vt 0.08099365 0.4797363
vt 0.08099365 0.4797363
vt 0.08099365 0.4797363
vt 0.08099365 0.4797363
vt 0.08099365 0.4797363
vt 0.08099365 0.4797363
vn -1 0 0
vn -1 0 0
vn -1 0 0
vn -1 0 0
vn 0 1 0
vn 0 1 0
vn 0 1 0
vn 0 1 0
vn 1 0 0
vn 1 0 0
vn 1 0 0
vn 1 0 0
vn 0 0 1
vn 0 0 1
vn 0 0 1
vn 0 0 1
vn 0 -1 0
vn 0 -1 0
vn 0 -1 0
vn 0 -1 0
vn 0 1 0
vn 0 1 0
vn 0 1 0
vn 0 1 0
vn 0 0 1
vn 0 0 1
vn 0 0 1
vn 0 0 1
vn 0 0 1
vn 0 0 1
vn 0 0 1
vn 0 0 1
vn 0 0 1
vn 0 0 1
vn 0 0 1
vn 0 0 1
vn 0 0 1
vn 0 0 1
vn 0 0 1
vn 0 0 1
vn 0 0 1
vn 0 0 1
vn 0 0 1
vn 0 0 1
vn 0 0 1
vn 0 0 1
vn 0 0 1
vn 0 0 1
vn 0 0 1
vn 0 0 1
vn 0 0 1
vn 0 0 1
vn 0 0 1
vn 0 0 1
vn 0 0 1
vn 0 0 1
g Prop_PowerPoint_0
f 3/3/3 2/2/2 1/1/1
f 4/4/4 3/3/3 1/1/1
f 7/7/7 6/6/6 5/5/5
f 8/8/8 7/7/7 5/5/5
f 11/11/11 10/10/10 9/9/9
f 12/12/12 11/11/11 9/9/9
f 15/15/15 14/14/14 13/13/13
f 16/16/16 15/15/15 13/13/13
f 19/19/19 18/18/18 17/17/17
f 20/20/20 19/19/19 17/17/17
f 23/23/23 22/22/22 21/21/21
f 22/22/22 24/24/24 21/21/21
f 27/27/27 26/26/26 25/25/25
f 28/28/28 27/27/27 25/25/25
f 31/31/31 30/30/30 29/29/29
f 30/30/30 32/32/32 29/29/29
f 30/30/30 33/33/33 32/32/32
f 34/34/34 33/33/33 30/30/30
f 35/35/35 34/34/34 30/30/30
f 33/33/33 36/36/36 32/32/32
f 33/33/33 37/37/37 36/36/36
f 32/32/32 36/36/36 38/38/38
f 37/37/37 39/39/39 36/36/36
f 40/40/40 32/32/32 38/38/38
f 41/41/41 39/39/39 37/37/37
f 37/37/37 42/42/42 41/41/41
f 41/41/41 42/42/42 34/34/34
f 41/41/41 43/43/43 39/39/39
f 41/41/41 44/44/44 43/43/43
f 38/38/38 43/43/43 44/44/44
f 45/45/45 41/41/41 34/34/34
f 35/35/35 45/45/45 34/34/34
f 35/35/35 46/46/46 45/45/45
f 38/38/38 44/44/44 47/47/47
f 40/40/40 38/38/38 47/47/47
f 47/47/47 45/45/45 46/46/46
f 47/47/47 48/48/48 40/40/40
f 46/46/46 48/48/48 47/47/47
f 51/51/51 50/50/50 49/49/49
f 52/52/52 51/51/51 49/49/49
f 55/55/55 54/54/54 53/53/53
f 56/56/56 55/55/55 53/53/53
