g Prop_RangeHood
v -0.500001 2.165885 -0.2972341
v -0.5000095 2.197896 -0.2972417
v -0.5000095 2.197896 0.2972412
v -0.500001 2.165885 0.2972336
v 0.5000095 2.197896 -0.3156042
v 0.500001 2.165885 -0.3155966
v 0.500001 2.165885 0.2972336
v 0.5000095 2.197896 0.2972336
v 0.4653454 2.124774 -0.3506279
v -0.4653459 2.124774 -0.3506279
v -0.4653459 2.124774 0.3506274
v 0.4653454 2.124774 0.3506269
v -0.5 2.124774 0.3767385
v -0.5000105 2.322559 0.3767481
v 0.5000105 2.322559 0.3767481
v 0.5 2.124774 0.3767385
v -0.5000105 2.494758 -0.3767486
v -0.1867723 2.494758 -0.3767486
v -0.1867723 2.42599 -0.09653568
v -0.5000105 2.322559 0.3767481
v 0.1867723 2.42599 -0.09653568
v 0.5000105 2.322559 0.3767481
v 0.1867723 2.494758 -0.376749
v 0.5000105 2.494758 -0.376749
v -0.1867723 2.494758 -0.3767486
v -0.1867723 4.393991 -0.3767486
v -0.1867723 4.393991 -0.09653568
v -0.1867723 2.42599 -0.09653568
v -0.1867723 2.42599 -0.09653568
v -0.1867723 4.393991 -0.09653568
v 0.1867723 4.393991 -0.09653568
v 0.1867723 2.42599 -0.09653568
v 0.1867723 2.42599 -0.09653568
v 0.1867723 4.393991 -0.09653568
v 0.1867723 4.393991 -0.376749
v 0.1867723 2.494758 -0.376749
v -0.5000105 2.258203 0.2972412
v -0.5000095 2.224401 0.2972412
v -0.5000095 2.224401 -0.2972417
v -0.5000105 2.258203 -0.2972417
v 0.5000105 2.258203 -0.3156052
v 0.5000095 2.224401 -0.3156052
v 0.5000095 2.224401 0.2972336
v 0.5000105 2.258203 0.2972336
v -0.5 2.124774 -0.376739
v -0.500001 2.165885 -0.2972341
v -0.500001 2.165885 0.2972336
v -0.5000095 2.197896 -0.2972417
v -0.5 2.124774 0.3767385
v -0.5000095 2.197896 0.2972412
v -0.5000105 2.494758 -0.3767486
v -0.5000105 2.322559 0.3767481
v -0.5000105 2.258203 -0.2972417
v -0.5000105 2.258203 0.2972412
v -0.5000095 2.224401 -0.2972417
v -0.5000095 2.224401 0.2972412
v 0.5000095 2.197896 0.2972336
v 0.500001 2.165885 0.2972336
v 0.5 2.124774 0.3767385
v 0.500001 2.165885 -0.3155966
v 0.5 2.124774 -0.3767385
v 0.5000095 2.197896 -0.3156042
v 0.5000105 2.322559 0.3767481
v 0.5000105 2.494758 -0.376749
v 0.5000105 2.258203 0.2972336
v 0.5000105 2.258203 -0.3156052
v 0.5000095 2.224401 0.2972336
v 0.5000095 2.224401 -0.3156052
v -0.5 2.124774 0.3767385
v -0.4653459 2.124774 -0.3506279
v -0.5 2.124774 -0.376739
v -0.4653459 2.124774 0.3506274
v 0.4653454 2.124774 -0.3506279
v 0.5 2.124774 0.3767385
v 0.5 2.124774 -0.3767385
v 0.4653454 2.124774 0.3506269
vt 0.04455566 0.4729004
vt 0.04455566 0.4729004
vt 0.04455566 0.4729004
vt 0.04455566 0.4729004
vt 0.04208374 0.4741211
vt 0.04208374 0.4741211
vt 0.04208374 0.4741211
vt 0.04208374 0.4741211
vt 0.04702759 0.4777832
vt 0.04702759 0.4777832
vt 0.04702759 0.4777832
vt 0.04702759 0.4777832
vt 0.4536133 0.2661133
vt 0.4536133 0.2661133
vt 0.4536133 0.2661133
vt 0.4536133 0.2661133
vt 0.453125 0.2661133
vt 0.453125 0.2661133
vt 0.453125 0.2661133
vt 0.453125 0.2661133
vt 0.453125 0.2661133
vt 0.453125 0.2661133
vt 0.453125 0.2661133
vt 0.453125 0.2661133
vt 0.2668457 0.263916
vt 0.2668457 0.263916
vt 0.2668457 0.263916
vt 0.2668457 0.263916
vt 0.3879395 0.263916
vt 0.3879395 0.263916
vt 0.3879395 0.263916
vt 0.3879395 0.263916
vt 0.2668457 0.263916
vt 0.2668457 0.263916
vt 0.2668457 0.263916
vt 0.2668457 0.263916
vt 0.04455566 0.4729004
vt 0.04455566 0.4729004
vt 0.04455566 0.4729004
vt 0.04455566 0.4729004
vt 0.04208374 0.4741211
vt 0.04208374 0.4741211
vt 0.04208374 0.4741211
vt 0.04208374 0.4741211
vt 0.3884277 0.2666016
vt 0.3884277 0.2666016
vt 0.3884277 0.2666016
vt 0.3884277 0.2666016
vt 0.3884277 0.2666016
vt 0.3884277 0.2666016
vt 0.3884277 0.2666016
vt 0.3884277 0.2666016
vt 0.3884277 0.2666016
vt 0.3884277 0.2666016
vt 0.3884277 0.2666016
vt 0.3884277 0.2666016
vt 0.3884277 0.2666016
vt 0.3884277 0.2666016
vt 0.3884277 0.2666016
vt 0.3884277 0.2666016
vt 0.3884277 0.2666016
vt 0.3884277 0.2666016
vt 0.3884277 0.2666016
vt 0.3884277 0.2666016
vt 0.3884277 0.2666016
vt 0.3884277 0.2666016
vt 0.3884277 0.2666016
vt 0.3884277 0.2666016
vt 0.1727295 0.265625
vt 0.1727295 0.265625
vt 0.1727295 0.265625
vt 0.1727295 0.265625
vt 0.1727295 0.265625
vt 0.1727295 0.265625
vt 0.1727295 0.265625
vt 0.1727295 0.265625
vn -1 -8.934736E-05 0
vn -1 -5.364418E-05 0
vn -1 -5.364418E-05 0
vn -1 -8.934736E-05 0
vn 1 -5.364418E-05 0
vn 1 -8.940697E-05 0
vn 1 -8.940697E-05 0
vn 1 -5.364418E-05 0
vn 0 -1 0
vn 0 -1 0
vn 0 -1 0
vn 0 -1 0
vn 0 -4.822016E-05 1
vn 0 -4.822016E-05 1
vn 0 -4.822016E-05 1
vn 0 -4.822016E-05 1
vn 0.0107193 0.9736328 0.2270508
vn 0.0107193 0.9736328 0.2270508
vn 0.00535965 0.9755859 0.2202148
vn 0.00535965 0.9755859 0.2202148
vn -0.00535965 0.9755859 0.2202148
vn -0.00535965 0.9755859 0.2202148
vn -0.0107193 0.9736328 0.2270508
vn -0.0107193 0.9736328 0.2270508
vn -1 0 0
vn -1 0 0
vn -1 0 0
vn -1 0 0
vn 0 0 1
vn 0 0 1
vn 0 0 1
vn 0 0 1
vn 1 0 0
vn 1 0 0
vn 1 0 0
vn 1 0 0
vn -1 0 0
vn -1 0 0
vn -1 0 0
vn -1 0 0
vn 1 0 0
vn 1 0 0
vn 1 0 0
vn 1 0 0
vn -1 0 0
vn -1 -8.934736E-05 0
vn -1 -8.934736E-05 0
vn -1 -5.364418E-05 0
vn -1 0 0
vn -1 -5.364418E-05 0
vn -1 0 0
vn -1 0 0
vn -1 0 0
vn -1 0 0
vn -1 0 0
vn -1 0 0
vn 1 -5.364418E-05 0
vn 1 -8.940697E-05 0
vn 1 0 0
vn 1 -8.940697E-05 0
vn 1 0 0
vn 1 -5.364418E-05 0
vn 1 0 0
vn 1 0 0
vn 1 0 0
vn 1 0 0
vn 1 0 0
vn 1 0 0
vn 0 -1 0
vn 0 -1 0
vn 0 -1 0
vn 0 -1 0
vn 0 -1 0
vn 0 -1 0
vn 0 -1 0
vn 0 -1 0
g Prop_RangeHood_0
f 3/3/3 2/2/2 1/1/1
f 4/4/4 3/3/3 1/1/1
f 7/7/7 6/6/6 5/5/5
f 8/8/8 7/7/7 5/5/5
f 11/11/11 10/10/10 9/9/9
f 12/12/12 11/11/11 9/9/9
f 15/15/15 14/14/14 13/13/13
f 16/16/16 15/15/15 13/13/13
f 19/19/19 18/18/18 17/17/17
f 20/20/20 19/19/19 17/17/17
f 21/21/21 19/19/19 20/20/20
f 22/22/22 21/21/21 20/20/20
f 23/23/23 21/21/21 22/22/22
f 24/24/24 23/23/23 22/22/22
f 27/27/27 26/26/26 25/25/25
f 28/28/28 27/27/27 25/25/25
f 31/31/31 30/30/30 29/29/29
f 32/32/32 31/31/31 29/29/29
f 35/35/35 34/34/34 33/33/33
f 36/36/36 35/35/35 33/33/33
f 39/39/39 38/38/38 37/37/37
f 40/40/40 39/39/39 37/37/37
f 43/43/43 42/42/42 41/41/41
f 44/44/44 43/43/43 41/41/41
f 47/47/47 46/46/46 45/45/45
f 45/45/45 46/46/46 48/48/48
f 49/49/49 47/47/47 45/45/45
f 50/50/50 47/47/47 49/49/49
f 45/45/45 48/48/48 51/51/51
f 52/52/52 50/50/50 49/49/49
f 51/51/51 53/53/53 52/52/52
f 53/53/53 54/54/54 52/52/52
f 52/52/52 54/54/54 50/50/50
f 55/55/55 53/53/53 51/51/51
f 48/48/48 55/55/55 51/51/51
f 54/54/54 56/56/56 50/50/50
f 56/56/56 55/55/55 48/48/48
f 50/50/50 56/56/56 48/48/48
f 59/59/59 58/58/58 57/57/57
f 60/60/60 58/58/58 59/59/59
f 61/61/61 60/60/60 59/59/59
f 62/62/62 60/60/60 61/61/61
f 59/59/59 57/57/57 63/63/63
f 64/64/64 62/62/62 61/61/61
f 63/63/63 65/65/65 64/64/64
f 65/65/65 66/66/66 64/64/64
f 64/64/64 66/66/66 62/62/62
f 67/67/67 65/65/65 63/63/63
f 57/57/57 67/67/67 63/63/63
f 66/66/66 68/68/68 62/62/62
f 68/68/68 67/67/67 57/57/57
f 62/62/62 68/68/68 57/57/57
f 71/71/71 70/70/70 69/69/69
f 70/70/70 72/72/72 69/69/69
f 73/73/73 70/70/70 71/71/71
f 69/69/69 72/72/72 74/74/74
f 75/75/75 73/73/73 71/71/71
f 72/72/72 76/76/76 74/74/74
f 76/76/76 73/73/73 75/75/75
f 74/74/74 76/76/76 75/75/75
