g Prop_Cupboards
v 0 0 1.192093E-07
v 0 -1.151078 0.1982371
v 0 0 0.1982371
v 0 -1.151078 1.192093E-07
v -0.9831123 -0.7001672 0.2313946
v -0.9831123 -0.440835 0.2313946
v -0.913928 -0.440835 0.2313946
v -0.913928 -0.7001672 0.2313946
v -0.6995001 -0.440835 0.2313946
v -0.6303158 -0.440835 0.2313949
v -0.6303158 -0.7001672 0.2313949
v -0.6995001 -0.7001672 0.2313946
v -0.9831123 -0.7001672 0.1982368
v -0.9831123 -0.7001672 0.2313946
v -0.913928 -0.7001672 0.2313946
v -0.913928 -0.7001672 0.1982368
v -0.913928 -0.7001672 0.1982368
v -0.913928 -0.7001672 0.2313946
v -0.913928 -0.440835 0.2313946
v -0.913928 -0.440835 0.1982368
v -0.913928 -0.440835 0.1982368
v -0.913928 -0.440835 0.2313946
v -0.9831123 -0.440835 0.2313946
v -0.9831123 -0.440835 0.1982368
v -0.9831123 -0.440835 0.1982368
v -0.9831123 -0.440835 0.2313946
v -0.9831123 -0.7001672 0.2313946
v -0.9831123 -0.7001672 0.1982368
v -0.6995001 -0.440835 0.1982368
v -0.6995001 -0.440835 0.2313946
v -0.6995001 -0.7001672 0.2313946
v -0.6995001 -0.7001672 0.1982368
v -0.6995001 -0.7001672 0.1982368
v -0.6995001 -0.7001672 0.2313946
v -0.6303158 -0.7001672 0.2313949
v -0.6303158 -0.7001672 0.1982371
v -0.6303158 -0.7001672 0.1982371
v -0.6303158 -0.7001672 0.2313949
v -0.6303158 -0.440835 0.2313949
v -0.6303158 -0.440835 0.1982371
v -0.6303158 -0.440835 0.1982371
v -0.6303158 -0.440835 0.2313949
v -0.6995001 -0.440835 0.2313946
v -0.6995001 -0.440835 0.1982368
v 0 -1.151078 0.1982371
v 0 -1.151078 1.192093E-07
v -0.8067141 -1.151078 0.1982371
v -1.613428 -1.151078 0.1982369
v -1.613428 -1.151078 0
v -1.613428 0 0.1982369
v 0 0 1.192093E-07
v 0 0 0.1982371
v -1.613428 0 0
v -1.613428 -1.151078 0.1982369
v -1.613428 -1.151078 0
v -1.613428 0 0
v -1.613428 0 0.1982369
v -1.613428 0 0.1982369
v -1.573092 -0.0419054 0.1982369
v -1.573092 -1.098011 0.1982369
v -0.8470497 -0.0419054 0.1982371
v -1.613428 -1.151078 0.1982369
v -0.8470497 -1.098011 0.1982371
v -0.8067141 -1.151078 0.1982371
v 0 0 0.1982371
v -0.7663784 -1.098011 0.1982371
v -0.04033566 -1.098011 0.1982371
v -0.7663784 -0.0419054 0.1982371
v 0 -1.151078 0.1982371
v -0.04033566 -0.0419054 0.1982371
v -0.7663784 -0.0419054 0.1982371
v -0.6995001 -0.440835 0.1982368
v -0.6995001 -0.7001672 0.1982368
v -0.7663784 -1.098011 0.1982371
v -0.04033566 -0.0419054 0.1982371
v -0.6303158 -0.7001672 0.1982371
v -0.6303158 -0.440835 0.1982371
v -0.04033566 -1.098011 0.1982371
v -1.573092 -1.098011 0.1982369
v -0.9831123 -0.7001672 0.1982368
v -0.913928 -0.7001672 0.1982368
v -0.8470497 -1.098011 0.1982371
v -1.573092 -0.0419054 0.1982369
v -0.913928 -0.440835 0.1982368
v -0.9831123 -0.440835 0.1982368
v -0.8470497 -0.0419054 0.1982371
vt 0.2971191 0.4812012
vt 0.2971191 0.4812012
vt 0.2971191 0.4812012
vt 0.2971191 0.4812012
vt 0.2059326 0.4785156
vt 0.2059326 0.4785156
vt 0.2059326 0.4785156
vt 0.2059326 0.4785156
vt 0.2059326 0.4785156
vt 0.2059326 0.4785156
vt 0.2059326 0.4785156
vt 0.2059326 0.4785156
vt 0.1680908 0.3288574
vt 0.1680908 0.3288574
vt 0.1680908 0.3288574
vt 0.1680908 0.3288574
vt 0.1394043 0.3288574
vt 0.1394043 0.3288574
vt 0.1394043 0.3288574
vt 0.1394043 0.3288574
vt 0.2663574 0.3295898
vt 0.2663574 0.3295898
vt 0.2663574 0.3295898
vt 0.2663574 0.3295898
vt 0.1394043 0.3288574
vt 0.1394043 0.3288574
vt 0.1394043 0.3288574
vt 0.1394043 0.3288574
vt 0.1394043 0.3288574
vt 0.1394043 0.3288574
vt 0.1394043 0.3288574
vt 0.1394043 0.3288574
vt 0.1680908 0.3288574
vt 0.1680908 0.3288574
vt 0.1680908 0.3288574
vt 0.1680908 0.3288574
vt 0.1394043 0.3288574
vt 0.1394043 0.3288574
vt 0.1394043 0.3288574
vt 0.1394043 0.3288574
vt 0.2663574 0.3295898
vt 0.2663574 0.3295898
vt 0.2663574 0.3295898
vt 0.2663574 0.3295898
vt 0.2365723 0.4731445
vt 0.2365723 0.4731445
vt 0.2365723 0.4731445
vt 0.2365723 0.4731445
vt 0.2365723 0.4731445
vt 0.3867188 0.4748535
vt 0.3867188 0.4748535
vt 0.3867188 0.4748535
vt 0.3867188 0.4748535
vt 0.2971191 0.4812012
vt 0.2971191 0.4812012
vt 0.2971191 0.4812012
vt 0.2971191 0.4812012
vt 0.361084 0.4753418
vt 0.361084 0.4753418
vt 0.361084 0.4753418
vt 0.361084 0.4753418
vt 0.361084 0.4753418
vt 0.361084 0.4753418
vt 0.361084 0.4753418
vt 0.361084 0.4753418
vt 0.361084 0.4753418
vt 0.361084 0.4753418
vt 0.361084 0.4753418
vt 0.361084 0.4753418
vt 0.361084 0.4753418
vt 0.3588867 0.08569336
vt 0.3588867 0.08569336
vt 0.3588867 0.08569336
vt 0.3588867 0.08569336
vt 0.3588867 0.08569336
vt 0.3588867 0.08569336
vt 0.3588867 0.08569336
vt 0.3588867 0.08569336
vt 0.3588867 0.08569336
vt 0.3588867 0.08569336
vt 0.3588867 0.08569336
vt 0.3588867 0.08569336
vt 0.3588867 0.08569336
vt 0.3588867 0.08569336
vt 0.3588867 0.08569336
vt 0.3588867 0.08569336
vn 1 0 0
vn 1 0 0
vn 1 0 0
vn 1 0 0
vn 0 0 1
vn 0 0 1
vn 0 0 1
vn 0 0 1
vn 0 0 1
vn 0 0 1
vn 0 0 1
vn 0 0 1
vn 0 -1 0
vn 0 -1 0
vn 0 -1 0
vn 0 -1 0
vn 1 0 0
vn 1 0 0
vn 1 0 0
vn 1 0 0
vn 0 1 0
vn 0 1 0
vn 0 1 0
vn 0 1 0
vn -1 0 0
vn -1 0 0
vn -1 0 0
vn -1 0 0
vn -1 0 0
vn -1 0 0
vn -1 0 0
vn -1 0 0
vn 0 -1 0
vn 0 -1 0
vn 0 -1 0
vn 0 -1 0
vn 1 0 0
vn 1 0 0
vn 1 0 0
vn 1 0 0
vn 0 1 0
vn 0 1 0
vn 0 1 0
vn 0 1 0
vn 0 -1 0
vn 0 -1 0
vn 0 -1 0
vn 0 -1 0
vn 0 -1 0
vn 0 1 0
vn 0 1 0
vn 0 1 0
vn 0 1 0
vn -1 0 0
vn -1 0 0
vn -1 0 0
vn -1 0 0
vn 0 0 1
vn 0 0 1
vn 0 0 1
vn 0 0 1
vn 0 0 1
vn 0 0 1
vn 0 0 1
vn 0 0 1
vn 0 0 1
vn 0 0 1
vn 0 0 1
vn 0 0 1
vn 0 0 1
vn 0 0 1
vn 0 0 1
vn 0 0 1
vn 0 0 1
vn 0 0 1
vn 0 0 1
vn 0 0 1
vn 0 0 1
vn 0 0 1
vn 0 0 1
vn 0 0 1
vn 0 0 1
vn 0 0 1
vn 0 0 1
vn 0 0 1
vn 0 0 1
g Prop_Cupboards_0
f 3/3/3 2/2/2 1/1/1
f 2/2/2 4/4/4 1/1/1
f 7/7/7 6/6/6 5/5/5
f 8/8/8 7/7/7 5/5/5
f 11/11/11 10/10/10 9/9/9
f 12/12/12 11/11/11 9/9/9
f 15/15/15 14/14/14 13/13/13
f 16/16/16 15/15/15 13/13/13
f 19/19/19 18/18/18 17/17/17
f 20/20/20 19/19/19 17/17/17
f 23/23/23 22/22/22 21/21/21
f 24/24/24 23/23/23 21/21/21
f 27/27/27 26/26/26 25/25/25
f 28/28/28 27/27/27 25/25/25
f 31/31/31 30/30/30 29/29/29
f 32/32/32 31/31/31 29/29/29
f 35/35/35 34/34/34 33/33/33
f 36/36/36 35/35/35 33/33/33
f 39/39/39 38/38/38 37/37/37
f 40/40/40 39/39/39 37/37/37
f 43/43/43 42/42/42 41/41/41
f 44/44/44 43/43/43 41/41/41
f 47/47/47 46/46/46 45/45/45
f 48/48/48 46/46/46 47/47/47
f 49/49/49 46/46/46 48/48/48
f 52/52/52 51/51/51 50/50/50
f 50/50/50 51/51/51 53/53/53
f 56/56/56 55/55/55 54/54/54
f 57/57/57 56/56/56 54/54/54
f 60/60/60 59/59/59 58/58/58
f 58/58/58 59/59/59 61/61/61
f 62/62/62 60/60/60 58/58/58
f 63/63/63 60/60/60 62/62/62
f 64/64/64 63/63/63 62/62/62
f 61/61/61 63/63/63 64/64/64
f 58/58/58 61/61/61 65/65/65
f 61/61/61 64/64/64 66/66/66
f 67/67/67 66/66/66 64/64/64
f 66/66/66 68/68/68 61/61/61
f 61/61/61 68/68/68 65/65/65
f 69/69/69 67/67/67 64/64/64
f 70/70/70 65/65/65 68/68/68
f 70/70/70 67/67/67 69/69/69
f 65/65/65 70/70/70 69/69/69
f 73/73/73 72/72/72 71/71/71
f 74/74/74 73/73/73 71/71/71
f 71/71/71 72/72/72 75/75/75
f 76/76/76 73/73/73 74/74/74
f 72/72/72 77/77/77 75/75/75
f 78/78/78 76/76/76 74/74/74
f 75/75/75 77/77/77 78/78/78
f 77/77/77 76/76/76 78/78/78
f 81/81/81 80/80/80 79/79/79
f 82/82/82 81/81/81 79/79/79
f 79/79/79 80/80/80 83/83/83
f 84/84/84 81/81/81 82/82/82
f 80/80/80 85/85/85 83/83/83
f 86/86/86 84/84/84 82/82/82
f 83/83/83 85/85/85 86/86/86
f 85/85/85 84/84/84 86/86/86
