g refrigerator3_PLY
v 2.146096 0.5318365 1.424323
v 2.146096 0 1.424323
v 1.816232 0.1687393 1.424323
v -2.146096 0.5318365 1.424323
v -1.816231 0.1687393 1.424323
v -2.146096 0 1.424323
v 2.146096 0.5318365 -1.931985
v 2.146096 0 -1.931985
v 2.146096 0 1.424323
v 2.146096 0.5318365 1.424323
v 2.146096 3.512161 -1.931985
v 2.146096 3.512161 1.424323
v 2.146096 7.398682 -1.931985
v 2.146096 7.398682 1.424323
v 1.816232 7.728546 1.424323
v 1.816232 7.728546 -1.931985
v 2.146096 7.398682 -1.931985
v 2.146096 7.398682 1.424323
v 9.536743E-07 0 1.424323
v 2.146096 0 1.424323
v 2.146096 0 -1.931985
v 9.536743E-07 0 -1.931985
v -2.146096 0 -1.931985
v -2.146096 0 1.424323
v 9.536743E-07 7.728546 -1.931985
v 1.816232 7.728546 -1.931985
v 1.816232 7.728546 1.424323
v 9.536743E-07 7.728546 1.424323
v -1.816231 7.728546 1.424323
v -1.816231 7.728546 -1.931985
v 9.536743E-07 7.439043 1.761189
v 1.526109 7.439043 1.761189
v 1.803281 7.127148 1.761189
v 9.536743E-07 7.127148 1.761189
v -1.803281 7.127148 1.761189
v -1.526108 7.439043 1.761189
v -1.803281 3.511256 1.761189
v 9.536743E-07 3.511256 1.761189
v 9.536743E-07 0.8015604 1.761189
v 1.803281 3.511256 1.761189
v -1.803281 0.8015604 1.761189
v 1.803281 0.8015604 1.761189
v -1.526108 0.4582415 1.761189
v 1.526109 0.4582415 1.761189
v 9.536743E-07 0.4582415 1.761189
v 9.536743E-07 0.1687393 1.424323
v 1.526109 0.4582415 1.761189
v 1.816232 0.1687393 1.424323
v 9.536743E-07 0.4582415 1.761189
v -1.526108 0.4582415 1.761189
v -1.816231 0.1687393 1.424323
v 1.816232 0.1687393 1.424323
v 1.526109 0.4582415 1.761189
v 1.803281 0.8015604 1.761189
v 2.146096 0.5318365 1.424323
v 2.146096 7.398682 1.424323
v 1.803281 7.127148 1.761189
v 1.526109 7.439043 1.761189
v 1.816232 7.728546 1.424323
v 1.816232 7.728546 1.424323
v 1.526109 7.439043 1.761189
v 9.536743E-07 7.439043 1.761189
v 9.536743E-07 7.728546 1.424323
v -1.816231 7.728546 1.424323
v -1.526108 7.439043 1.761189
v 1.803281 7.127148 1.761189
v 2.146096 7.398682 1.424323
v 2.146096 3.512161 1.424323
v 1.803281 3.511256 1.761189
v 1.803281 0.8015604 1.761189
v 2.146096 0.5318365 1.424323
v 9.536743E-07 0 -1.931985
v 2.146096 0 -1.931985
v 2.146096 0.5318365 -1.931985
v 9.536743E-07 0.5318365 -1.931985
v -2.146096 0.5318365 -1.931985
v -2.146096 0 -1.931985
v 9.536743E-07 3.512161 -1.931985
v 2.146096 3.512161 -1.931985
v -2.146096 3.512161 -1.931985
v 2.146096 7.398682 -1.931985
v 9.536743E-07 7.398682 -1.931985
v -2.146096 7.398682 -1.931985
v 1.816232 7.728546 -1.931985
v -1.816231 7.728546 -1.931985
v 9.536743E-07 7.728546 -1.931985
v -2.146096 7.398682 1.424323
v -2.146096 3.512161 -1.931985
v -2.146096 7.398682 -1.931985
v -2.146096 3.512161 1.424323
v -2.146096 0.5318365 -1.931985
v -2.146096 0.5318365 1.424323
v -2.146096 0 1.424323
v -2.146096 0 -1.931985
v -1.816231 7.728546 1.424323
v -2.146096 7.398682 1.424323
v -2.146096 7.398682 -1.931985
v -1.816231 7.728546 -1.931985
v -1.803281 7.127148 1.761189
v -2.146096 3.512161 1.424323
v -2.146096 7.398682 1.424323
v -1.803281 3.511256 1.761189
v -2.146096 0.5318365 1.424323
v -1.803281 0.8015604 1.761189
v -1.816231 0.1687393 1.424323
v -2.146096 0.5318365 1.424323
v -1.803281 0.8015604 1.761189
v -1.526108 0.4582415 1.761189
v -2.146096 7.398682 1.424323
v -1.816231 7.728546 1.424323
v -1.526108 7.439043 1.761189
v -1.803281 7.127148 1.761189
v 9.536743E-07 0 1.424323
v -2.146096 0 1.424323
v -1.816231 0.1687393 1.424323
v 9.536743E-07 0.1687393 1.424323
v 1.816232 0.1687393 1.424323
v 2.146096 0 1.424323
v -0.8075714 3.732016 1.931985
v -0.730998 3.732016 1.717524
v -0.8507004 3.732016 1.717524
v -0.8994293 3.732016 1.848375
v -1.480408 3.732016 1.848375
v -1.572266 3.732016 1.931985
v -1.529137 3.732016 1.717524
v -1.648839 3.732016 1.717524
v -0.8075714 3.904546 1.931985
v -0.8507004 3.904546 1.717524
v -0.730998 3.904546 1.717524
v -0.8994293 3.904546 1.848375
v -1.480408 3.904546 1.848375
v -1.572266 3.904546 1.931985
v -1.529137 3.904546 1.717524
v -1.648839 3.904546 1.717524
v -0.8075714 3.732016 1.931985
v -0.8075714 3.904546 1.931985
v -0.730998 3.904546 1.717524
v -0.730998 3.732016 1.717524
v -0.8994293 3.732016 1.848375
v -0.8507004 3.732016 1.717524
v -0.8507004 3.904546 1.717524
v -0.8994293 3.904546 1.848375
v -1.572266 3.732016 1.931985
v -1.648839 3.732016 1.717524
v -1.648839 3.904546 1.717524
v -1.572266 3.904546 1.931985
v -1.480408 3.732016 1.848375
v -1.480408 3.904546 1.848375
v -1.529137 3.904546 1.717524
v -1.529137 3.732016 1.717524
v -1.572266 3.904546 1.931985
v -0.8075714 3.904546 1.931985
v -0.8075714 3.732016 1.931985
v -1.572266 3.732016 1.931985
v -1.480408 3.732016 1.848375
v -0.8994293 3.732016 1.848375
v -0.8994293 3.904546 1.848375
v -1.480408 3.904546 1.848375
v -0.8075714 3.014555 1.931985
v -0.730998 3.014555 1.717524
v -0.8507004 3.014555 1.717524
v -0.8994293 3.014555 1.848375
v -1.480408 3.014555 1.848375
v -1.572266 3.014555 1.931985
v -1.529137 3.014555 1.717524
v -1.648839 3.014555 1.717524
v -0.8075714 3.187086 1.931985
v -0.8507004 3.187086 1.717524
v -0.730998 3.187086 1.717524
v -0.8994293 3.187086 1.848375
v -1.480408 3.187086 1.848375
v -1.572266 3.187086 1.931985
v -1.529137 3.187086 1.717524
v -1.648839 3.187086 1.717524
v -0.8075714 3.014555 1.931985
v -0.8075714 3.187086 1.931985
v -0.730998 3.187086 1.717524
v -0.730998 3.014555 1.717524
v -0.8994293 3.014555 1.848375
v -0.8507004 3.014555 1.717524
v -0.8507004 3.187086 1.717524
v -0.8994293 3.187086 1.848375
v -1.572266 3.014555 1.931985
v -1.648839 3.014555 1.717524
v -1.648839 3.187086 1.717524
v -1.572266 3.187086 1.931985
v -1.480408 3.014555 1.848375
v -1.480408 3.187086 1.848375
v -1.529137 3.187086 1.717524
v -1.529137 3.014555 1.717524
v -1.572266 3.187086 1.931985
v -0.8075714 3.187086 1.931985
v -0.8075714 3.014555 1.931985
v -1.572266 3.014555 1.931985
v -1.480408 3.014555 1.848375
v -0.8994293 3.014555 1.848375
v -0.8994293 3.187086 1.848375
v -1.480408 3.187086 1.848375
vt 0.9893447 0.1229135
vt 0.9918509 0.08908552
vt 0.9697273 0.09756708
vt 0.7088106 0.122952
vt 0.7280464 0.09754992
vt 0.7058793 0.08910528
vt 0.4883501 0.6928386
vt 0.4883502 0.7254559
vt 0.6941916 0.7254554
vt 0.6941916 0.692838
vt 0.4883497 0.510056
vt 0.6941911 0.5100558
vt 0.4883497 0.2716972
vt 0.694191 0.2716968
vt 0.4681195 0.04562619
vt 0.4681192 0.2514666
vt 0.4967294 0.2514668
vt 0.4967298 0.04562631
vt 0.3567306 0.9312986
vt 0.4883506 0.9312984
vt 0.4883502 0.7254559
vt 0.3567302 0.7254562
vt 0.2251102 0.7254562
vt 0.2251103 0.9312988
vt 0.3567307 0.2514665
vt 0.4681192 0.2514666
vt 0.4681195 0.04562619
vt 0.3567312 0.04562584
vt 0.2453429 0.04562563
vt 0.2453421 0.2514661
vt 0.8493835 0.5473596
vt 0.9435533 0.547271
vt 0.959917 0.5276386
vt 0.8493636 0.5281181
vt 0.7388186 0.5278698
vt 0.7552277 0.5474555
vt 0.7383584 0.3061063
vt 0.8490998 0.3060653
vt 0.8489675 0.1399821
vt 0.9598153 0.305898
vt 0.7385699 0.1399821
vt 0.9592866 0.1399821
vt 0.7548909 0.1185787
vt 0.9429699 0.1185787
vt 0.8489661 0.1185787
vt 0.848968 0.09128216
vt 0.9429699 0.1185787
vt 0.9608341 0.09128162
vt 0.8489661 0.1185787
vt 0.7548909 0.1185787
vt 0.7370253 0.09128144
vt 0.9697273 0.09756708
vt 0.9429699 0.1185787
vt 0.9592866 0.1399821
vt 0.9893447 0.1229135
vt 0.9893447 0.5446501
vt 0.959917 0.5276386
vt 0.9435533 0.547271
vt 0.9705697 0.5684843
vt 0.9614557 0.574681
vt 0.9435533 0.547271
vt 0.8493835 0.5473596
vt 0.8494101 0.5747607
vt 0.7373829 0.5748874
vt 0.7552277 0.5474555
vt 0.959917 0.5276386
vt 0.9893447 0.5446501
vt 0.9893447 0.3058988
vt 0.9598153 0.305898
vt 0.9592866 0.1399821
vt 0.9893447 0.1229135
vt 0.3567302 0.7254562
vt 0.4883502 0.7254559
vt 0.4883501 0.6928386
vt 0.3567303 0.6928387
vt 0.2251103 0.6928387
vt 0.2251102 0.7254562
vt 0.3567303 0.510056
vt 0.4883497 0.510056
vt 0.2251106 0.5100558
vt 0.4883497 0.2716972
vt 0.3567306 0.2716969
vt 0.2251113 0.2716966
vt 0.4681192 0.2514666
vt 0.2453421 0.2514661
vt 0.3567307 0.2514665
vt 0.01926965 0.2716956
vt 0.2251106 0.5100558
vt 0.2251113 0.2716966
vt 0.01926878 0.5100551
vt 0.2251103 0.6928387
vt 0.01926816 0.6928381
vt 0.01926804 0.7254555
vt 0.2251102 0.7254562
vt 0.2453429 0.04562563
vt 0.2167326 0.04562551
vt 0.2167318 0.2514661
vt 0.2453421 0.2514661
vt 0.7388186 0.5278698
vt 0.7088106 0.3061745
vt 0.7088106 0.5449559
vt 0.7383584 0.3061063
vt 0.7088106 0.122952
vt 0.7385699 0.1399821
vt 0.7280464 0.09754992
vt 0.7088106 0.122952
vt 0.7385699 0.1399821
vt 0.7548909 0.1185787
vt 0.7088106 0.5449559
vt 0.7282817 0.5687218
vt 0.7552277 0.5474555
vt 0.7388186 0.5278698
vt 0.8489712 0.08099476
vt 0.7167104 0.08073324
vt 0.7370253 0.09128144
vt 0.848968 0.09128216
vt 0.9608341 0.09128162
vt 0.9811402 0.08080217
vt 0.7880545 0.6748927
vt 0.7462206 0.6599897
vt 0.7462243 0.6833261
vt 0.7717127 0.6928271
vt 0.7715914 0.8063271
vt 0.7878946 0.8242999
vt 0.7460704 0.8157623
vt 0.7460077 0.8391054
vt 0.8217345 0.6749184
vt 0.8636049 0.6833316
vt 0.8635756 0.6599487
vt 0.8380553 0.6928692
vt 0.8379534 0.8063876
vt 0.8215992 0.8243198
vt 0.8634949 0.8159426
vt 0.8634765 0.8393352
vt 0.7880545 0.6748927
vt 0.8217345 0.6749184
vt 0.8217345 0.6305187
vt 0.7880865 0.6305011
vt 0.891657 0.8070196
vt 0.891657 0.8342849
vt 0.9253465 0.8342849
vt 0.9253465 0.8070196
vt 0.7878946 0.8242999
vt 0.7878816 0.8687463
vt 0.8215573 0.8687623
vt 0.8215992 0.8243198
vt 0.8916568 0.6935735
vt 0.9253464 0.6935735
vt 0.9253461 0.6663085
vt 0.8916565 0.6663085
vt 0.8215992 0.8243198
vt 0.8217345 0.6749184
vt 0.7880545 0.6748927
vt 0.7878946 0.8242999
vt 0.8916568 0.6935735
vt 0.891657 0.8070196
vt 0.9253465 0.8070196
vt 0.9253464 0.6935735
vt 0.7880545 0.6748927
vt 0.7462206 0.6599897
vt 0.7462243 0.6833261
vt 0.7717127 0.6928271
vt 0.7715914 0.8063271
vt 0.7878946 0.8242999
vt 0.7460704 0.8157623
vt 0.7460077 0.8391054
vt 0.8217345 0.6749184
vt 0.8636049 0.6833316
vt 0.8635756 0.6599487
vt 0.8380553 0.6928692
vt 0.8379534 0.8063876
vt 0.8215992 0.8243198
vt 0.8634949 0.8159426
vt 0.8634765 0.8393352
vt 0.7880545 0.6748927
vt 0.8217345 0.6749184
vt 0.8217345 0.6305187
vt 0.7880865 0.6305011
vt 0.891657 0.8070196
vt 0.891657 0.8342849
vt 0.9253465 0.8342849
vt 0.9253465 0.8070196
vt 0.7878946 0.8242999
vt 0.7878816 0.8687463
vt 0.8215573 0.8687623
vt 0.8215992 0.8243198
vt 0.8916568 0.6935735
vt 0.9253464 0.6935735
vt 0.9253461 0.6663085
vt 0.8916565 0.6663085
vt 0.8215992 0.8243198
vt 0.8217345 0.6749184
vt 0.7880545 0.6748927
vt 0.7878946 0.8242999
vt 0.8916568 0.6935735
vt 0.891657 0.8070196
vt 0.9253465 0.8070196
vt 0.9253464 0.6935735
vn 0 0 1
vn 0 0 1
vn 0 0 1
vn 0 0 1
vn 0 0 1
vn 0 0 1
vn 1 0 0
vn 1 0 0
vn 1 0 0
vn 1 0 0
vn 1 0 0
vn 1 0 0
vn 1 0 0
vn 1 0 0
vn 0.7071069 0.7071066 0
vn 0.7071069 0.7071066 0
vn 0.7071069 0.7071066 0
vn 0.7071069 0.7071066 0
vn 0 -1 0
vn 0 -1 0
vn 0 -1 0
vn 0 -1 0
vn 0 -1 0
vn 0 -1 0
vn 0 1 0
vn 0 1 0
vn 0 1 0
vn 0 1 0
vn 0 1 0
vn 0 1 0
vn 0 0 1
vn 0 0 1
vn 0 0 1
vn 0 0 1
vn 0 0 1
vn 0 0 1
vn 0 0 1
vn 0 0 1
vn 0 0 1
vn 0 0 1
vn 0 0 1
vn 0 0 1
vn 0 0 1
vn 0 0 1
vn 0 0 1
vn 0 -0.7584109 0.6517767
vn 0 -0.7584109 0.6517768
vn 0 -0.7584109 0.6517768
vn 0 -0.7584109 0.6517767
vn 0 -0.7584105 0.6517773
vn 0 -0.7584105 0.6517773
vn 0.4729877 -0.4064475 0.7817181
vn 0.4729877 -0.4064474 0.7817181
vn 0.4729876 -0.4064475 0.7817181
vn 0.4729876 -0.4064475 0.7817181
vn 0.4527867 0.4282875 0.7820192
vn 0.4527866 0.4282875 0.7820193
vn 0.4527867 0.4282874 0.7820193
vn 0.4527867 0.4282875 0.7820193
vn 0 0.7584109 0.6517768
vn 0 0.7584109 0.6517768
vn 0 0.7584109 0.6517767
vn 0 0.7584109 0.6517767
vn 0 0.7584111 0.6517765
vn 0 0.758411 0.6517765
vn 0.7008904 0 0.7132691
vn 0.7008904 0 0.7132691
vn 0.7008904 0 0.7132691
vn 0.7008904 0 0.7132691
vn 0.7008904 0 0.713269
vn 0.7008904 0 0.7132691
vn 0 0 -1
vn 0 0 -1
vn 0 0 -1
vn 0 0 -1
vn 0 0 -1
vn 0 0 -1
vn 0 0 -1
vn 0 0 -1
vn 0 0 -1
vn 0 0 -1
vn 0 0 -1
vn 0 0 -1
vn 0 0 -1
vn 0 0 -1
vn 0 0 -1
vn -1 0 0
vn -1 0 0
vn -1 0 0
vn -1 0 0
vn -1 0 0
vn -1 0 0
vn -1 0 0
vn -1 0 0
vn -0.7071058 0.7071077 0
vn -0.7071058 0.7071077 0
vn -0.7071058 0.7071077 0
vn -0.7071058 0.7071077 0
vn -0.7008904 0 0.7132691
vn -0.7008904 0 0.7132691
vn -0.7008904 0 0.7132691
vn -0.7008904 0 0.7132691
vn -0.7008904 0 0.713269
vn -0.7008904 0 0.713269
vn -0.4729871 -0.4064482 0.781718
vn -0.4729871 -0.4064482 0.781718
vn -0.4729871 -0.4064482 0.781718
vn -0.4729871 -0.4064482 0.781718
vn -0.4527864 0.4282886 0.7820187
vn -0.4527864 0.4282886 0.7820187
vn -0.4527864 0.4282885 0.7820187
vn -0.4527864 0.4282885 0.7820187
vn 0 0 1
vn 0 0 1
vn 0 0 1
vn 0 0 1
vn 0 0 1
vn 0 0 1
vn 0 -1 0
vn 0 -1 0
vn 0 -1 0
vn 0 -1 0
vn 0 -1 0
vn 0 -1 0
vn 0 -1 0
vn 0 -1 0
vn 0 1 0
vn 0 1 0
vn 0 1 0
vn 0 1 0
vn 0 1 0
vn 0 1 0
vn 0 1 0
vn 0 1 0
vn 0.9417701 0 0.3362574
vn 0.9417701 0 0.3362574
vn 0.9417701 0 0.3362574
vn 0.9417701 0 0.3362574
vn -0.9371281 0 -0.3489858
vn -0.9371281 0 -0.3489858
vn -0.9371281 0 -0.3489858
vn -0.9371281 0 -0.3489858
vn -0.9417701 0 0.3362574
vn -0.9417701 0 0.3362574
vn -0.9417701 0 0.3362574
vn -0.9417701 0 0.3362574
vn 0.9371281 0 -0.3489858
vn 0.9371281 0 -0.3489858
vn 0.9371281 0 -0.3489858
vn 0.9371281 0 -0.3489858
vn 0 0 1
vn 0 0 1
vn 0 0 1
vn 0 0 1
vn 0 0 -1
vn 0 0 -1
vn 0 0 -1
vn 0 0 -1
vn 0 -1 0
vn 0 -1 0
vn 0 -1 0
vn 0 -1 0
vn 0 -1 0
vn 0 -1 0
vn 0 -1 0
vn 0 -1 0
vn 0 1 0
vn 0 1 0
vn 0 1 0
vn 0 1 0
vn 0 1 0
vn 0 1 0
vn 0 1 0
vn 0 1 0
vn 0.9417702 0 0.3362571
vn 0.9417702 0 0.3362571
vn 0.9417702 0 0.3362571
vn 0.9417702 0 0.3362571
vn -0.9371278 0 -0.3489861
vn -0.9371278 0 -0.3489861
vn -0.9371278 0 -0.3489861
vn -0.9371278 0 -0.3489861
vn -0.9417702 0 0.3362571
vn -0.9417702 0 0.3362571
vn -0.9417702 0 0.3362571
vn -0.9417702 0 0.3362571
vn 0.9371278 0 -0.3489861
vn 0.9371278 0 -0.3489861
vn 0.9371278 0 -0.3489861
vn 0.9371278 0 -0.3489861
vn 0 0 1
vn 0 0 1
vn 0 0 1
vn 0 0 1
vn 0 0 -1
vn 0 0 -1
vn 0 0 -1
vn 0 0 -1
g refrigerator3_PLY_0
f 3/3/3 2/2/2 1/1/1
f 6/6/6 5/5/5 4/4/4
f 9/9/9 8/8/8 7/7/7
f 10/10/10 9/9/9 7/7/7
f 7/7/7 11/11/11 10/10/10
f 11/11/11 12/12/12 10/10/10
f 11/11/11 13/13/13 12/12/12
f 13/13/13 14/14/14 12/12/12
f 17/17/17 16/16/16 15/15/15
f 18/18/18 17/17/17 15/15/15
f 21/21/21 20/20/20 19/19/19
f 22/22/22 21/21/21 19/19/19
f 23/23/23 22/22/22 19/19/19
f 24/24/24 23/23/23 19/19/19
f 27/27/27 26/26/26 25/25/25
f 28/28/28 27/27/27 25/25/25
f 29/29/29 28/28/28 25/25/25
f 30/30/30 29/29/29 25/25/25
f 33/33/33 32/32/32 31/31/31
f 34/34/34 33/33/33 31/31/31
f 35/35/35 34/34/34 31/31/31
f 36/36/36 35/35/35 31/31/31
f 34/34/34 35/35/35 37/37/37
f 33/33/33 34/34/34 38/38/38
f 38/38/38 34/34/34 37/37/37
f 38/38/38 37/37/37 39/39/39
f 40/40/40 33/33/33 38/38/38
f 40/40/40 38/38/38 39/39/39
f 37/37/37 41/41/41 39/39/39
f 42/42/42 40/40/40 39/39/39
f 41/41/41 43/43/43 39/39/39
f 44/44/44 42/42/42 39/39/39
f 43/43/43 45/45/45 39/39/39
f 45/45/45 44/44/44 39/39/39
f 48/48/48 47/47/47 46/46/46
f 47/47/47 49/49/49 46/46/46
f 49/49/49 50/50/50 46/46/46
f 50/50/50 51/51/51 46/46/46
f 54/54/54 53/53/53 52/52/52
f 55/55/55 54/54/54 52/52/52
f 58/58/58 57/57/57 56/56/56
f 59/59/59 58/58/58 56/56/56
f 62/62/62 61/61/61 60/60/60
f 63/63/63 62/62/62 60/60/60
f 62/62/62 63/63/63 64/64/64
f 65/65/65 62/62/62 64/64/64
f 68/68/68 67/67/67 66/66/66
f 69/69/69 68/68/68 66/66/66
f 69/69/69 70/70/70 68/68/68
f 70/70/70 71/71/71 68/68/68
f 74/74/74 73/73/73 72/72/72
f 75/75/75 74/74/74 72/72/72
f 76/76/76 75/75/75 72/72/72
f 77/77/77 76/76/76 72/72/72
f 74/74/74 75/75/75 78/78/78
f 78/78/78 75/75/75 76/76/76
f 79/79/79 74/74/74 78/78/78
f 80/80/80 78/78/78 76/76/76
f 79/79/79 78/78/78 81/81/81
f 82/82/82 78/78/78 80/80/80
f 78/78/78 82/82/82 81/81/81
f 83/83/83 82/82/82 80/80/80
f 84/84/84 81/81/81 82/82/82
f 83/83/83 85/85/85 82/82/82
f 86/86/86 84/84/84 82/82/82
f 85/85/85 86/86/86 82/82/82
f 89/89/89 88/88/88 87/87/87
f 88/88/88 90/90/90 87/87/87
f 88/88/88 91/91/91 90/90/90
f 91/91/91 92/92/92 90/90/90
f 93/93/93 92/92/92 91/91/91
f 94/94/94 93/93/93 91/91/91
f 97/97/97 96/96/96 95/95/95
f 98/98/98 97/97/97 95/95/95
f 101/101/101 100/100/100 99/99/99
f 100/100/100 102/102/102 99/99/99
f 100/100/100 103/103/103 102/102/102
f 103/103/103 104/104/104 102/102/102
f 107/107/107 106/106/106 105/105/105
f 108/108/108 107/107/107 105/105/105
f 111/111/111 110/110/110 109/109/109
f 112/112/112 111/111/111 109/109/109
f 115/115/115 114/114/114 113/113/113
f 116/116/116 115/115/115 113/113/113
f 117/117/117 116/116/116 113/113/113
f 118/118/118 117/117/117 113/113/113
f 121/121/121 120/120/120 119/119/119
f 122/122/122 121/121/121 119/119/119
f 123/123/123 122/122/122 119/119/119
f 124/124/124 123/123/123 119/119/119
f 125/125/125 123/123/123 124/124/124
f 126/126/126 125/125/125 124/124/124
f 129/129/129 128/128/128 127/127/127
f 128/128/128 130/130/130 127/127/127
f 127/127/127 130/130/130 131/131/131
f 132/132/132 127/127/127 131/131/131
f 131/131/131 133/133/133 132/132/132
f 133/133/133 134/134/134 132/132/132
f 137/137/137 136/136/136 135/135/135
f 138/138/138 137/137/137 135/135/135
f 141/141/141 140/140/140 139/139/139
f 142/142/142 141/141/141 139/139/139
f 145/145/145 144/144/144 143/143/143
f 146/146/146 145/145/145 143/143/143
f 149/149/149 148/148/148 147/147/147
f 150/150/150 149/149/149 147/147/147
f 153/153/153 152/152/152 151/151/151
f 154/154/154 153/153/153 151/151/151
f 157/157/157 156/156/156 155/155/155
f 158/158/158 157/157/157 155/155/155
f 161/161/161 160/160/160 159/159/159
f 162/162/162 161/161/161 159/159/159
f 163/163/163 162/162/162 159/159/159
f 164/164/164 163/163/163 159/159/159
f 165/165/165 163/163/163 164/164/164
f 166/166/166 165/165/165 164/164/164
f 169/169/169 168/168/168 167/167/167
f 168/168/168 170/170/170 167/167/167
f 167/167/167 170/170/170 171/171/171
f 172/172/172 167/167/167 171/171/171
f 171/171/171 173/173/173 172/172/172
f 173/173/173 174/174/174 172/172/172
f 177/177/177 176/176/176 175/175/175
f 178/178/178 177/177/177 175/175/175
f 181/181/181 180/180/180 179/179/179
f 182/182/182 181/181/181 179/179/179
f 185/185/185 184/184/184 183/183/183
f 186/186/186 185/185/185 183/183/183
f 189/189/189 188/188/188 187/187/187
f 190/190/190 189/189/189 187/187/187
f 193/193/193 192/192/192 191/191/191
f 194/194/194 193/193/193 191/191/191
f 197/197/197 196/196/196 195/195/195
f 198/198/198 197/197/197 195/195/195
