g Rock03
v 0.09298204 0.03418669 -0.02726885
v 0.08472391 0.04766444 -0.0276021
v 0.09918989 0.01965617 -0.02867224
v 0.1021679 0.006796763 -0.03069634
v 0.07305039 0.06037708 -0.03066684
v 0.09542752 -0.006959753 -0.03155679
v 0.05390266 0.07186065 -0.03300415
v 0.06736692 -0.02946501 -0.02841492
v 0.01996441 0.07347017 -0.03145288
v -0.006283895 -0.06043602 -0.03214635
v -0.02969475 0.05522778 -0.03487869
v -0.06488709 -0.0791636 -0.02606223
v -0.07622785 0.01854162 -0.03022812
v -0.09437956 -0.06747811 -0.02423131
v -0.105148 -0.01495453 -0.02418117
v -0.1067649 -0.04378066 -0.02473646
v -0.05476883 0.07223669 -0.002686128
v 0.01996441 0.07347017 -0.03145288
v 0.006349523 0.1021919 -0.004623337
v -0.02969475 0.05522778 -0.03487869
v 0.05390266 0.07186065 -0.03300415
v -0.1077242 0.03718995 0.004004698
v -0.07622785 0.01854162 -0.03022812
v 0.04832975 0.1065718 -0.003983145
v 0.07305039 0.06037708 -0.03066684
v -0.1262976 0.006315508 -0.004213095
v -0.105148 -0.01495453 -0.02418117
v 0.07798748 0.08889451 0.001162443
v 0.08472391 0.04766444 -0.0276021
v -0.118899 -0.03522884 -0.008723507
v -0.1067649 -0.04378066 -0.02473646
v 0.09338488 0.06434744 0.005234833
v 0.09298204 0.03418669 -0.02726885
v -0.1054936 -0.07118576 -0.001716776
v -0.09437956 -0.06747811 -0.02423131
v 0.104254 0.0425577 0.004134531
v 0.09918989 0.01965617 -0.02867224
v -0.08417147 -0.1065718 0.003024397
v -0.06488709 -0.0791636 -0.02606223
v 0.1144349 0.01891416 0.0007660866
v 0.1021679 0.006796763 -0.03069634
v -0.02287508 -0.09925724 0.0004083347
v -0.006283895 -0.06043602 -0.03214635
v 0.1221374 -0.001548465 -0.002271051
v 0.09542752 -0.006959753 -0.03155679
v 0.0735136 -0.05865459 0.00641633
v 0.06736692 -0.02946501 -0.02841492
v 0.1142839 -0.02548391 -0.0007977008
v -0.07966016 -0.1001771 0.05058229
v -0.02459719 -0.09797524 0.05314945
v 0.07506789 -0.05707669 0.0492559
v 0.1182566 -0.02576687 0.0369696
v 0.1262976 -0.001906792 0.03568119
v 0.1186466 0.02060689 0.04437958
v -0.1017412 -0.06483006 0.04316645
v 0.108334 0.04536846 0.05314575
v -0.1155253 -0.02918928 0.03832399
v 0.09768622 0.06774408 0.05313677
v -0.1211184 0.01243966 0.04302267
v 0.08134273 0.08809114 0.04750927
v -0.1043194 0.04048888 0.05100654
v 0.05328194 0.103295 0.04138035
v -0.04852838 0.0672463 0.05277508
v 0.01444494 0.09822767 0.04135307
v -0.09899534 -0.01847918 0.07460734
v -0.1012142 0.02090045 0.07562441
v -0.08796562 0.03839801 0.0690048
v -0.03613882 0.05747332 0.07278723
v 0.02948627 0.08416305 0.06627876
v -0.04343829 0.03614036 0.08091465
v -0.08967093 -0.05953608 0.07382915
v 0.05980727 0.08459387 0.06839708
v 0.04572414 0.06033138 0.07749534
v -0.06116866 -0.01149012 0.08087879
v -0.07297787 -0.0872341 0.0695103
v 0.08007567 0.07767809 0.06995029
v 0.07525986 0.06032585 0.07974983
v 0.09076764 0.06405784 0.07580097
v 0.06146422 0.0304559 0.08112598
v -0.05064965 -0.05953735 0.07717762
v -0.02967956 -0.0819211 0.0698797
v 0.1016581 0.04319205 0.07692028
v 0.09016665 0.0367805 0.08118578
v 0.07004128 -0.009539261 0.0800217
v 0.07265757 -0.0397232 0.07297439
v 0.1017649 0.008929943 0.07756094
v 0.112065 0.01810354 0.07192663
v 0.1094197 -0.0139387 0.06730257
v 0.1182132 8.570313E-05 0.06139214
vt 0.977295 0.2761948
vt 0.974496 0.2571106
vt 0.9765781 0.2955338
vt 0.9730536 0.3114332
vt 0.9663373 0.2373438
vt 0.9588466 0.3235967
vt 0.9501632 0.2152431
vt 0.9164164 0.3354274
vt 0.9127866 0.1971707
vt 0.8188401 0.3346187
vt 0.8481799 0.1936326
vt 0.7437465 0.3275636
vt 0.7781456 0.2124932
vt 0.7161714 0.3003467
vt 0.7291104 0.2362353
vt 0.7135308 0.2678299
vt 0.6887293 0.6090024
vt 0.5711456 0.6495286
vt 0.6120282 0.6731932
vt 0.6485888 0.5734329
vt 0.5315952 0.7259988
vt 0.7775959 0.581371
vt 0.754702 0.5289508
vt 0.5818262 0.7318991
vt 0.5275829 0.7984871
vt 0.8323309 0.5659379
vt 0.8507404 0.5349588
vt 0.5768057 0.7888008
vt 0.5484679 0.8602766
vt 0.8991051 0.5781017
vt 0.9188042 0.5670475
vt 0.5891424 0.8400877
vt 0.5826831 0.9113948
vt 0.9378414 0.6328932
vt 0.9628462 0.6256168
vt 0.6125397 0.8832472
vt 0.6300183 0.951615
vt 0.9431676 0.6974552
vt 0.9822094 0.7085485
vt 0.6504843 0.9188882
vt 0.6861457 0.9738447
vt 0.9267896 0.787331
vt 0.9584097 0.8358067
vt 0.6938739 0.9352424
vt 0.7516342 0.9760023
vt 0.8175115 0.8918265
vt 0.8398158 0.9403061
vt 0.7429611 0.9318327
vt 0.9020454 0.699509
vt 0.883056 0.7613254
vt 0.787458 0.8568242
vt 0.7313649 0.896414
vt 0.6991293 0.897029
vt 0.6750317 0.8760493
vt 0.89307 0.6533989
vt 0.6559169 0.8467775
vt 0.8678097 0.6204889
vt 0.6410748 0.8209189
vt 0.8212168 0.610947
vt 0.628715 0.7919647
vt 0.7870316 0.6280668
vt 0.6239941 0.7532905
vt 0.7225086 0.6667141
vt 0.6460704 0.7112675
vt 0.8359168 0.6549806
vt 0.8027753 0.6447211
vt 0.7821953 0.6502603
vt 0.7301365 0.6916602
vt 0.6616144 0.7413899
vt 0.7563002 0.6937926
vt 0.8661768 0.6770105
vt 0.6523389 0.7720877
vt 0.6768146 0.7710207
vt 0.81652 0.6933193
vt 0.8849174 0.7015913
vt 0.6540438 0.7957163
vt 0.6691942 0.8007526
vt 0.6619027 0.8115777
vt 0.697536 0.8007151
vt 0.8619617 0.7228123
vt 0.8725498 0.7513118
vt 0.6727244 0.8311114
vt 0.6811453 0.826575
vt 0.7354607 0.8253929
vt 0.7651003 0.8388365
vt 0.7028894 0.8479173
vt 0.69125 0.8517974
vt 0.7213241 0.864826
vt 0.7044877 0.8696375
vn 0.6946151 0.3743311 -0.6143175
vn 0.6595998 0.3906515 -0.6421211
vn 0.6605589 0.3037545 -0.6865822
vn 0.5742583 0.03288158 -0.8180137
vn 0.4319105 0.3561381 -0.8286247
vn 0.3543559 -0.2943427 -0.8875777
vn 0.1538688 0.3795161 -0.9123003
vn 0.2289935 -0.4134431 -0.8812643
vn -0.06718387 0.3943809 -0.9164879
vn 0.1357048 -0.389637 -0.9109156
vn -0.1915203 0.3943883 -0.8987646
vn -0.06539419 -0.4529226 -0.8891484
vn -0.3122601 0.2331931 -0.9209313
vn -0.4552685 -0.3547621 -0.8166238
vn -0.4651048 0.05822357 -0.8833387
vn -0.5023574 -0.1537149 -0.8508871
vn -0.467389 0.8241751 -0.3198171
vn -0.06718387 0.3943809 -0.9164879
vn -0.2655312 0.8967603 -0.3539972
vn -0.1915203 0.3943883 -0.8987646
vn 0.1538688 0.3795161 -0.9123003
vn -0.6811818 0.6536462 -0.3297546
vn -0.3122601 0.2331931 -0.9209313
vn 0.1865559 0.9123419 -0.3644572
vn 0.4319105 0.3561381 -0.8286247
vn -0.9015166 0.2165895 -0.3746424
vn -0.4651048 0.05822357 -0.8833387
vn 0.6678495 0.6817265 -0.2987072
vn 0.6595998 0.3906515 -0.6421211
vn -0.9360881 -0.2078384 -0.2837993
vn -0.5023574 -0.1537149 -0.8508871
vn 0.8434384 0.4755119 -0.2500003
vn 0.6946151 0.3743311 -0.6143175
vn -0.8771564 -0.4549806 -0.1535881
vn -0.4552685 -0.3547621 -0.8166238
vn 0.869344 0.4244572 -0.2531343
vn 0.6605589 0.3037545 -0.6865822
vn -0.4216512 -0.8716357 -0.2499228
vn -0.06539419 -0.4529226 -0.8891484
vn 0.8814783 0.3866841 -0.2710566
vn 0.5742583 0.03288158 -0.8180137
vn 0.2375431 -0.9032465 -0.3573781
vn 0.1357048 -0.389637 -0.9109156
vn 0.935138 0.00696791 -0.3542151
vn 0.3543559 -0.2943427 -0.8875777
vn 0.4648663 -0.8289123 -0.311133
vn 0.2289935 -0.4134431 -0.8812643
vn 0.7385071 -0.5602608 -0.3751201
vn -0.4479905 -0.8050743 0.3887931
vn 0.1984764 -0.8971652 0.3945903
vn 0.4825423 -0.8224291 0.3012696
vn 0.807961 -0.5701423 0.1487846
vn 0.9975377 -0.01181663 0.06913008
vn 0.9405739 0.3303777 0.07855742
vn -0.874446 -0.4006673 0.273514
vn 0.9135789 0.3892945 0.1175723
vn -0.935526 -0.2345387 0.2641642
vn 0.8300077 0.5431794 0.1266622
vn -0.9500917 0.1670044 0.2635057
vn 0.5980012 0.7812214 0.1791306
vn -0.6761808 0.6848745 0.2715266
vn 0.1658362 0.9480463 0.2714896
vn -0.3778307 0.8518759 0.3627001
vn -0.2411282 0.910592 0.3356777
vn -0.5782359 -0.1030857 0.809331
vn -0.5485344 0.2259525 0.8050189
vn -0.3751053 0.6537206 0.6572255
vn -0.2019313 0.5954742 0.7775823
vn -0.1195006 0.6458383 0.754064
vn -0.07964483 0.1975035 0.9770615
vn -0.5507233 -0.2933316 0.7814476
vn 0.07888748 0.6761125 0.7325632
vn -0.05804027 0.249774 0.9665631
vn -0.08123351 -0.01379891 0.9965996
vn -0.2809465 -0.5785181 0.7657583
vn 0.3755666 0.68336 0.6260741
vn 0.04390823 0.2640338 0.9635136
vn 0.5283618 0.4715653 0.706017
vn -0.02113233 0.02641987 0.9994276
vn -0.005764867 -0.1757937 0.9844102
vn 0.1038581 -0.5196194 0.848062
vn 0.6635013 0.2717632 0.697073
vn 0.1654493 0.04909272 0.9849957
vn 0.08521929 -0.1312138 0.9876845
vn 0.3123299 -0.4984225 0.8087181
vn 0.3641319 -0.125997 0.9227853
vn 0.7848724 0.1051413 0.6106723
vn 0.6246726 -0.4112511 0.6638197
vn 0.8848824 -0.1068727 0.4533887
g Rock03_0
f 3/3/3 2/2/2 1/1/1
f 3/3/3 4/4/4 2/2/2
f 5/5/5 2/2/2 4/4/4
f 4/4/4 6/6/6 5/5/5
f 7/7/7 5/5/5 6/6/6
f 6/6/6 8/8/8 7/7/7
f 9/9/9 7/7/7 8/8/8
f 8/8/8 10/10/10 9/9/9
f 11/11/11 9/9/9 10/10/10
f 10/10/10 12/12/12 11/11/11
f 13/13/13 11/11/11 12/12/12
f 12/12/12 14/14/14 13/13/13
f 15/15/15 13/13/13 14/14/14
f 15/15/15 14/14/14 16/16/16
f 19/19/19 18/18/18 17/17/17
f 20/20/20 17/17/17 18/18/18
f 18/18/18 19/19/19 21/21/21
f 17/17/17 20/20/20 22/22/22
f 23/23/23 22/22/22 20/20/20
f 24/24/24 21/21/21 19/19/19
f 21/21/21 24/24/24 25/25/25
f 22/22/22 23/23/23 26/26/26
f 27/27/27 26/26/26 23/23/23
f 28/28/28 25/25/25 24/24/24
f 25/25/25 28/28/28 29/29/29
f 26/26/26 27/27/27 30/30/30
f 31/31/31 30/30/30 27/27/27
f 32/32/32 29/29/29 28/28/28
f 29/29/29 32/32/32 33/33/33
f 30/30/30 31/31/31 34/34/34
f 35/35/35 34/34/34 31/31/31
f 36/36/36 33/33/33 32/32/32
f 33/33/33 36/36/36 37/37/37
f 34/34/34 35/35/35 38/38/38
f 39/39/39 38/38/38 35/35/35
f 40/40/40 37/37/37 36/36/36
f 37/37/37 40/40/40 41/41/41
f 38/38/38 39/39/39 42/42/42
f 43/43/43 42/42/42 39/39/39
f 44/44/44 41/41/41 40/40/40
f 41/41/41 44/44/44 45/45/45
f 42/42/42 43/43/43 46/46/46
f 47/47/47 46/46/46 43/43/43
f 45/45/45 48/48/48 47/47/47
f 48/48/48 45/45/45 44/44/44
f 46/46/46 47/47/47 48/48/48
f 38/38/38 49/49/49 34/34/34
f 42/42/42 50/50/50 38/38/38
f 49/49/49 38/38/38 50/50/50
f 46/46/46 51/51/51 42/42/42
f 50/50/50 42/42/42 51/51/51
f 48/48/48 52/52/52 46/46/46
f 51/51/51 46/46/46 52/52/52
f 44/44/44 53/53/53 48/48/48
f 52/52/52 48/48/48 53/53/53
f 40/40/40 54/54/54 44/44/44
f 53/53/53 44/44/44 54/54/54
f 55/55/55 34/34/34 49/49/49
f 34/34/34 55/55/55 30/30/30
f 54/54/54 40/40/40 56/56/56
f 36/36/36 56/56/56 40/40/40
f 57/57/57 30/30/30 55/55/55
f 30/30/30 57/57/57 26/26/26
f 56/56/56 36/36/36 58/58/58
f 32/32/32 58/58/58 36/36/36
f 59/59/59 26/26/26 57/57/57
f 26/26/26 59/59/59 22/22/22
f 58/58/58 32/32/32 60/60/60
f 28/28/28 60/60/60 32/32/32
f 61/61/61 22/22/22 59/59/59
f 22/22/22 61/61/61 17/17/17
f 60/60/60 28/28/28 62/62/62
f 24/24/24 62/62/62 28/28/28
f 63/63/63 17/17/17 61/61/61
f 17/17/17 63/63/63 19/19/19
f 19/19/19 64/64/64 24/24/24
f 62/62/62 24/24/24 64/64/64
f 64/64/64 19/19/19 63/63/63
f 57/57/57 65/65/65 59/59/59
f 59/59/59 66/66/66 61/61/61
f 66/66/66 59/59/59 65/65/65
f 61/61/61 67/67/67 63/63/63
f 67/67/67 61/61/61 66/66/66
f 68/68/68 63/63/63 67/67/67
f 63/63/63 68/68/68 64/64/64
f 67/67/67 66/66/66 68/68/68
f 64/64/64 69/69/69 62/62/62
f 69/69/69 64/64/64 68/68/68
f 70/70/70 68/68/68 66/66/66
f 66/66/66 65/65/65 70/70/70
f 68/68/68 70/70/70 69/69/69
f 65/65/65 57/57/57 71/71/71
f 55/55/55 71/71/71 57/57/57
f 72/72/72 62/62/62 69/69/69
f 62/62/62 72/72/72 60/60/60
f 73/73/73 69/69/69 70/70/70
f 69/69/69 73/73/73 72/72/72
f 74/74/74 70/70/70 65/65/65
f 65/65/65 71/71/71 74/74/74
f 70/70/70 74/74/74 73/73/73
f 71/71/71 55/55/55 75/75/75
f 49/49/49 75/75/75 55/55/55
f 76/76/76 60/60/60 72/72/72
f 60/60/60 76/76/76 58/58/58
f 77/77/77 72/72/72 73/73/73
f 72/72/72 77/77/77 76/76/76
f 78/78/78 58/58/58 76/76/76
f 78/78/78 76/76/76 77/77/77
f 58/58/58 78/78/78 56/56/56
f 79/79/79 73/73/73 74/74/74
f 73/73/73 79/79/79 77/77/77
f 80/80/80 74/74/74 71/71/71
f 71/71/71 75/75/75 80/80/80
f 74/74/74 80/80/80 79/79/79
f 75/75/75 49/49/49 81/81/81
f 81/81/81 80/80/80 75/75/75
f 50/50/50 81/81/81 49/49/49
f 82/82/82 56/56/56 78/78/78
f 56/56/56 82/82/82 54/54/54
f 77/77/77 83/83/83 78/78/78
f 83/83/83 77/77/77 79/79/79
f 82/82/82 78/78/78 83/83/83
f 84/84/84 79/79/79 80/80/80
f 80/80/80 81/81/81 84/84/84
f 79/79/79 84/84/84 83/83/83
f 81/81/81 50/50/50 85/85/85
f 85/85/85 84/84/84 81/81/81
f 51/51/51 85/85/85 50/50/50
f 86/86/86 83/83/83 84/84/84
f 83/83/83 86/86/86 82/82/82
f 84/84/84 85/85/85 86/86/86
f 87/87/87 54/54/54 82/82/82
f 87/87/87 82/82/82 86/86/86
f 54/54/54 87/87/87 53/53/53
f 85/85/85 51/51/51 88/88/88
f 88/88/88 86/86/86 85/85/85
f 86/86/86 88/88/88 87/87/87
f 52/52/52 88/88/88 51/51/51
f 53/53/53 89/89/89 52/52/52
f 89/89/89 53/53/53 87/87/87
f 89/89/89 87/87/87 88/88/88
f 88/88/88 52/52/52 89/89/89
