g Rock01
v -0.06363063 -0.1163352 -0.007254018
v -0.0470823 -0.1223495 -0.008200331
v -0.07716785 -0.103192 -0.00831214
v -0.08578812 -0.08624162 -0.01142865
v -0.02509071 -0.1175472 -0.01213939
v -0.08338656 -0.05676468 -0.0199135
v 0.006959684 -0.0964703 -0.02222122
v -0.06849533 -0.007847346 -0.03369052
v 0.04242296 -0.06347821 -0.0348513
v -0.03032709 0.06231974 -0.04031916
v 0.06797139 -0.0171784 -0.04314594
v 0.009443881 0.1145968 -0.03299703
v 0.08339889 0.04314502 -0.03679704
v 0.0490229 0.1334055 -0.03132579
v 0.08989628 0.0967131 -0.03275412
v 0.0771693 0.1276805 -0.03160072
v 0.1079098 -0.01798721 -0.0006573772
v 0.04242296 -0.06347821 -0.0348513
v 0.08526535 -0.07887075 0.004389877
v 0.06797139 -0.0171784 -0.04314594
v 0.006959684 -0.0964703 -0.02222122
v 0.1168611 0.04709958 0.001422062
v 0.08339889 0.04314502 -0.03679704
v 0.0372803 -0.1228544 0.01652388
v -0.02509071 -0.1175472 -0.01213939
v 0.1166244 0.0918868 -0.007943421
v 0.08989628 0.0967131 -0.03275412
v -0.01177037 -0.1510387 0.02132451
v -0.0470823 -0.1223495 -0.008200331
v 0.0925179 0.1330138 -0.0102717
v 0.0771693 0.1276805 -0.03160072
v -0.0460403 -0.152273 0.0228772
v -0.06363063 -0.1163352 -0.007254018
v 0.05978925 0.1572826 -0.0001636601
v 0.0490229 0.1334055 -0.03132579
v -0.07123984 -0.1423293 0.02183375
v -0.07716785 -0.103192 -0.00831214
v 0.005666035 0.1505837 0.001763582
v 0.009443881 0.1145968 -0.03299703
v -0.09399208 -0.1222068 0.01991486
v -0.08578812 -0.08624162 -0.01142865
v -0.04691984 0.1066931 -0.001393528
v -0.03032709 0.06231974 -0.04031916
v -0.1102676 -0.09835261 0.01757126
v -0.08338656 -0.05676468 -0.0199135
v -0.09483819 0.01379037 0.0045368
v -0.06849533 -0.007847346 -0.03369052
v -0.1130929 -0.05726127 0.01378021
v 0.009015105 0.1462533 0.05482122
v -0.04351235 0.1038527 0.05826439
v -0.09436487 0.01017176 0.05145105
v -0.1170003 -0.06418337 0.04880758
v -0.1140768 -0.1060324 0.04896431
v -0.09616533 -0.1313877 0.05556807
v 0.06058631 0.1499486 0.04910425
v -0.07148156 -0.1502231 0.062217
v 0.08963432 0.1212281 0.0417765
v -0.04483392 -0.1572826 0.06243324
v 0.1128349 0.07968631 0.04446604
v -0.01207747 -0.152022 0.06029411
v 0.1170003 0.0389927 0.05417059
v 0.03417256 -0.1246613 0.05825651
v 0.1067301 -0.02155535 0.05868461
v 0.08031839 -0.08316122 0.05482874
v 0.07635074 0.09009076 0.08873954
v 0.09878878 0.05271002 0.09269533
v 0.104338 0.02690078 0.08525632
v 0.08735321 -0.02115453 0.08496547
v 0.05276493 -0.08271142 0.07931276
v 0.06817806 0.001603381 0.1016063
v 0.04826938 0.1249763 0.087605
v 0.01434799 -0.1180702 0.08189747
v 0.01561098 -0.07462084 0.0887842
v 0.04551647 0.04875876 0.1097782
v 0.0112573 0.1270514 0.08109722
v -0.01617476 -0.1415498 0.08083328
v -0.0199326 -0.1155265 0.09120491
v -0.03846304 -0.1454969 0.08476501
v -0.01875193 -0.05653217 0.09112503
v 0.007420719 0.0800366 0.1033884
v -0.02674398 0.08808102 0.08975185
v -0.0647506 -0.1407992 0.08555887
v -0.05308323 -0.1140756 0.09206396
v -0.05243528 -0.02837881 0.0894675
v -0.07840214 -0.004558223 0.08000934
v -0.08069099 -0.09473231 0.08881134
v -0.08991419 -0.1231518 0.08184528
v -0.1017732 -0.07314362 0.07798937
v -0.1051688 -0.104106 0.07258093
vt 0.8162035 0.1149988
vt 0.8131966 0.09514419
vt 0.8101359 0.1356472
vt 0.7972154 0.1533872
vt 0.7959855 0.07561707
vt 0.7648229 0.1667579
vt 0.7559428 0.05469211
vt 0.7055644 0.1779888
vt 0.7018235 0.0367308
vt 0.6143202 0.1773586
vt 0.6409073 0.03583827
vt 0.5399308 0.1658451
vt 0.5717272 0.05305209
vt 0.4996215 0.136356
vt 0.5143438 0.07553978
vt 0.4901541 0.1050434
vt 0.1030167 0.3362366
vt 0.1333026 0.4566723
vt 0.1650961 0.400047
vt 0.05523385 0.3804341
vt 0.2323241 0.4978426
vt 0.06906682 0.2509528
vt 0.01686047 0.2724531
vt 0.2467632 0.436876
vt 0.3255224 0.4998655
vt 0.05271025 0.1852008
vt 0.01996042 0.1696927
vt 0.3246115 0.4470336
vt 0.3937561 0.4802712
vt 0.06900235 0.1147831
vt 0.05319208 0.09637168
vt 0.3761552 0.4386763
vt 0.4464547 0.4448281
vt 0.1236215 0.0798891
vt 0.1127198 0.04471418
vt 0.4162172 0.4173128
vt 0.4845665 0.3916932
vt 0.2004055 0.06440111
vt 0.2111812 0.01719025
vt 0.4480676 0.377566
vt 0.5009654 0.3264525
vt 0.2953014 0.08019438
vt 0.3411216 0.03620436
vt 0.4601746 0.3288274
vt 0.499013 0.2430305
vt 0.4083134 0.1674984
vt 0.4551889 0.1367787
vt 0.4550982 0.26317
vt 0.1990945 0.1118786
vt 0.2731508 0.1318924
vt 0.3771445 0.2043601
vt 0.4262817 0.2836565
vt 0.4321699 0.3337051
vt 0.4163026 0.3672632
vt 0.1425861 0.1177581
vt 0.390108 0.3911572
vt 0.110952 0.1470581
vt 0.3638874 0.4040014
vt 0.1036568 0.1993651
vt 0.3283964 0.4085166
vt 0.123053 0.2438533
vt 0.2683334 0.3981597
vt 0.157798 0.3063864
vt 0.2046438 0.3673439
vt 0.157113 0.1869791
vt 0.1568018 0.2247915
vt 0.1583856 0.2483942
vt 0.1860319 0.2973067
vt 0.2403784 0.3540458
vt 0.2011593 0.269336
vt 0.1692287 0.1516174
vt 0.2918691 0.3757856
vt 0.279538 0.3363688
vt 0.2067164 0.2154328
vt 0.2034871 0.1388451
vt 0.3318738 0.3865473
vt 0.3286441 0.3631962
vt 0.3543272 0.385079
vt 0.3111869 0.3081587
vt 0.2309456 0.175041
vt 0.2599747 0.1595776
vt 0.3768737 0.3780405
vt 0.3625525 0.3567877
vt 0.337981 0.2674592
vt 0.3568703 0.2336482
vt 0.3831513 0.3309233
vt 0.3957735 0.3561029
vt 0.3984855 0.3026384
vt 0.4090866 0.3338866
vn -0.2993714 -0.4699589 -0.8303706
vn -0.1397646 -0.5266189 -0.8385335
vn -0.3954196 -0.4044174 -0.8246756
vn -0.4797813 -0.2734393 -0.833691
vn 0.02909462 -0.5099438 -0.8597155
vn -0.4890246 -0.1368115 -0.861474
vn 0.1076963 -0.4890978 -0.8655547
vn -0.4610367 0.03508126 -0.8866874
vn 0.2328948 -0.3834131 -0.8937306
vn -0.3456142 0.2133057 -0.9138115
vn 0.3703118 -0.1947137 -0.9082708
vn -0.2289554 0.3942631 -0.8900203
vn 0.4373314 -0.01591967 -0.8991595
vn -0.03192042 0.5083874 -0.8605366
vn 0.43824 0.1418041 -0.887602
vn 0.339228 0.4311329 -0.8360914
vn 0.891461 -0.2475566 -0.3794905
vn 0.2328948 -0.3834131 -0.8937306
vn 0.7432092 -0.5466772 -0.3857255
vn 0.3703118 -0.1947137 -0.9082708
vn 0.1076963 -0.4890978 -0.8655547
vn 0.9471849 -0.07286562 -0.3123
vn 0.4373314 -0.01591967 -0.8991595
vn 0.5101219 -0.7808216 -0.3606846
vn 0.02909462 -0.5099438 -0.8597155
vn 0.9234135 0.2250286 -0.3109178
vn 0.43824 0.1418041 -0.887602
vn 0.2425231 -0.8932484 -0.3785364
vn -0.1397646 -0.5266189 -0.8385335
vn 0.7274975 0.6373162 -0.2541171
vn 0.339228 0.4311329 -0.8360914
vn -0.1425199 -0.9087285 -0.3923016
vn -0.2993714 -0.4699589 -0.8303706
vn 0.2192761 0.9523065 -0.2122035
vn -0.03192042 0.5083874 -0.8605366
vn -0.4499325 -0.7892046 -0.4179913
vn -0.3954196 -0.4044174 -0.8246756
vn -0.3889437 0.8767587 -0.2828726
vn -0.2289554 0.3942631 -0.8900203
vn -0.6501301 -0.6192315 -0.4403217
vn -0.4797813 -0.2734393 -0.833691
vn -0.7309358 0.5922099 -0.3391465
vn -0.3456142 0.2133057 -0.9138115
vn -0.8436618 -0.3205114 -0.4307054
vn -0.4890246 -0.1368115 -0.861474
vn -0.8881821 0.3252642 -0.3245549
vn -0.4610367 0.03508126 -0.8866874
vn -0.925049 0.05087948 -0.376425
vn -0.3177141 0.8789405 0.3556986
vn -0.723698 0.5966984 0.3467164
vn -0.8801833 0.3569666 0.3128134
vn -0.975247 0.1050214 0.1945867
vn -0.9353636 -0.3485171 0.06025696
vn -0.7181475 -0.6922612 0.07098454
vn 0.3598717 0.8544493 0.3747116
vn -0.4489668 -0.8800321 0.1548306
vn 0.7581537 0.5540602 0.3438319
vn -0.0600429 -0.9818958 0.1796533
vn 0.9108198 0.312189 0.2700836
vn 0.3361472 -0.9148001 0.2239325
vn 0.9813491 0.003384392 0.1922044
vn 0.5780346 -0.7523337 0.3160219
vn 0.9131344 -0.2912169 0.2852685
vn 0.7584761 -0.5584496 0.3359286
vn 0.5291551 0.3779922 0.7596819
vn 0.5857694 0.1868301 0.78865
vn 0.7575518 -0.1122701 0.643048
vn 0.604716 -0.299279 0.7380722
vn 0.4282018 -0.3997586 0.8104544
vn 0.2802465 -0.1537306 0.9475383
vn 0.2337495 0.5967053 0.7676613
vn 0.3879965 -0.4521301 0.803142
vn 0.119967 -0.1521396 0.9810512
vn 0.1416141 0.05429179 0.988432
vn -0.2676396 0.658199 0.703664
vn 0.3211479 -0.6402127 0.6978479
vn 0.1266461 -0.1696054 0.9773407
vn 0.06107331 -0.6531311 0.754778
vn -0.02682742 -0.04557336 0.9986007
vn -0.1682116 0.2151136 0.9619932
vn -0.4983241 0.3745738 0.7818999
vn -0.2801453 -0.5908664 0.7565682
vn -0.07155215 -0.1024599 0.9921604
vn -0.1844178 0.03163308 0.9823387
vn -0.5688007 0.2041445 0.7967376
vn -0.3003937 -0.01906173 0.9536248
vn -0.5767742 -0.4157142 0.7032163
vn -0.6789079 0.0891542 0.7287905
vn -0.8025536 -0.2101456 0.5583426
g Rock01_0
f 3/3/3 2/2/2 1/1/1
f 3/3/3 4/4/4 2/2/2
f 5/5/5 2/2/2 4/4/4
f 4/4/4 6/6/6 5/5/5
f 7/7/7 5/5/5 6/6/6
f 6/6/6 8/8/8 7/7/7
f 9/9/9 7/7/7 8/8/8
f 8/8/8 10/10/10 9/9/9
f 11/11/11 9/9/9 10/10/10
f 10/10/10 12/12/12 11/11/11
f 13/13/13 11/11/11 12/12/12
f 12/12/12 14/14/14 13/13/13
f 15/15/15 13/13/13 14/14/14
f 15/15/15 14/14/14 16/16/16
f 19/19/19 18/18/18 17/17/17
f 20/20/20 17/17/17 18/18/18
f 18/18/18 19/19/19 21/21/21
f 17/17/17 20/20/20 22/22/22
f 23/23/23 22/22/22 20/20/20
f 24/24/24 21/21/21 19/19/19
f 21/21/21 24/24/24 25/25/25
f 22/22/22 23/23/23 26/26/26
f 27/27/27 26/26/26 23/23/23
f 28/28/28 25/25/25 24/24/24
f 25/25/25 28/28/28 29/29/29
f 26/26/26 27/27/27 30/30/30
f 31/31/31 30/30/30 27/27/27
f 32/32/32 29/29/29 28/28/28
f 29/29/29 32/32/32 33/33/33
f 30/30/30 31/31/31 34/34/34
f 35/35/35 34/34/34 31/31/31
f 36/36/36 33/33/33 32/32/32
f 33/33/33 36/36/36 37/37/37
f 34/34/34 35/35/35 38/38/38
f 39/39/39 38/38/38 35/35/35
f 40/40/40 37/37/37 36/36/36
f 37/37/37 40/40/40 41/41/41
f 38/38/38 39/39/39 42/42/42
f 43/43/43 42/42/42 39/39/39
f 44/44/44 41/41/41 40/40/40
f 41/41/41 44/44/44 45/45/45
f 42/42/42 43/43/43 46/46/46
f 47/47/47 46/46/46 43/43/43
f 45/45/45 48/48/48 47/47/47
f 48/48/48 45/45/45 44/44/44
f 46/46/46 47/47/47 48/48/48
f 38/38/38 49/49/49 34/34/34
f 42/42/42 50/50/50 38/38/38
f 49/49/49 38/38/38 50/50/50
f 46/46/46 51/51/51 42/42/42
f 50/50/50 42/42/42 51/51/51
f 48/48/48 52/52/52 46/46/46
f 51/51/51 46/46/46 52/52/52
f 44/44/44 53/53/53 48/48/48
f 52/52/52 48/48/48 53/53/53
f 40/40/40 54/54/54 44/44/44
f 53/53/53 44/44/44 54/54/54
f 55/55/55 34/34/34 49/49/49
f 34/34/34 55/55/55 30/30/30
f 54/54/54 40/40/40 56/56/56
f 36/36/36 56/56/56 40/40/40
f 57/57/57 30/30/30 55/55/55
f 30/30/30 57/57/57 26/26/26
f 56/56/56 36/36/36 58/58/58
f 32/32/32 58/58/58 36/36/36
f 59/59/59 26/26/26 57/57/57
f 26/26/26 59/59/59 22/22/22
f 58/58/58 32/32/32 60/60/60
f 28/28/28 60/60/60 32/32/32
f 61/61/61 22/22/22 59/59/59
f 22/22/22 61/61/61 17/17/17
f 60/60/60 28/28/28 62/62/62
f 24/24/24 62/62/62 28/28/28
f 63/63/63 17/17/17 61/61/61
f 17/17/17 63/63/63 19/19/19
f 19/19/19 64/64/64 24/24/24
f 62/62/62 24/24/24 64/64/64
f 64/64/64 19/19/19 63/63/63
f 57/57/57 65/65/65 59/59/59
f 59/59/59 66/66/66 61/61/61
f 66/66/66 59/59/59 65/65/65
f 61/61/61 67/67/67 63/63/63
f 67/67/67 61/61/61 66/66/66
f 68/68/68 63/63/63 67/67/67
f 63/63/63 68/68/68 64/64/64
f 67/67/67 66/66/66 68/68/68
f 64/64/64 69/69/69 62/62/62
f 69/69/69 64/64/64 68/68/68
f 70/70/70 68/68/68 66/66/66
f 66/66/66 65/65/65 70/70/70
f 68/68/68 70/70/70 69/69/69
f 65/65/65 57/57/57 71/71/71
f 55/55/55 71/71/71 57/57/57
f 72/72/72 62/62/62 69/69/69
f 62/62/62 72/72/72 60/60/60
f 73/73/73 69/69/69 70/70/70
f 69/69/69 73/73/73 72/72/72
f 74/74/74 70/70/70 65/65/65
f 65/65/65 71/71/71 74/74/74
f 70/70/70 74/74/74 73/73/73
f 71/71/71 55/55/55 75/75/75
f 49/49/49 75/75/75 55/55/55
f 76/76/76 60/60/60 72/72/72
f 60/60/60 76/76/76 58/58/58
f 77/77/77 72/72/72 73/73/73
f 72/72/72 77/77/77 76/76/76
f 78/78/78 58/58/58 76/76/76
f 78/78/78 76/76/76 77/77/77
f 58/58/58 78/78/78 56/56/56
f 79/79/79 73/73/73 74/74/74
f 73/73/73 79/79/79 77/77/77
f 80/80/80 74/74/74 71/71/71
f 71/71/71 75/75/75 80/80/80
f 74/74/74 80/80/80 79/79/79
f 75/75/75 49/49/49 81/81/81
f 81/81/81 80/80/80 75/75/75
f 50/50/50 81/81/81 49/49/49
f 82/82/82 56/56/56 78/78/78
f 56/56/56 82/82/82 54/54/54
f 77/77/77 83/83/83 78/78/78
f 83/83/83 77/77/77 79/79/79
f 82/82/82 78/78/78 83/83/83
f 84/84/84 79/79/79 80/80/80
f 80/80/80 81/81/81 84/84/84
f 79/79/79 84/84/84 83/83/83
f 81/81/81 50/50/50 85/85/85
f 85/85/85 84/84/84 81/81/81
f 51/51/51 85/85/85 50/50/50
f 86/86/86 83/83/83 84/84/84
f 83/83/83 86/86/86 82/82/82
f 84/84/84 85/85/85 86/86/86
f 87/87/87 54/54/54 82/82/82
f 87/87/87 82/82/82 86/86/86
f 54/54/54 87/87/87 53/53/53
f 85/85/85 51/51/51 88/88/88
f 88/88/88 86/86/86 85/85/85
f 86/86/86 88/88/88 87/87/87
f 52/52/52 88/88/88 51/51/51
f 53/53/53 89/89/89 52/52/52
f 89/89/89 53/53/53 87/87/87
f 89/89/89 87/87/87 88/88/88
f 88/88/88 52/52/52 89/89/89
