g SI_Prop_WallDeco_01
v 0.392416 0.1075842 0.03041455
v 0.392416 0.4408206 0.03041455
v 0.392416 0.8924158 0.03041455
v 0.392416 0.8924158 0.03041455
v 0.392416 0.4408206 0.03041455
v 0.2508135 0.577592 0.03041455
v -0.392416 0.7136932 0.03041455
v -0.392416 0.8924158 0.03041455
v -0.08950424 0.8924158 0.03041455
v -0.134881 0.784431 0.03041455
v -0.5 1 0.03041455
v -0.5 1 -0.03041455
v 0.5 1 -0.03041455
v 0.5 1 0.03041455
v -0.5 0 -0.03041455
v -0.5 0 0.03041455
v 0.5 0 0.03041455
v 0.5 0 -0.03041455
v 0.5 0 0.03041455
v 0.5 1 0.03041455
v 0.5 1 -0.03041455
v 0.5 0 -0.03041455
v -0.5 0 -0.03041455
v -0.5 1 -0.03041455
v -0.5 1 0.03041455
v -0.5 0 0.03041455
v -0.08950424 0.8924158 0.03041455
v 0.392416 0.8924158 0.03041455
v 0.2508135 0.577592 0.03041455
v 0.08209991 0.611386 0.03041455
v -0.134881 0.784431 0.03041455
v -0.392416 0.1075842 0.03041455
v -0.392416 0.3784398 0.03041455
v -0.1104965 0.328392 0.03041455
v 0.03024673 0.1075842 0.03041455
v 0.2508135 0.577592 0.03041455
v 0.392416 0.4408206 0.03041455
v 0.392416 0.1075842 0.03041455
v 0.03024673 0.1075842 0.03041455
v 0.08209991 0.611386 0.03041455
v -0.1104965 0.328392 0.03041455
v -0.134881 0.784431 0.03041455
v 0.08209991 0.611386 0.03041455
v -0.1104965 0.328392 0.03041455
v -0.392416 0.3784398 0.03041455
v -0.392416 0.7136932 0.03041455
v -0.5 0 0.03041455
v 0.03024673 0.1075842 0.03041455
v 0.392416 0.1075842 0.03041455
v -0.392416 0.1075842 0.03041455
v 0.5 0 0.03041455
v -0.5 1 0.03041455
v 0.392416 0.8924158 0.03041455
v 0.5 1 0.03041455
v -0.392416 0.3784398 0.03041455
v -0.08950424 0.8924158 0.03041455
v -0.392416 0.7136932 0.03041455
v -0.392416 0.8924158 0.03041455
vt 0.3874512 0.1984863
vt 0.3874512 0.1984863
vt 0.3874512 0.1984863
vt 0.3874512 0.3095703
vt 0.3874512 0.3095703
vt 0.3874512 0.3095703
vt 0.3874512 0.2236328
vt 0.3874512 0.2236328
vt 0.3874512 0.2236328
vt 0.3874512 0.2236328
vt 0.4228516 0.1984863
vt 0.4228516 0.1984863
vt 0.4228516 0.1984863
vt 0.4228516 0.1984863
vt 0.3286133 0.1984863
vt 0.3286133 0.1984863
vt 0.3286133 0.1984863
vt 0.3286133 0.1984863
vt 0.362793 0.1984863
vt 0.362793 0.1984863
vt 0.362793 0.1984863
vt 0.362793 0.1984863
vt 0.362793 0.1984863
vt 0.362793 0.1984863
vt 0.362793 0.1984863
vt 0.362793 0.1984863
vt 0.3874512 0.2459717
vt 0.3874512 0.2459717
vt 0.3874512 0.2459717
vt 0.3874512 0.2459717
vt 0.3874512 0.2459717
vt 0.3874512 0.3518066
vt 0.3874512 0.3518066
vt 0.3874512 0.3518066
vt 0.3874512 0.3518066
vt 0.3874512 0.1555176
vt 0.3874512 0.1555176
vt 0.3874512 0.1555176
vt 0.3874512 0.1555176
vt 0.3874512 0.1555176
vt 0.3874512 0.1555176
vt 0.3874512 0.1815186
vt 0.3874512 0.1815186
vt 0.3874512 0.1815186
vt 0.3874512 0.1815186
vt 0.3874512 0.1815186
vt 0.3874512 0.1984863
vt 0.3874512 0.1984863
vt 0.3874512 0.1984863
vt 0.3874512 0.1984863
vt 0.3874512 0.1984863
vt 0.3874512 0.1984863
vt 0.3874512 0.1984863
vt 0.3874512 0.1984863
vt 0.3874512 0.1984863
vt 0.3874512 0.1984863
vt 0.3874512 0.1984863
vt 0.3874512 0.1984863
vn 0 1 0
vn 0 1 0
vn 0 1 0
vn 0 0 1
vn 0 0 1
vn 0 0 1
vn 0 0 1
vn 0 0 1
vn 0 0 1
vn 0 0 1
vn 0 1 0
vn 0 1 0
vn 0 1 0
vn 0 1 0
vn 0 -1 0
vn 0 -1 0
vn 0 -1 0
vn 0 -1 0
vn 1 0 0
vn 1 0 0
vn 1 0 0
vn 1 0 0
vn -1 0 0
vn -1 0 0
vn -1 0 0
vn -1 0 0
vn 0 0 1
vn 0 0 1
vn 0 0 1
vn 0 0 1
vn 0 0 1
vn 0 0 1
vn 0 0 1
vn 0 0 1
vn 0 0 1
vn 0 0 1
vn 0 0 1
vn 0 0 1
vn 0 0 1
vn 0 0 1
vn 0 0 1
vn 0 0 1
vn 0 0 1
vn 0 0 1
vn 0 0 1
vn 0 0 1
vn 0 0 1
vn 0 0 1
vn 0 0 1
vn 0 0 1
vn 0 0 1
vn 0 0 1
vn 0 0 1
vn 0 0 1
vn 0 0 1
vn 0 0 1
vn 0 0 1
vn 0 0 1
g SI_Prop_WallDeco_01_0
f 3/3/3 2/2/2 1/1/1
f 6/6/6 5/5/5 4/4/4
f 9/9/9 8/8/8 7/7/7
f 10/10/10 9/9/9 7/7/7
f 13/13/13 12/12/12 11/11/11
f 14/14/14 13/13/13 11/11/11
f 17/17/17 16/16/16 15/15/15
f 18/18/18 17/17/17 15/15/15
f 21/21/21 20/20/20 19/19/19
f 22/22/22 21/21/21 19/19/19
f 25/25/25 24/24/24 23/23/23
f 26/26/26 25/25/25 23/23/23
f 29/29/29 28/28/28 27/27/27
f 27/27/27 30/30/30 29/29/29
f 27/27/27 31/31/31 30/30/30
f 34/34/34 33/33/33 32/32/32
f 35/35/35 34/34/34 32/32/32
f 38/38/38 37/37/37 36/36/36
f 36/36/36 39/39/39 38/38/38
f 36/36/36 40/40/40 39/39/39
f 40/40/40 41/41/41 39/39/39
f 44/44/44 43/43/43 42/42/42
f 42/42/42 45/45/45 44/44/44
f 42/42/42 46/46/46 45/45/45
f 49/49/49 48/48/48 47/47/47
f 48/48/48 50/50/50 47/47/47
f 47/47/47 51/51/51 49/49/49
f 52/52/52 47/47/47 50/50/50
f 53/53/53 49/49/49 51/51/51
f 51/51/51 54/54/54 53/53/53
f 53/53/53 54/54/54 52/52/52
f 52/52/52 50/50/50 55/55/55
f 52/52/52 56/56/56 53/53/53
f 52/52/52 55/55/55 57/57/57
f 52/52/52 58/58/58 56/56/56
f 57/57/57 58/58/58 52/52/52
