g SI_Prop_WallDeco_08
v -0.228548 0.5 0.03511132
v -0.228548 0.6302866 0.03511132
v 0.228548 0.6302866 0.03511132
v 0.228548 0.5 0.03511132
v -0.5 1 0.03511132
v -0.5 1 -0.03511132
v 0.5 1 -0.03511132
v 0.5 1 0.03511132
v -0.5 0 -0.03511132
v -0.5 0 0.03511132
v 0.5 0 0.03511132
v 0.5 0 -0.03511132
v 0.5 0 0.03511132
v 0.5 1 0.03511132
v 0.5 1 -0.03511132
v 0.5 0 -0.03511132
v -0.5 0 -0.03511132
v -0.5 1 -0.03511132
v -0.5 1 0.03511132
v -0.5 0 0.03511132
v 0.228548 0.2394267 0.03511132
v 0.228548 0.6302866 0.03511132
v 0.228548 0.7605732 0.03511132
v 0.228548 0.5 0.03511132
v 0.228548 0.3697134 0.03511132
v -0.228548 0.2394267 0.03511132
v -0.228548 0.3697134 0.03511132
v 0.228548 0.3697134 0.03511132
v 0.228548 0.2394267 0.03511132
v -0.228548 0.3697134 0.03511132
v -0.228548 0.5 0.03511132
v 0.228548 0.5 0.03511132
v 0.228548 0.3697134 0.03511132
v -0.228548 0.6302866 0.03511132
v -0.228548 0.7605732 0.03511132
v 0.228548 0.7605732 0.03511132
v 0.228548 0.6302866 0.03511132
v -0.228548 0.5 0.03511132
v -0.228548 0.3697134 0.03511132
v -0.3360901 0.8360893 0.03511132
v -0.228548 0.6302866 0.03511132
v -0.228548 0.2394267 0.03511132
v -0.228548 0.7605732 0.03511132
v -0.3360901 0.1639107 0.03511132
v 0.3360901 0.8360893 0.03511132
v 0.228548 0.2394267 0.03511132
v 0.228548 0.7605732 0.03511132
v 0.3360901 0.1639107 0.03511132
v -0.5 0 0.03511132
v -0.3940315 0.1059689 0.03511132
v 0.3940315 0.1059689 0.03511132
v 0.5 0 0.03511132
v -0.5 1 0.03511132
v 0.3940315 0.894031 0.03511132
v -0.3940315 0.894031 0.03511132
v 0.5 1 0.03511132
v -0.3940315 0.1059689 0.03511132
v -0.3360901 0.1639107 0.03511132
v 0.3360901 0.1639107 0.03511132
v 0.3940315 0.1059689 0.03511132
v -0.3940315 0.894031 0.03511132
v 0.3360901 0.8360893 0.03511132
v -0.3360901 0.8360893 0.03511132
v 0.3940315 0.894031 0.03511132
vt 0.3540039 0.180542
vt 0.3540039 0.180542
vt 0.3540039 0.180542
vt 0.3540039 0.180542
vt 0.3293457 0.1534424
vt 0.3293457 0.1534424
vt 0.3293457 0.1534424
vt 0.3293457 0.1534424
vt 0.2352295 0.1534424
vt 0.2352295 0.1534424
vt 0.2352295 0.1534424
vt 0.2352295 0.1534424
vt 0.2692871 0.1534424
vt 0.2692871 0.1534424
vt 0.2692871 0.1534424
vt 0.2692871 0.1534424
vt 0.2692871 0.1534424
vt 0.2692871 0.1534424
vt 0.2692871 0.1534424
vt 0.2692871 0.1534424
vt 0.4223633 0.2893066
vt 0.4223633 0.2893066
vt 0.4223633 0.2893066
vt 0.4223633 0.2893066
vt 0.4223633 0.2893066
vt 0.01409149 0.182373
vt 0.01409149 0.182373
vt 0.01409149 0.182373
vt 0.01409149 0.182373
vt 0.197998 0.1813965
vt 0.197998 0.1813965
vt 0.197998 0.1813965
vt 0.197998 0.1813965
vt 0.4848633 0.180542
vt 0.4848633 0.180542
vt 0.4848633 0.180542
vt 0.4848633 0.180542
vt 0.4223633 0.2893066
vt 0.4223633 0.2893066
vt 0.4223633 0.2893066
vt 0.4223633 0.2893066
vt 0.4223633 0.2893066
vt 0.4223633 0.2893066
vt 0.4223633 0.2893066
vt 0.4223633 0.2893066
vt 0.4223633 0.2893066
vt 0.4223633 0.2893066
vt 0.4223633 0.2893066
vt 0.2941895 0.1534424
vt 0.2941895 0.1534424
vt 0.2941895 0.1534424
vt 0.2941895 0.1534424
vt 0.2941895 0.1534424
vt 0.2941895 0.1534424
vt 0.2941895 0.1534424
vt 0.2941895 0.1534424
vt 0.1680908 0.420166
vt 0.1680908 0.420166
vt 0.1680908 0.420166
vt 0.1680908 0.420166
vt 0.1680908 0.420166
vt 0.1680908 0.420166
vt 0.1680908 0.420166
vt 0.1680908 0.420166
vn 0 0 1
vn 0 0 1
vn 0 0 1
vn 0 0 1
vn 0 1 0
vn 0 1 0
vn 0 1 0
vn 0 1 0
vn 0 -1 0
vn 0 -1 0
vn 0 -1 0
vn 0 -1 0
vn 1 0 0
vn 1 0 0
vn 1 0 0
vn 1 0 0
vn -1 0 0
vn -1 0 0
vn -1 0 0
vn -1 0 0
vn 0 1 0
vn 0 1 0
vn 0 1 0
vn 0 1 0
vn 0 1 0
vn 0 0 1
vn 0 0 1
vn 0 0 1
vn 0 0 1
vn 0 0 1
vn 0 0 1
vn 0 0 1
vn 0 0 1
vn 0 0 1
vn 0 0 1
vn 0 0 1
vn 0 0 1
vn 0 0 1
vn 0 0 1
vn 0 0 1
vn 0 0 1
vn 0 0 1
vn 0 0 1
vn 0 0 1
vn 0 0 1
vn 0 0 1
vn 0 0 1
vn 0 0 1
vn 0 0 1
vn 0 0 1
vn 0 0 1
vn 0 0 1
vn 0 0 1
vn 0 0 1
vn 0 0 1
vn 0 0 1
vn 0 0 1
vn 0 0 1
vn 0 0 1
vn 0 0 1
vn 0 0 1
vn 0 0 1
vn 0 0 1
vn 0 0 1
g SI_Prop_WallDeco_08_0
f 3/3/3 2/2/2 1/1/1
f 4/4/4 3/3/3 1/1/1
f 7/7/7 6/6/6 5/5/5
f 8/8/8 7/7/7 5/5/5
f 11/11/11 10/10/10 9/9/9
f 12/12/12 11/11/11 9/9/9
f 15/15/15 14/14/14 13/13/13
f 16/16/16 15/15/15 13/13/13
f 19/19/19 18/18/18 17/17/17
f 20/20/20 19/19/19 17/17/17
f 23/23/23 22/22/22 21/21/21
f 22/22/22 24/24/24 21/21/21
f 24/24/24 25/25/25 21/21/21
f 28/28/28 27/27/27 26/26/26
f 29/29/29 28/28/28 26/26/26
f 32/32/32 31/31/31 30/30/30
f 33/33/33 32/32/32 30/30/30
f 36/36/36 35/35/35 34/34/34
f 37/37/37 36/36/36 34/34/34
f 40/40/40 39/39/39 38/38/38
f 40/40/40 38/38/38 41/41/41
f 40/40/40 42/42/42 39/39/39
f 41/41/41 43/43/43 40/40/40
f 40/40/40 44/44/44 42/42/42
f 40/40/40 43/43/43 45/45/45
f 46/46/46 42/42/42 44/44/44
f 43/43/43 47/47/47 45/45/45
f 48/48/48 46/46/46 44/44/44
f 48/48/48 45/45/45 47/47/47
f 47/47/47 46/46/46 48/48/48
f 51/51/51 50/50/50 49/49/49
f 52/52/52 51/51/51 49/49/49
f 49/49/49 50/50/50 53/53/53
f 54/54/54 51/51/51 52/52/52
f 50/50/50 55/55/55 53/53/53
f 56/56/56 54/54/54 52/52/52
f 53/53/53 55/55/55 56/56/56
f 55/55/55 54/54/54 56/56/56
f 59/59/59 58/58/58 57/57/57
f 60/60/60 59/59/59 57/57/57
f 57/57/57 58/58/58 61/61/61
f 62/62/62 59/59/59 60/60/60
f 58/58/58 63/63/63 61/61/61
f 64/64/64 62/62/62 60/60/60
f 61/61/61 63/63/63 64/64/64
f 63/63/63 62/62/62 64/64/64
