g SO_Clock
v -0.4003658 0 -0.06338787
v -0.4003658 0.7732115 -0.06338787
v -0.4003658 0.7732115 0.06338787
v -0.4003658 0 0.06338787
v -0.4003658 0.7732115 -0.06338787
v 0.4003658 0.7732115 -0.06338787
v 0.4003658 0.7732115 0.06338787
v -0.4003658 0.7732115 0.06338787
v 0.4003658 0.7732115 -0.06338787
v 0.4003658 0 -0.06338787
v 0.4003658 0 0.06338787
v 0.4003658 0.7732115 0.06338787
v 0.4003658 0 -0.06338787
v -0.4003658 0 -0.06338787
v -0.4003658 0 0.06338787
v 0.4003658 0 0.06338787
v -0.3409252 0.05739927 0.06338787
v -0.3409252 0.7158122 0.06338787
v 0.3409233 0.7158122 0.06338787
v 0.3409233 0.05739927 0.06338787
v 0.4003658 0 -0.06338787
v 0.4003658 0.7732115 -0.06338787
v -0.4003658 0.7732115 -0.06338787
v -0.4003658 0 -0.06338787
v -0.4003658 0 0.06338787
v -0.3409252 0.05739927 0.06338787
v 0.3409233 0.05739927 0.06338787
v 0.4003658 0 0.06338787
v -0.4003658 0.7732115 0.06338787
v 0.3409233 0.7158122 0.06338787
v -0.3409252 0.7158122 0.06338787
v 0.4003658 0.7732115 0.06338787
vt 0.1779785 0.06192017
vt 0.1779785 0.06192017
vt 0.1779785 0.06192017
vt 0.1779785 0.06192017
vt 0.2363281 0.06192017
vt 0.2363281 0.06192017
vt 0.2363281 0.06192017
vt 0.2363281 0.06192017
vt 0.1779785 0.06192017
vt 0.1779785 0.06192017
vt 0.1779785 0.06192017
vt 0.1779785 0.06192017
vt 0.1401367 0.06192017
vt 0.1401367 0.06192017
vt 0.1401367 0.06192017
vt 0.1401367 0.06192017
vt 0.7353516 0.9003906
vt 0.7353516 0.9975586
vt 0.8320313 0.9975586
vt 0.8320313 0.9003906
vt 0.2025146 0.06192017
vt 0.2025146 0.06192017
vt 0.2025146 0.06192017
vt 0.2025146 0.06192017
vt 0.2025146 0.06192017
vt 0.2025146 0.06192017
vt 0.2025146 0.06192017
vt 0.2025146 0.06192017
vt 0.2025146 0.06192017
vt 0.2025146 0.06192017
vt 0.2025146 0.06192017
vt 0.2025146 0.06192017
vn -1 0 0
vn -1 0 0
vn -1 0 0
vn -1 0 0
vn 0 1 0
vn 0 1 0
vn 0 1 0
vn 0 1 0
vn 1 0 0
vn 1 0 0
vn 1 0 0
vn 1 0 0
vn 0 -1 0
vn 0 -1 0
vn 0 -1 0
vn 0 -1 0
vn 0 0 1
vn 0 0 1
vn 0 0 1
vn 0 0 1
vn 0 0 -1
vn 0 0 -1
vn 0 0 -1
vn 0 0 -1
vn 0 0 1
vn 0 0 1
vn 0 0 1
vn 0 0 1
vn 0 0 1
vn 0 0 1
vn 0 0 1
vn 0 0 1
g SO_Clock_0
f 3/3/3 2/2/2 1/1/1
f 4/4/4 3/3/3 1/1/1
f 7/7/7 6/6/6 5/5/5
f 8/8/8 7/7/7 5/5/5
f 11/11/11 10/10/10 9/9/9
f 12/12/12 11/11/11 9/9/9
f 15/15/15 14/14/14 13/13/13
f 16/16/16 15/15/15 13/13/13
f 19/19/19 18/18/18 17/17/17
f 20/20/20 19/19/19 17/17/17
f 23/23/23 22/22/22 21/21/21
f 24/24/24 23/23/23 21/21/21
f 27/27/27 26/26/26 25/25/25
f 28/28/28 27/27/27 25/25/25
f 25/25/25 26/26/26 29/29/29
f 30/30/30 27/27/27 28/28/28
f 26/26/26 31/31/31 29/29/29
f 32/32/32 30/30/30 28/28/28
f 29/29/29 31/31/31 32/32/32
f 31/31/31 30/30/30 32/32/32
