g SO_Deskfan_Blade
v 0.004273191 -0.0005716085 -0.006882191
v 0.046313 -0.1848365 -0.006687641
v 0.04624929 -0.1848365 0.007115841
v 0.004209474 -0.0005716085 0.006921291
v 0.046313 -0.1848365 -0.006687641
v -0.04831968 -0.1848365 -0.007126331
v -0.04838352 -0.1848365 0.006677151
v 0.04624929 -0.1848365 0.007115841
v -0.04831968 -0.1848365 -0.007126331
v -0.04831968 -0.0005716085 -0.007126331
v -0.04838352 -0.0005716085 0.006677151
v -0.04838352 -0.1848365 0.006677151
v -0.04831968 -0.0005716085 -0.007126331
v 0.004273191 -0.0005716085 -0.006882191
v 0.004209474 -0.0005716085 0.006921291
v -0.04838352 -0.0005716085 0.006677151
v 0.004209474 -0.0005716085 0.006921291
v 0.04624929 -0.1848365 0.007115841
v -0.04838352 -0.1848365 0.006677151
v -0.04838352 -0.0005716085 0.006677151
v -0.04831968 -0.0005716085 -0.007126331
v -0.04831968 -0.1848365 -0.007126331
v 0.046313 -0.1848365 -0.006687641
v 0.004273191 -0.0005716085 -0.006882191
v -0.001771614 -0.01307929 -0.006910801
v -0.1860347 -0.05511963 -0.007764339
v -0.1860986 -0.05511963 0.006039143
v -0.001835331 -0.01307929 0.006893635
v -0.1860347 -0.05511963 -0.007764339
v -0.1860347 0.03951418 -0.007764339
v -0.1860986 0.03951418 0.006039143
v -0.1860986 -0.05511963 0.006039143
v -0.1860347 0.03951418 -0.007764339
v -0.001771614 0.03951418 -0.006910801
v -0.001835331 0.03951418 0.006893635
v -0.1860986 0.03951418 0.006039143
v -0.001771614 0.03951418 -0.006910801
v -0.001771614 -0.01307929 -0.006910801
v -0.001835331 -0.01307929 0.006893635
v -0.001835331 0.03951418 0.006893635
v -0.001835331 -0.01307929 0.006893635
v -0.1860986 -0.05511963 0.006039143
v -0.1860986 0.03951418 0.006039143
v -0.001835331 0.03951418 0.006893635
v -0.001771614 0.03951418 -0.006910801
v -0.1860347 0.03951418 -0.007764339
v -0.1860347 -0.05511963 -0.007764339
v -0.001771614 -0.01307929 -0.006910801
v -0.004208669 0.0005716085 -0.006921291
v -0.04624848 0.1848365 -0.007116795
v -0.04631303 0.1848365 0.006686687
v -0.004273221 0.0005716085 0.006882191
v -0.04624848 0.1848365 -0.007116795
v 0.04838343 0.1848365 -0.006678104
v 0.04831971 0.1848365 0.007125378
v -0.04631303 0.1848365 0.006686687
v 0.04838343 0.1848365 -0.006678104
v 0.04838343 0.0005716085 -0.006678104
v 0.04831971 0.0005716085 0.007125378
v 0.04831971 0.1848365 0.007125378
v 0.04838343 0.0005716085 -0.006678104
v -0.004208669 0.0005716085 -0.006921291
v -0.004273221 0.0005716085 0.006882191
v 0.04831971 0.0005716085 0.007125378
v -0.004273221 0.0005716085 0.006882191
v -0.04631303 0.1848365 0.006686687
v 0.04831971 0.1848365 0.007125378
v 0.04831971 0.0005716085 0.007125378
v 0.04838343 0.0005716085 -0.006678104
v 0.04838343 0.1848365 -0.006678104
v -0.04624848 0.1848365 -0.007116795
v -0.004208669 0.0005716085 -0.006921291
v 0.001835421 0.01116884 -0.006893635
v 0.1860986 0.05320942 -0.006040096
v 0.1860347 0.05320942 0.007764339
v 0.001771525 0.01116884 0.006909847
v 0.1860986 0.05320942 -0.006040096
v 0.1860986 -0.04142439 -0.006040096
v 0.1860347 -0.04142439 0.007764339
v 0.1860347 0.05320942 0.007764339
v 0.1860986 -0.04142439 -0.006040096
v 0.001835421 -0.04142439 -0.006893635
v 0.001771525 -0.04142439 0.006909847
v 0.1860347 -0.04142439 0.007764339
v 0.001835421 -0.04142439 -0.006893635
v 0.001835421 0.01116884 -0.006893635
v 0.001771525 0.01116884 0.006909847
v 0.001771525 -0.04142439 0.006909847
v 0.001771525 0.01116884 0.006909847
v 0.1860347 0.05320942 0.007764339
v 0.1860347 -0.04142439 0.007764339
v 0.001771525 -0.04142439 0.006909847
v 0.001835421 -0.04142439 -0.006893635
v 0.1860986 -0.04142439 -0.006040096
v 0.1860986 0.05320942 -0.006040096
v 0.001835421 0.01116884 -0.006893635
vt 0.3249512 0.08441162
vt 0.3249512 0.08441162
vt 0.3249512 0.08441162
vt 0.3249512 0.08441162
vt 0.3833008 0.08441162
vt 0.3833008 0.08441162
vt 0.3833008 0.08441162
vt 0.3833008 0.08441162
vt 0.3249512 0.08441162
vt 0.3249512 0.08441162
vt 0.3249512 0.08441162
vt 0.3249512 0.08441162
vt 0.2871094 0.08441162
vt 0.2871094 0.08441162
vt 0.2871094 0.08441162
vt 0.2871094 0.08441162
vt 0.3496094 0.08441162
vt 0.3496094 0.08441162
vt 0.3496094 0.08441162
vt 0.3496094 0.08441162
vt 0.3496094 0.08441162
vt 0.3496094 0.08441162
vt 0.3496094 0.08441162
vt 0.3496094 0.08441162
vt 0.3249512 0.08441162
vt 0.3249512 0.08441162
vt 0.3249512 0.08441162
vt 0.3249512 0.08441162
vt 0.3833008 0.08441162
vt 0.3833008 0.08441162
vt 0.3833008 0.08441162
vt 0.3833008 0.08441162
vt 0.3249512 0.08441162
vt 0.3249512 0.08441162
vt 0.3249512 0.08441162
vt 0.3249512 0.08441162
vt 0.2871094 0.08441162
vt 0.2871094 0.08441162
vt 0.2871094 0.08441162
vt 0.2871094 0.08441162
vt 0.3496094 0.08441162
vt 0.3496094 0.08441162
vt 0.3496094 0.08441162
vt 0.3496094 0.08441162
vt 0.3496094 0.08441162
vt 0.3496094 0.08441162
vt 0.3496094 0.08441162
vt 0.3496094 0.08441162
vt 0.3249512 0.08441162
vt 0.3249512 0.08441162
vt 0.3249512 0.08441162
vt 0.3249512 0.08441162
vt 0.3833008 0.08441162
vt 0.3833008 0.08441162
vt 0.3833008 0.08441162
vt 0.3833008 0.08441162
vt 0.3249512 0.08441162
vt 0.3249512 0.08441162
vt 0.3249512 0.08441162
vt 0.3249512 0.08441162
vt 0.2871094 0.08441162
vt 0.2871094 0.08441162
vt 0.2871094 0.08441162
vt 0.2871094 0.08441162
vt 0.3496094 0.08441162
vt 0.3496094 0.08441162
vt 0.3496094 0.08441162
vt 0.3496094 0.08441162
vt 0.3496094 0.08441162
vt 0.3496094 0.08441162
vt 0.3496094 0.08441162
vt 0.3496094 0.08441162
vt 0.3249512 0.08441162
vt 0.3249512 0.08441162
vt 0.3249512 0.08441162
vt 0.3249512 0.08441162
vt 0.3833008 0.08441162
vt 0.3833008 0.08441162
vt 0.3833008 0.08441162
vt 0.3833008 0.08441162
vt 0.3249512 0.08441162
vt 0.3249512 0.08441162
vt 0.3249512 0.08441162
vt 0.3249512 0.08441162
vt 0.2871094 0.08441162
vt 0.2871094 0.08441162
vt 0.2871094 0.08441162
vt 0.2871094 0.08441162
vt 0.3496094 0.08441162
vt 0.3496094 0.08441162
vt 0.3496094 0.08441162
vt 0.3496094 0.08441162
vt 0.3496094 0.08441162
vt 0.3496094 0.08441162
vt 0.3496094 0.08441162
vt 0.3496094 0.08441162
vn 0.9750977 0.2224121 0.004501343
vn 0.9750977 0.2224121 0.004501343
vn 0.9750977 0.2224121 0.004501343
vn 0.9750977 0.2224121 0.004501343
vn 0 -1 0
vn 0 -1 0
vn 0 -1 0
vn 0 -1 0
vn -1 0 -0.004623413
vn -1 0 -0.004623413
vn -1 0 -0.004623413
vn -1 0 -0.004623413
vn 0 1 0
vn 0 1 0
vn 0 1 0
vn 0 1 0
vn -0.004638672 0 1
vn -0.004638672 0 1
vn -0.004638672 0 1
vn -0.004638672 0 1
vn 0.004638672 0 -1
vn 0.004638672 0 -1
vn 0.004638672 0 -1
vn 0.004638672 0 -1
vn 0.2224121 -0.9750977 0
vn 0.2224121 -0.9750977 0
vn 0.2224121 -0.9750977 0
vn 0.2224121 -0.9750977 0
vn -1 0 -0.004627228
vn -1 0 -0.004627228
vn -1 0 -0.004627228
vn -1 0 -0.004627228
vn 0 1 0
vn 0 1 0
vn 0 1 0
vn 0 1 0
vn 1 0 0
vn 1 0 0
vn 1 0 0
vn 1 0 0
vn -0.004638672 0 1
vn -0.004638672 0 1
vn -0.004638672 0 1
vn -0.004638672 0 1
vn 0.004631042 0 -1
vn 0.004631042 0 -1
vn 0.004631042 0 -1
vn 0.004631042 0 -1
vn -0.9750977 -0.2224121 -0.004558563
vn -0.9750977 -0.2224121 -0.004558563
vn -0.9750977 -0.2224121 -0.004558563
vn -0.9750977 -0.2224121 -0.004558563
vn 0 1 0
vn 0 1 0
vn 0 1 0
vn 0 1 0
vn 1 0 0.004615784
vn 1 0 0.004615784
vn 1 0 0.004615784
vn 1 0 0.004615784
vn 0 -1 0
vn 0 -1 0
vn 0 -1 0
vn 0 -1 0
vn -0.004631042 0 1
vn -0.004631042 0 1
vn -0.004631042 0 1
vn -0.004631042 0 1
vn 0.004631042 0 -1
vn 0.004631042 0 -1
vn 0.004631042 0 -1
vn 0.004631042 0 -1
vn -0.2224121 0.9750977 0
vn -0.2224121 0.9750977 0
vn -0.2224121 0.9750977 0
vn -0.2224121 0.9750977 0
vn 1 0 0.004627228
vn 1 0 0.004627228
vn 1 0 0.004627228
vn 1 0 0.004627228
vn 0 -1 0
vn 0 -1 0
vn 0 -1 0
vn 0 -1 0
vn -1 0 0
vn -1 0 0
vn -1 0 0
vn -1 0 0
vn -0.004638672 0 1
vn -0.004638672 0 1
vn -0.004638672 0 1
vn -0.004638672 0 1
vn 0.004631042 0 -1
vn 0.004631042 0 -1
vn 0.004631042 0 -1
vn 0.004631042 0 -1
g SO_Deskfan_Blade_0
f 3/3/3 2/2/2 1/1/1
f 4/4/4 3/3/3 1/1/1
f 7/7/7 6/6/6 5/5/5
f 8/8/8 7/7/7 5/5/5
f 11/11/11 10/10/10 9/9/9
f 12/12/12 11/11/11 9/9/9
f 15/15/15 14/14/14 13/13/13
f 16/16/16 15/15/15 13/13/13
f 19/19/19 18/18/18 17/17/17
f 20/20/20 19/19/19 17/17/17
f 23/23/23 22/22/22 21/21/21
f 24/24/24 23/23/23 21/21/21
f 27/27/27 26/26/26 25/25/25
f 28/28/28 27/27/27 25/25/25
f 31/31/31 30/30/30 29/29/29
f 32/32/32 31/31/31 29/29/29
f 35/35/35 34/34/34 33/33/33
f 36/36/36 35/35/35 33/33/33
f 39/39/39 38/38/38 37/37/37
f 40/40/40 39/39/39 37/37/37
f 43/43/43 42/42/42 41/41/41
f 44/44/44 43/43/43 41/41/41
f 47/47/47 46/46/46 45/45/45
f 48/48/48 47/47/47 45/45/45
f 51/51/51 50/50/50 49/49/49
f 52/52/52 51/51/51 49/49/49
f 55/55/55 54/54/54 53/53/53
f 56/56/56 55/55/55 53/53/53
f 59/59/59 58/58/58 57/57/57
f 60/60/60 59/59/59 57/57/57
f 63/63/63 62/62/62 61/61/61
f 64/64/64 63/63/63 61/61/61
f 67/67/67 66/66/66 65/65/65
f 68/68/68 67/67/67 65/65/65
f 71/71/71 70/70/70 69/69/69
f 72/72/72 71/71/71 69/69/69
f 75/75/75 74/74/74 73/73/73
f 76/76/76 75/75/75 73/73/73
f 79/79/79 78/78/78 77/77/77
f 80/80/80 79/79/79 77/77/77
f 83/83/83 82/82/82 81/81/81
f 84/84/84 83/83/83 81/81/81
f 87/87/87 86/86/86 85/85/85
f 88/88/88 87/87/87 85/85/85
f 91/91/91 90/90/90 89/89/89
f 92/92/92 91/91/91 89/89/89
f 95/95/95 94/94/94 93/93/93
f 96/96/96 95/95/95 93/93/93
