g SO_Painting_02
v -0.07875782 0.4045869 0.008831287
v -0.07875782 0.4678249 0.008831287
v -0.07875779 0.6007867 0.008831287
v 0.1924757 0.8412416 0.008831287
v 0.1924757 0.7237737 0.008831287
v 0.1924756 0.6007867 0.008831287
v 0.0630505 0.2637227 0.008831287
v 0.0630505 0.4045869 0.008831287
v 0.06305052 0.6007867 0.008831287
v -0.2883258 0.2637227 0.008831287
v -0.2883258 0.4045869 0.008831287
v -0.2883258 0.4678249 0.008831287
v -0.4003668 0 0
v -0.4003668 1.123208 0
v -0.4003668 1.123208 0.03538136
v -0.4003668 0 0.03538136
v -0.4003668 1.123208 0
v 0.4003668 1.123208 0
v 0.4003668 1.123208 0.03538136
v -0.4003668 1.123208 0.03538136
v 0.4003668 1.123208 0
v 0.4003668 0 0
v 0.4003668 0 0.03538136
v 0.4003668 1.123208 0.03538136
v 0.4003668 0 0
v -0.4003668 0 0
v -0.4003668 0 0.03538136
v 0.4003668 0 0.03538136
v -0.3604073 0.04029098 0.03538136
v -0.3604073 0.04029098 0.008831287
v 0.1924756 0.04029098 0.008831287
v 0.3604073 0.04029098 0.008831287
v 0.3604073 0.04029098 0.03538136
v 0.3604073 1.082917 0.03538136
v 0.3604073 0.04029098 0.03538136
v 0.3604073 0.04029098 0.008831287
v 0.3604073 0.2637227 0.008831287
v 0.3604073 0.6007867 0.008831287
v 0.3604073 0.7237738 0.008831287
v 0.3604073 0.8412416 0.008831287
v 0.3604073 1.082917 0.008831287
v 0.3604073 1.082917 0.03538136
v 0.3604073 1.082917 0.008831287
v 0.06305053 1.082917 0.008831287
v -0.07875777 1.082917 0.008831287
v -0.3604073 1.082917 0.008831287
v -0.3604073 1.082917 0.03538136
v -0.3604073 0.2637227 0.008831287
v -0.3604073 0.04029098 0.008831287
v -0.3604073 0.04029098 0.03538136
v -0.3604073 1.082917 0.03538136
v -0.3604073 0.4045869 0.008831287
v -0.3604072 0.8412416 0.008831287
v -0.3604072 0.9578552 0.008831287
v -0.3604073 1.082917 0.008831287
v 0.1924756 0.2637227 0.008831287
v 0.1924756 0.04029098 0.008831287
v -0.3604073 0.04029098 0.008831287
v 0.0630505 0.2637227 0.008831287
v -0.07875782 0.2637227 0.008831287
v -0.2883258 0.2637227 0.008831287
v -0.3604073 0.2637227 0.008831287
v -0.2883258 0.7237738 0.008831287
v -0.07875776 0.7237737 0.008831287
v -0.07875779 0.6007867 0.008831287
v -0.07875782 0.4678249 0.008831287
v -0.2883258 0.4678249 0.008831287
v -0.3604073 1.082917 0.008831287
v -0.07875777 1.082917 0.008831287
v -0.07875777 0.9578552 0.008831287
v -0.2883258 0.9578552 0.008831287
v -0.3604072 0.9578552 0.008831287
v -0.3604072 0.8412416 0.008831287
v -0.3604072 0.9578552 0.008831287
v -0.2883258 0.9578552 0.008831287
v -0.2883258 0.8412416 0.008831287
v -0.3604072 0.8412416 0.008831287
v -0.2883258 0.8412416 0.008831287
v -0.2883258 0.7237738 0.008831287
v -0.2883258 0.4678249 0.008831287
v -0.2883258 0.4045869 0.008831287
v -0.3604073 0.4045869 0.008831287
v -0.07875777 0.9578552 0.008831287
v 0.006634794 0.9578552 0.008831287
v 0.006634794 0.8412416 0.008831287
v -0.07875776 0.7237737 0.008831287
v 0.006634804 0.7237737 0.008831287
v -0.2883258 0.7237738 0.008831287
v -0.2883258 0.8412416 0.008831287
v -0.2883258 0.9578552 0.008831287
v 0.06305053 1.082917 0.008831287
v 0.06305055 0.9578552 0.008831287
v 0.006634794 0.9578552 0.008831287
v -0.07875777 1.082917 0.008831287
v -0.07875777 0.9578552 0.008831287
v 0.006634777 0.6007867 0.008831287
v 0.06305052 0.6007867 0.008831287
v 0.0630505 0.4045869 0.008831287
v -0.07875782 0.4045869 0.008831287
v -0.07875779 0.6007867 0.008831287
v 0.1924756 0.6007867 0.008831287
v 0.06305055 0.8412416 0.008831287
v 0.1924757 0.8412416 0.008831287
v 0.06305052 0.6007867 0.008831287
v 0.006634794 0.8412416 0.008831287
v 0.006634804 0.7237737 0.008831287
v 0.006634777 0.6007867 0.008831287
v 0.006634794 0.9578552 0.008831287
v 0.06305055 0.9578552 0.008831287
v 0.06305055 0.8412416 0.008831287
v 0.006634794 0.8412416 0.008831287
v 0.1924756 0.6007867 0.008831287
v 0.3604073 0.6007867 0.008831287
v 0.3604073 0.2637227 0.008831287
v 0.1924756 0.2637227 0.008831287
v 0.06305052 0.6007867 0.008831287
v 0.0630505 0.2637227 0.008831287
v 0.3604073 1.082917 0.008831287
v 0.3604073 0.8412416 0.008831287
v 0.1924757 0.8412416 0.008831287
v 0.06305053 1.082917 0.008831287
v 0.06305055 0.9578552 0.008831287
v 0.06305055 0.8412416 0.008831287
v 0.1924756 0.2637227 0.008831287
v 0.3604073 0.2637227 0.008831287
v 0.3604073 0.04029098 0.008831287
v 0.1924756 0.04029098 0.008831287
v 0.1924757 0.8412416 0.008831287
v 0.3604073 0.8412416 0.008831287
v 0.3604073 0.7237738 0.008831287
v 0.1924757 0.7237737 0.008831287
v -0.3604073 0.2637227 0.008831287
v -0.3604073 0.4045869 0.008831287
v -0.2883258 0.4045869 0.008831287
v -0.2883258 0.2637227 0.008831287
v -0.07875782 0.4045869 0.008831287
v 0.0630505 0.4045869 0.008831287
v 0.0630505 0.2637227 0.008831287
v -0.07875782 0.2637227 0.008831287
v -0.2883258 0.4678249 0.008831287
v -0.07875782 0.4678249 0.008831287
v -0.07875782 0.4045869 0.008831287
v -0.07875782 0.2637227 0.008831287
v -0.2883258 0.2637227 0.008831287
v 0.006634804 0.7237737 0.008831287
v 0.006634777 0.6007867 0.008831287
v -0.07875779 0.6007867 0.008831287
v -0.07875776 0.7237737 0.008831287
v 0.3604073 0.6007867 0.008831287
v 0.1924756 0.6007867 0.008831287
v 0.1924757 0.7237737 0.008831287
v 0.3604073 0.7237738 0.008831287
v -0.4003668 0 0.03538136
v -0.3604073 0.04029098 0.03538136
v 0.3604073 0.04029098 0.03538136
v 0.4003668 0 0.03538136
v -0.4003668 1.123208 0.03538136
v 0.3604073 1.082917 0.03538136
v -0.3604073 1.082917 0.03538136
v 0.4003668 1.123208 0.03538136
vt 0.3242188 0.2197266
vt 0.3242188 0.2197266
vt 0.3242188 0.2197266
vt 0.3242188 0.006008148
vt 0.3242188 0.006008148
vt 0.3242188 0.006008148
vt 0.3242188 0.1804199
vt 0.3242188 0.1804199
vt 0.3242188 0.1804199
vt 0.3242188 0.375
vt 0.3242188 0.375
vt 0.3242188 0.375
vt 0.2084961 0.06341553
vt 0.2084961 0.06341553
vt 0.2084961 0.06341553
vt 0.2084961 0.06341553
vt 0.2668457 0.06341553
vt 0.2668457 0.06341553
vt 0.2668457 0.06341553
vt 0.2668457 0.06341553
vt 0.2084961 0.06341553
vt 0.2084961 0.06341553
vt 0.2084961 0.06341553
vt 0.2084961 0.06341553
vt 0.1706543 0.06341553
vt 0.1706543 0.06341553
vt 0.1706543 0.06341553
vt 0.1706543 0.06341553
vt 0.2330322 0.06341553
vt 0.2330322 0.06341553
vt 0.2330322 0.06341553
vt 0.2330322 0.06341553
vt 0.2330322 0.06341553
vt 0.2330322 0.06341553
vt 0.2330322 0.06341553
vt 0.2330322 0.06341553
vt 0.2330322 0.06341553
vt 0.2330322 0.06341553
vt 0.2330322 0.06341553
vt 0.2330322 0.06341553
vt 0.2330322 0.06341553
vt 0.2330322 0.06341553
vt 0.2330322 0.06341553
vt 0.2330322 0.06341553
vt 0.2330322 0.06341553
vt 0.2330322 0.06341553
vt 0.2330322 0.06341553
vt 0.2330322 0.06341553
vt 0.2330322 0.06341553
vt 0.2330322 0.06341553
vt 0.2330322 0.06341553
vt 0.2330322 0.06341553
vt 0.2330322 0.06341553
vt 0.2330322 0.06341553
vt 0.2330322 0.06341553
vt 0.3242188 0.2197266
vt 0.3242188 0.2197266
vt 0.3242188 0.2197266
vt 0.3242188 0.2197266
vt 0.3242188 0.2197266
vt 0.3242188 0.2197266
vt 0.3242188 0.2197266
vt 0.3242188 0.2883301
vt 0.3242188 0.2883301
vt 0.3242188 0.2883301
vt 0.3242188 0.2883301
vt 0.3242188 0.2883301
vt 0.3242188 0.2197266
vt 0.3242188 0.2197266
vt 0.3242188 0.2197266
vt 0.3242188 0.2197266
vt 0.3242188 0.2197266
vt 0.3242188 0.006008148
vt 0.3242188 0.006008148
vt 0.3242188 0.006008148
vt 0.3242188 0.006008148
vt 0.3242188 0.416748
vt 0.3242188 0.416748
vt 0.3242188 0.416748
vt 0.3242188 0.416748
vt 0.3242188 0.416748
vt 0.3242188 0.416748
vt 0.3242188 0.1983643
vt 0.3242188 0.1983643
vt 0.3242188 0.1983643
vt 0.3242188 0.1983643
vt 0.3242188 0.1983643
vt 0.3242188 0.1983643
vt 0.3242188 0.1983643
vt 0.3242188 0.1983643
vt 0.3242188 0.1804199
vt 0.3242188 0.1804199
vt 0.3242188 0.1804199
vt 0.3242188 0.1804199
vt 0.3242188 0.1804199
vt 0.3242188 0.2197266
vt 0.3242188 0.2197266
vt 0.3242188 0.2197266
vt 0.3242188 0.2197266
vt 0.3242188 0.2197266
vt 0.3242188 0.006008148
vt 0.3242188 0.006008148
vt 0.3242188 0.006008148
vt 0.3242188 0.006008148
vt 0.3242188 0.006008148
vt 0.3242188 0.006008148
vt 0.3242188 0.006008148
vt 0.3242188 0.375
vt 0.3242188 0.375
vt 0.3242188 0.375
vt 0.3242188 0.375
vt 0.3242188 0.1804199
vt 0.3242188 0.1804199
vt 0.3242188 0.1804199
vt 0.3242188 0.1804199
vt 0.3242188 0.1804199
vt 0.3242188 0.1804199
vt 0.3242188 0.1983643
vt 0.3242188 0.1983643
vt 0.3242188 0.1983643
vt 0.3242188 0.1983643
vt 0.3242188 0.1983643
vt 0.3242188 0.1983643
vt 0.3242188 0.1983643
vt 0.3242188 0.1983643
vt 0.3242188 0.1983643
vt 0.3242188 0.1983643
vt 0.3242188 0.375
vt 0.3242188 0.375
vt 0.3242188 0.375
vt 0.3242188 0.375
vt 0.3242188 0.1804199
vt 0.3242188 0.1804199
vt 0.3242188 0.1804199
vt 0.3242188 0.1804199
vt 0.3242188 0.006008148
vt 0.3242188 0.006008148
vt 0.3242188 0.006008148
vt 0.3242188 0.006008148
vt 0.3242188 0.375
vt 0.3242188 0.375
vt 0.3242188 0.375
vt 0.3242188 0.375
vt 0.3242188 0.375
vt 0.3242188 0.1804199
vt 0.3242188 0.1804199
vt 0.3242188 0.1804199
vt 0.3242188 0.1804199
vt 0.3242188 0.2883301
vt 0.3242188 0.2883301
vt 0.3242188 0.2883301
vt 0.3242188 0.2883301
vt 0.2330322 0.06341553
vt 0.2330322 0.06341553
vt 0.2330322 0.06341553
vt 0.2330322 0.06341553
vt 0.2330322 0.06341553
vt 0.2330322 0.06341553
vt 0.2330322 0.06341553
vt 0.2330322 0.06341553
vn 0 1 0
vn 0 1 0
vn 0 1 0
vn 0 1 0
vn 0 1 0
vn 0 1 0
vn 0 1 0
vn 0 1 0
vn 0 1 0
vn 0 1 0
vn 0 1 0
vn 0 1 0
vn -1 0 0
vn -1 0 0
vn -1 0 0
vn -1 0 0
vn 0 1 0
vn 0 1 0
vn 0 1 0
vn 0 1 0
vn 1 0 0
vn 1 0 0
vn 1 0 0
vn 1 0 0
vn 0 -1 0
vn 0 -1 0
vn 0 -1 0
vn 0 -1 0
vn 0 1 0
vn 0 1 0
vn 0 1 0
vn 0 1 0
vn 0 1 0
vn -1 0 0
vn -1 0 0
vn -1 0 0
vn -1 0 0
vn -1 0 0
vn -1 0 0
vn -1 0 0
vn -1 0 0
vn 0 -1 0
vn 0 -1 0
vn 0 -1 0
vn 0 -1 0
vn 0 -1 0
vn 0 -1 0
vn 1 0 0
vn 1 0 0
vn 1 0 0
vn 1 0 0
vn 1 0 0
vn 1 0 0
vn 1 0 0
vn 1 0 0
vn 0 0 1
vn 0 0 1
vn 0 0 1
vn 0 0 1
vn 0 0 1
vn 0 0 1
vn 0 0 1
vn 0 0 1
vn 0 0 1
vn 0 0 1
vn 0 0 1
vn 0 0 1
vn 0 0 1
vn 0 0 1
vn 0 0 1
vn 0 0 1
vn 0 0 1
vn 0 0 1
vn 0 0 1
vn 0 0 1
vn 0 0 1
vn 0 0 1
vn 0 0 1
vn 0 0 1
vn 0 0 1
vn 0 0 1
vn 0 0 1
vn 0 0 1
vn 0 0 1
vn 0 0 1
vn 0 0 1
vn 0 0 1
vn 0 0 1
vn 0 0 1
vn 0 0 1
vn 0 0 1
vn 0 0 1
vn 0 0 1
vn 0 0 1
vn 0 0 1
vn 0 0 1
vn 0 0 1
vn 0 0 1
vn 0 0 1
vn 0 0 1
vn 0 0 1
vn 0 0 1
vn 0 0 1
vn 0 0 1
vn 0 0 1
vn 0 0 1
vn 0 0 1
vn 0 0 1
vn 0 0 1
vn 0 0 1
vn 0 0 1
vn 0 0 1
vn 0 0 1
vn 0 0 1
vn 0 0 1
vn 0 0 1
vn 0 0 1
vn 0 0 1
vn 0 0 1
vn 0 0 1
vn 0 0 1
vn 0 0 1
vn 0 0 1
vn 0 0 1
vn 0 0 1
vn 0 0 1
vn 0 0 1
vn 0 0 1
vn 0 0 1
vn 0 0 1
vn 0 0 1
vn 0 0 1
vn 0 0 1
vn 0 0 1
vn 0 0 1
vn 0 0 1
vn 0 0 1
vn 0 0 1
vn 0 0 1
vn 0 0 1
vn 0 0 1
vn 0 0 1
vn 0 0 1
vn 0 0 1
vn 0 0 1
vn 0 0 1
vn 0 0 1
vn 0 0 1
vn 0 0 1
vn 0 0 1
vn 0 0 1
vn 0 0 1
vn 0 0 1
vn 0 0 1
vn 0 0 1
vn 0 0 1
vn 0 0 1
vn 0 0 1
vn 0 0 1
vn 0 0 1
g SO_Painting_02_0
f 3/3/3 2/2/2 1/1/1
f 6/6/6 5/5/5 4/4/4
f 9/9/9 8/8/8 7/7/7
f 12/12/12 11/11/11 10/10/10
f 15/15/15 14/14/14 13/13/13
f 16/16/16 15/15/15 13/13/13
f 19/19/19 18/18/18 17/17/17
f 20/20/20 19/19/19 17/17/17
f 23/23/23 22/22/22 21/21/21
f 24/24/24 23/23/23 21/21/21
f 27/27/27 26/26/26 25/25/25
f 28/28/28 27/27/27 25/25/25
f 31/31/31 30/30/30 29/29/29
f 29/29/29 32/32/32 31/31/31
f 29/29/29 33/33/33 32/32/32
f 36/36/36 35/35/35 34/34/34
f 34/34/34 37/37/37 36/36/36
f 34/34/34 38/38/38 37/37/37
f 34/34/34 39/39/39 38/38/38
f 34/34/34 40/40/40 39/39/39
f 34/34/34 41/41/41 40/40/40
f 44/44/44 43/43/43 42/42/42
f 42/42/42 45/45/45 44/44/44
f 42/42/42 46/46/46 45/45/45
f 42/42/42 47/47/47 46/46/46
f 50/50/50 49/49/49 48/48/48
f 48/48/48 51/51/51 50/50/50
f 48/48/48 52/52/52 51/51/51
f 52/52/52 53/53/53 51/51/51
f 53/53/53 54/54/54 51/51/51
f 54/54/54 55/55/55 51/51/51
f 58/58/58 57/57/57 56/56/56
f 56/56/56 59/59/59 58/58/58
f 59/59/59 60/60/60 58/58/58
f 60/60/60 61/61/61 58/58/58
f 61/61/61 62/62/62 58/58/58
f 65/65/65 64/64/64 63/63/63
f 63/63/63 66/66/66 65/65/65
f 63/63/63 67/67/67 66/66/66
f 70/70/70 69/69/69 68/68/68
f 68/68/68 71/71/71 70/70/70
f 68/68/68 72/72/72 71/71/71
f 75/75/75 74/74/74 73/73/73
f 76/76/76 75/75/75 73/73/73
f 79/79/79 78/78/78 77/77/77
f 77/77/77 80/80/80 79/79/79
f 77/77/77 81/81/81 80/80/80
f 77/77/77 82/82/82 81/81/81
f 85/85/85 84/84/84 83/83/83
f 83/83/83 86/86/86 85/85/85
f 87/87/87 85/85/85 86/86/86
f 83/83/83 88/88/88 86/86/86
f 83/83/83 89/89/89 88/88/88
f 83/83/83 90/90/90 89/89/89
f 93/93/93 92/92/92 91/91/91
f 91/91/91 94/94/94 93/93/93
f 94/94/94 95/95/95 93/93/93
f 98/98/98 97/97/97 96/96/96
f 96/96/96 99/99/99 98/98/98
f 96/96/96 100/100/100 99/99/99
f 103/103/103 102/102/102 101/101/101
f 102/102/102 104/104/104 101/101/101
f 102/102/102 105/105/105 104/104/104
f 105/105/105 106/106/106 104/104/104
f 104/104/104 106/106/106 107/107/107
f 110/110/110 109/109/109 108/108/108
f 111/111/111 110/110/110 108/108/108
f 114/114/114 113/113/113 112/112/112
f 112/112/112 115/115/115 114/114/114
f 112/112/112 116/116/116 115/115/115
f 116/116/116 117/117/117 115/115/115
f 120/120/120 119/119/119 118/118/118
f 118/118/118 121/121/121 120/120/120
f 121/121/121 122/122/122 120/120/120
f 120/120/120 122/122/122 123/123/123
f 126/126/126 125/125/125 124/124/124
f 127/127/127 126/126/126 124/124/124
f 130/130/130 129/129/129 128/128/128
f 131/131/131 130/130/130 128/128/128
f 134/134/134 133/133/133 132/132/132
f 135/135/135 134/134/134 132/132/132
f 138/138/138 137/137/137 136/136/136
f 139/139/139 138/138/138 136/136/136
f 142/142/142 141/141/141 140/140/140
f 140/140/140 143/143/143 142/142/142
f 140/140/140 144/144/144 143/143/143
f 147/147/147 146/146/146 145/145/145
f 148/148/148 147/147/147 145/145/145
f 151/151/151 150/150/150 149/149/149
f 152/152/152 151/151/151 149/149/149
f 155/155/155 154/154/154 153/153/153
f 156/156/156 155/155/155 153/153/153
f 153/153/153 154/154/154 157/157/157
f 158/158/158 155/155/155 156/156/156
f 154/154/154 159/159/159 157/157/157
f 160/160/160 158/158/158 156/156/156
f 157/157/157 159/159/159 160/160/160
f 159/159/159 158/158/158 160/160/160
