g StoneTile03
v -0.2877107 0.09259111 0.04633923
v -0.3080211 0.09944018 0.01386014
v -0.2823727 0.09956665 0.03793821
v -0.2711045 0.09966446 0.04395454
v -0.2767568 0.08817244 0.05234181
v -0.2644438 0.08795091 0.05257056
v -0.2650771 0.09865211 0.04472861
v -0.1937937 0.0866798 0.05388308
v -0.2823727 0.09956665 0.03793821
v -0.3080211 0.09944018 0.01386014
v -0.2880931 0.1066173 0.04630934
v -0.2769886 0.1085548 0.05229339
v -0.2711045 0.09966446 0.04395454
v -0.2650771 0.09865211 0.04472861
v -0.2655936 0.1055586 0.05251113
v -0.1937937 0.0866798 0.05388308
v -0.3080211 0.09944018 0.01386014
v -0.3085928 -0.1273569 2.384186E-09
v -0.3118768 0.09938629 2.384186E-09
v -0.3111914 0.2888724 2.384186E-09
v -0.3109022 0.2888764 0.001039512
v -0.3111358 0.3042361 2.384186E-09
v -0.2877107 0.09259111 0.04633923
v -0.2880931 0.1066173 0.04630934
v -0.3049912 0.3044093 0.04531346
v -0.3010291 0.3144032 2.384186E-09
v -0.302265 -0.127185 0.04571025
v -0.2767568 0.08817244 0.05234181
v -0.3037238 0.2895749 0.04538815
v -0.2947599 0.3145759 0.04387837
v -0.2871515 0.3146264 2.384186E-09
v -0.2924429 0.2898104 0.05113515
v -0.2769886 0.1085548 0.05229339
v -0.293696 0.3045068 0.05104124
v -0.2852972 0.3147163 0.0439696
v -0.1127226 0.317431 2.384186E-09
v -0.2843424 0.2898317 0.05129828
v -0.2655936 0.1055586 0.05251113
v -0.1937937 0.0866798 0.05388308
v -0.2858455 0.3046048 0.05119964
v -0.1180183 0.2902685 0.05464789
v -0.1118743 0.3067757 0.05470991
v -0.1117142 0.317292 0.0456431
v 0.0865986 0.3016522 0.03127233
v 0.08279429 0.3017889 4.768371E-09
v 0.275298 0.2970064 4.768371E-09
v 0.08624036 0.2907919 0.04066304
v 0.2795725 0.2973062 0.04075351
v 0.2909064 0.2966186 4.768371E-09
v -0.1120147 0.2893115 0.05475719
v 0.2952191 0.2969538 0.04152225
v 0.3010799 0.2866039 2.384186E-09
v 0.08331974 0.2735349 0.04116863
v 0.2798788 0.2866599 0.05240401
v 0.2786376 0.2693217 0.05237582
v 0.3053413 0.2869545 0.04069844
v 0.2955792 0.2863249 0.05335598
v 0.3042432 0.2696106 0.04063207
v 0.3009628 0.2692529 2.384186E-09
v 0.2944742 0.2689801 0.05328451
v 0.2906995 0.05570148 0.03981344
v 0.2995185 0.05525773 2.384186E-09
v 0.2808455 0.05506179 0.05240313
v 0.2633295 0.05548452 0.05202822
v 0.3098108 -0.1266677 0.04782071
v 0.3093069 -0.1271026 2.384186E-09
v 0.3003216 -0.1269226 0.06046655
v 0.3117224 -0.281616 0.0406345
v 0.3079455 -0.2818092 2.384186E-09
v 0.04729871 0.06069819 0.0474042
v 0.2832202 -0.1264729 0.05948349
v 0.3026257 -0.2815967 0.05358695
v 0.3118774 -0.2941794 0.04005183
v 0.3078352 -0.2943529 2.384186E-09
v 0.2976358 -0.3043548 4.768371E-09
v 0.07230218 -0.1209279 0.04735909
v -0.1137461 0.07392045 0.05534026
v 0.2870082 -0.2815054 0.05325723
v 0.3028125 -0.2941378 0.05302915
v 0.3017869 -0.3041792 0.04123839
v 0.2873153 -0.2940756 0.05275239
v 0.2863264 -0.3041195 0.04114161
v 0.28229 -0.3043056 4.768371E-09
v -0.1020908 -0.1179662 0.05380416
v 0.09439248 -0.2803795 0.04919058
v 0.09618358 -0.293308 0.04933907
v 0.0956474 -0.3033837 0.03994802
v 0.09302634 -0.3037 4.768371E-09
v -0.09975066 -0.315423 2.384186E-09
v -0.09882086 -0.2909939 0.0535183
v -0.274077 -0.1262704 0.05190921
v -0.2644438 0.08795091 0.05257056
v -0.09855572 -0.3050231 0.05349513
v -0.09873577 -0.3151514 0.04470406
v -0.277797 -0.2760068 0.0418863
v -0.2910049 -0.1270878 0.0517227
v -0.2776375 -0.2881852 0.04110323
v -0.2777855 -0.2983925 0.03445973
v -0.2791027 -0.3172505 4.768371E-09
v -0.2961473 -0.2966739 0.03340916
v -0.2968056 -0.3174309 2.384186E-09
v -0.3070486 -0.3073929 4.768371E-09
v -0.2948526 -0.2745786 0.04077783
v -0.2951646 -0.2865373 0.03989041
v -0.3065475 -0.2866344 0.03454619
v -0.3071645 -0.2938902 4.768371E-09
v -0.3062263 -0.2746757 0.0353835
vt 0.599918 0.4969934
vt 0.6153728 0.4902828
vt 0.6000429 0.4911114
vt 0.5948625 0.491662
vt 0.5946848 0.4992484
vt 0.5889411 0.4985294
vt 0.5918314 0.4918758
vt 0.5559846 0.4944049
vt 0.6000429 0.4911114
vt 0.6153728 0.4902828
vt 0.599767 0.4856101
vt 0.5947132 0.485477
vt 0.5948625 0.491662
vt 0.5918314 0.4918758
vt 0.5894086 0.4866998
vt 0.5559846 0.4944049
vt 0.6153728 0.4902828
vt 0.618275 0.5819868
vt 0.6219058 0.4899296
vt 0.6127545 0.4101033
vt 0.6122645 0.4101298
vt 0.6120124 0.4036309
vt 0.599918 0.4969934
vt 0.599767 0.4856101
vt 0.5960782 0.4120706
vt 0.6020324 0.3933843
vt 0.5981576 0.5799192
vt 0.5946848 0.4992484
vt 0.5963548 0.4175861
vt 0.5935906 0.4098009
vt 0.5960554 0.3924121
vt 0.5930938 0.4183942
vt 0.5947132 0.485477
vt 0.5929625 0.412955
vt 0.5897579 0.4093397
vt 0.5209306 0.3801928
vt 0.5897737 0.4181501
vt 0.5894086 0.4866998
vt 0.5559846 0.4944049
vt 0.589761 0.4126785
vt 0.5216036 0.4131395
vt 0.5188159 0.4065503
vt 0.5194496 0.4008774
vt 0.4379383 0.4002758
vt 0.4369437 0.3818757
vt 0.3599868 0.3908052
vt 0.438309 0.4065263
vt 0.3677129 0.4073153
vt 0.353747 0.3915293
vt 0.5187384 0.4133416
vt 0.362019 0.407886
vt 0.3437227 0.4017506
vt 0.4382668 0.4132129
vt 0.3683127 0.4105438
vt 0.3680926 0.4171824
vt 0.3597273 0.4100114
vt 0.3626374 0.4108695
vt 0.3592594 0.4166698
vt 0.3429199 0.4089086
vt 0.3624028 0.4175043
vt 0.3534891 0.4987906
vt 0.333018 0.4971912
vt 0.3595092 0.4993337
vt 0.3653769 0.4990597
vt 0.354663 0.5771807
vt 0.3316112 0.5787945
vt 0.3603763 0.5768001
vt 0.3575124 0.6404195
vt 0.3410254 0.6483711
vt 0.4377459 0.49568
vt 0.3661091 0.5765657
vt 0.3607427 0.6397183
vt 0.3577435 0.6455469
vt 0.3417887 0.6540124
vt 0.3517946 0.6641835
vt 0.4368139 0.5736746
vt 0.5177815 0.4971001
vt 0.3666071 0.6398098
vt 0.3607724 0.6448197
vt 0.3599558 0.6478204
vt 0.3666475 0.6449378
vt 0.3658556 0.6481823
vt 0.3581882 0.6648891
vt 0.5169553 0.5749379
vt 0.4389347 0.6409403
vt 0.4391066 0.6463943
vt 0.4386191 0.6526457
vt 0.4370431 0.6735915
vt 0.5181651 0.6743016
vt 0.5161313 0.6432486
vt 0.5860045 0.5792917
vt 0.5889411 0.4985294
vt 0.5160645 0.6487873
vt 0.5164453 0.6540405
vt 0.5866449 0.637742
vt 0.5928007 0.5797201
vt 0.5865152 0.6424952
vt 0.5872324 0.647271
vt 0.5910934 0.6621879
vt 0.5944917 0.6465769
vt 0.5982919 0.6609924
vt 0.6060253 0.6545159
vt 0.5933646 0.6372173
vt 0.5934104 0.6418792
vt 0.597229 0.6425219
vt 0.6069441 0.6490762
vt 0.5972986 0.6378267
vn -0.2905573 0.7686122 0.5699226
vn -0.3998609 0.8138245 0.4216643
vn -0.3405366 0.8182924 0.4630686
vn -0.1049498 0.6636897 0.7406088
vn -0.08744521 0.6149704 0.7836867
vn -0.004355527 0.5909157 0.8067215
vn -0.004355057 0.5909159 0.8067215
vn -0.004355612 0.5909159 0.8067214
vn -0.3179851 -0.8043808 0.5018537
vn -0.3915583 -0.8179923 0.4213914
vn -0.2614788 -0.8188462 0.5109986
vn -0.2257944 -0.7653927 0.6026533
vn -0.2486379 -0.7450749 0.6189042
vn -0.2064667 -0.7385957 0.6417537
vn -0.2064666 -0.7385956 0.6417538
vn -0.2064665 -0.7385955 0.6417539
vn -0.9179412 -0.004612608 0.3966896
vn -0.9876002 0.03262955 0.1535615
vn -0.9633981 -0.005246586 0.2680235
vn -0.9634149 0.003484961 0.2679915
vn -0.9749834 -0.02063964 0.2213175
vn -0.9227092 0.3639233 0.1271517
vn -0.7311614 0.001663815 0.6822025
vn -0.7192261 -0.01251966 0.6946633
vn -0.7932328 0.3068909 0.5259275
vn -0.4178627 0.9069191 0.0537462
vn -0.8170326 0.01535513 0.5763869
vn -0.2674409 0.01466909 0.9634627
vn -0.8051555 -0.06561415 0.5894229
vn -0.3082743 0.8497224 0.4277132
vn -0.0159916 0.999871 -0.001492496
vn -0.2430113 -0.01485792 0.9699097
vn -0.2331283 -0.01371913 0.9723492
vn -0.2297383 0.2731278 0.9341421
vn -0.02059504 0.8897491 0.4559852
vn 0.03125214 0.9995102 0.001647176
vn -0.02000813 0.004483554 0.9997898
vn -0.01785208 0.004764288 0.9998293
vn -0.01765857 -0.0008077798 0.9998437
vn -0.02300748 0.3080107 0.9511046
vn -0.01896789 0.003316193 0.9998147
vn 0.03668275 0.3538968 0.9345648
vn 0.04209979 0.9058466 0.4215085
vn 0.0508762 0.913235 0.4042443
vn 0.05442902 0.9985151 -0.002257807
vn 0.0239495 0.9996701 -0.009273719
vn 0.02349569 0.3618682 0.931933
vn 0.001207222 0.9335018 0.3585705
vn 0.3696698 0.9280445 -0.04558207
vn 0.02412253 0.004634117 0.9996983
vn 0.358671 0.8818384 0.3061308
vn 0.9195032 0.3827249 -0.08964169
vn 0.01228266 0.02200554 0.9996824
vn -0.04507392 0.4049415 0.913231
vn -0.05755812 0.002294673 0.9983395
vn 0.9151473 0.3225699 0.2417729
vn 0.3780536 0.3378959 0.8619175
vn 0.9585633 -0.05796374 0.2789205
vn 0.99754 -0.0316777 -0.06253437
vn 0.4150533 -0.02959585 0.9093156
vn 0.9065533 0.03897042 0.4202884
vn 0.9791093 0.04847392 0.1974719
vn 0.4092588 0.02837233 0.9119772
vn -0.03065713 0.01837139 0.9993611
vn 0.9451923 0.04439107 0.3234826
vn 0.9993547 0.03133407 -0.01756349
vn 0.4267541 0.02546806 0.9040091
vn 0.9655037 -0.005445671 0.2603322
vn 0.9953893 -0.006315442 -0.09570827
vn 0.02036307 0.01107047 0.9997314
vn -0.05139784 0.002764049 0.9986744
vn 0.4515328 -0.03329132 0.8916332
vn 0.9120287 -0.3484095 0.2163665
vn 0.9122177 -0.399623 -0.09033488
vn 0.3548808 -0.9343746 -0.03168212
vn -0.005584871 0.006517119 0.9999632
vn 0.01319203 -0.001252815 0.9999123
vn -0.02117161 -0.04107982 0.9989315
vn 0.4043406 -0.3847208 0.8297582
vn 0.3548603 -0.887923 0.2926892
vn -0.01725071 -0.4350734 0.9002298
vn -0.007826658 -0.9356742 0.3527786
vn -0.003520222 -0.9999809 0.005089947
vn 0.005765914 -0.01092512 0.9999237
vn -0.005681962 0.005300467 0.9999698
vn 0.01178037 -0.3583177 0.9335254
vn 0.02906675 -0.9155879 0.4010659
vn 0.03010054 -0.9995292 0.005939004
vn -0.0113785 -0.999167 0.03919125
vn -0.02097969 -0.0007296266 0.9997796
vn -0.009780566 -0.03496188 0.9993407
vn -0.01861507 -0.002249619 0.9998242
vn -0.02656462 -0.3622728 0.9316934
vn -0.02342334 -0.9070584 0.4203527
vn -0.06130672 -0.05944481 0.9963472
vn -0.2498735 -0.02414894 0.9679772
vn -0.08939814 -0.312853 0.945585
vn -0.08034471 -0.7428984 0.664565
vn -0.007897477 -0.8670283 0.4981962
vn -0.3255422 -0.6957853 0.6402383
vn -0.2909872 -0.8100718 0.5090287
vn -0.8291344 -0.4694043 0.3036376
vn -0.2540956 -0.0639552 0.9650623
vn -0.2469844 -0.2800084 0.9276821
vn -0.8011705 -0.2577957 0.5400622
vn -0.9997229 -0.005380132 0.02291684
vn -0.834986 -0.02800791 0.5495581
g StoneTile03_0
f 3/3/3 2/2/2 1/1/1
f 3/3/3 1/1/1 4/4/4
f 5/5/5 4/4/4 1/1/1
f 5/5/5 6/6/6 4/4/4
f 7/7/7 4/4/4 6/6/6
f 8/8/8 7/7/7 6/6/6
f 11/11/11 10/10/10 9/9/9
f 11/11/11 9/9/9 12/12/12
f 13/13/13 12/12/12 9/9/9
f 13/13/13 14/14/14 12/12/12
f 15/15/15 12/12/12 14/14/14
f 16/16/16 15/15/15 14/14/14
f 19/19/19 18/18/18 17/17/17
f 19/19/19 17/17/17 20/20/20
f 21/21/21 20/20/20 17/17/17
f 20/20/20 21/21/21 22/22/22
f 17/17/17 18/18/18 23/23/23
f 17/17/17 24/24/24 21/21/21
f 22/22/22 21/21/21 25/25/25
f 22/22/22 25/25/25 26/26/26
f 27/27/27 23/23/23 18/18/18
f 23/23/23 27/27/27 28/28/28
f 29/29/29 21/21/21 24/24/24
f 29/29/29 25/25/25 21/21/21
f 30/30/30 26/26/26 25/25/25
f 26/26/26 30/30/30 31/31/31
f 29/29/29 24/24/24 32/32/32
f 33/33/33 32/32/32 24/24/24
f 25/25/25 29/29/29 34/34/34
f 34/34/34 30/30/30 25/25/25
f 32/32/32 34/34/34 29/29/29
f 35/35/35 31/31/31 30/30/30
f 30/30/30 34/34/34 35/35/35
f 31/31/31 35/35/35 36/36/36
f 32/32/32 33/33/33 37/37/37
f 38/38/38 37/37/37 33/33/33
f 38/38/38 39/39/39 37/37/37
f 34/34/34 32/32/32 40/40/40
f 37/37/37 40/40/40 32/32/32
f 40/40/40 35/35/35 34/34/34
f 37/37/37 41/41/41 40/40/40
f 41/41/41 37/37/37 39/39/39
f 40/40/40 42/42/42 35/35/35
f 42/42/42 40/40/40 41/41/41
f 43/43/43 36/36/36 35/35/35
f 43/43/43 35/35/35 42/42/42
f 43/43/43 44/44/44 36/36/36
f 45/45/45 36/36/36 44/44/44
f 45/45/45 44/44/44 46/46/46
f 44/44/44 43/43/43 47/47/47
f 42/42/42 47/47/47 43/43/43
f 48/48/48 46/46/46 44/44/44
f 44/44/44 47/47/47 48/48/48
f 46/46/46 48/48/48 49/49/49
f 42/42/42 41/41/41 50/50/50
f 41/41/41 39/39/39 50/50/50
f 51/51/51 49/49/49 48/48/48
f 49/49/49 51/51/51 52/52/52
f 47/47/47 42/42/42 53/53/53
f 50/50/50 53/53/53 42/42/42
f 54/54/54 48/48/48 47/47/47
f 48/48/48 54/54/54 51/51/51
f 53/53/53 55/55/55 47/47/47
f 54/54/54 47/47/47 55/55/55
f 56/56/56 52/52/52 51/51/51
f 57/57/57 51/51/51 54/54/54
f 57/57/57 56/56/56 51/51/51
f 56/56/56 58/58/58 52/52/52
f 56/56/56 57/57/57 58/58/58
f 59/59/59 52/52/52 58/58/58
f 57/57/57 54/54/54 60/60/60
f 60/60/60 58/58/58 57/57/57
f 55/55/55 60/60/60 54/54/54
f 58/58/58 61/61/61 59/59/59
f 58/58/58 60/60/60 61/61/61
f 62/62/62 59/59/59 61/61/61
f 60/60/60 55/55/55 63/63/63
f 63/63/63 61/61/61 60/60/60
f 55/55/55 53/53/53 64/64/64
f 64/64/64 63/63/63 55/55/55
f 61/61/61 65/65/65 62/62/62
f 66/66/66 62/62/62 65/65/65
f 63/63/63 67/67/67 61/61/61
f 65/65/65 61/61/61 67/67/67
f 65/65/65 68/68/68 66/66/66
f 69/69/69 66/66/66 68/68/68
f 70/70/70 64/64/64 53/53/53
f 53/53/53 50/50/50 70/70/70
f 64/64/64 71/71/71 63/63/63
f 67/67/67 63/63/63 71/71/71
f 67/67/67 72/72/72 65/65/65
f 68/68/68 65/65/65 72/72/72
f 68/68/68 73/73/73 69/69/69
f 74/74/74 69/69/69 73/73/73
f 74/74/74 73/73/73 75/75/75
f 70/70/70 76/76/76 64/64/64
f 71/71/71 64/64/64 76/76/76
f 77/77/77 70/70/70 50/50/50
f 70/70/70 77/77/77 76/76/76
f 77/77/77 50/50/50 39/39/39
f 71/71/71 78/78/78 67/67/67
f 72/72/72 67/67/67 78/78/78
f 73/73/73 68/68/68 79/79/79
f 72/72/72 79/79/79 68/68/68
f 80/80/80 75/75/75 73/73/73
f 79/79/79 80/80/80 73/73/73
f 79/79/79 72/72/72 81/81/81
f 79/79/79 81/81/81 80/80/80
f 78/78/78 81/81/81 72/72/72
f 80/80/80 82/82/82 75/75/75
f 82/82/82 80/80/80 81/81/81
f 83/83/83 75/75/75 82/82/82
f 77/77/77 39/39/39 84/84/84
f 84/84/84 76/76/76 77/77/77
f 76/76/76 85/85/85 71/71/71
f 78/78/78 71/71/71 85/85/85
f 81/81/81 78/78/78 86/86/86
f 81/81/81 86/86/86 82/82/82
f 85/85/85 86/86/86 78/78/78
f 82/82/82 87/87/87 83/83/83
f 87/87/87 82/82/82 86/86/86
f 88/88/88 83/83/83 87/87/87
f 88/88/88 87/87/87 89/89/89
f 85/85/85 76/76/76 90/90/90
f 85/85/85 90/90/90 86/86/86
f 84/84/84 90/90/90 76/76/76
f 84/84/84 39/39/39 91/91/91
f 92/92/92 91/91/91 39/39/39
f 92/92/92 28/28/28 91/91/91
f 86/86/86 93/93/93 87/87/87
f 93/93/93 86/86/86 90/90/90
f 94/94/94 89/89/89 87/87/87
f 94/94/94 87/87/87 93/93/93
f 90/90/90 84/84/84 95/95/95
f 91/91/91 95/95/95 84/84/84
f 96/96/96 91/91/91 28/28/28
f 91/91/91 96/96/96 95/95/95
f 96/96/96 28/28/28 27/27/27
f 93/93/93 90/90/90 97/97/97
f 93/93/93 97/97/97 94/94/94
f 95/95/95 97/97/97 90/90/90
f 94/94/94 98/98/98 89/89/89
f 98/98/98 94/94/94 97/97/97
f 99/99/99 89/89/89 98/98/98
f 98/98/98 100/100/100 99/99/99
f 98/98/98 97/97/97 100/100/100
f 101/101/101 99/99/99 100/100/100
f 101/101/101 100/100/100 102/102/102
f 96/96/96 27/27/27 103/103/103
f 103/103/103 95/95/95 96/96/96
f 97/97/97 95/95/95 104/104/104
f 104/104/104 100/100/100 97/97/97
f 103/103/103 104/104/104 95/95/95
f 105/105/105 102/102/102 100/100/100
f 104/104/104 105/105/105 100/100/100
f 102/102/102 105/105/105 106/106/106
f 107/107/107 103/103/103 27/27/27
f 103/103/103 107/107/107 104/104/104
f 105/105/105 104/104/104 107/107/107
f 107/107/107 106/106/106 105/105/105
f 27/27/27 18/18/18 107/107/107
f 106/106/106 107/107/107 18/18/18
