g StoneTile02
v -0.31358 0.08093172 0.0494807
v -0.3135967 -0.1509635 -2.384186E-09
v -0.3196816 0.0812586 0
v -0.3134277 0.2792678 0
v -0.307855 0.2793368 0.05979798
v -0.3107529 0.2975985 0
v -0.305223 0.2976996 0.06063452
v -0.300731 0.3078982 -2.384186E-09
v -0.293876 0.3080409 0.05791814
v -0.2890131 0.3123975 -2.384186E-09
v -0.2860246 0.2902888 0.06525191
v -0.2824375 0.3125229 0.05704874
v -0.1098516 0.3162756 -2.384186E-09
v -0.2855528 0.2745813 0.06442796
v -0.2726015 0.2899809 0.06482936
v -0.1067213 0.3161868 0.04632616
v 0.1063267 0.3104708 0.0438498
v 0.103971 0.3105642 -2.384186E-09
v 0.2829206 0.3038098 0
v 0.2857507 0.304089 0.02941565
v 0.2936346 0.2987641 0
v 0.2965031 0.2990735 0.02824531
v 0.3037898 0.289116 0
v -0.2797331 0.08085518 0.05426576
v -0.2721426 0.274317 0.06409796
v -0.1070489 0.2861846 0.05961798
v 0.1063918 0.2893409 0.05561828
v 0.2860239 0.2933488 0.03937371
v 0.2967933 0.2891757 0.03805658
v 0.3061237 0.2894726 0.02760042
v 0.3094798 0.277198 0.02750122
v 0.30704 0.2768374 0
v 0.3000576 0.2768986 0.03795676
v 0.3040612 0.07033528 0.02627768
v 0.3003155 0.06992467 -2.384186E-09
v 0.2855064 0.2766807 0.03929106
v 0.1060404 0.2739948 0.05574751
v 0.2935083 0.07000405 0.03672558
v 0.3149664 -0.1245404 0.03553045
v 0.3196814 -0.1248825 -2.384186E-09
v -0.1067514 0.2710581 0.06002801
v 0.2791231 0.07110815 0.03827177
v 0.305803 -0.1245715 0.04590881
v 0.3174586 -0.2887127 0.03019216
v 0.3176326 -0.2888992 0
v -0.2664843 0.08112834 0.05507721
v 0.101706 0.08472549 0.05734132
v 0.2909753 -0.1235395 0.04692352
v 0.3077782 -0.2887441 0.04054078
v 0.3135352 -0.2999858 0.02975932
v 0.313341 -0.3001598 0
v 0.3033215 -0.3103264 -2.384186E-09
v -0.1030821 0.08449738 0.06508503
v 0.1081002 -0.1108113 0.05943826
v 0.2924915 -0.2879222 0.04203843
v 0.303813 -0.3000173 0.04010553
v 0.3052101 -0.3101531 0.03034222
v 0.2938742 -0.3114223 0.03180485
v 0.2920702 -0.3115544 -2.384186E-09
v 0.1024247 -0.3015633 0
v 0.2926145 -0.3012505 0.04164235
v 0.103185 -0.3019398 0.04984396
v -0.1018572 -0.3121829 -2.384186E-09
v 0.1039557 -0.2777861 0.06050953
v 0.1036196 -0.2913246 0.06059639
v -0.1010945 -0.1137591 0.06558893
v -0.0973065 -0.2799413 0.06600715
v -0.2820171 -0.1473314 0.06781434
v -0.09699935 -0.2934155 0.06604106
v -0.09875696 -0.3121261 0.0519421
v -0.2862781 -0.2859851 0.05523978
v -0.2871776 -0.2967638 0.04681697
v -0.2886317 -0.3159676 -2.384186E-09
v -0.2859585 -0.2755861 0.05618288
v -0.2966866 -0.1500534 0.06799478
v -0.2972397 -0.2947964 0.04640142
v -0.3037756 -0.3162744 -2.384186E-09
v -0.3139282 -0.3062369 0
v -0.2964098 -0.2846609 0.054364
v -0.3012546 -0.275233 0.05538631
v -0.308156 -0.1500224 0.06342925
v -0.3087003 -0.2847586 0.0475338
v -0.3139033 -0.2945914 0
v -0.3134835 -0.275321 0.04872596
vt 0.2874852 0.4953554
vt 0.3039841 0.5865613
vt 0.3093666 0.4945899
vt 0.3017365 0.4146039
vt 0.2852102 0.422186
vt 0.3011178 0.4081185
vt 0.2850257 0.4162533
vt 0.2913346 0.3976837
vt 0.282582 0.4139367
vt 0.2852719 0.3965788
vt 0.2818938 0.4170784
vt 0.2770351 0.4131618
vt 0.2104987 0.3829508
vt 0.2819239 0.422983
vt 0.276343 0.4164922
vt 0.2086241 0.4036036
vt 0.1271391 0.4014505
vt 0.126495 0.3830346
vt 0.04938191 0.3904977
vt 0.05679236 0.4071518
vt 0.04312951 0.3911028
vt 0.05108857 0.4076141
vt 0.03291246 0.4011314
vt 0.2822953 0.4958072
vt 0.2763553 0.4224632
vt 0.2078826 0.4092634
vt 0.1273907 0.4077069
vt 0.05733073 0.4103911
vt 0.05165019 0.4106088
vt 0.04875696 0.4096953
vt 0.04816242 0.4163436
vt 0.0319735 0.4082729
vt 0.05128931 0.4172379
vt 0.04082982 0.4983398
vt 0.02039297 0.496351
vt 0.05698422 0.4170244
vt 0.1272212 0.4143914
vt 0.04683852 0.4989973
vt 0.04051131 0.576738
vt 0.01743296 0.5779127
vt 0.2076758 0.4160519
vt 0.05271042 0.4988351
vt 0.04623083 0.5764662
vt 0.04215642 0.6400194
vt 0.025521 0.6476558
vt 0.2765075 0.4961049
vt 0.1251306 0.4968336
vt 0.05196708 0.576341
vt 0.04539944 0.6393799
vt 0.04228981 0.6451504
vt 0.02617679 0.6533107
vt 0.03598729 0.6636705
vt 0.2051246 0.499777
vt 0.1227141 0.5747962
vt 0.05126104 0.6395832
vt 0.04533203 0.6444811
vt 0.04445854 0.6474656
vt 0.05035032 0.6479398
vt 0.04236634 0.6644976
vt 0.1210412 0.6746994
vt 0.05120379 0.6447109
vt 0.1230157 0.6537875
vt 0.202135 0.6769538
vt 0.123554 0.6420902
vt 0.1236221 0.6475465
vt 0.2028169 0.577585
vt 0.2006927 0.6458675
vt 0.272877 0.5833433
vt 0.2005205 0.6514039
vt 0.2008012 0.6566634
vt 0.272174 0.6463771
vt 0.2731124 0.6511351
vt 0.2764732 0.6660557
vt 0.2722267 0.6416496
vt 0.2785576 0.5838102
vt 0.2789755 0.6506869
vt 0.2825006 0.6651721
vt 0.290356 0.658844
vt 0.2779838 0.6459695
vt 0.2780268 0.6413076
vt 0.2839097 0.5841111
vt 0.2817896 0.6466849
vt 0.2913781 0.6534228
vt 0.2819485 0.6419917
vn -0.7321656 0.001965285 0.6811239
vn -0.9968956 0.003195604 0.07867039
vn -0.9924766 0.002781261 0.1224031
vn -0.991935 0.08422114 0.09471864
vn -0.7591408 0.03036003 0.6502181
vn -0.8975437 0.4332291 0.0820237
vn -0.6783785 0.3922877 0.6212188
vn -0.5558523 0.8294551 0.05506885
vn -0.3789146 0.7412334 0.5540729
vn -0.2051872 0.9784775 0.02190859
vn -0.07348482 0.1310163 0.988653
vn -0.1188965 0.8258495 0.5512133
vn 0.00196083 0.999997 0.001509294
vn -0.09270673 -0.0507662 0.9943984
vn 0.03743038 0.1530147 0.9875147
vn 0.01703195 0.8439753 0.5361117
vn 0.04526833 0.8585483 0.5107305
vn 0.03202168 0.999487 0.0004104197
vn 0.2238287 0.9741746 -0.02974072
vn 0.2416027 0.9033487 0.3543859
vn 0.5559911 0.8287138 -0.06408909
vn 0.5549272 0.7820343 0.2836866
vn 0.855367 0.5111136 -0.08432245
vn -0.09998725 0.003619769 0.9949822
vn 0.02438454 -0.0462631 0.9986315
vn 0.02411903 0.2169354 0.975888
vn 0.05179435 0.250342 0.9667711
vn 0.1743282 0.3892481 0.9044864
vn 0.439982 0.3278227 0.8360311
vn 0.8434871 0.4600457 0.277286
vn 0.945966 0.1093266 0.3052801
vn 0.9891155 0.1152854 -0.0914306
vn 0.4741368 0.04845509 0.8791168
vn 0.9488456 0.01862668 0.3151905
vn 0.9919979 0.0114937 -0.1257297
vn 0.0913021 -0.007838546 0.9957924
vn 0.05721702 0.005352308 0.9983474
vn 0.4230721 0.0261661 0.9057181
vn 0.9092286 0.04304936 0.4140657
vn 0.9909334 0.05270574 0.1235846
vn 0.01467947 0.01464266 0.999785
vn 0.1014138 0.01767144 0.9946874
vn 0.4429009 0.02127912 0.896318
vn 0.9195859 -0.1622152 0.3578379
vn 0.9828703 -0.1842839 0.002328361
vn -0.04371277 0.007365215 0.999017
vn 0.06967828 0.01221848 0.9974947
vn 0.0739743 0.01470611 0.9971517
vn 0.4717594 -0.1076648 0.8751294
vn 0.8295121 -0.4614677 0.3145748
vn 0.8406985 -0.5414984 -0.002321126
vn 0.4351032 -0.9003506 -0.00735354
vn -0.01277754 0.01578019 0.9997938
vn 0.05577036 0.01300213 0.9983589
vn 0.09607021 -0.02897408 0.9949528
vn 0.3865773 -0.3863582 0.8374279
vn 0.4647422 -0.8233715 0.3256903
vn 0.07308429 -0.91773 0.3904235
vn 0.02512482 -0.9996806 0.002727097
vn 0.001180805 -0.9999759 -0.006844835
vn 0.1085798 -0.4014404 0.9094262
vn 0.01792369 -0.919896 0.3917527
vn -0.009935768 -0.9993906 0.03346337
vn 0.05863918 0.0008028109 0.9982789
vn 0.0503917 -0.3742427 0.9259607
vn 0.01053772 0.0119016 0.9998736
vn -0.004457215 -0.006962932 0.9999659
vn -0.0003858089 -0.004334521 0.9999906
vn -0.01418829 -0.319318 0.9475414
vn -0.01690342 -0.8957578 0.444221
vn -0.0890942 -0.3721341 0.923893
vn -0.1063489 -0.8022945 0.5873786
vn 0.005181692 -0.9178352 0.396928
vn -0.05235814 -0.09083796 0.9944884
vn -0.1817688 -0.01208106 0.983267
vn -0.3425412 -0.7404761 0.5782393
vn -0.3272583 -0.8391137 0.4345
vn -0.8446715 -0.4389913 0.3062953
vn -0.2521433 -0.3956622 0.8831055
vn -0.300157 -0.1719647 0.9382611
vn -0.7826021 0.003028391 0.6225148
vn -0.6647501 -0.5092812 0.5465711
vn -0.9967172 -0.02726143 0.07623352
vn -0.840396 -0.2013241 0.503193
g StoneTile02_0
f 3/3/3 2/2/2 1/1/1
f 3/3/3 1/1/1 4/4/4
f 5/5/5 4/4/4 1/1/1
f 4/4/4 5/5/5 6/6/6
f 7/7/7 6/6/6 5/5/5
f 6/6/6 7/7/7 8/8/8
f 9/9/9 8/8/8 7/7/7
f 8/8/8 9/9/9 10/10/10
f 7/7/7 5/5/5 11/11/11
f 11/11/11 9/9/9 7/7/7
f 12/12/12 10/10/10 9/9/9
f 9/9/9 11/11/11 12/12/12
f 10/10/10 12/12/12 13/13/13
f 14/14/14 11/11/11 5/5/5
f 5/5/5 1/1/1 14/14/14
f 15/15/15 12/12/12 11/11/11
f 11/11/11 14/14/14 15/15/15
f 16/16/16 13/13/13 12/12/12
f 12/12/12 15/15/15 16/16/16
f 16/16/16 17/17/17 13/13/13
f 18/18/18 13/13/13 17/17/17
f 18/18/18 17/17/17 19/19/19
f 20/20/20 19/19/19 17/17/17
f 19/19/19 20/20/20 21/21/21
f 22/22/22 21/21/21 20/20/20
f 21/21/21 22/22/22 23/23/23
f 24/24/24 14/14/14 1/1/1
f 25/25/25 15/15/15 14/14/14
f 14/14/14 24/24/24 25/25/25
f 26/26/26 16/16/16 15/15/15
f 15/15/15 25/25/25 26/26/26
f 17/17/17 16/16/16 27/27/27
f 26/26/26 27/27/27 16/16/16
f 20/20/20 17/17/17 28/28/28
f 27/27/27 28/28/28 17/17/17
f 22/22/22 20/20/20 29/29/29
f 28/28/28 29/29/29 20/20/20
f 30/30/30 23/23/23 22/22/22
f 29/29/29 30/30/30 22/22/22
f 30/30/30 31/31/31 23/23/23
f 30/30/30 29/29/29 31/31/31
f 32/32/32 23/23/23 31/31/31
f 29/29/29 28/28/28 33/33/33
f 33/33/33 31/31/31 29/29/29
f 31/31/31 34/34/34 32/32/32
f 31/31/31 33/33/33 34/34/34
f 35/35/35 32/32/32 34/34/34
f 28/28/28 27/27/27 36/36/36
f 36/36/36 33/33/33 28/28/28
f 27/27/27 26/26/26 37/37/37
f 37/37/37 36/36/36 27/27/27
f 33/33/33 36/36/36 38/38/38
f 38/38/38 34/34/34 33/33/33
f 34/34/34 39/39/39 35/35/35
f 40/40/40 35/35/35 39/39/39
f 41/41/41 37/37/37 26/26/26
f 41/41/41 26/26/26 25/25/25
f 36/36/36 37/37/37 42/42/42
f 42/42/42 38/38/38 36/36/36
f 38/38/38 43/43/43 34/34/34
f 39/39/39 34/34/34 43/43/43
f 39/39/39 44/44/44 40/40/40
f 45/45/45 40/40/40 44/44/44
f 25/25/25 46/46/46 41/41/41
f 46/46/46 25/25/25 24/24/24
f 37/37/37 41/41/41 47/47/47
f 47/47/47 42/42/42 37/37/37
f 42/42/42 48/48/48 38/38/38
f 43/43/43 38/38/38 48/48/48
f 43/43/43 49/49/49 39/39/39
f 44/44/44 39/39/39 49/49/49
f 44/44/44 50/50/50 45/45/45
f 51/51/51 45/45/45 50/50/50
f 51/51/51 50/50/50 52/52/52
f 53/53/53 47/47/47 41/41/41
f 53/53/53 41/41/41 46/46/46
f 47/47/47 54/54/54 42/42/42
f 47/47/47 53/53/53 54/54/54
f 48/48/48 42/42/42 54/54/54
f 48/48/48 55/55/55 43/43/43
f 49/49/49 43/43/43 55/55/55
f 50/50/50 44/44/44 56/56/56
f 49/49/49 56/56/56 44/44/44
f 57/57/57 52/52/52 50/50/50
f 56/56/56 57/57/57 50/50/50
f 57/57/57 58/58/58 52/52/52
f 57/57/57 56/56/56 58/58/58
f 59/59/59 52/52/52 58/58/58
f 59/59/59 58/58/58 60/60/60
f 56/56/56 49/49/49 61/61/61
f 61/61/61 58/58/58 56/56/56
f 55/55/55 61/61/61 49/49/49
f 62/62/62 60/60/60 58/58/58
f 58/58/58 61/61/61 62/62/62
f 60/60/60 62/62/62 63/63/63
f 55/55/55 48/48/48 64/64/64
f 54/54/54 64/64/64 48/48/48
f 61/61/61 55/55/55 65/65/65
f 65/65/65 62/62/62 61/61/61
f 64/64/64 65/65/65 55/55/55
f 54/54/54 66/66/66 64/64/64
f 66/66/66 54/54/54 53/53/53
f 53/53/53 46/46/46 66/66/66
f 64/64/64 67/67/67 65/65/65
f 67/67/67 64/64/64 66/66/66
f 68/68/68 66/66/66 46/46/46
f 66/66/66 68/68/68 67/67/67
f 46/46/46 24/24/24 68/68/68
f 65/65/65 69/69/69 62/62/62
f 69/69/69 65/65/65 67/67/67
f 70/70/70 63/63/63 62/62/62
f 70/70/70 62/62/62 69/69/69
f 69/69/69 67/67/67 71/71/71
f 69/69/69 71/71/71 70/70/70
f 70/70/70 72/72/72 63/63/63
f 72/72/72 70/70/70 71/71/71
f 73/73/73 63/63/63 72/72/72
f 74/74/74 67/67/67 68/68/68
f 74/74/74 71/71/71 67/67/67
f 75/75/75 68/68/68 24/24/24
f 68/68/68 75/75/75 74/74/74
f 72/72/72 76/76/76 73/73/73
f 77/77/77 73/73/73 76/76/76
f 77/77/77 76/76/76 78/78/78
f 71/71/71 79/79/79 72/72/72
f 76/76/76 72/72/72 79/79/79
f 74/74/74 80/80/80 71/71/71
f 80/80/80 74/74/74 75/75/75
f 79/79/79 71/71/71 80/80/80
f 75/75/75 24/24/24 81/81/81
f 75/75/75 81/81/81 80/80/80
f 1/1/1 81/81/81 24/24/24
f 81/81/81 1/1/1 2/2/2
f 82/82/82 78/78/78 76/76/76
f 79/79/79 82/82/82 76/76/76
f 78/78/78 82/82/82 83/83/83
f 84/84/84 80/80/80 81/81/81
f 81/81/81 2/2/2 84/84/84
f 80/80/80 84/84/84 79/79/79
f 83/83/83 84/84/84 2/2/2
f 84/84/84 83/83/83 82/82/82
f 82/82/82 79/79/79 84/84/84
