g StoneTile04
v -0.3032538 0.3138307 -4.768371E-09
v -0.3118667 0.3038368 0.04878339
v -0.3132745 0.3036636 -4.768371E-09
v -0.3137531 0.2893241 -4.768371E-09
v -0.3018447 0.3140034 0.04819005
v -0.2894447 0.3134939 -4.768371E-09
v -0.3122351 0.2894978 0.04940962
v -0.3201115 0.09881378 -4.768371E-09
v -0.3171289 0.09899414 0.05772954
v -0.3131036 -0.1278824 -4.768371E-09
v -0.3016834 0.2895953 0.05892744
v -0.3013149 0.3039343 0.05830121
v -0.2891921 0.3136667 0.04845785
v -0.1210933 0.3091922 0.05201567
v -0.1059821 0.3090191 -4.768371E-09
v -0.2886622 0.30268 0.05856897
v 0.1048441 0.3121933 0.04445247
v 0.1043768 0.3121249 -4.768371E-09
v 0.2956005 0.3129393 0.03539513
v 0.2933035 0.3127734 -4.768371E-09
v 0.3075238 0.3128223 -4.768371E-09
v 0.3099585 0.3129954 0.03471339
v 0.3176745 0.3027847 -2.384186E-09
v -0.289004 0.2883493 0.05915309
v -0.1205617 0.2860163 0.06212629
v 0.1053745 0.3021239 0.05456317
v 0.2925123 0.2941584 0.0455064
v 0.306598 0.2935588 0.04482471
v 0.3201117 0.3029574 0.03415889
v 0.3196533 0.2854964 0.03410571
v 0.3172162 0.2853236 -2.384186E-09
v 0.1053011 0.2868695 0.05506381
v 0.2923343 0.2774615 0.04549197
v 0.3135632 0.0535135 0.03339916
v 0.3111261 0.05334046 -4.768371E-09
v 0.3064121 0.2767534 0.04477151
v -0.1205491 0.2717952 0.06215103
v 0.104326 0.0842041 0.06171519
v 0.2899691 0.05563232 0.04530028
v 0.1056236 -0.1154376 0.06208743
v -0.1203828 0.08285797 0.06247976
v -0.2935447 0.09795557 0.06691357
v 0.3039423 0.05348176 0.04406475
v 0.3185602 -0.1261798 0.04102252
v 0.3199384 -0.1265219 -4.768371E-09
v -0.3065784 0.09909195 0.06724729
v -0.2883999 -0.1268535 0.05964398
v 0.2947071 -0.1254568 0.05241614
v 0.3089392 -0.1262109 0.05168819
v 0.3180386 -0.2824399 0.03547929
v 0.3158685 -0.2826257 -4.768371E-09
v 0.2957808 -0.2717742 0.04614495
v 0.3179993 -0.2942015 0.03506206
v 0.3155622 -0.2943754 -4.768371E-09
v 0.2944796 -0.3140039 -4.768371E-09
v 0.2820523 -0.2728411 0.04742458
v 0.2947903 -0.2827305 0.04572772
v 0.2969155 -0.3138306 0.03565433
v 0.2830482 -0.313567 0.03697551
v 0.2808436 -0.3137403 -4.768371E-09
v 0.09967957 -0.3102386 -4.768371E-09
v 0.2810998 -0.2839346 0.04704887
v 0.09881143 -0.3100653 0.05452838
v -0.1031409 -0.3102463 -4.768371E-09
v 0.09966008 -0.2870162 0.06442534
v 0.09921122 -0.2999307 0.06460132
v -0.1178523 -0.2863878 0.06320539
v -0.1182509 -0.2965233 0.05313238
v -0.1179386 -0.2745156 0.06318066
v -0.2771485 -0.2895132 0.04795067
v -0.2949533 -0.3099573 -4.768371E-09
v -0.2767505 -0.2793777 0.05802411
v -0.1190846 -0.1167841 0.062852
v -0.2775659 -0.268701 0.0581375
v -0.2891085 -0.2889855 0.04756065
v -0.3093909 -0.3099355 -4.768371E-09
v -0.3195435 -0.299898 -4.768371E-09
v -0.2887106 -0.27885 0.05763412
v -0.2992623 -0.2789477 0.04811623
v -0.3190927 -0.2878569 -4.768371E-09
v -0.2895809 -0.2682633 0.05775791
v -0.3001327 -0.268361 0.04824001
v -0.3011441 -0.1276114 0.05940252
v -0.3116958 -0.127709 0.04988461
vt 0.2820019 0.7072264
vt 0.2762218 0.7259672
vt 0.2920769 0.7173797
vt 0.2928257 0.7234138
vt 0.2737133 0.7237208
vt 0.2763164 0.7063558
vt 0.2765508 0.7314973
vt 0.3027729 0.8035827
vt 0.2809221 0.8049679
vt 0.2999991 0.8956697
vt 0.2732988 0.7323887
vt 0.2731145 0.7268808
vt 0.2685179 0.7231445
vt 0.1994924 0.7154877
vt 0.2007809 0.6947902
vt 0.2679203 0.7264807
vt 0.1179791 0.7156447
vt 0.1168134 0.6972545
vt 0.04744298 0.723379
vt 0.03952724 0.7069522
vt 0.03371002 0.7076821
vt 0.0421338 0.7239612
vt 0.02378127 0.7179961
vt 0.2680908 0.7320468
vt 0.1989116 0.7211663
vt 0.1184079 0.7218915
vt 0.04807402 0.7265855
vt 0.04278006 0.7269387
vt 0.0398621 0.7261076
vt 0.03948327 0.732326
vt 0.02309416 0.7246838
vt 0.1184266 0.7281325
vt 0.04792529 0.732783
vt 0.03445032 0.8149412
vt 0.01396531 0.8135324
vt 0.04261873 0.7331331
vt 0.1988982 0.7275052
vt 0.1186746 0.8110466
vt 0.04594919 0.8151214
vt 0.1184684 0.8890464
vt 0.1987199 0.8117218
vt 0.2703551 0.8059974
vt 0.04047523 0.8154281
vt 0.03635371 0.8933169
vt 0.01331792 0.8951452
vt 0.275747 0.8055665
vt 0.2691927 0.8933549
vt 0.04741161 0.8926146
vt 0.04206324 0.8928833
vt 0.03981012 0.9568682
vt 0.0234336 0.9650068
vt 0.04302028 0.9561353
vt 0.04007029 0.9616516
vt 0.024195 0.9702653
vt 0.03429515 0.9803427
vt 0.04849496 0.9561715
vt 0.04309233 0.9608961
vt 0.04230376 0.9639044
vt 0.0478131 0.9641908
vt 0.04026841 0.9809457
vt 0.1196275 0.9889569
vt 0.0485765 0.9609553
vt 0.1210085 0.9679973
vt 0.2007526 0.9889121
vt 0.12123 0.9566531
vt 0.1214378 0.9617417
vt 0.1984146 0.9634182
vt 0.1988443 0.9686677
vt 0.1984288 0.9582484
vt 0.2713597 0.9610513
vt 0.275152 0.9758415
vt 0.2702833 0.9563248
vt 0.1986181 0.8895638
vt 0.270207 0.9519169
vt 0.2768178 0.9604781
vt 0.280752 0.9748577
vt 0.2884249 0.9683095
vt 0.2756928 0.9557908
vt 0.2795173 0.956398
vt 0.2892351 0.9632248
vt 0.2756096 0.9514403
vt 0.2795415 0.9520154
vt 0.2745048 0.89364
vt 0.2798632 0.8937893
vn -0.3813114 0.9244143 0.007723558
vn -0.8568678 0.3591819 0.3698187
vn -0.9198354 0.3914971 0.02515518
vn -0.9990182 0.03276613 0.02981837
vn -0.330765 0.8796636 0.3417403
vn 0.02549979 0.9996696 -0.003240413
vn -0.9062845 0.04308448 0.4204667
vn -0.9987531 -0.001101171 0.04991148
vn -0.9007365 0.001506011 0.4343634
vn -0.9969004 -0.04146151 0.06686227
vn -0.3651306 0.04953809 0.9296374
vn -0.3107188 0.3720416 0.874665
vn 0.02255759 0.9187797 0.3941256
vn 0.01210764 0.8350838 0.5499895
vn 0.001936863 0.9999954 -0.002351589
vn 0.005213632 0.3760372 0.9265898
vn 0.01580189 0.922379 0.3859629
vn -0.009376415 0.9999548 -0.001611672
vn 0.02392695 0.8565261 0.5155489
vn -0.003432448 0.9999841 -0.004462677
vn 0.3639053 0.9309512 -0.03004616
vn 0.3523189 0.8197647 0.4515055
vn 0.9234191 0.3778175 -0.06746154
vn -0.01408206 0.0412657 0.999049
vn 0.008883105 0.1947901 0.9808047
vn 0.04252562 0.4035002 0.9139909
vn 0.05190358 0.2437776 0.9684412
vn 0.309978 0.1774182 0.934043
vn 0.8525804 0.3431376 0.3941616
vn 0.9175097 -0.02374723 0.3970036
vn 0.9971219 -0.02607779 -0.07118915
vn 0.04069809 0.0317899 0.9986656
vn 0.05540667 0.002795508 0.9984599
vn 0.9462675 0.009876592 0.3232337
vn 0.997871 0.00104918 -0.06521
vn 0.3620162 -0.009537418 0.9321229
vn 0.00864199 0.01104408 0.9999017
vn 0.04494241 0.009492922 0.9989445
vn 0.08423749 0.01355906 0.9963535
vn 0.03709498 0.005555096 0.9992963
vn 0.009272154 -0.003462504 0.999951
vn 0.02031944 -0.001081825 0.999793
vn 0.4455533 0.02181247 0.8949896
vn 0.9220456 0.0005615876 0.3870807
vn 0.9994344 0.02051399 0.02664561
vn -0.349457 0.005488 0.9369363
vn -0.0132324 -0.01852628 0.9997408
vn 0.05234703 0.00099267 0.9986285
vn 0.4372 -0.01253855 0.8992769
vn 0.8533314 -0.03084037 0.5204558
vn 0.99766 -0.02345052 -0.06422319
vn 0.2630353 -0.0478147 0.9636006
vn 0.8098042 -0.354154 0.467752
vn 0.9064824 -0.4178236 -0.0609359
vn 0.3422379 -0.9394177 -0.01917755
vn 0.08917824 -0.03525526 0.9953915
vn 0.2283695 -0.1568424 0.9608579
vn 0.3334967 -0.797815 0.502266
vn 0.04316411 -0.8080068 0.5875899
vn -0.01932518 -0.9997962 0.005839241
vn -0.009478946 -0.9999499 0.003215822
vn 0.1010927 -0.1846581 0.9775897
vn 0.01487535 -0.9106528 0.4129046
vn -0.04772281 -0.971915 0.2304424
vn 0.04428369 0.01146861 0.9989531
vn 0.0455864 -0.3869195 0.9209859
vn -0.03762804 -0.3761004 0.9258146
vn -0.05537165 -0.8682202 0.4930798
vn -0.01736401 0.003062094 0.9998446
vn -0.04118559 -0.8290762 0.5576167
vn -0.00499099 -0.916658 0.3996412
vn -0.04675825 -0.3858583 0.9213724
vn -0.009355008 0.000341329 0.9999563
vn -0.03020729 -0.01118218 0.9994811
vn -0.2884247 -0.76539 0.5753166
vn -0.3613258 -0.7866625 0.5006053
vn -0.7924312 -0.3587178 0.49333
vn -0.3298084 -0.3526791 0.8756962
vn -0.7481201 -0.3112308 0.5860475
vn -0.9293555 0.02785238 0.368134
vn -0.3726767 -0.04113681 0.927049
vn -0.8301427 -0.04444032 0.5557771
vn -0.3727329 -0.0412894 0.9270196
vn -0.9086211 -0.05746812 0.4136484
g StoneTile04_0
f 3/3/3 2/2/2 1/1/1
f 3/3/3 4/4/4 2/2/2
f 5/5/5 1/1/1 2/2/2
f 1/1/1 5/5/5 6/6/6
f 7/7/7 2/2/2 4/4/4
f 4/4/4 8/8/8 7/7/7
f 9/9/9 7/7/7 8/8/8
f 8/8/8 10/10/10 9/9/9
f 7/7/7 11/11/11 2/2/2
f 7/7/7 9/9/9 11/11/11
f 12/12/12 5/5/5 2/2/2
f 12/12/12 2/2/2 11/11/11
f 13/13/13 6/6/6 5/5/5
f 5/5/5 12/12/12 13/13/13
f 13/13/13 14/14/14 6/6/6
f 15/15/15 6/6/6 14/14/14
f 16/16/16 13/13/13 12/12/12
f 12/12/12 11/11/11 16/16/16
f 13/13/13 16/16/16 14/14/14
f 14/14/14 17/17/17 15/15/15
f 18/18/18 15/15/15 17/17/17
f 17/17/17 19/19/19 18/18/18
f 20/20/20 18/18/18 19/19/19
f 20/20/20 19/19/19 21/21/21
f 22/22/22 21/21/21 19/19/19
f 21/21/21 22/22/22 23/23/23
f 24/24/24 16/16/16 11/11/11
f 25/25/25 14/14/14 16/16/16
f 16/16/16 24/24/24 25/25/25
f 17/17/17 14/14/14 26/26/26
f 25/25/25 26/26/26 14/14/14
f 19/19/19 17/17/17 27/27/27
f 26/26/26 27/27/27 17/17/17
f 22/22/22 19/19/19 28/28/28
f 27/27/27 28/28/28 19/19/19
f 29/29/29 23/23/23 22/22/22
f 28/28/28 29/29/29 22/22/22
f 29/29/29 30/30/30 23/23/23
f 29/29/29 28/28/28 30/30/30
f 31/31/31 23/23/23 30/30/30
f 26/26/26 25/25/25 32/32/32
f 26/26/26 32/32/32 27/27/27
f 27/27/27 33/33/33 28/28/28
f 33/33/33 27/27/27 32/32/32
f 30/30/30 34/34/34 31/31/31
f 35/35/35 31/31/31 34/34/34
f 36/36/36 30/30/30 28/28/28
f 36/36/36 28/28/28 33/33/33
f 30/30/30 36/36/36 34/34/34
f 37/37/37 32/32/32 25/25/25
f 37/37/37 25/25/25 24/24/24
f 32/32/32 38/38/38 33/33/33
f 32/32/32 37/37/37 38/38/38
f 33/33/33 39/39/39 36/36/36
f 39/39/39 33/33/33 38/38/38
f 38/38/38 40/40/40 39/39/39
f 41/41/41 38/38/38 37/37/37
f 38/38/38 41/41/41 40/40/40
f 24/24/24 42/42/42 37/37/37
f 41/41/41 37/37/37 42/42/42
f 43/43/43 36/36/36 39/39/39
f 43/43/43 34/34/34 36/36/36
f 34/34/34 44/44/44 35/35/35
f 45/45/45 35/35/35 44/44/44
f 42/42/42 24/24/24 46/46/46
f 11/11/11 46/46/46 24/24/24
f 46/46/46 11/11/11 9/9/9
f 42/42/42 47/47/47 41/41/41
f 42/42/42 46/46/46 47/47/47
f 39/39/39 48/48/48 43/43/43
f 48/48/48 39/39/39 40/40/40
f 43/43/43 49/49/49 34/34/34
f 44/44/44 34/34/34 49/49/49
f 49/49/49 43/43/43 48/48/48
f 44/44/44 50/50/50 45/45/45
f 51/51/51 45/45/45 50/50/50
f 49/49/49 52/52/52 44/44/44
f 49/49/49 48/48/48 52/52/52
f 50/50/50 44/44/44 52/52/52
f 50/50/50 53/53/53 51/51/51
f 54/54/54 51/51/51 53/53/53
f 54/54/54 53/53/53 55/55/55
f 56/56/56 52/52/52 48/48/48
f 48/48/48 40/40/40 56/56/56
f 52/52/52 57/57/57 50/50/50
f 53/53/53 50/50/50 57/57/57
f 52/52/52 56/56/56 57/57/57
f 58/58/58 55/55/55 53/53/53
f 57/57/57 58/58/58 53/53/53
f 58/58/58 59/59/59 55/55/55
f 58/58/58 57/57/57 59/59/59
f 60/60/60 55/55/55 59/59/59
f 60/60/60 59/59/59 61/61/61
f 62/62/62 57/57/57 56/56/56
f 62/62/62 59/59/59 57/57/57
f 63/63/63 61/61/61 59/59/59
f 59/59/59 62/62/62 63/63/63
f 61/61/61 63/63/63 64/64/64
f 56/56/56 65/65/65 62/62/62
f 65/65/65 56/56/56 40/40/40
f 66/66/66 63/63/63 62/62/62
f 66/66/66 62/62/62 65/65/65
f 66/66/66 67/67/67 63/63/63
f 66/66/66 65/65/65 67/67/67
f 68/68/68 64/64/64 63/63/63
f 68/68/68 63/63/63 67/67/67
f 65/65/65 40/40/40 69/69/69
f 69/69/69 67/67/67 65/65/65
f 68/68/68 70/70/70 64/64/64
f 71/71/71 64/64/64 70/70/70
f 67/67/67 72/72/72 68/68/68
f 67/67/67 69/69/69 72/72/72
f 70/70/70 68/68/68 72/72/72
f 73/73/73 69/69/69 40/40/40
f 73/73/73 40/40/40 41/41/41
f 73/73/73 41/41/41 47/47/47
f 69/69/69 73/73/73 74/74/74
f 74/74/74 72/72/72 69/69/69
f 47/47/47 74/74/74 73/73/73
f 70/70/70 75/75/75 71/71/71
f 76/76/76 71/71/71 75/75/75
f 76/76/76 75/75/75 77/77/77
f 72/72/72 78/78/78 70/70/70
f 72/72/72 74/74/74 78/78/78
f 75/75/75 70/70/70 78/78/78
f 79/79/79 77/77/77 75/75/75
f 78/78/78 79/79/79 75/75/75
f 77/77/77 79/79/79 80/80/80
f 81/81/81 78/78/78 74/74/74
f 74/74/74 47/47/47 81/81/81
f 78/78/78 81/81/81 79/79/79
f 82/82/82 80/80/80 79/79/79
f 82/82/82 79/79/79 81/81/81
f 80/80/80 82/82/82 10/10/10
f 83/83/83 81/81/81 47/47/47
f 81/81/81 83/83/83 82/82/82
f 83/83/83 47/47/47 46/46/46
f 84/84/84 10/10/10 82/82/82
f 84/84/84 82/82/82 83/83/83
f 83/83/83 46/46/46 84/84/84
f 84/84/84 9/9/9 10/10/10
f 9/9/9 84/84/84 46/46/46
