g Window
v 0.1500092 3.133739 0.1533794
v 0.1500092 3.667937 0.1533794
v 0.9310722 3.668839 0.1533794
v 0.9310722 3.134415 0.1533794
v 1.051647 3.133739 0.1533794
v 1.051647 3.667937 0.1533794
v 1.832711 3.668839 0.1533794
v 1.832711 3.134415 0.1533794
v 1.832711 1.795137 0.1533794
v 1.832711 3.134415 0.1533794
v 1.832711 3.668839 0.1533794
v 1.832711 3.025768 0.1533794
v 1.832711 2.464331 0.1533794
v 1.832711 2.357284 0.1533794
v 0.9310722 3.134415 0
v 0.9310722 3.668839 0
v 0.1500092 3.667937 0
v 0.1500092 3.133739 0
v 1.83271 3.134415 0
v 1.83271 3.668839 0
v 1.051647 3.667937 0
v 1.051647 3.133739 0
v 1.83271 3.668839 0
v 1.83271 2.357284 0
v 1.83271 1.795137 0
v 1.83271 2.464331 0
v 1.83271 3.025768 0
v 1.83271 3.134415 0
v 1.99999 3.751945 0
v 1.999991 3.751945 0.1533794
v 0 3.748055 0.1533794
v 0 3.748055 0
v 1.99999 1.706069 0
v 1.999991 1.706069 0.1533794
v 1.999991 3.751945 0.1533794
v 1.99999 3.751945 0
v 1.999991 1.706069 0.1533794
v 1.99999 1.706069 0
v 0 1.706069 0
v 0 1.706069 0.1533794
v 1.83271 2.357284 0
v 1.83271 2.464331 0
v 1.051647 2.46388 0
v 1.051647 2.356946 0
v 0.9310722 2.357284 0
v 0.9310722 2.464331 0
v 0.1500092 2.46388 0
v 0.1500092 2.356945 0
v 0.1500092 2.356945 0.1533794
v 0.1500092 2.46388 0.1533794
v 0.9310722 2.464331 0.1533794
v 0.9310722 2.357284 0.1533794
v 1.051647 2.356946 0.1533794
v 1.051647 2.46388 0.1533794
v 1.832711 2.464331 0.1533794
v 1.832711 2.357284 0.1533794
v 1.83271 3.025768 0
v 1.83271 3.134415 0
v 1.051647 3.133739 0
v 1.051647 3.025205 0
v 0.9310722 3.025768 0
v 0.9310722 3.134415 0
v 0.1500092 3.133739 0
v 0.1500092 3.025205 0
v 0.1500092 3.025205 0.1533794
v 0.1500092 3.133739 0.1533794
v 0.9310722 3.134415 0.1533794
v 0.9310722 3.025768 0.1533794
v 1.051647 3.025205 0.1533794
v 1.051647 3.133739 0.1533794
v 1.832711 3.134415 0.1533794
v 1.832711 3.025768 0.1533794
v 1.051647 1.795137 0
v 1.83271 1.795137 0
v 1.83271 2.357284 0
v 1.051647 2.356946 0
v 0.1500092 1.795137 0
v 0.9310722 1.795137 0
v 0.9310722 2.357284 0
v 0.1500092 2.356945 0
v 0.9310722 2.357284 0.1533794
v 0.9310722 1.795137 0.1533794
v 0.1500092 1.795137 0.1533794
v 0.1500092 2.356945 0.1533794
v 1.832711 2.357284 0.1533794
v 1.832711 1.795137 0.1533794
v 1.051647 1.795137 0.1533794
v 1.051647 2.356946 0.1533794
v 1.83271 2.464331 0
v 1.83271 3.025768 0
v 1.051647 3.025205 0
v 1.051647 2.46388 0
v 0.9310722 2.464331 0
v 0.9310722 3.025768 0
v 0.1500092 3.025205 0
v 0.1500092 2.46388 0
v 0 1.706069 0
v 0 3.748055 0
v 0 3.748055 0.1533794
v 0 1.706069 0.1533794
v 0.1500092 2.46388 0.1533794
v 0.1500092 3.025205 0.1533794
v 0.9310722 3.025768 0.1533794
v 0.9310722 2.464331 0.1533794
v 1.051647 2.46388 0.1533794
v 1.051647 3.025205 0.1533794
v 1.832711 3.025768 0.1533794
v 1.832711 2.464331 0.1533794
v 1.832711 1.795137 0.1533794
v 1.999991 1.706069 0.1533794
v 1.051647 1.795137 0.1533794
v 1.832711 3.668839 0.1533794
v 1.999991 3.751945 0.1533794
v 1.051647 3.667937 0.1533794
v 0 1.706069 0.1533794
v 0.9310722 3.668839 0.1533794
v 0 3.748055 0.1533794
v 0.9310722 3.134415 0.1533794
v 1.051647 3.133739 0.1533794
v 0.9310722 3.025768 0.1533794
v 1.051647 3.025205 0.1533794
v 0.9310722 2.464331 0.1533794
v 1.051647 2.46388 0.1533794
v 0.1500092 3.667937 0.1533794
v 0.9310722 2.357284 0.1533794
v 1.051647 2.356946 0.1533794
v 0.9310722 1.795137 0.1533794
v 0.1500092 1.795137 0.1533794
v 0.1500092 3.133739 0.1533794
v 0.1500092 2.356945 0.1533794
v 0.1500092 3.025205 0.1533794
v 0.1500092 2.46388 0.1533794
v 0 1.706069 0
v 0.1500092 1.795137 0
v 0.1500092 2.356945 0
v 0.1500092 2.46388 0
v 0.1500092 3.025205 0
v 0.1500092 3.133739 0
v 0.9310722 1.795137 0
v 0.1500092 3.667937 0
v 0 3.748055 0
v 0.9310722 3.668839 0
v 1.99999 3.751945 0
v 1.051647 1.795137 0
v 0.9310722 2.357284 0
v 1.99999 1.706069 0
v 1.051647 2.356946 0
v 0.9310722 2.464331 0
v 1.051647 2.46388 0
v 0.9310722 3.025768 0
v 1.051647 3.025205 0
v 0.9310722 3.134415 0
v 1.051647 3.133739 0
v 1.051647 3.667937 0
v 1.83271 3.668839 0
v 1.83271 1.795137 0
v 1.893616 1.750603 0
vt 0.1407471 0.4790039
vt 0.1407471 0.4790039
vt 0.1407471 0.4790039
vt 0.1407471 0.4790039
vt 0.1407471 0.4790039
vt 0.1407471 0.4790039
vt 0.1407471 0.4790039
vt 0.1407471 0.4790039
vt 0.2644043 0.3986816
vt 0.2644043 0.3986816
vt 0.2644043 0.3986816
vt 0.2644043 0.3986816
vt 0.2644043 0.3986816
vt 0.2644043 0.3986816
vt 0.1407471 0.4790039
vt 0.1407471 0.4790039
vt 0.1407471 0.4790039
vt 0.1407471 0.4790039
vt 0.1407471 0.4790039
vt 0.1407471 0.4790039
vt 0.1407471 0.4790039
vt 0.1407471 0.4790039
vt 0.2644043 0.3986816
vt 0.2644043 0.3986816
vt 0.2644043 0.3986816
vt 0.2644043 0.3986816
vt 0.2644043 0.3986816
vt 0.2644043 0.3986816
vt 0.387207 0.3979492
vt 0.387207 0.3979492
vt 0.387207 0.3979492
vt 0.387207 0.3979492
vt 0.3310547 0.3972168
vt 0.3310547 0.3972168
vt 0.3310547 0.3972168
vt 0.3310547 0.3972168
vt 0.0770874 0.3991699
vt 0.0770874 0.3991699
vt 0.0770874 0.3991699
vt 0.0770874 0.3991699
vt 0.2653809 0.3981934
vt 0.2653809 0.3981934
vt 0.2653809 0.3981934
vt 0.2653809 0.3981934
vt 0.2653809 0.3981934
vt 0.2653809 0.3981934
vt 0.2653809 0.3981934
vt 0.2653809 0.3981934
vt 0.2629395 0.3974609
vt 0.2629395 0.3974609
vt 0.2629395 0.3974609
vt 0.2629395 0.3974609
vt 0.2629395 0.3974609
vt 0.2629395 0.3974609
vt 0.2629395 0.3974609
vt 0.2629395 0.3974609
vt 0.2653809 0.3981934
vt 0.2653809 0.3981934
vt 0.2653809 0.3981934
vt 0.2653809 0.3981934
vt 0.2653809 0.3981934
vt 0.2653809 0.3981934
vt 0.2653809 0.3981934
vt 0.2653809 0.3981934
vt 0.2629395 0.3974609
vt 0.2629395 0.3974609
vt 0.2629395 0.3974609
vt 0.2629395 0.3974609
vt 0.2629395 0.3974609
vt 0.2629395 0.3974609
vt 0.2629395 0.3974609
vt 0.2629395 0.3974609
vt 0.1407471 0.4790039
vt 0.1407471 0.4790039
vt 0.1407471 0.4790039
vt 0.1407471 0.4790039
vt 0.1407471 0.4790039
vt 0.1407471 0.4790039
vt 0.1407471 0.4790039
vt 0.1407471 0.4790039
vt 0.1407471 0.4790039
vt 0.1407471 0.4790039
vt 0.1407471 0.4790039
vt 0.1407471 0.4790039
vt 0.1407471 0.4790039
vt 0.1407471 0.4790039
vt 0.1407471 0.4790039
vt 0.1407471 0.4790039
vt 0.1407471 0.4790039
vt 0.1407471 0.4790039
vt 0.1407471 0.4790039
vt 0.1407471 0.4790039
vt 0.1407471 0.4790039
vt 0.1407471 0.4790039
vt 0.1407471 0.4790039
vt 0.1407471 0.4790039
vt 0.2695313 0.4008789
vt 0.2695313 0.4008789
vt 0.2695313 0.4008789
vt 0.2695313 0.4008789
vt 0.1407471 0.4790039
vt 0.1407471 0.4790039
vt 0.1407471 0.4790039
vt 0.1407471 0.4790039
vt 0.1407471 0.4790039
vt 0.1407471 0.4790039
vt 0.1407471 0.4790039
vt 0.1407471 0.4790039
vt 0.2644043 0.3986816
vt 0.2644043 0.3986816
vt 0.2644043 0.3986816
vt 0.2644043 0.3986816
vt 0.2644043 0.3986816
vt 0.2644043 0.3986816
vt 0.2644043 0.3986816
vt 0.2644043 0.3986816
vt 0.2644043 0.3986816
vt 0.2644043 0.3986816
vt 0.2644043 0.3986816
vt 0.2644043 0.3986816
vt 0.2644043 0.3986816
vt 0.2644043 0.3986816
vt 0.2644043 0.3986816
vt 0.2644043 0.3986816
vt 0.2644043 0.3986816
vt 0.2644043 0.3986816
vt 0.2644043 0.3986816
vt 0.2644043 0.3986816
vt 0.2644043 0.3986816
vt 0.2644043 0.3986816
vt 0.2644043 0.3986816
vt 0.2644043 0.3986816
vt 0.2644043 0.3986816
vt 0.2644043 0.3986816
vt 0.2644043 0.3986816
vt 0.2644043 0.3986816
vt 0.2644043 0.3986816
vt 0.2644043 0.3986816
vt 0.2644043 0.3986816
vt 0.2644043 0.3986816
vt 0.2644043 0.3986816
vt 0.2644043 0.3986816
vt 0.2644043 0.3986816
vt 0.2644043 0.3986816
vt 0.2644043 0.3986816
vt 0.2644043 0.3986816
vt 0.2644043 0.3986816
vt 0.2644043 0.3986816
vt 0.2644043 0.3986816
vt 0.2644043 0.3986816
vt 0.2644043 0.3986816
vt 0.2644043 0.3986816
vt 0.2644043 0.3986816
vt 0.2644043 0.3986816
vt 0.2644043 0.3986816
vt 0.2644043 0.3986816
vt 0.2644043 0.3986816
vn 0 0 1
vn 0 0 1
vn 0 0 1
vn 0 0 1
vn 0 0 1
vn 0 0 1
vn 0 0 1
vn 0 0 1
vn 0 1 0
vn 0 1 0
vn 0 1 0
vn 0 1 0
vn 0 1 0
vn 0 1 0
vn 0 0 -1
vn 0 0 -1
vn 0 0 -1
vn 0 0 -1
vn 0 0 -1
vn 0 0 -1
vn 0 0 -1
vn 0 0 -1
vn 0 1 0
vn 0 1 0
vn 0 1 0
vn 0 1 0
vn 0 1 0
vn 0 1 0
vn -0.001944542 1 0
vn -0.001944542 1 0
vn -0.001944542 1 0
vn -0.001944542 1 0
vn 1 0 0
vn 1 0 0
vn 1 0 0
vn 1 0 0
vn 0 -1 0
vn 0 -1 0
vn 0 -1 0
vn 0 -1 0
vn 0 0 -1
vn 0 0 -1
vn 0 0 -1
vn 0 0 -1
vn 0 0 -1
vn 0 0 -1
vn 0 0 -1
vn 0 0 -1
vn 0 0 1
vn 0 0 1
vn 0 0 1
vn 0 0 1
vn 0 0 1
vn 0 0 1
vn 0 0 1
vn 0 0 1
vn 0 0 -1
vn 0 0 -1
vn 0 0 -1
vn 0 0 -1
vn 0 0 -1
vn 0 0 -1
vn 0 0 -1
vn 0 0 -1
vn 0 0 1
vn 0 0 1
vn 0 0 1
vn 0 0 1
vn 0 0 1
vn 0 0 1
vn 0 0 1
vn 0 0 1
vn 0 0 -1
vn 0 0 -1
vn 0 0 -1
vn 0 0 -1
vn 0 0 -1
vn 0 0 -1
vn 0 0 -1
vn 0 0 -1
vn 0 0 1
vn 0 0 1
vn 0 0 1
vn 0 0 1
vn 0 0 1
vn 0 0 1
vn 0 0 1
vn 0 0 1
vn 0 0 -1
vn 0 0 -1
vn 0 0 -1
vn 0 0 -1
vn 0 0 -1
vn 0 0 -1
vn 0 0 -1
vn 0 0 -1
vn -1 0 0
vn -1 0 0
vn -1 0 0
vn -1 0 0
vn 0 0 1
vn 0 0 1
vn 0 0 1
vn 0 0 1
vn 0 0 1
vn 0 0 1
vn 0 0 1
vn 0 0 1
vn 0 0 1
vn 0 0 1
vn 0 0 1
vn 0 0 1
vn 0 0 1
vn 0 0 1
vn 0 0 1
vn 0 0 1
vn 0 0 1
vn 0 0 1
vn 0 0 1
vn 0 0 1
vn 0 0 1
vn 0 0 1
vn 0 0 1
vn 0 0 1
vn 0 0 1
vn 0 0 1
vn 0 0 1
vn 0 0 1
vn 0 0 1
vn 0 0 1
vn 0 0 1
vn 0 0 1
vn 0 0 -1
vn 0 0 -1
vn 0 0 -1
vn 0 0 -1
vn 0 0 -1
vn 0 0 -1
vn 0 0 -1
vn 0 0 -1
vn 0 0 -1
vn 0 0 -1
vn 0 0 -1
vn 0 0 -1
vn 0 0 -1
vn 0 0 -1
vn 0 0 -1
vn 0 0 -1
vn 0 0 -1
vn 0 0 -1
vn 0 0 -1
vn 0 0 -1
vn 0 0 -1
vn 0 0 -1
vn 0 0 -1
vn 0 0 -1
vn 0 0 -1
g Window_0
f 3/3/3 2/2/2 1/1/1
f 4/4/4 3/3/3 1/1/1
f 7/7/7 6/6/6 5/5/5
f 8/8/8 7/7/7 5/5/5
f 11/11/11 10/10/10 9/9/9
f 10/10/10 12/12/12 9/9/9
f 12/12/12 13/13/13 9/9/9
f 13/13/13 14/14/14 9/9/9
f 17/17/17 16/16/16 15/15/15
f 18/18/18 17/17/17 15/15/15
f 21/21/21 20/20/20 19/19/19
f 22/22/22 21/21/21 19/19/19
f 25/25/25 24/24/24 23/23/23
f 24/24/24 26/26/26 23/23/23
f 26/26/26 27/27/27 23/23/23
f 27/27/27 28/28/28 23/23/23
f 31/31/31 30/30/30 29/29/29
f 32/32/32 31/31/31 29/29/29
f 35/35/35 34/34/34 33/33/33
f 36/36/36 35/35/35 33/33/33
f 39/39/39 38/38/38 37/37/37
f 40/40/40 39/39/39 37/37/37
f 43/43/43 42/42/42 41/41/41
f 44/44/44 43/43/43 41/41/41
f 47/47/47 46/46/46 45/45/45
f 48/48/48 47/47/47 45/45/45
f 51/51/51 50/50/50 49/49/49
f 52/52/52 51/51/51 49/49/49
f 55/55/55 54/54/54 53/53/53
f 56/56/56 55/55/55 53/53/53
f 59/59/59 58/58/58 57/57/57
f 60/60/60 59/59/59 57/57/57
f 63/63/63 62/62/62 61/61/61
f 64/64/64 63/63/63 61/61/61
f 67/67/67 66/66/66 65/65/65
f 68/68/68 67/67/67 65/65/65
f 71/71/71 70/70/70 69/69/69
f 72/72/72 71/71/71 69/69/69
f 75/75/75 74/74/74 73/73/73
f 76/76/76 75/75/75 73/73/73
f 79/79/79 78/78/78 77/77/77
f 80/80/80 79/79/79 77/77/77
f 83/83/83 82/82/82 81/81/81
f 84/84/84 83/83/83 81/81/81
f 87/87/87 86/86/86 85/85/85
f 88/88/88 87/87/87 85/85/85
f 91/91/91 90/90/90 89/89/89
f 92/92/92 91/91/91 89/89/89
f 95/95/95 94/94/94 93/93/93
f 96/96/96 95/95/95 93/93/93
f 99/99/99 98/98/98 97/97/97
f 100/100/100 99/99/99 97/97/97
f 103/103/103 102/102/102 101/101/101
f 104/104/104 103/103/103 101/101/101
f 107/107/107 106/106/106 105/105/105
f 108/108/108 107/107/107 105/105/105
f 111/111/111 110/110/110 109/109/109
f 112/112/112 109/109/109 110/110/110
f 110/110/110 113/113/113 112/112/112
f 114/114/114 112/112/112 113/113/113
f 110/110/110 111/111/111 115/115/115
f 116/116/116 114/114/114 113/113/113
f 117/117/117 116/116/116 113/113/113
f 114/114/114 116/116/116 118/118/118
f 119/119/119 114/114/114 118/118/118
f 119/119/119 118/118/118 120/120/120
f 121/121/121 119/119/119 120/120/120
f 121/121/121 120/120/120 122/122/122
f 123/123/123 121/121/121 122/122/122
f 124/124/124 116/116/116 117/117/117
f 122/122/122 125/125/125 123/123/123
f 125/125/125 126/126/126 123/123/123
f 126/126/126 125/125/125 111/111/111
f 125/125/125 127/127/127 111/111/111
f 111/111/111 127/127/127 115/115/115
f 127/127/127 128/128/128 115/115/115
f 117/117/117 115/115/115 128/128/128
f 129/129/129 124/124/124 117/117/117
f 117/117/117 128/128/128 130/130/130
f 117/117/117 131/131/131 129/129/129
f 117/117/117 130/130/130 132/132/132
f 117/117/117 132/132/132 131/131/131
f 135/135/135 134/134/134 133/133/133
f 133/133/133 136/136/136 135/135/135
f 133/133/133 137/137/137 136/136/136
f 133/133/133 138/138/138 137/137/137
f 134/134/134 139/139/139 133/133/133
f 133/133/133 140/140/140 138/138/138
f 133/133/133 141/141/141 140/140/140
f 142/142/142 140/140/140 141/141/141
f 142/142/142 141/141/141 143/143/143
f 139/139/139 144/144/144 133/133/133
f 144/144/144 139/139/139 145/145/145
f 144/144/144 146/146/146 133/133/133
f 147/147/147 144/144/144 145/145/145
f 145/145/145 148/148/148 147/147/147
f 148/148/148 149/149/149 147/147/147
f 148/148/148 150/150/150 149/149/149
f 150/150/150 151/151/151 149/149/149
f 150/150/150 152/152/152 151/151/151
f 152/152/152 153/153/153 151/151/151
f 152/152/152 142/142/142 153/153/153
f 142/142/142 154/154/154 153/153/153
f 154/154/154 142/142/142 143/143/143
f 155/155/155 154/154/154 143/143/143
f 155/155/155 143/143/143 156/156/156
f 146/146/146 144/144/144 156/156/156
f 143/143/143 146/146/146 156/156/156
f 157/157/157 146/146/146 156/156/156
f 146/146/146 157/157/157 156/156/156
