g WoodMedium
v 0.1296456 -0.08442396 -0.0005394584
v 0.1501024 0.01358869 0.3002635
v 0.1751031 0.0282898 -0.0007190238
v 0.1114788 -0.07806805 0.3008932
v 0.146819 -0.006814177 0.6339779
v 0.06553175 -0.141777 -0.001522574
v 0.1141297 -0.1077642 0.6437943
v 0.05054687 -0.1360811 0.3006126
v -0.01327583 -0.1619729 -0.002074911
v 0.06633186 -0.1632737 0.647818
v -0.0280032 -0.1752666 0.3002757
v -0.09339507 -0.1404564 -0.002147482
v -0.001372937 -0.1863935 0.6482247
v -0.1088797 -0.1533509 0.3002139
v -0.1533329 -0.08025375 -0.001538919
v -0.07953785 -0.1669183 0.6465462
v -0.1578842 -0.09331689 0.2999801
v -0.1751031 0.0186054 -0.0003213554
v -0.1308738 -0.1038302 0.6393517
v -0.1748606 0.006707735 0.3004785
v -0.1529709 0.1009147 0
v -0.1518344 -0.008648992 0.6304558
v -0.1572724 0.08578192 0.3070037
v -0.09271119 0.1611744 0
v -0.1348791 0.07124057 0.6196629
v -0.1067679 0.1392047 0.3160101
v -0.005340381 0.1863935 -0.0003107615
v -0.08296045 0.1216056 0.6184057
v -0.02488036 0.1586815 0.3190389
v 0.09389566 0.1756818 -0.00132997
v -0.001986625 0.1380194 0.620409
v 0.07051323 0.1475047 0.3159013
v 0.165004 0.1226729 -0.00184035
v 0.08149885 0.1269795 0.6184435
v 0.1392125 0.1007843 0.3070918
v 0.1751031 0.0282898 -0.0007190238
v 0.1380111 0.08364267 0.6195187
v 0.1501024 0.01358869 0.3002635
v 0.146819 -0.006814177 0.6339779
v 0.06553175 -0.141777 -0.001522574
v -0.09339507 -0.1404564 -0.002147482
v -0.01327583 -0.1619729 -0.002074911
v 0.1751031 0.0282898 -0.0007190238
v 0.1296456 -0.08442396 -0.0005394584
v -0.09271119 0.1611744 0
v -0.1751031 0.0186054 -0.0003213554
v -0.1533329 -0.08025375 -0.001538919
v -0.1529709 0.1009147 0
v 0.09389566 0.1756818 -0.00132997
v -0.005340381 0.1863935 -0.0003107615
v 0.165004 0.1226729 -0.00184035
v 0.1380111 0.08364267 0.6195187
v -0.001986625 0.1380194 0.620409
v 0.08149885 0.1269795 0.6184435
v 0.1141297 -0.1077642 0.6437943
v 0.146819 -0.006814177 0.6339779
v -0.1308738 -0.1038302 0.6393517
v -0.1348791 0.07124057 0.6196629
v -0.08296045 0.1216056 0.6184057
v -0.1518344 -0.008648992 0.6304558
v -0.001372937 -0.1863935 0.6482247
v -0.07953785 -0.1669183 0.6465462
v 0.06633186 -0.1632737 0.647818
vt 0.6344823 0.01505366
vt 0.6624311 0.1017979
vt 0.6691701 0.01504049
vt 0.6336181 0.1022236
vt 0.6582316 0.197927
vt 0.6102952 0.01494021
vt 0.627772 0.2013656
vt 0.6091031 0.1022558
vt 0.5873835 0.01481209
vt 0.6066947 0.202834
vt 0.583823 0.102037
vt 0.5635415 0.0141137
vt 0.5859584 0.2026183
vt 0.5599191 0.1011875
vt 0.5389041 0.01314346
vt 0.5623668 0.2012188
vt 0.5380849 0.09997256
vt 0.5094593 0.01210381
vt 0.5384537 0.1979781
vt 0.5094197 0.09878291
vt 0.4846 0.01142137
vt 0.5098128 0.1941335
vt 0.4865664 0.09988022
vt 0.4597882 0.01118488
vt 0.4856854 0.1901962
vt 0.4657537 0.1022502
vt 0.4334816 0.0115866
vt 0.4643711 0.1896826
vt 0.4416974 0.10376
vt 0.4048225 0.01266001
vt 0.4404535 0.1910463
vt 0.4139702 0.1043448
vt 0.3795471 0.01486879
vt 0.4162456 0.1918739
vt 0.3897431 0.1040185
vt 0.3527532 0.01981984
vt 0.3960272 0.194141
vt 0.3643333 0.1058305
vt 0.3706686 0.2016195
vt 0.03108392 0.4487674
vt 0.09335501 0.4318199
vt 0.05967154 0.4322122
vt 0.006937362 0.5272845
vt 0.01232281 0.4782345
vt 0.1262291 0.5498063
vt 0.1427722 0.4850261
vt 0.1234 0.4487699
vt 0.1431642 0.5196319
vt 0.05487669 0.5759709
vt 0.09484594 0.569261
vt 0.02125547 0.5630606
vt 0.05197866 0.8397831
vt 0.1190569 0.8538523
vt 0.08440925 0.8373285
vt 0.01318735 0.9194813
vt 0.02597215 0.8727922
vt 0.1077423 0.9776919
vt 0.1530947 0.911365
vt 0.1458734 0.8796706
vt 0.1395726 0.9464037
vt 0.03761734 0.9776362
vt 0.07234449 0.9893658
vt 0.01754719 0.9523427
vn 0.8169224 -0.5736941 0.05926933
vn 0.9895588 -0.1386447 0.03938235
vn 0.9890036 -0.1261303 0.07722099
vn 0.8262612 -0.5632418 0.007149675
vn 0.9899225 -0.1412125 -0.01060453
vn 0.4758183 -0.8784447 0.04395488
vn 0.8550602 -0.5147874 -0.06217712
vn 0.56863 -0.8219968 -0.03132345
vn 0.02067475 -0.9996586 -0.01597301
vn 0.5598692 -0.8251778 -0.07502072
vn 0.08044349 -0.9957671 -0.0444593
vn -0.4967777 -0.8656151 -0.06262988
vn 0.0557635 -0.9977107 -0.0382612
vn -0.5490415 -0.8356184 -0.01718525
vn -0.8824198 -0.4683607 -0.04442425
vn -0.5109019 -0.8595799 0.01007903
vn -0.9102693 -0.4136721 0.01688092
vn -0.9994538 0.03274994 -0.004422241
vn -0.8929438 -0.4471039 0.05243548
vn -0.9990939 0.02413972 0.03505251
vn -0.8635666 0.5039256 0.01765265
vn -0.9974173 -0.01841217 0.06942404
vn -0.8853596 0.4627346 0.04488832
vn -0.4994645 0.8653656 0.04095719
vn -0.8776182 0.4707692 0.09034736
vn -0.5115495 0.8568732 0.06391626
vn -0.07319999 0.99434 0.07700493
vn -0.4598812 0.8832154 0.0918687
vn -0.06505502 0.9949712 0.07615918
vn 0.3716632 0.9220739 0.1079172
vn -0.0278846 0.9969844 0.07241911
vn 0.3481264 0.9343317 0.07636984
vn 0.8589918 0.4997993 0.1110575
vn 0.3868435 0.9205201 0.054724
vn 0.8536762 0.5164559 0.06715862
vn 0.9890036 -0.1261303 0.07722099
vn 0.8881372 0.458474 0.03184238
vn 0.9895588 -0.1386447 0.03938235
vn 0.9899225 -0.1412125 -0.01060453
vn 0.006204276 0.001652089 -0.9999794
vn 0.0003725553 0.007171897 -0.9999743
vn 0.004028365 0.01162753 -0.9999243
vn -0.001254774 -0.001593659 -0.999998
vn 0.02620666 -0.0121616 -0.9995826
vn -0.003827121 0.004670272 -0.9999818
vn -0.007052375 0.007523777 -0.9999468
vn 0.002846816 0.01294198 -0.9999123
vn -0.005340007 0.005340007 -0.9999715
vn -0.008443499 -0.006971366 -0.99994
vn -0.008441716 0.01692581 -0.9998211
vn -0.01741962 -0.01374157 -0.9997538
vn 0.0312668 0.1151954 0.9928507
vn -0.005441465 0.09697473 0.995272
vn 0.03232358 0.06689358 0.9972364
vn -0.01237839 0.09689067 0.995218
vn -0.1455301 0.1423291 0.9790626
vn -0.01402944 0.09607409 0.9952754
vn -0.04400837 0.1050004 0.993498
vn -0.0375686 0.06362115 0.9972668
vn 0.09521453 0.1134005 0.9889765
vn -0.01457164 0.08727923 0.9960774
vn 0.008641104 0.1202383 0.9927074
vn -0.02642534 0.09488796 0.9951372
g WoodMedium_0
f 3/3/3 2/2/2 1/1/1
f 4/4/4 1/1/1 2/2/2
f 2/2/2 5/5/5 4/4/4
f 1/1/1 4/4/4 6/6/6
f 7/7/7 4/4/4 5/5/5
f 8/8/8 6/6/6 4/4/4
f 4/4/4 7/7/7 8/8/8
f 6/6/6 8/8/8 9/9/9
f 10/10/10 8/8/8 7/7/7
f 11/11/11 9/9/9 8/8/8
f 8/8/8 10/10/10 11/11/11
f 9/9/9 11/11/11 12/12/12
f 13/13/13 11/11/11 10/10/10
f 14/14/14 12/12/12 11/11/11
f 11/11/11 13/13/13 14/14/14
f 12/12/12 14/14/14 15/15/15
f 16/16/16 14/14/14 13/13/13
f 17/17/17 15/15/15 14/14/14
f 14/14/14 16/16/16 17/17/17
f 15/15/15 17/17/17 18/18/18
f 19/19/19 17/17/17 16/16/16
f 20/20/20 18/18/18 17/17/17
f 17/17/17 19/19/19 20/20/20
f 18/18/18 20/20/20 21/21/21
f 22/22/22 20/20/20 19/19/19
f 23/23/23 21/21/21 20/20/20
f 20/20/20 22/22/22 23/23/23
f 21/21/21 23/23/23 24/24/24
f 25/25/25 23/23/23 22/22/22
f 26/26/26 24/24/24 23/23/23
f 23/23/23 25/25/25 26/26/26
f 24/24/24 26/26/26 27/27/27
f 28/28/28 26/26/26 25/25/25
f 29/29/29 27/27/27 26/26/26
f 26/26/26 28/28/28 29/29/29
f 27/27/27 29/29/29 30/30/30
f 31/31/31 29/29/29 28/28/28
f 32/32/32 30/30/30 29/29/29
f 29/29/29 31/31/31 32/32/32
f 30/30/30 32/32/32 33/33/33
f 34/34/34 32/32/32 31/31/31
f 35/35/35 33/33/33 32/32/32
f 32/32/32 34/34/34 35/35/35
f 33/33/33 35/35/35 36/36/36
f 37/37/37 35/35/35 34/34/34
f 38/38/38 36/36/36 35/35/35
f 35/35/35 37/37/37 38/38/38
f 39/39/39 38/38/38 37/37/37
f 42/42/42 41/41/41 40/40/40
f 41/41/41 43/43/43 40/40/40
f 40/40/40 43/43/43 44/44/44
f 45/45/45 43/43/43 41/41/41
f 46/46/46 45/45/45 41/41/41
f 47/47/47 46/46/46 41/41/41
f 48/48/48 45/45/45 46/46/46
f 49/49/49 43/43/43 45/45/45
f 50/50/50 49/49/49 45/45/45
f 51/51/51 43/43/43 49/49/49
f 54/54/54 53/53/53 52/52/52
f 53/53/53 55/55/55 52/52/52
f 52/52/52 55/55/55 56/56/56
f 57/57/57 55/55/55 53/53/53
f 58/58/58 57/57/57 53/53/53
f 59/59/59 58/58/58 53/53/53
f 60/60/60 57/57/57 58/58/58
f 61/61/61 55/55/55 57/57/57
f 62/62/62 61/61/61 57/57/57
f 63/63/63 55/55/55 61/61/61
