g WoodLarge
v -0.0157485 -0.1522311 0.4329539
v -0.08149237 -0.2921615 0.4249125
v -0.02415029 -0.1692476 0.4519922
v -0.08149237 -0.2921615 0.4249125
v -0.0157485 -0.1522311 0.4329539
v -0.07731307 -0.3135448 0.344207
v -0.0157485 -0.1522311 0.4329539
v -0.02415029 -0.1692476 0.4519922
v 0.002781874 -0.1022413 0.4628942
v 0.3213899 0.05455338 0.4028708
v 0.1709391 0.04912096 0.4415139
v 0.3131327 0.09159409 0.2955634
v 0.3131327 0.09159409 0.2955634
v 0.1709391 0.04912096 0.4415139
v 0.3070038 0.1136962 0.3978105
v 0.01848489 -0.3403902 0.3366731
v -0.04835313 -0.3061308 0.4258105
v 0.03143402 -0.3277813 0.429107
v -0.07731307 -0.3135448 0.344207
v -0.09420085 -0.3320824 -0.009773405
v 0.003894447 -0.3574941 -0.009713043
v 0.1086192 -0.3521093 -0.01109162
v -0.1656977 -0.2616085 0.3447399
v -0.1689914 -0.3161153 0.001791653
v -0.08149237 -0.2921615 0.4249125
v -0.1544065 -0.2512602 0.4268975
v -0.2353529 -0.2392194 0.005698172
v -0.225929 -0.1855046 0.4368448
v -0.29296 -0.09393753 0.003662596
v -0.2604055 -0.08043037 0.442575
v -0.3310501 -0.01612326 0.004429759
v -0.2846923 -0.006425961 0.4488193
v -0.3186319 0.08794978 0.005797564
v -0.2726419 0.08738157 0.4497105
v -0.2750995 0.1939761 0.01224159
v -0.23177 0.2129132 0.4458957
v -0.1789639 0.2979059 0.01756136
v -0.1671794 0.2875957 0.4497869
v -0.1268969 0.333155 0.007086326
v -0.09329603 0.3218469 0.4392661
v -0.00911594 0.3758496 -0.0006073337
v 0.02754009 0.3464496 0.4261456
v 0.1295695 0.3549022 -0.002328201
v 0.1258586 0.327727 0.4123425
v 0.2408157 0.2983137 -7.407591E-05
v 0.2079982 0.2776728 0.4002412
v 0.3227785 0.2160226 0.005159064
v 0.2722056 0.1960948 0.3927288
v 0.3834595 0.104762 0.001287204
v 0.3131327 0.09159409 0.2955634
v 0.3070038 0.1136962 0.3978105
v 0.3945256 0.0312934 0.001550619
v 0.3309922 -0.02469207 0.4070541
v 0.3213899 0.05455338 0.4028708
v 0.366222 -0.11249 -0.004286021
v 0.3117346 -0.1468673 0.4124017
v 0.2904562 -0.2464326 -0.007973443
v 0.2643403 -0.2433332 0.4097562
v 0.2251046 -0.3142876 -0.01070611
v 0.1978123 -0.2986836 0.4094566
v 0.1086192 -0.3521093 -0.01109162
v 0.1195532 -0.326021 0.4186741
v 0.01848489 -0.3403902 0.3366731
v 0.03143402 -0.3277813 0.429107
v -0.01374303 -0.17401 0.4521979
v -0.0157485 -0.1522311 0.4329539
v 0.002781874 -0.1022413 0.4628942
v -0.07731307 -0.3135448 0.344207
v -0.04835313 -0.3061308 0.4258105
v 0.3309922 -0.02469207 0.4070541
v 0.1709391 0.04912096 0.4415139
v 0.3213899 0.05455338 0.4028708
v 0.1754134 -0.01434291 0.4441547
v 0.3117346 -0.1468673 0.4124017
v 0.1659058 -0.07680069 0.4465846
v 0.2643403 -0.2433332 0.4097562
v 0.03009993 -0.004136934 0.4663906
v 0.1442329 -0.129584 0.4485906
v 0.1524213 0.1052912 0.4409437
v 0.1125612 -0.166665 0.4505595
v 0.1978123 -0.2986836 0.4094566
v 0.3070038 0.1136962 0.3978105
v 0.1195532 -0.326021 0.4186741
v 0.2722056 0.1960948 0.3927288
v 0.07321418 -0.1858843 0.4529161
v 0.03143402 -0.3277813 0.429107
v 0.1213822 0.1484363 0.4432441
v 0.2079982 0.2776728 0.4002412
v 0.02878646 -0.1869748 0.4531645
v -0.04835313 -0.3061308 0.4258105
v -0.01374303 -0.17401 0.4521979
v 0.002781874 -0.1022413 0.4628942
v 0.0806087 0.1764514 0.4463903
v 0.1258586 0.327727 0.4123425
v -0.06241639 -0.1449256 0.4532752
v 0.03142375 0.1874428 0.4525043
v -0.01811096 0.1809532 0.4599901
v 0.02754009 0.3464496 0.4261456
v -0.02415027 -0.1692475 0.4519922
v -0.08149237 -0.2921615 0.4249125
v -0.1544065 -0.2512602 0.4268975
v -0.09329603 0.3218469 0.4392661
v -0.225929 -0.1855046 0.4368448
v -0.06276617 0.1568532 0.4654799
v -0.1671794 0.2875957 0.4497869
v -0.09729575 -0.1048437 0.4575376
v -0.2604055 -0.08043037 0.442575
v -0.09864688 0.11523 0.4694026
v -0.23177 0.2129132 0.4458957
v -0.120564 -0.05521798 0.4631015
v -0.2846923 -0.006425961 0.4488193
v -0.1216144 0.06106928 0.4702563
v -0.2726419 0.08738157 0.4497105
v -0.1292007 0.001598462 0.4677824
v 0.3834595 0.104762 0.001287204
v 0.007082849 0.009258075 -0.0006910622
v 0.3945256 0.0312934 0.001550619
v 0.3227785 0.2160226 0.005159064
v 0.366222 -0.11249 -0.004286021
v 0.2408157 0.2983137 -7.407591E-05
v 0.2904562 -0.2464326 -0.007973443
v 0.1295695 0.3549022 -0.002328201
v 0.2251046 -0.3142876 -0.01070611
v -0.00911594 0.3758496 -0.0006073337
v 0.1086192 -0.3521093 -0.01109162
v -0.1268969 0.333155 0.007086326
v 0.003894447 -0.3574941 -0.009713043
v -0.1789639 0.2979059 0.01756136
v -0.09420085 -0.3320824 -0.009773405
v -0.2750995 0.1939761 0.01224159
v -0.1689914 -0.3161153 0.001791653
v -0.3186319 0.08794978 0.005797564
v -0.2353529 -0.2392194 0.005698172
v -0.3310501 -0.01612326 0.004429759
v -0.29296 -0.09393753 0.003662596
vt 0.5440317 0.8022004
vt 0.4947406 0.7633254
vt 0.5374264 0.7979919
vt 0.4947406 0.7633254
vt 0.5440317 0.8022004
vt 0.4941962 0.7530223
vt 0.5440317 0.8022004
vt 0.5374264 0.7979919
vt 0.5592207 0.8175945
vt 0.7046442 0.8149083
vt 0.6483346 0.8412628
vt 0.7109481 0.8274521
vt 0.7109481 0.8274521
vt 0.6483346 0.8412628
vt 0.71042 0.8388499
vt 0.1665269 0.5299793
vt 0.20114 0.5008723
vt 0.1698755 0.4935905
vt 0.2050043 0.5343914
vt 0.183438 0.6703511
vt 0.1447729 0.6629093
vt 0.1048277 0.6550568
vt 0.244094 0.5407964
vt 0.2129498 0.6718311
vt 0.2158327 0.5037974
vt 0.2479545 0.5086501
vt 0.2523608 0.6750984
vt 0.2859252 0.5098465
vt 0.3127081 0.6815672
vt 0.3290932 0.5115055
vt 0.3461805 0.6847045
vt 0.3596179 0.5118205
vt 0.3869053 0.6859851
vt 0.3965907 0.5130875
vt 0.4314677 0.6843392
vt 0.4480461 0.5158904
vt 0.4856284 0.6822344
vt 0.4875175 0.5144375
vt 0.5082595 0.6865578
vt 0.5210249 0.518818
vt 0.5550526 0.6905667
vt 0.5706633 0.524738
vt 0.6078829 0.6916871
vt 0.6114151 0.5304869
vt 0.6547552 0.6913744
vt 0.6505805 0.5353969
vt 0.6972212 0.6897066
vt 0.6936837 0.5379623
vt 0.7435092 0.6923295
vt 0.7400177 0.5751375
vt 0.7303252 0.5361598
vt 0.7715622 0.6917319
vt 0.7863279 0.5316736
vt 0.7555663 0.5340239
vt 0.8285393 0.6899515
vt 0.8342075 0.5264479
vt 0.8881591 0.6854076
vt 0.8759236 0.5234663
vt 0.924607 0.6823571
vt 0.9093296 0.5195881
vt 0.9716848 0.6757039
vt 0.9407323 0.5114795
vt 0.9847786 0.5368546
vt 0.9738255 0.5020422
vt 0.5403112 0.7943711
vt 0.5440317 0.8022004
vt 0.5592207 0.8175945
vt 0.4941962 0.7530223
vt 0.5041403 0.7522347
vt 0.6934664 0.7845372
vt 0.6483346 0.8412628
vt 0.7046442 0.8149083
vt 0.6382363 0.8175111
vt 0.6639391 0.7439064
vt 0.6232706 0.7966717
vt 0.6291423 0.717549
vt 0.5870374 0.8482292
vt 0.6056914 0.781549
vt 0.6519662 0.8649814
vt 0.5873805 0.7739395
vt 0.5949216 0.709633
vt 0.71042 0.8388499
vt 0.5613821 0.7142191
vt 0.7130848 0.8749428
vt 0.5695648 0.7742113
vt 0.5289455 0.7298989
vt 0.6486104 0.8863301
vt 0.7046698 0.9163868
vt 0.5532899 0.7819318
vt 0.5041403 0.7522347
vt 0.5403112 0.7943711
vt 0.5592207 0.8175945
vt 0.6389353 0.9039932
vt 0.6838733 0.949785
vt 0.5280231 0.8138176
vt 0.6230227 0.9170899
vt 0.6037413 0.9239472
vt 0.6514314 0.9748225
vt 0.5374264 0.7979919
vt 0.4947406 0.7633254
vt 0.4758343 0.7914985
vt 0.6029041 0.9882585
vt 0.4618114 0.8285992
vt 0.5830369 0.9234892
vt 0.5696474 0.9895698
vt 0.5226703 0.8348014
vt 0.4685064 0.8730892
vt 0.562324 0.9150459
vt 0.5326602 0.9742161
vt 0.5232394 0.8571522
vt 0.4731685 0.9044737
vt 0.5440503 0.8996346
vt 0.4947346 0.936281
vt 0.5304418 0.8794178
vt 0.2372273 0.7183211
vt 0.3068497 0.8520457
vt 0.2640101 0.7076085
vt 0.2005604 0.7511836
vt 0.3209021 0.7054632
vt 0.1767774 0.789426
vt 0.3782919 0.7221497
vt 0.1653042 0.8364776
vt 0.4097706 0.7407867
vt 0.169729 0.8907672
vt 0.4344407 0.7814407
vt 0.1963218 0.9315546
vt 0.4457957 0.8205514
vt 0.2142367 0.9481965
vt 0.4449262 0.8598818
vt 0.2621032 0.9752344
vt 0.4455015 0.8896759
vt 0.3060827 0.9821959
vt 0.4223294 0.9216297
vt 0.3465315 0.9776212
vt 0.3725549 0.9562997
vn 0.9045219 -0.4260306 0.01838732
vn 0.9045219 -0.4260306 0.01838732
vn 0.9045219 -0.4260306 0.01838732
vn 0.8899696 -0.4272913 0.1592994
vn 0.8899696 -0.4272913 0.1592994
vn 0.8899696 -0.4272913 0.1592994
vn 0.9220645 -0.3813576 0.06605753
vn 0.9220645 -0.3813576 0.06605754
vn 0.9220645 -0.3813576 0.06605753
vn 0.04871457 0.9452973 0.3225521
vn 0.04871457 0.9452973 0.3225522
vn 0.04871457 0.9452973 0.3225522
vn 0.4739313 -0.8543882 0.2130959
vn 0.4739313 -0.8543883 0.2130959
vn 0.4739313 -0.8543882 0.2130959
vn -0.09852329 -0.9903367 0.09760367
vn -0.2585168 -0.9506551 0.1715346
vn -0.1080016 -0.9828903 0.1492056
vn -0.3857047 -0.9141946 0.1244188
vn -0.2503282 -0.9630916 0.09894585
vn -0.1033406 -0.9932117 0.05339591
vn 0.1845068 -0.9814494 0.05209774
vn -0.6007103 -0.7888566 0.1298171
vn -0.4623592 -0.8750023 0.1435101
vn -0.4881064 -0.8523304 0.1878428
vn -0.5694854 -0.8022062 0.1793085
vn -0.8428374 -0.5304918 0.09057406
vn -0.8514804 -0.5130658 0.1083723
vn -0.9138221 -0.3992886 0.07414741
vn -0.941588 -0.3240657 0.09161508
vn -0.9819424 -0.1634524 0.09524896
vn -0.9901496 -0.09115136 0.1062793
vn -0.9650127 0.2426382 0.09938421
vn -0.9698085 0.2252887 0.093362
vn -0.8540953 0.5151016 0.07205255
vn -0.8617254 0.5038936 0.05933386
vn -0.6480673 0.7605838 0.03900242
vn -0.6094769 0.7914772 0.04584537
vn -0.4368547 0.8984171 0.04477312
vn -0.3203344 0.9449408 0.06687749
vn -0.08941577 0.9943311 0.05753567
vn -0.006706848 0.9971415 0.075257
vn 0.3063748 0.9500021 0.06025353
vn 0.3476823 0.9346538 0.07442759
vn 0.5895967 0.8036342 0.08091799
vn 0.6483767 0.7538434 0.1064328
vn 0.8028642 0.583828 0.1206391
vn 0.872085 0.4753128 0.1163857
vn 0.9388399 0.280427 0.1998509
vn 0.9555062 0.241593 0.1692354
vn 0.9214735 0.387394 -0.02850535
vn 0.9829522 0.00792062 0.1836902
vn 0.9946589 0.01113558 0.1026142
vn 0.9923348 0.1183695 -0.03549986
vn 0.9363782 -0.3361512 0.1009864
vn 0.9441745 -0.3174523 0.08808199
vn 0.8022047 -0.5939361 0.0608897
vn 0.7868798 -0.6137164 0.06459341
vn 0.5253249 -0.8490884 0.05552289
vn 0.4830784 -0.8735042 0.06021252
vn 0.1845068 -0.9814494 0.05209774
vn 0.1953514 -0.9780451 0.07256314
vn -0.09852329 -0.9903367 0.09760367
vn -0.1080016 -0.9828903 0.1492056
vn -0.9402254 0.172748 0.2934867
vn -0.9402254 0.172748 0.2934867
vn -0.9402254 0.172748 0.2934867
vn -0.9318646 0.1813511 0.3142294
vn -0.9318646 0.1813511 0.3142294
vn 0.2375133 0.03945234 0.9705828
vn 0.2026163 0.06834439 0.9768703
vn 0.2452269 0.08071398 0.9660999
vn 0.1961521 0.0320182 0.9800506
vn 0.2010882 -0.05954842 0.9777615
vn 0.1876136 -0.02117515 0.9820145
vn 0.1667013 -0.1437512 0.9754723
vn 0.07829681 -0.00365263 0.9969234
vn 0.1810211 -0.07330563 0.9807433
vn 0.2155559 0.09822997 0.9715382
vn 0.1539167 -0.1155771 0.981301
vn 0.1693104 -0.1794008 0.9690972
vn 0.2580663 0.1508914 0.9542712
vn 0.1496077 -0.1914622 0.9700308
vn 0.2672957 0.1492345 0.9519885
vn 0.07406316 -0.1311509 0.9885921
vn 0.01539912 -0.1830646 0.9829803
vn 0.1959022 0.1193719 0.9733307
vn 0.2496509 0.1437111 0.9576124
vn -0.02287795 -0.1365552 0.9903682
vn -0.08442805 -0.1707063 0.9816982
vn -0.06930821 -0.1538651 0.9856581
vn -0.01418365 -0.05340617 0.9984722
vn 0.1635013 0.128532 0.9781343
vn 0.1977753 0.1572488 0.9675524
vn -0.05486019 -0.1414442 0.988425
vn 0.1424332 0.1244472 0.98195
vn 0.09181395 0.122235 0.9882454
vn 0.1249114 0.1717868 0.9771829
vn -0.06913617 -0.1607072 0.9845778
vn -0.07526779 -0.1792086 0.9809276
vn -0.06057976 -0.190642 0.9797886
vn 0.06251366 0.1733927 0.9828668
vn -0.07782046 -0.1394549 0.9871657
vn 0.04166481 0.09803557 0.9943104
vn -0.02335892 0.119042 0.9926144
vn -0.04130628 -0.1252364 0.9912667
vn -0.1150568 -0.1150577 0.986673
vn -0.02905669 0.05509798 0.998058
vn -0.1268306 0.06488158 0.9898002
vn -0.05875314 -0.1171556 0.9913741
vn -0.1212047 -0.05383869 0.9911664
vn -0.062941 0.006076553 0.9979988
vn -0.1241403 0.03342213 0.9917017
vn -0.06485637 -0.05804194 0.9962052
vn 0.001646967 0.01422123 -0.9998975
vn -0.01608112 0.01720782 -0.9997225
vn 0.004796006 0.01738747 -0.9998373
vn 0.01578205 0.004193287 -0.9998667
vn 0.001512544 0.03397254 -0.9994216
vn 0.02614088 -0.01900437 -0.9994777
vn 0.002763581 0.03152973 -0.999499
vn 0.001630502 -0.005314217 -0.9999846
vn 0.0002217795 0.03108853 -0.9995166
vn -0.03729408 -0.001419697 -0.9993033
vn -0.009696636 0.02604545 -0.9996138
vn -0.1132704 -0.02300327 -0.9932979
vn -0.004427457 0.02463045 -0.9996868
vn -0.09525064 0.00155323 -0.9954521
vn -0.06839402 0.04681044 -0.9965596
vn -0.00622308 0.06037727 -0.9981562
vn -0.09166028 0.04201003 -0.9949038
vn -0.01058272 0.03858706 -0.9991992
vn -0.02803269 0.001647683 -0.9996057
vn -0.01583119 0.009183253 -0.9998325
vn -0.01210319 -0.006994064 -0.9999024
g WoodLarge_0
f 3/3/3 2/2/2 1/1/1
f 6/6/6 5/5/5 4/4/4
f 9/9/9 8/8/8 7/7/7
f 12/12/12 11/11/11 10/10/10
f 15/15/15 14/14/14 13/13/13
f 18/18/18 17/17/17 16/16/16
f 19/19/19 16/16/16 17/17/17
f 19/19/19 20/20/20 16/16/16
f 21/21/21 16/16/16 20/20/20
f 21/21/21 22/22/22 16/16/16
f 19/19/19 23/23/23 20/20/20
f 24/24/24 20/20/20 23/23/23
f 19/19/19 25/25/25 23/23/23
f 26/26/26 23/23/23 25/25/25
f 24/24/24 23/23/23 27/27/27
f 26/26/26 28/28/28 23/23/23
f 27/27/27 23/23/23 28/28/28
f 27/27/27 28/28/28 29/29/29
f 30/30/30 29/29/29 28/28/28
f 29/29/29 30/30/30 31/31/31
f 32/32/32 31/31/31 30/30/30
f 31/31/31 32/32/32 33/33/33
f 34/34/34 33/33/33 32/32/32
f 33/33/33 34/34/34 35/35/35
f 36/36/36 35/35/35 34/34/34
f 35/35/35 36/36/36 37/37/37
f 38/38/38 37/37/37 36/36/36
f 37/37/37 38/38/38 39/39/39
f 40/40/40 39/39/39 38/38/38
f 39/39/39 40/40/40 41/41/41
f 42/42/42 41/41/41 40/40/40
f 41/41/41 42/42/42 43/43/43
f 44/44/44 43/43/43 42/42/42
f 43/43/43 44/44/44 45/45/45
f 46/46/46 45/45/45 44/44/44
f 45/45/45 46/46/46 47/47/47
f 48/48/48 47/47/47 46/46/46
f 47/47/47 48/48/48 49/49/49
f 49/49/49 48/48/48 50/50/50
f 48/48/48 51/51/51 50/50/50
f 49/49/49 50/50/50 52/52/52
f 52/52/52 50/50/50 53/53/53
f 53/53/53 50/50/50 54/54/54
f 52/52/52 53/53/53 55/55/55
f 56/56/56 55/55/55 53/53/53
f 55/55/55 56/56/56 57/57/57
f 58/58/58 57/57/57 56/56/56
f 57/57/57 58/58/58 59/59/59
f 60/60/60 59/59/59 58/58/58
f 59/59/59 60/60/60 61/61/61
f 62/62/62 61/61/61 60/60/60
f 61/61/61 62/62/62 63/63/63
f 64/64/64 63/63/63 62/62/62
f 67/67/67 66/66/66 65/65/65
f 66/66/66 68/68/68 65/65/65
f 69/69/69 65/65/65 68/68/68
f 72/72/72 71/71/71 70/70/70
f 73/73/73 70/70/70 71/71/71
f 70/70/70 73/73/73 74/74/74
f 75/75/75 74/74/74 73/73/73
f 74/74/74 75/75/75 76/76/76
f 71/71/71 77/77/77 73/73/73
f 73/73/73 77/77/77 75/75/75
f 78/78/78 76/76/76 75/75/75
f 75/75/75 77/77/77 78/78/78
f 79/79/79 77/77/77 71/71/71
f 78/78/78 77/77/77 80/80/80
f 76/76/76 78/78/78 81/81/81
f 80/80/80 81/81/81 78/78/78
f 71/71/71 82/82/82 79/79/79
f 81/81/81 80/80/80 83/83/83
f 84/84/84 79/79/79 82/82/82
f 85/85/85 83/83/83 80/80/80
f 80/80/80 77/77/77 85/85/85
f 83/83/83 85/85/85 86/86/86
f 79/79/79 84/84/84 87/87/87
f 87/87/87 77/77/77 79/79/79
f 88/88/88 87/87/87 84/84/84
f 89/89/89 86/86/86 85/85/85
f 85/85/85 77/77/77 89/89/89
f 86/86/86 89/89/89 90/90/90
f 91/91/91 90/90/90 89/89/89
f 91/91/91 89/89/89 92/92/92
f 77/77/77 92/92/92 89/89/89
f 87/87/87 88/88/88 93/93/93
f 93/93/93 77/77/77 87/87/87
f 94/94/94 93/93/93 88/88/88
f 92/92/92 77/77/77 95/95/95
f 96/96/96 77/77/77 93/93/93
f 93/93/93 94/94/94 96/96/96
f 97/97/97 77/77/77 96/96/96
f 98/98/98 96/96/96 94/94/94
f 96/96/96 98/98/98 97/97/97
f 99/99/99 92/92/92 95/95/95
f 99/99/99 95/95/95 100/100/100
f 101/101/101 100/100/100 95/95/95
f 102/102/102 97/97/97 98/98/98
f 101/101/101 95/95/95 103/103/103
f 97/97/97 102/102/102 104/104/104
f 104/104/104 77/77/77 97/97/97
f 105/105/105 104/104/104 102/102/102
f 106/106/106 103/103/103 95/95/95
f 95/95/95 77/77/77 106/106/106
f 103/103/103 106/106/106 107/107/107
f 104/104/104 105/105/105 108/108/108
f 108/108/108 77/77/77 104/104/104
f 109/109/109 108/108/108 105/105/105
f 110/110/110 107/107/107 106/106/106
f 106/106/106 77/77/77 110/110/110
f 107/107/107 110/110/110 111/111/111
f 108/108/108 109/109/109 112/112/112
f 112/112/112 77/77/77 108/108/108
f 113/113/113 112/112/112 109/109/109
f 111/111/111 114/114/114 113/113/113
f 114/114/114 111/111/111 110/110/110
f 110/110/110 77/77/77 114/114/114
f 112/112/112 113/113/113 114/114/114
f 114/114/114 77/77/77 112/112/112
f 117/117/117 116/116/116 115/115/115
f 115/115/115 116/116/116 118/118/118
f 119/119/119 116/116/116 117/117/117
f 118/118/118 116/116/116 120/120/120
f 121/121/121 116/116/116 119/119/119
f 120/120/120 116/116/116 122/122/122
f 123/123/123 116/116/116 121/121/121
f 122/122/122 116/116/116 124/124/124
f 125/125/125 116/116/116 123/123/123
f 124/124/124 116/116/116 126/126/126
f 127/127/127 116/116/116 125/125/125
f 126/126/126 116/116/116 128/128/128
f 129/129/129 116/116/116 127/127/127
f 128/128/128 116/116/116 130/130/130
f 131/131/131 116/116/116 129/129/129
f 130/130/130 116/116/116 132/132/132
f 133/133/133 116/116/116 131/131/131
f 132/132/132 116/116/116 134/134/134
f 135/135/135 116/116/116 133/133/133
f 134/134/134 116/116/116 135/135/135
